G04 #@! TF.GenerationSoftware,KiCad,Pcbnew,7.0.1*
G04 #@! TF.CreationDate,2024-08-11T16:24:43+02:00*
G04 #@! TF.ProjectId,uTesla,75546573-6c61-42e6-9b69-6361645f7063,rev?*
G04 #@! TF.SameCoordinates,Original*
G04 #@! TF.FileFunction,Copper,L2,Bot*
G04 #@! TF.FilePolarity,Positive*
%FSLAX46Y46*%
G04 Gerber Fmt 4.6, Leading zero omitted, Abs format (unit mm)*
G04 Created by KiCad (PCBNEW 7.0.1) date 2024-08-11 16:24:43*
%MOMM*%
%LPD*%
G01*
G04 APERTURE LIST*
G04 #@! TA.AperFunction,ComponentPad*
%ADD10R,1.995000X1.995000*%
G04 #@! TD*
G04 #@! TA.AperFunction,ComponentPad*
%ADD11C,1.995000*%
G04 #@! TD*
G04 #@! TA.AperFunction,ComponentPad*
%ADD12C,2.000000*%
G04 #@! TD*
G04 #@! TA.AperFunction,ComponentPad*
%ADD13R,2.200000X2.200000*%
G04 #@! TD*
G04 #@! TA.AperFunction,ComponentPad*
%ADD14O,2.200000X2.200000*%
G04 #@! TD*
G04 #@! TA.AperFunction,ComponentPad*
%ADD15C,1.080000*%
G04 #@! TD*
G04 #@! TA.AperFunction,ComponentPad*
%ADD16R,1.600000X1.600000*%
G04 #@! TD*
G04 #@! TA.AperFunction,ComponentPad*
%ADD17C,1.600000*%
G04 #@! TD*
G04 #@! TA.AperFunction,ComponentPad*
%ADD18O,2.350000X4.700000*%
G04 #@! TD*
G04 #@! TA.AperFunction,ComponentPad*
%ADD19O,4.000000X2.000000*%
G04 #@! TD*
G04 #@! TA.AperFunction,ComponentPad*
%ADD20R,1.560000X1.560000*%
G04 #@! TD*
G04 #@! TA.AperFunction,ComponentPad*
%ADD21C,1.560000*%
G04 #@! TD*
G04 #@! TA.AperFunction,ComponentPad*
%ADD22R,1.700000X1.700000*%
G04 #@! TD*
G04 #@! TA.AperFunction,ComponentPad*
%ADD23O,1.700000X1.700000*%
G04 #@! TD*
G04 #@! TA.AperFunction,ComponentPad*
%ADD24C,3.600000*%
G04 #@! TD*
G04 #@! TA.AperFunction,SMDPad,CuDef*
%ADD25O,3.810000X1.905000*%
G04 #@! TD*
G04 #@! TA.AperFunction,ViaPad*
%ADD26C,1.250000*%
G04 #@! TD*
G04 #@! TA.AperFunction,ViaPad*
%ADD27C,0.800000*%
G04 #@! TD*
G04 #@! TA.AperFunction,Conductor*
%ADD28C,1.016000*%
G04 #@! TD*
G04 #@! TA.AperFunction,Conductor*
%ADD29C,0.508000*%
G04 #@! TD*
G04 APERTURE END LIST*
D10*
X137018000Y-80180500D03*
D11*
X137018000Y-77640500D03*
X137018000Y-75100500D03*
D12*
X144692000Y-103680000D03*
X133692000Y-103680000D03*
X144692000Y-109680000D03*
X133692000Y-109680000D03*
D10*
X159512000Y-93218000D03*
D11*
X159512000Y-90678000D03*
X159512000Y-88138000D03*
D13*
X120650000Y-122682000D03*
D14*
X110490000Y-122682000D03*
D15*
X107188000Y-101700000D03*
X107188000Y-106580000D03*
D13*
X120650000Y-117348000D03*
D14*
X110490000Y-117348000D03*
D16*
X145263349Y-86360000D03*
D17*
X149063349Y-86360000D03*
D13*
X134112000Y-88392000D03*
D14*
X134112000Y-98552000D03*
D13*
X139954000Y-88392000D03*
D14*
X139954000Y-98552000D03*
D16*
X148819349Y-46228000D03*
D17*
X152619349Y-46228000D03*
D18*
X134900000Y-49982000D03*
D19*
X139700000Y-46482000D03*
X139700000Y-52482000D03*
D20*
X143302000Y-122642000D03*
D21*
X148302000Y-120142000D03*
X143302000Y-117642000D03*
D22*
X128524000Y-81280000D03*
D23*
X128524000Y-83820000D03*
X128524000Y-86360000D03*
X128524000Y-88900000D03*
X128524000Y-91440000D03*
X128524000Y-93980000D03*
X128524000Y-96520000D03*
X128524000Y-99060000D03*
X128524000Y-101600000D03*
X128524000Y-104140000D03*
X128524000Y-106680000D03*
X128524000Y-109220000D03*
D16*
X159741349Y-51308000D03*
D17*
X163541349Y-51308000D03*
D10*
X159512000Y-73406000D03*
D11*
X159512000Y-70866000D03*
X159512000Y-68326000D03*
D12*
X114860000Y-104684000D03*
X121360000Y-104684000D03*
X114860000Y-109184000D03*
X121360000Y-109184000D03*
D22*
X112522000Y-86360000D03*
D23*
X115062000Y-86360000D03*
X117602000Y-86360000D03*
X120142000Y-86360000D03*
X122682000Y-86360000D03*
D16*
X145263349Y-61214000D03*
D17*
X149063349Y-61214000D03*
D24*
X124460000Y-68072000D03*
X114300000Y-68072000D03*
D13*
X124460000Y-122682000D03*
D14*
X134620000Y-122682000D03*
D13*
X124460000Y-117348000D03*
D14*
X134620000Y-117348000D03*
D16*
X145298000Y-73914000D03*
D17*
X149098000Y-73914000D03*
D25*
X163576000Y-128016000D03*
X185166000Y-90678000D03*
X95758000Y-100330000D03*
X110490000Y-54864000D03*
X173736000Y-58166000D03*
X115062000Y-127000000D03*
D26*
X145288000Y-56134000D03*
X171196000Y-74930000D03*
X144526000Y-46228000D03*
X168910000Y-67056000D03*
D27*
X136652000Y-92456000D03*
X130810000Y-114808000D03*
X141478000Y-56896000D03*
X104902000Y-60960000D03*
X127508000Y-72136000D03*
X120650000Y-92710000D03*
X99314000Y-94234000D03*
X120142000Y-113284000D03*
X127508000Y-111252000D03*
X115062000Y-75692000D03*
X113792000Y-88392000D03*
X133096000Y-106680000D03*
X155448000Y-72644000D03*
X137414000Y-98552000D03*
X134874000Y-83312000D03*
X114300000Y-84201000D03*
X172212000Y-120142000D03*
X122682000Y-97282000D03*
X139700000Y-121666000D03*
X119126000Y-68834000D03*
X146304000Y-41910000D03*
X136652000Y-44704000D03*
X155448000Y-93218000D03*
X164592000Y-119126000D03*
X134112000Y-77470000D03*
X105410000Y-113030000D03*
X164592000Y-67056000D03*
X141732000Y-82550000D03*
X176530000Y-65532000D03*
X98806000Y-86614000D03*
X171958000Y-112268000D03*
X102870000Y-83566000D03*
X154686000Y-53340000D03*
X179832000Y-85852000D03*
X103759000Y-86995000D03*
X167132000Y-56896000D03*
X128778000Y-125984000D03*
X117602000Y-58674000D03*
X126238000Y-52578000D03*
X163322000Y-78994000D03*
X157734000Y-114554000D03*
X124968000Y-97790000D03*
X158496000Y-81534000D03*
X138176000Y-110236000D03*
X160782000Y-100838000D03*
X102108000Y-78232000D03*
X176530000Y-90932000D03*
X115316000Y-122682000D03*
X181356000Y-98806000D03*
X123190000Y-64262000D03*
X150622000Y-90678000D03*
X168402000Y-96266000D03*
X121793000Y-81153000D03*
X125222000Y-88138000D03*
X114554000Y-50038000D03*
X154432000Y-129032000D03*
X107442000Y-90932000D03*
X119380000Y-95758000D03*
X108966000Y-81280000D03*
X108331000Y-92837000D03*
X118364000Y-108204000D03*
X153670000Y-64008000D03*
X143256000Y-67818000D03*
X113538000Y-113030000D03*
X142494000Y-49530000D03*
X146050000Y-99314000D03*
X111760000Y-64008000D03*
X130556000Y-61722000D03*
X123190000Y-77978000D03*
X92964000Y-87376000D03*
X127000000Y-61468000D03*
D26*
X132334000Y-83058000D03*
X129032000Y-75438000D03*
X133858000Y-113792000D03*
D27*
X124968000Y-61468000D03*
X108966000Y-94742000D03*
X124460000Y-82550000D03*
X102616000Y-88392000D03*
X121920000Y-101092000D03*
X100330000Y-83058000D03*
X124206000Y-100838000D03*
X119380000Y-94488000D03*
D26*
X145542000Y-106680000D03*
D27*
X116078000Y-90678000D03*
X125984000Y-90424000D03*
X122428000Y-88646000D03*
X120904000Y-88646000D03*
X119380000Y-88646000D03*
X117856000Y-88646000D03*
X114300000Y-98933000D03*
X123190000Y-102362000D03*
X116840000Y-102108000D03*
X117602000Y-103124000D03*
X113030000Y-101854000D03*
X123190000Y-103632000D03*
X121412000Y-107188000D03*
X123444000Y-106426000D03*
X113792000Y-90424000D03*
X112268000Y-89154000D03*
X110998000Y-90424000D03*
X116840000Y-96266000D03*
X107188000Y-87884000D03*
X120650000Y-100838000D03*
X110998000Y-91694000D03*
X116840000Y-97536000D03*
X116840000Y-98806000D03*
X110998000Y-92964000D03*
D28*
X145288000Y-46990000D02*
X144526000Y-46228000D01*
X168910000Y-72644000D02*
X171196000Y-74930000D01*
X168910000Y-67056000D02*
X168910000Y-72644000D01*
X145288000Y-56134000D02*
X145288000Y-46990000D01*
D29*
X118110000Y-94488000D02*
X114808000Y-91186000D01*
X121158000Y-103124000D02*
X120142000Y-103124000D01*
X114808000Y-91186000D02*
X114808000Y-89408000D01*
X108331000Y-91821000D02*
X108331000Y-92837000D01*
X107442000Y-90932000D02*
X108331000Y-91821000D01*
X122936000Y-100584000D02*
X122936000Y-101346000D01*
X122682000Y-100330000D02*
X122936000Y-100584000D01*
X118110000Y-94488000D02*
X118110000Y-93726000D01*
X106680000Y-86868000D02*
X105664000Y-87884000D01*
X113538000Y-88138000D02*
X111506000Y-88138000D01*
X119126000Y-92710000D02*
X120650000Y-92710000D01*
X111506000Y-88138000D02*
X110236000Y-86868000D01*
X103759000Y-86995000D02*
X104775000Y-86995000D01*
X105664000Y-89154000D02*
X107442000Y-90932000D01*
X118110000Y-93726000D02*
X119126000Y-92710000D01*
X119380000Y-95758000D02*
X118110000Y-94488000D01*
X120142000Y-103124000D02*
X118364000Y-104902000D01*
X122682000Y-97282000D02*
X122682000Y-100330000D01*
X104775000Y-86995000D02*
X105664000Y-87884000D01*
X122936000Y-101346000D02*
X121158000Y-103124000D01*
X105664000Y-87884000D02*
X105664000Y-89154000D01*
X113792000Y-88392000D02*
X113538000Y-88138000D01*
X118364000Y-104902000D02*
X118364000Y-108204000D01*
X110236000Y-86868000D02*
X106680000Y-86868000D01*
X114808000Y-89408000D02*
X113792000Y-88392000D01*
X139452000Y-113792000D02*
X143302000Y-117642000D01*
X129032000Y-75438000D02*
X132334000Y-78740000D01*
X124968000Y-61468000D02*
X127000000Y-61468000D01*
X133858000Y-113792000D02*
X139452000Y-113792000D01*
X132334000Y-78740000D02*
X132334000Y-83058000D01*
X103378000Y-86106000D02*
X100330000Y-83058000D01*
X128524000Y-81280000D02*
X127254000Y-82550000D01*
X118872000Y-102108000D02*
X111506000Y-94742000D01*
X121920000Y-101092000D02*
X120904000Y-102108000D01*
X102616000Y-88392000D02*
X102616000Y-86868000D01*
X111506000Y-94742000D02*
X108966000Y-94742000D01*
X108966000Y-94742000D02*
X102616000Y-88392000D01*
X120904000Y-102108000D02*
X118872000Y-102108000D01*
X112268000Y-86106000D02*
X112522000Y-86360000D01*
X103378000Y-86106000D02*
X112268000Y-86106000D01*
X102616000Y-86868000D02*
X103378000Y-86106000D01*
X127254000Y-82550000D02*
X124460000Y-82550000D01*
X124206000Y-100838000D02*
X123536000Y-100168000D01*
X123536000Y-96104000D02*
X121920000Y-94488000D01*
X121920000Y-94488000D02*
X119380000Y-94488000D01*
X123536000Y-100168000D02*
X123536000Y-96104000D01*
X133692000Y-103680000D02*
X136692000Y-106680000D01*
X136692000Y-106680000D02*
X145542000Y-106680000D01*
X117568000Y-87664000D02*
X116078000Y-89154000D01*
X118838000Y-87664000D02*
X120142000Y-86360000D01*
X116078000Y-89154000D02*
X116078000Y-90678000D01*
X118838000Y-87664000D02*
X117568000Y-87664000D01*
X125984000Y-90424000D02*
X127508000Y-88900000D01*
X127508000Y-88900000D02*
X128524000Y-88900000D01*
X125222000Y-91440000D02*
X128524000Y-91440000D01*
X122428000Y-88646000D02*
X125222000Y-91440000D01*
X126238000Y-93980000D02*
X128524000Y-93980000D01*
X120904000Y-88646000D02*
X126238000Y-93980000D01*
X127254000Y-96520000D02*
X128524000Y-96520000D01*
X119380000Y-88646000D02*
X127254000Y-96520000D01*
X128270000Y-99060000D02*
X128524000Y-99060000D01*
X117856000Y-88646000D02*
X128270000Y-99060000D01*
X123190000Y-102362000D02*
X127762000Y-102362000D01*
X114300000Y-99568000D02*
X116840000Y-102108000D01*
X114300000Y-98933000D02*
X114300000Y-99568000D01*
X127762000Y-102362000D02*
X128524000Y-101600000D01*
X114300000Y-103124000D02*
X113030000Y-101854000D01*
X128016000Y-103632000D02*
X128524000Y-104140000D01*
X123190000Y-103632000D02*
X128016000Y-103632000D01*
X117602000Y-103124000D02*
X114300000Y-103124000D01*
X127254000Y-105410000D02*
X128524000Y-106680000D01*
X123190000Y-105410000D02*
X127254000Y-105410000D01*
X121412000Y-107188000D02*
X123190000Y-105410000D01*
X123444000Y-106426000D02*
X126238000Y-109220000D01*
X126238000Y-109220000D02*
X128524000Y-109220000D01*
X112522000Y-89154000D02*
X112268000Y-89154000D01*
X113792000Y-90424000D02*
X112522000Y-89154000D01*
X110998000Y-90424000D02*
X116840000Y-96266000D01*
X107188000Y-87884000D02*
X109728000Y-87884000D01*
X119380000Y-97536000D02*
X119380000Y-100203000D01*
X120015000Y-100838000D02*
X120650000Y-100838000D01*
X109728000Y-87884000D02*
X119380000Y-97536000D01*
X119380000Y-100203000D02*
X120015000Y-100838000D01*
X110998000Y-91694000D02*
X116840000Y-97536000D01*
X110998000Y-92964000D02*
X116840000Y-98806000D01*
G04 #@! TA.AperFunction,Conductor*
G36*
X124452818Y-96328955D02*
G01*
X124502181Y-96359205D01*
X127133106Y-98990130D01*
X127157807Y-99025406D01*
X127168953Y-99067003D01*
X127188936Y-99295407D01*
X127233144Y-99460394D01*
X127250097Y-99523663D01*
X127349965Y-99737830D01*
X127485505Y-99931401D01*
X127652599Y-100098495D01*
X127838160Y-100228426D01*
X127877024Y-100272743D01*
X127891035Y-100330000D01*
X127877024Y-100387257D01*
X127838159Y-100431575D01*
X127813245Y-100449020D01*
X127677708Y-100543924D01*
X127652595Y-100561508D01*
X127485505Y-100728598D01*
X127349965Y-100922170D01*
X127250097Y-101136336D01*
X127188936Y-101364592D01*
X127177588Y-101494307D01*
X127157661Y-101551639D01*
X127112910Y-101592645D01*
X127054060Y-101607500D01*
X125003390Y-101607500D01*
X124948255Y-101594568D01*
X124904620Y-101558470D01*
X124881586Y-101506735D01*
X124883958Y-101450153D01*
X124911241Y-101400527D01*
X124938533Y-101370216D01*
X125033179Y-101206284D01*
X125041358Y-101181112D01*
X125091674Y-101026256D01*
X125111460Y-100838000D01*
X125091674Y-100649744D01*
X125057291Y-100543924D01*
X125033179Y-100469715D01*
X124938533Y-100305783D01*
X124811870Y-100165110D01*
X124658732Y-100053849D01*
X124535298Y-99998893D01*
X124485803Y-99976856D01*
X124462704Y-99971946D01*
X124427850Y-99964537D01*
X124394464Y-99952220D01*
X124365952Y-99930928D01*
X124326819Y-99891795D01*
X124299939Y-99851567D01*
X124290500Y-99804114D01*
X124290500Y-96446886D01*
X124304015Y-96390591D01*
X124341615Y-96346568D01*
X124395102Y-96324413D01*
X124452818Y-96328955D01*
G37*
G04 #@! TD.AperFunction*
G04 #@! TA.AperFunction,Conductor*
G36*
X122977108Y-100678006D02*
G01*
X123008938Y-100708036D01*
X123011525Y-100710549D01*
X123295951Y-100994975D01*
X123326201Y-101044338D01*
X123378820Y-101206283D01*
X123420701Y-101278824D01*
X123437068Y-101333038D01*
X123427624Y-101388875D01*
X123394337Y-101434690D01*
X123344151Y-101460927D01*
X123287533Y-101462113D01*
X123284649Y-101461500D01*
X123284646Y-101461500D01*
X123095354Y-101461500D01*
X123095351Y-101461500D01*
X122931004Y-101496432D01*
X122866905Y-101493073D01*
X122813073Y-101458114D01*
X122783934Y-101400922D01*
X122787292Y-101336827D01*
X122805674Y-101280256D01*
X122825460Y-101092000D01*
X122805674Y-100903744D01*
X122774082Y-100806517D01*
X122770845Y-100741855D01*
X122800640Y-100684374D01*
X122855346Y-100649746D01*
X122920048Y-100647411D01*
X122977108Y-100678006D01*
G37*
G04 #@! TD.AperFunction*
G04 #@! TA.AperFunction,Conductor*
G36*
X106753716Y-86878435D02*
G01*
X106799370Y-86927051D01*
X106813236Y-86992286D01*
X106791304Y-87055268D01*
X106739917Y-87097779D01*
X106735269Y-87099848D01*
X106582129Y-87211110D01*
X106455466Y-87351783D01*
X106360820Y-87515715D01*
X106302326Y-87695742D01*
X106282540Y-87884000D01*
X106302326Y-88072257D01*
X106360820Y-88252284D01*
X106455466Y-88416216D01*
X106582129Y-88556889D01*
X106735269Y-88668151D01*
X106908197Y-88745144D01*
X107093352Y-88784500D01*
X107093354Y-88784500D01*
X107282646Y-88784500D01*
X107282648Y-88784500D01*
X107420450Y-88755209D01*
X107467803Y-88745144D01*
X107640730Y-88668151D01*
X107648949Y-88662179D01*
X107683513Y-88644569D01*
X107721831Y-88638500D01*
X109364114Y-88638500D01*
X109411567Y-88647939D01*
X109451795Y-88674819D01*
X110373339Y-89596363D01*
X110404854Y-89649865D01*
X110406480Y-89711938D01*
X110377808Y-89767016D01*
X110265466Y-89891783D01*
X110170820Y-90055715D01*
X110112326Y-90235742D01*
X110103817Y-90316706D01*
X110092540Y-90424000D01*
X110093233Y-90430592D01*
X110112326Y-90612257D01*
X110170820Y-90792284D01*
X110265466Y-90956216D01*
X110283305Y-90976028D01*
X110311472Y-91029002D01*
X110311472Y-91088998D01*
X110283305Y-91141972D01*
X110265466Y-91161783D01*
X110170820Y-91325715D01*
X110112326Y-91505742D01*
X110092540Y-91694000D01*
X110112326Y-91882257D01*
X110170820Y-92062284D01*
X110265466Y-92226216D01*
X110283305Y-92246028D01*
X110311472Y-92299002D01*
X110311472Y-92358998D01*
X110283305Y-92411972D01*
X110265466Y-92431783D01*
X110170820Y-92595715D01*
X110112326Y-92775742D01*
X110092540Y-92963999D01*
X110112326Y-93152257D01*
X110170820Y-93332284D01*
X110265466Y-93496216D01*
X110392129Y-93636889D01*
X110545269Y-93748151D01*
X110549917Y-93750221D01*
X110601304Y-93792732D01*
X110623236Y-93855714D01*
X110609370Y-93920949D01*
X110563716Y-93969565D01*
X110499481Y-93987500D01*
X109499831Y-93987500D01*
X109461513Y-93981431D01*
X109426949Y-93963820D01*
X109418730Y-93957849D01*
X109418729Y-93957848D01*
X109418727Y-93957847D01*
X109245804Y-93880856D01*
X109187850Y-93868537D01*
X109154464Y-93856220D01*
X109125952Y-93834928D01*
X103526049Y-88235025D01*
X103495799Y-88185662D01*
X103443179Y-88023715D01*
X103387113Y-87926606D01*
X103370500Y-87864606D01*
X103370500Y-87231886D01*
X103379939Y-87184433D01*
X103406819Y-87144205D01*
X103654205Y-86896819D01*
X103694433Y-86869939D01*
X103741886Y-86860500D01*
X106689481Y-86860500D01*
X106753716Y-86878435D01*
G37*
G04 #@! TD.AperFunction*
G04 #@! TA.AperFunction,Conductor*
G36*
X140409301Y-38905556D02*
G01*
X141820315Y-38945502D01*
X141823765Y-38945648D01*
X143233116Y-39025511D01*
X143236556Y-39025754D01*
X144548026Y-39137377D01*
X144643065Y-39145466D01*
X144646560Y-39145813D01*
X146049134Y-39305281D01*
X146052529Y-39305716D01*
X147377327Y-39494455D01*
X147450011Y-39504810D01*
X147453481Y-39505354D01*
X148844788Y-39743917D01*
X148848142Y-39744542D01*
X150232155Y-40022385D01*
X150235521Y-40023110D01*
X151611138Y-40340012D01*
X151614465Y-40340829D01*
X152980554Y-40696530D01*
X152983846Y-40697437D01*
X154153187Y-41037521D01*
X154339324Y-41091656D01*
X154342679Y-41092684D01*
X155686361Y-41525072D01*
X155689687Y-41526194D01*
X157020648Y-41996453D01*
X157023894Y-41997652D01*
X158341022Y-42505390D01*
X158344247Y-42506686D01*
X159624944Y-43042484D01*
X159646445Y-43051479D01*
X159649663Y-43052879D01*
X160935904Y-43634297D01*
X160939081Y-43635787D01*
X162208394Y-44253391D01*
X162211527Y-44254971D01*
X163462813Y-44908225D01*
X163465899Y-44909892D01*
X164698245Y-45598322D01*
X164701252Y-45600058D01*
X165913620Y-46323085D01*
X165916538Y-46324881D01*
X167107980Y-47081940D01*
X167110909Y-47083860D01*
X168280438Y-47874322D01*
X168283255Y-47876285D01*
X168704920Y-48179011D01*
X169429931Y-48699519D01*
X169432753Y-48701606D01*
X170251622Y-49325356D01*
X170550847Y-49553282D01*
X170555667Y-49556953D01*
X170558417Y-49559110D01*
X171656677Y-50445893D01*
X171659342Y-50448107D01*
X172664707Y-51308001D01*
X172732050Y-51365600D01*
X172734677Y-51367911D01*
X173670661Y-52215484D01*
X173781032Y-52315430D01*
X173783599Y-52317822D01*
X174802699Y-53294550D01*
X174805156Y-53296972D01*
X175796205Y-54302146D01*
X175798623Y-54304668D01*
X176231152Y-54768939D01*
X176760840Y-55337497D01*
X176763195Y-55340098D01*
X177279119Y-55926301D01*
X177644712Y-56341696D01*
X177695774Y-56399713D01*
X177698048Y-56402372D01*
X178598263Y-57485541D01*
X178600279Y-57487966D01*
X178602474Y-57490685D01*
X179473639Y-58601399D01*
X179475724Y-58604135D01*
X180315111Y-59739063D01*
X180317157Y-59741913D01*
X181124072Y-60900112D01*
X181126037Y-60903020D01*
X181899825Y-62083545D01*
X181901699Y-62086493D01*
X182006272Y-62256330D01*
X182641821Y-63288528D01*
X182643618Y-63291542D01*
X183061038Y-64014534D01*
X183348577Y-64512567D01*
X183349386Y-64513967D01*
X183351098Y-64517031D01*
X184022009Y-65758975D01*
X184023633Y-65762086D01*
X184659122Y-67022504D01*
X184660657Y-67025659D01*
X185260217Y-68303543D01*
X185261663Y-68306741D01*
X185824841Y-69601125D01*
X185826195Y-69604363D01*
X186352485Y-70914086D01*
X186353748Y-70917360D01*
X186842794Y-72241535D01*
X186843963Y-72244844D01*
X187121133Y-73066130D01*
X187220500Y-73360567D01*
X187295329Y-73582292D01*
X187296399Y-73585620D01*
X187525883Y-74334962D01*
X187709741Y-74935320D01*
X187710721Y-74938690D01*
X188085699Y-76299539D01*
X188086583Y-76302935D01*
X188422896Y-77673833D01*
X188423684Y-77677253D01*
X188721069Y-79057121D01*
X188721760Y-79060562D01*
X188979983Y-80448327D01*
X188980576Y-80451786D01*
X189199417Y-81846267D01*
X189199912Y-81849741D01*
X189379209Y-83249888D01*
X189379605Y-83253375D01*
X189519201Y-84657986D01*
X189519499Y-84661483D01*
X189619295Y-86069543D01*
X189619493Y-86073046D01*
X189679400Y-87483293D01*
X189679500Y-87486801D01*
X189699475Y-88898245D01*
X189699475Y-88901755D01*
X189679500Y-90313198D01*
X189679400Y-90316706D01*
X189619493Y-91726953D01*
X189619295Y-91730456D01*
X189519499Y-93138516D01*
X189519201Y-93142013D01*
X189379605Y-94546624D01*
X189379209Y-94550111D01*
X189199912Y-95950258D01*
X189199417Y-95953732D01*
X188980576Y-97348213D01*
X188979983Y-97351672D01*
X188721760Y-98739437D01*
X188721069Y-98742878D01*
X188423684Y-100122746D01*
X188422896Y-100126166D01*
X188086583Y-101497064D01*
X188085699Y-101500460D01*
X187710721Y-102861309D01*
X187709741Y-102864679D01*
X187296404Y-104214366D01*
X187295329Y-104217707D01*
X186843963Y-105555155D01*
X186842794Y-105558464D01*
X186353748Y-106882639D01*
X186352485Y-106885913D01*
X185826195Y-108195636D01*
X185824841Y-108198874D01*
X185261663Y-109493258D01*
X185260217Y-109496456D01*
X184660657Y-110774340D01*
X184659122Y-110777495D01*
X184023633Y-112037913D01*
X184022009Y-112041024D01*
X183351098Y-113282968D01*
X183349386Y-113286032D01*
X182643618Y-114508457D01*
X182641821Y-114511471D01*
X181901708Y-115713492D01*
X181899825Y-115716454D01*
X181126037Y-116896979D01*
X181124072Y-116899887D01*
X180317157Y-118058086D01*
X180315111Y-118060936D01*
X179475745Y-119195836D01*
X179473618Y-119198628D01*
X178602484Y-120309302D01*
X178600279Y-120312033D01*
X177698055Y-121397619D01*
X177695774Y-121400286D01*
X176763195Y-122459901D01*
X176760840Y-122462502D01*
X175798634Y-123495319D01*
X175796205Y-123497853D01*
X174805177Y-124503006D01*
X174802678Y-124505470D01*
X173783599Y-125482177D01*
X173781032Y-125484569D01*
X172734685Y-126432081D01*
X172732050Y-126434399D01*
X171659359Y-127351877D01*
X171656660Y-127354120D01*
X170558428Y-128240880D01*
X170555667Y-128243046D01*
X169432753Y-129098393D01*
X169429931Y-129100480D01*
X168283286Y-129923692D01*
X168280407Y-129925698D01*
X167110915Y-130716135D01*
X167107980Y-130718059D01*
X165916573Y-131475096D01*
X165913584Y-131476936D01*
X164701268Y-132199931D01*
X164698229Y-132201686D01*
X163465901Y-132890106D01*
X163462813Y-132891774D01*
X162211527Y-133545028D01*
X162208394Y-133546608D01*
X160939081Y-134164212D01*
X160935904Y-134165702D01*
X159649663Y-134747120D01*
X159646445Y-134748520D01*
X158344263Y-135293306D01*
X158341006Y-135294615D01*
X157023917Y-135802338D01*
X157020625Y-135803554D01*
X155689686Y-136273805D01*
X155686361Y-136274927D01*
X154342679Y-136707315D01*
X154339324Y-136708343D01*
X152983891Y-137102549D01*
X152980507Y-137103481D01*
X151614506Y-137459160D01*
X151611098Y-137459996D01*
X150235553Y-137776882D01*
X150232122Y-137777621D01*
X148848190Y-138055448D01*
X148844740Y-138056090D01*
X147453478Y-138294645D01*
X147450011Y-138295189D01*
X146052572Y-138494277D01*
X146049091Y-138494723D01*
X144646557Y-138654186D01*
X144643065Y-138654533D01*
X143236587Y-138774242D01*
X143233086Y-138774490D01*
X141823793Y-138854349D01*
X141820287Y-138854498D01*
X140409301Y-138894444D01*
X140405792Y-138894494D01*
X138994208Y-138894494D01*
X138990699Y-138894444D01*
X137579712Y-138854498D01*
X137576206Y-138854349D01*
X136166913Y-138774490D01*
X136163412Y-138774242D01*
X134756934Y-138654533D01*
X134753442Y-138654186D01*
X133350908Y-138494723D01*
X133347427Y-138494277D01*
X131949988Y-138295189D01*
X131946521Y-138294645D01*
X130555259Y-138056090D01*
X130551809Y-138055448D01*
X129167877Y-137777621D01*
X129164446Y-137776882D01*
X127788901Y-137459996D01*
X127785493Y-137459160D01*
X126419492Y-137103481D01*
X126416108Y-137102549D01*
X125060675Y-136708343D01*
X125057320Y-136707315D01*
X123713638Y-136274927D01*
X123710313Y-136273805D01*
X122379374Y-135803554D01*
X122376082Y-135802338D01*
X121058993Y-135294615D01*
X121055736Y-135293306D01*
X119753554Y-134748520D01*
X119750336Y-134747120D01*
X118464095Y-134165702D01*
X118460918Y-134164212D01*
X117191605Y-133546608D01*
X117188472Y-133545028D01*
X115937186Y-132891774D01*
X115934098Y-132890106D01*
X114701770Y-132201686D01*
X114698731Y-132199931D01*
X114381507Y-132010746D01*
X113486399Y-131476926D01*
X113483442Y-131475106D01*
X112292019Y-130718059D01*
X112289084Y-130716135D01*
X111119592Y-129925698D01*
X111116713Y-129923692D01*
X109970068Y-129100480D01*
X109967246Y-129098393D01*
X108844332Y-128243046D01*
X108841571Y-128240880D01*
X108729205Y-128150151D01*
X107743329Y-127354112D01*
X107740640Y-127351877D01*
X107621528Y-127250000D01*
X112678633Y-127250000D01*
X112696619Y-127357792D01*
X112774780Y-127585460D01*
X112889348Y-127797164D01*
X113037201Y-127987126D01*
X113214292Y-128150151D01*
X113415819Y-128281815D01*
X113636255Y-128378506D01*
X113869611Y-128437600D01*
X114049418Y-128452500D01*
X114812000Y-128452500D01*
X114812000Y-127250000D01*
X115312000Y-127250000D01*
X115312000Y-128452500D01*
X116074582Y-128452500D01*
X116254388Y-128437600D01*
X116487744Y-128378506D01*
X116708180Y-128281815D01*
X116732387Y-128266000D01*
X161192633Y-128266000D01*
X161210619Y-128373792D01*
X161288780Y-128601460D01*
X161403348Y-128813164D01*
X161551201Y-129003126D01*
X161728292Y-129166151D01*
X161929819Y-129297815D01*
X162150255Y-129394506D01*
X162383611Y-129453600D01*
X162563418Y-129468500D01*
X163326000Y-129468500D01*
X163326000Y-128266000D01*
X163826000Y-128266000D01*
X163826000Y-129468500D01*
X164588582Y-129468500D01*
X164768388Y-129453600D01*
X165001744Y-129394506D01*
X165222180Y-129297815D01*
X165423707Y-129166151D01*
X165600798Y-129003126D01*
X165748651Y-128813164D01*
X165863219Y-128601460D01*
X165941380Y-128373792D01*
X165959367Y-128266000D01*
X163826000Y-128266000D01*
X163326000Y-128266000D01*
X161192633Y-128266000D01*
X116732387Y-128266000D01*
X116909707Y-128150151D01*
X117086798Y-127987126D01*
X117234651Y-127797164D01*
X117251517Y-127765999D01*
X161192633Y-127765999D01*
X161192634Y-127766000D01*
X163326000Y-127766000D01*
X163326000Y-126563500D01*
X163826000Y-126563500D01*
X163826000Y-127766000D01*
X165959366Y-127766000D01*
X165959366Y-127765999D01*
X165941380Y-127658207D01*
X165863219Y-127430539D01*
X165748651Y-127218835D01*
X165600798Y-127028873D01*
X165423707Y-126865848D01*
X165222180Y-126734184D01*
X165001744Y-126637493D01*
X164768388Y-126578399D01*
X164588582Y-126563500D01*
X163826000Y-126563500D01*
X163326000Y-126563500D01*
X162563418Y-126563500D01*
X162383611Y-126578399D01*
X162150255Y-126637493D01*
X161929819Y-126734184D01*
X161728292Y-126865848D01*
X161551201Y-127028873D01*
X161403348Y-127218835D01*
X161288780Y-127430539D01*
X161210619Y-127658207D01*
X161192633Y-127765999D01*
X117251517Y-127765999D01*
X117349219Y-127585460D01*
X117427380Y-127357792D01*
X117445367Y-127250000D01*
X115312000Y-127250000D01*
X114812000Y-127250000D01*
X112678633Y-127250000D01*
X107621528Y-127250000D01*
X107036940Y-126749999D01*
X112678633Y-126749999D01*
X112678634Y-126750000D01*
X114812000Y-126750000D01*
X114812000Y-125547500D01*
X115312000Y-125547500D01*
X115312000Y-126750000D01*
X117445366Y-126750000D01*
X117445366Y-126749999D01*
X117427380Y-126642207D01*
X117349219Y-126414539D01*
X117234651Y-126202835D01*
X117086798Y-126012873D01*
X116909707Y-125849848D01*
X116708180Y-125718184D01*
X116487744Y-125621493D01*
X116254388Y-125562399D01*
X116074582Y-125547500D01*
X115312000Y-125547500D01*
X114812000Y-125547500D01*
X114049418Y-125547500D01*
X113869611Y-125562399D01*
X113636255Y-125621493D01*
X113415819Y-125718184D01*
X113214292Y-125849848D01*
X113037201Y-126012873D01*
X112889348Y-126202835D01*
X112774780Y-126414539D01*
X112696619Y-126642207D01*
X112678633Y-126749999D01*
X107036940Y-126749999D01*
X106818890Y-126563500D01*
X106667946Y-126434396D01*
X106665314Y-126432081D01*
X105618967Y-125484569D01*
X105616400Y-125482177D01*
X105526482Y-125395998D01*
X104597300Y-124505450D01*
X104594843Y-124503027D01*
X103603781Y-123497840D01*
X103601365Y-123495319D01*
X103522680Y-123410860D01*
X103076558Y-122932000D01*
X108904728Y-122932000D01*
X108904811Y-122933068D01*
X108963603Y-123177956D01*
X109059982Y-123410632D01*
X109191569Y-123625364D01*
X109355130Y-123816869D01*
X109546635Y-123980430D01*
X109761367Y-124112017D01*
X109994043Y-124208396D01*
X110238931Y-124267188D01*
X110240000Y-124267272D01*
X110240000Y-122932000D01*
X110740000Y-122932000D01*
X110740000Y-124267272D01*
X110741068Y-124267188D01*
X110985956Y-124208396D01*
X111218632Y-124112017D01*
X111433364Y-123980430D01*
X111609648Y-123829869D01*
X119049500Y-123829869D01*
X119053315Y-123865352D01*
X119055909Y-123889483D01*
X119106204Y-124024331D01*
X119192454Y-124139546D01*
X119307669Y-124225796D01*
X119442517Y-124276091D01*
X119502127Y-124282500D01*
X121797872Y-124282499D01*
X121857483Y-124276091D01*
X121992331Y-124225796D01*
X122107546Y-124139546D01*
X122193796Y-124024331D01*
X122244091Y-123889483D01*
X122250500Y-123829873D01*
X122250500Y-123829869D01*
X122859500Y-123829869D01*
X122863315Y-123865352D01*
X122865909Y-123889483D01*
X122916204Y-124024331D01*
X123002454Y-124139546D01*
X123117669Y-124225796D01*
X123252517Y-124276091D01*
X123312127Y-124282500D01*
X125607872Y-124282499D01*
X125667483Y-124276091D01*
X125802331Y-124225796D01*
X125917546Y-124139546D01*
X126003796Y-124024331D01*
X126054091Y-123889483D01*
X126060500Y-123829873D01*
X126060499Y-122681999D01*
X133014551Y-122681999D01*
X133034317Y-122933149D01*
X133093126Y-123178110D01*
X133141330Y-123294484D01*
X133189534Y-123410859D01*
X133321164Y-123625659D01*
X133484776Y-123817224D01*
X133676341Y-123980836D01*
X133891141Y-124112466D01*
X134123889Y-124208873D01*
X134368852Y-124267683D01*
X134620000Y-124287449D01*
X134871148Y-124267683D01*
X135116111Y-124208873D01*
X135348859Y-124112466D01*
X135563659Y-123980836D01*
X135755224Y-123817224D01*
X135918836Y-123625659D01*
X136050466Y-123410859D01*
X136146873Y-123178111D01*
X136205683Y-122933148D01*
X136208921Y-122892000D01*
X142022000Y-122892000D01*
X142022000Y-123469824D01*
X142028402Y-123529375D01*
X142078647Y-123664089D01*
X142164811Y-123779188D01*
X142279910Y-123865352D01*
X142414624Y-123915597D01*
X142474176Y-123922000D01*
X143052000Y-123922000D01*
X143052000Y-122892000D01*
X143552000Y-122892000D01*
X143552000Y-123922000D01*
X144129824Y-123922000D01*
X144189375Y-123915597D01*
X144324089Y-123865352D01*
X144439188Y-123779188D01*
X144525352Y-123664089D01*
X144575597Y-123529375D01*
X144582000Y-123469824D01*
X144582000Y-122892000D01*
X143552000Y-122892000D01*
X143052000Y-122892000D01*
X142022000Y-122892000D01*
X136208921Y-122892000D01*
X136225449Y-122682000D01*
X136205683Y-122430852D01*
X136196356Y-122392000D01*
X142022000Y-122392000D01*
X143052000Y-122392000D01*
X143052000Y-121362000D01*
X143552000Y-121362000D01*
X143552000Y-122392000D01*
X144582000Y-122392000D01*
X144582000Y-121814176D01*
X144575597Y-121754624D01*
X144525352Y-121619910D01*
X144439188Y-121504811D01*
X144324089Y-121418647D01*
X144189375Y-121368402D01*
X144129824Y-121362000D01*
X143552000Y-121362000D01*
X143052000Y-121362000D01*
X142474176Y-121362000D01*
X142414624Y-121368402D01*
X142279910Y-121418647D01*
X142164811Y-121504811D01*
X142078647Y-121619910D01*
X142028402Y-121754624D01*
X142022000Y-121814176D01*
X142022000Y-122392000D01*
X136196356Y-122392000D01*
X136146873Y-122185889D01*
X136050466Y-121953141D01*
X135918836Y-121738341D01*
X135755224Y-121546776D01*
X135563659Y-121383164D01*
X135348859Y-121251534D01*
X135232485Y-121203330D01*
X135116110Y-121155126D01*
X134871149Y-121096317D01*
X134620000Y-121076551D01*
X134368850Y-121096317D01*
X134123889Y-121155126D01*
X133891139Y-121251535D01*
X133676342Y-121383163D01*
X133484776Y-121546776D01*
X133321163Y-121738342D01*
X133274692Y-121814176D01*
X133189534Y-121953141D01*
X133175415Y-121987225D01*
X133093126Y-122185889D01*
X133034317Y-122430850D01*
X133014551Y-122681999D01*
X126060499Y-122681999D01*
X126060499Y-121534128D01*
X126054091Y-121474517D01*
X126003796Y-121339669D01*
X125917546Y-121224454D01*
X125802331Y-121138204D01*
X125667483Y-121087909D01*
X125607873Y-121081500D01*
X125607869Y-121081500D01*
X123312130Y-121081500D01*
X123252515Y-121087909D01*
X123117669Y-121138204D01*
X123002454Y-121224454D01*
X122916204Y-121339668D01*
X122865909Y-121474516D01*
X122859500Y-121534130D01*
X122859500Y-123829869D01*
X122250500Y-123829869D01*
X122250499Y-121534128D01*
X122244091Y-121474517D01*
X122193796Y-121339669D01*
X122107546Y-121224454D01*
X121992331Y-121138204D01*
X121857483Y-121087909D01*
X121797873Y-121081500D01*
X121797869Y-121081500D01*
X119502130Y-121081500D01*
X119442515Y-121087909D01*
X119307669Y-121138204D01*
X119192454Y-121224454D01*
X119106204Y-121339668D01*
X119055909Y-121474516D01*
X119049500Y-121534130D01*
X119049500Y-123829869D01*
X111609648Y-123829869D01*
X111624869Y-123816869D01*
X111788430Y-123625364D01*
X111920017Y-123410632D01*
X112016396Y-123177956D01*
X112075188Y-122933068D01*
X112075272Y-122932000D01*
X110740000Y-122932000D01*
X110240000Y-122932000D01*
X108904728Y-122932000D01*
X103076558Y-122932000D01*
X102843650Y-122682000D01*
X102639159Y-122462502D01*
X102636804Y-122459901D01*
X102612247Y-122431999D01*
X108904728Y-122431999D01*
X108904729Y-122432000D01*
X110240000Y-122432000D01*
X110240000Y-121096729D01*
X110239999Y-121096728D01*
X110740000Y-121096728D01*
X110740000Y-122432000D01*
X112075271Y-122432000D01*
X112075271Y-122431999D01*
X112075188Y-122430931D01*
X112016396Y-122186043D01*
X111920017Y-121953367D01*
X111788430Y-121738635D01*
X111624869Y-121547130D01*
X111433364Y-121383569D01*
X111218632Y-121251982D01*
X110985956Y-121155603D01*
X110741068Y-121096811D01*
X110740000Y-121096728D01*
X110239999Y-121096728D01*
X110238931Y-121096811D01*
X109994043Y-121155603D01*
X109761367Y-121251982D01*
X109546635Y-121383569D01*
X109355130Y-121547130D01*
X109191569Y-121738635D01*
X109059982Y-121953367D01*
X108963603Y-122186043D01*
X108904811Y-122430931D01*
X108904728Y-122431999D01*
X102612247Y-122431999D01*
X101833464Y-121547130D01*
X101704213Y-121400272D01*
X101701944Y-121397619D01*
X101677662Y-121368402D01*
X100799703Y-120312012D01*
X100797515Y-120309302D01*
X100666294Y-120141999D01*
X147016608Y-120141999D01*
X147036136Y-120365203D01*
X147036137Y-120365206D01*
X147094128Y-120581630D01*
X147188819Y-120784696D01*
X147317333Y-120968233D01*
X147475767Y-121126667D01*
X147659304Y-121255181D01*
X147862370Y-121349872D01*
X148078794Y-121407863D01*
X148302000Y-121427391D01*
X148525206Y-121407863D01*
X148741630Y-121349872D01*
X148944696Y-121255181D01*
X149128233Y-121126667D01*
X149286667Y-120968233D01*
X149415181Y-120784696D01*
X149509872Y-120581630D01*
X149567863Y-120365206D01*
X149587391Y-120142000D01*
X149567863Y-119918794D01*
X149509872Y-119702370D01*
X149415181Y-119499305D01*
X149286667Y-119315767D01*
X149128233Y-119157333D01*
X148944696Y-119028819D01*
X148851069Y-118985160D01*
X148741631Y-118934128D01*
X148525203Y-118876136D01*
X148302000Y-118856608D01*
X148078796Y-118876136D01*
X147862368Y-118934128D01*
X147659304Y-119028819D01*
X147475766Y-119157333D01*
X147317333Y-119315766D01*
X147188819Y-119499304D01*
X147094128Y-119702368D01*
X147036136Y-119918796D01*
X147016608Y-120141999D01*
X100666294Y-120141999D01*
X99926351Y-119198589D01*
X99924283Y-119195875D01*
X99084876Y-118060919D01*
X99082842Y-118058086D01*
X98933765Y-117844110D01*
X98762301Y-117598000D01*
X108904728Y-117598000D01*
X108904811Y-117599068D01*
X108963603Y-117843956D01*
X109059982Y-118076632D01*
X109191569Y-118291364D01*
X109355130Y-118482869D01*
X109546635Y-118646430D01*
X109761367Y-118778017D01*
X109994043Y-118874396D01*
X110238931Y-118933188D01*
X110240000Y-118933272D01*
X110240000Y-117598000D01*
X110740000Y-117598000D01*
X110740000Y-118933272D01*
X110741068Y-118933188D01*
X110985956Y-118874396D01*
X111218632Y-118778017D01*
X111433364Y-118646430D01*
X111609648Y-118495869D01*
X119049500Y-118495869D01*
X119055909Y-118555483D01*
X119106204Y-118690331D01*
X119192454Y-118805546D01*
X119307669Y-118891796D01*
X119442517Y-118942091D01*
X119502127Y-118948500D01*
X121797872Y-118948499D01*
X121857483Y-118942091D01*
X121992331Y-118891796D01*
X122107546Y-118805546D01*
X122193796Y-118690331D01*
X122244091Y-118555483D01*
X122250500Y-118495873D01*
X122250500Y-118495869D01*
X122859500Y-118495869D01*
X122865909Y-118555483D01*
X122916204Y-118690331D01*
X123002454Y-118805546D01*
X123117669Y-118891796D01*
X123252517Y-118942091D01*
X123312127Y-118948500D01*
X125607872Y-118948499D01*
X125667483Y-118942091D01*
X125802331Y-118891796D01*
X125917546Y-118805546D01*
X126003796Y-118690331D01*
X126054091Y-118555483D01*
X126060500Y-118495873D01*
X126060499Y-117347999D01*
X133014551Y-117347999D01*
X133034317Y-117599149D01*
X133093126Y-117844110D01*
X133141330Y-117960484D01*
X133189534Y-118076859D01*
X133321164Y-118291659D01*
X133484776Y-118483224D01*
X133676341Y-118646836D01*
X133891141Y-118778466D01*
X134123889Y-118874873D01*
X134368852Y-118933683D01*
X134620000Y-118953449D01*
X134871148Y-118933683D01*
X135116111Y-118874873D01*
X135348859Y-118778466D01*
X135563659Y-118646836D01*
X135755224Y-118483224D01*
X135918836Y-118291659D01*
X136050466Y-118076859D01*
X136146873Y-117844111D01*
X136205683Y-117599148D01*
X136225449Y-117348000D01*
X136205683Y-117096852D01*
X136146873Y-116851889D01*
X136050466Y-116619141D01*
X135918836Y-116404341D01*
X135755224Y-116212776D01*
X135563659Y-116049164D01*
X135348859Y-115917534D01*
X135232485Y-115869330D01*
X135116110Y-115821126D01*
X134871149Y-115762317D01*
X134620000Y-115742551D01*
X134368850Y-115762317D01*
X134123889Y-115821126D01*
X133891139Y-115917535D01*
X133676342Y-116049163D01*
X133484776Y-116212776D01*
X133321163Y-116404342D01*
X133189535Y-116619139D01*
X133189534Y-116619141D01*
X133175416Y-116653224D01*
X133093126Y-116851889D01*
X133034317Y-117096850D01*
X133014551Y-117347999D01*
X126060499Y-117347999D01*
X126060499Y-116200128D01*
X126054091Y-116140517D01*
X126003796Y-116005669D01*
X125917546Y-115890454D01*
X125802331Y-115804204D01*
X125667483Y-115753909D01*
X125607873Y-115747500D01*
X125607869Y-115747500D01*
X123312130Y-115747500D01*
X123252515Y-115753909D01*
X123117669Y-115804204D01*
X123002454Y-115890454D01*
X122916204Y-116005668D01*
X122865909Y-116140516D01*
X122859500Y-116200130D01*
X122859500Y-118495869D01*
X122250500Y-118495869D01*
X122250499Y-116200128D01*
X122244091Y-116140517D01*
X122193796Y-116005669D01*
X122107546Y-115890454D01*
X121992331Y-115804204D01*
X121857483Y-115753909D01*
X121797873Y-115747500D01*
X121797869Y-115747500D01*
X119502130Y-115747500D01*
X119442515Y-115753909D01*
X119307669Y-115804204D01*
X119192454Y-115890454D01*
X119106204Y-116005668D01*
X119055909Y-116140516D01*
X119049500Y-116200130D01*
X119049500Y-118495869D01*
X111609648Y-118495869D01*
X111624869Y-118482869D01*
X111788430Y-118291364D01*
X111920017Y-118076632D01*
X112016396Y-117843956D01*
X112075188Y-117599068D01*
X112075272Y-117598000D01*
X110740000Y-117598000D01*
X110240000Y-117598000D01*
X108904728Y-117598000D01*
X98762301Y-117598000D01*
X98413951Y-117097999D01*
X108904728Y-117097999D01*
X108904729Y-117098000D01*
X110240000Y-117098000D01*
X110240000Y-115762729D01*
X110239999Y-115762728D01*
X110740000Y-115762728D01*
X110740000Y-117098000D01*
X112075271Y-117098000D01*
X112075271Y-117097999D01*
X112075188Y-117096931D01*
X112016396Y-116852043D01*
X111920017Y-116619367D01*
X111788430Y-116404635D01*
X111624869Y-116213130D01*
X111433364Y-116049569D01*
X111218632Y-115917982D01*
X110985956Y-115821603D01*
X110741068Y-115762811D01*
X110740000Y-115762728D01*
X110239999Y-115762728D01*
X110238931Y-115762811D01*
X109994043Y-115821603D01*
X109761367Y-115917982D01*
X109546635Y-116049569D01*
X109355130Y-116213130D01*
X109191569Y-116404635D01*
X109059982Y-116619367D01*
X108963603Y-116852043D01*
X108904811Y-117096931D01*
X108904728Y-117097999D01*
X98413951Y-117097999D01*
X98275927Y-116899887D01*
X98273962Y-116896979D01*
X97951057Y-116404341D01*
X97500153Y-115716421D01*
X97498311Y-115713524D01*
X96784902Y-114554873D01*
X96758178Y-114511471D01*
X96756381Y-114508457D01*
X96462649Y-113999698D01*
X96342734Y-113791999D01*
X132727678Y-113791999D01*
X132746923Y-113999698D01*
X132804005Y-114200319D01*
X132896978Y-114387035D01*
X133022682Y-114553494D01*
X133176826Y-114694014D01*
X133176828Y-114694015D01*
X133176829Y-114694016D01*
X133354172Y-114803823D01*
X133548673Y-114879173D01*
X133753707Y-114917500D01*
X133962291Y-114917500D01*
X133962293Y-114917500D01*
X134167327Y-114879173D01*
X134361828Y-114803823D01*
X134539171Y-114694016D01*
X134661149Y-114582819D01*
X134665489Y-114578863D01*
X134704233Y-114554873D01*
X134749027Y-114546500D01*
X139088114Y-114546500D01*
X139135567Y-114555939D01*
X139175795Y-114582819D01*
X141993289Y-117400313D01*
X142022130Y-117445583D01*
X142029136Y-117498801D01*
X142016608Y-117641999D01*
X142036136Y-117865203D01*
X142092849Y-118076859D01*
X142094128Y-118081630D01*
X142188819Y-118284696D01*
X142317333Y-118468233D01*
X142475767Y-118626667D01*
X142659304Y-118755181D01*
X142862370Y-118849872D01*
X143078794Y-118907863D01*
X143302000Y-118927391D01*
X143525206Y-118907863D01*
X143741630Y-118849872D01*
X143944696Y-118755181D01*
X144128233Y-118626667D01*
X144286667Y-118468233D01*
X144415181Y-118284696D01*
X144509872Y-118081630D01*
X144567863Y-117865206D01*
X144587391Y-117642000D01*
X144567863Y-117418794D01*
X144509872Y-117202370D01*
X144415181Y-116999305D01*
X144286667Y-116815767D01*
X144128233Y-116657333D01*
X143944696Y-116528819D01*
X143851069Y-116485160D01*
X143741631Y-116434128D01*
X143525203Y-116376136D01*
X143301999Y-116356608D01*
X143158801Y-116369136D01*
X143105583Y-116362130D01*
X143060313Y-116333289D01*
X140030766Y-113303742D01*
X140018983Y-113290108D01*
X140014810Y-113284503D01*
X140004539Y-113270706D01*
X139966364Y-113238673D01*
X139958389Y-113231365D01*
X139954439Y-113227415D01*
X139929986Y-113208079D01*
X139927192Y-113205804D01*
X139916657Y-113196964D01*
X139869427Y-113157333D01*
X139869425Y-113157332D01*
X139868492Y-113156549D01*
X139851898Y-113145976D01*
X139782442Y-113113589D01*
X139779197Y-113112018D01*
X139710722Y-113077629D01*
X139692125Y-113071165D01*
X139617086Y-113055670D01*
X139613569Y-113054890D01*
X139539005Y-113037219D01*
X139519425Y-113035218D01*
X139442804Y-113037448D01*
X139439198Y-113037500D01*
X134749027Y-113037500D01*
X134704233Y-113029127D01*
X134665489Y-113005137D01*
X134539173Y-112889985D01*
X134361827Y-112780176D01*
X134167328Y-112704827D01*
X134098982Y-112692051D01*
X133962293Y-112666500D01*
X133753707Y-112666500D01*
X133651189Y-112685663D01*
X133548671Y-112704827D01*
X133354172Y-112780176D01*
X133176826Y-112889985D01*
X133022682Y-113030505D01*
X132896978Y-113196964D01*
X132804005Y-113383680D01*
X132746923Y-113584301D01*
X132727678Y-113791999D01*
X96342734Y-113791999D01*
X96050589Y-113285990D01*
X96048924Y-113283009D01*
X95377978Y-112041002D01*
X95376366Y-112037913D01*
X94740877Y-110777495D01*
X94739342Y-110774340D01*
X94567279Y-110407610D01*
X113989942Y-110407610D01*
X114036766Y-110444055D01*
X114255393Y-110562368D01*
X114490506Y-110643083D01*
X114735707Y-110684000D01*
X114984293Y-110684000D01*
X115229493Y-110643083D01*
X115464606Y-110562368D01*
X115683233Y-110444053D01*
X115730055Y-110407610D01*
X120489942Y-110407610D01*
X120536766Y-110444055D01*
X120755393Y-110562368D01*
X120990506Y-110643083D01*
X121235707Y-110684000D01*
X121484293Y-110684000D01*
X121729493Y-110643083D01*
X121964606Y-110562368D01*
X122183233Y-110444053D01*
X122230056Y-110407609D01*
X121360000Y-109537553D01*
X120489942Y-110407609D01*
X120489942Y-110407610D01*
X115730055Y-110407610D01*
X115730056Y-110407609D01*
X114860000Y-109537553D01*
X113989942Y-110407609D01*
X113989942Y-110407610D01*
X94567279Y-110407610D01*
X94139782Y-109496456D01*
X94138336Y-109493258D01*
X94003780Y-109184000D01*
X113354858Y-109184000D01*
X113375386Y-109431732D01*
X113436413Y-109672721D01*
X113536268Y-109900370D01*
X113636563Y-110053882D01*
X113636564Y-110053882D01*
X114506447Y-109184001D01*
X115213553Y-109184001D01*
X116083434Y-110053882D01*
X116183730Y-109900369D01*
X116283586Y-109672721D01*
X116344613Y-109431732D01*
X116365141Y-109184000D01*
X119854858Y-109184000D01*
X119875386Y-109431732D01*
X119936413Y-109672721D01*
X120036268Y-109900370D01*
X120136563Y-110053882D01*
X120136564Y-110053882D01*
X121006447Y-109184001D01*
X121713553Y-109184001D01*
X122583434Y-110053882D01*
X122683730Y-109900369D01*
X122783586Y-109672721D01*
X122844613Y-109431732D01*
X122865141Y-109184000D01*
X122844613Y-108936267D01*
X122783586Y-108695278D01*
X122683730Y-108467630D01*
X122583434Y-108314116D01*
X121713553Y-109184000D01*
X121713553Y-109184001D01*
X121006447Y-109184001D01*
X121006447Y-109184000D01*
X120136564Y-108314116D01*
X120036266Y-108467634D01*
X119936413Y-108695278D01*
X119875386Y-108936267D01*
X119854858Y-109184000D01*
X116365141Y-109184000D01*
X116344613Y-108936267D01*
X116283586Y-108695278D01*
X116183730Y-108467630D01*
X116083434Y-108314116D01*
X115213553Y-109184000D01*
X115213553Y-109184001D01*
X114506447Y-109184001D01*
X114506447Y-109184000D01*
X113636564Y-108314116D01*
X113536266Y-108467634D01*
X113436413Y-108695278D01*
X113375386Y-108936267D01*
X113354858Y-109184000D01*
X94003780Y-109184000D01*
X93849951Y-108830447D01*
X93575149Y-108198852D01*
X93573804Y-108195636D01*
X93567320Y-108179500D01*
X93479274Y-107960390D01*
X113989942Y-107960390D01*
X114860000Y-108830447D01*
X114860001Y-108830447D01*
X115730057Y-107960390D01*
X115730056Y-107960388D01*
X115683235Y-107923947D01*
X115464606Y-107805631D01*
X115229493Y-107724916D01*
X114984293Y-107684000D01*
X114735707Y-107684000D01*
X114490506Y-107724916D01*
X114255393Y-107805631D01*
X114036764Y-107923946D01*
X113989942Y-107960388D01*
X113989942Y-107960390D01*
X93479274Y-107960390D01*
X93047503Y-106885885D01*
X93046251Y-106882639D01*
X93023012Y-106819716D01*
X92934479Y-106579999D01*
X106142465Y-106579999D01*
X106162554Y-106783970D01*
X106162554Y-106783972D01*
X106162555Y-106783974D01*
X106222052Y-106980109D01*
X106242472Y-107018312D01*
X106309472Y-107143663D01*
X106318669Y-107160868D01*
X106448695Y-107319305D01*
X106607132Y-107449331D01*
X106787891Y-107545948D01*
X106984026Y-107605445D01*
X107188000Y-107625535D01*
X107391974Y-107605445D01*
X107588109Y-107545948D01*
X107768868Y-107449331D01*
X107927305Y-107319305D01*
X108057331Y-107160868D01*
X108153948Y-106980109D01*
X108213445Y-106783974D01*
X108233535Y-106580000D01*
X108213445Y-106376026D01*
X108153948Y-106179891D01*
X108057331Y-105999132D01*
X107927305Y-105840695D01*
X107768868Y-105710669D01*
X107768867Y-105710668D01*
X107639470Y-105641505D01*
X107588109Y-105614052D01*
X107391974Y-105554555D01*
X107391972Y-105554554D01*
X107391970Y-105554554D01*
X107216514Y-105537273D01*
X107188000Y-105534465D01*
X107187999Y-105534465D01*
X106984029Y-105554554D01*
X106984025Y-105554555D01*
X106984026Y-105554555D01*
X106787891Y-105614052D01*
X106787887Y-105614053D01*
X106787887Y-105614054D01*
X106607132Y-105710668D01*
X106448695Y-105840695D01*
X106318668Y-105999132D01*
X106228131Y-106168518D01*
X106222052Y-106179891D01*
X106202162Y-106245460D01*
X106162554Y-106376029D01*
X106142465Y-106579999D01*
X92934479Y-106579999D01*
X92557203Y-105558460D01*
X92556036Y-105555155D01*
X92555815Y-105554500D01*
X92104651Y-104217650D01*
X92103613Y-104214423D01*
X91690245Y-102864636D01*
X91689290Y-102861353D01*
X91314287Y-101500411D01*
X91313429Y-101497114D01*
X91088439Y-100580000D01*
X93374633Y-100580000D01*
X93392619Y-100687792D01*
X93470780Y-100915460D01*
X93585348Y-101127164D01*
X93733201Y-101317126D01*
X93910292Y-101480151D01*
X94111819Y-101611815D01*
X94332255Y-101708506D01*
X94565611Y-101767600D01*
X94745418Y-101782500D01*
X95508000Y-101782500D01*
X95508000Y-100580000D01*
X96008000Y-100580000D01*
X96008000Y-101782500D01*
X96770582Y-101782500D01*
X96950388Y-101767600D01*
X97183744Y-101708506D01*
X97203136Y-101700000D01*
X106142465Y-101700000D01*
X106162554Y-101903970D01*
X106162554Y-101903972D01*
X106162555Y-101903974D01*
X106222052Y-102100109D01*
X106261408Y-102173740D01*
X106318668Y-102280867D01*
X106331298Y-102296256D01*
X106448695Y-102439305D01*
X106607132Y-102569331D01*
X106787891Y-102665948D01*
X106984026Y-102725445D01*
X107188000Y-102745535D01*
X107391974Y-102725445D01*
X107588109Y-102665948D01*
X107768868Y-102569331D01*
X107927305Y-102439305D01*
X108057331Y-102280868D01*
X108153948Y-102100109D01*
X108213445Y-101903974D01*
X108233535Y-101700000D01*
X108213445Y-101496026D01*
X108153948Y-101299891D01*
X108057331Y-101119132D01*
X107927305Y-100960695D01*
X107768868Y-100830669D01*
X107768867Y-100830668D01*
X107671253Y-100778493D01*
X107588109Y-100734052D01*
X107391974Y-100674555D01*
X107391972Y-100674554D01*
X107391970Y-100674554D01*
X107188000Y-100654465D01*
X106984029Y-100674554D01*
X106963899Y-100680660D01*
X106787891Y-100734052D01*
X106787887Y-100734053D01*
X106787887Y-100734054D01*
X106607132Y-100830668D01*
X106448695Y-100960695D01*
X106318668Y-101119132D01*
X106232547Y-101280256D01*
X106222052Y-101299891D01*
X106173397Y-101460284D01*
X106162554Y-101496029D01*
X106142465Y-101700000D01*
X97203136Y-101700000D01*
X97404180Y-101611815D01*
X97605707Y-101480151D01*
X97782798Y-101317126D01*
X97930651Y-101127164D01*
X98045219Y-100915460D01*
X98123380Y-100687792D01*
X98141367Y-100580000D01*
X96008000Y-100580000D01*
X95508000Y-100580000D01*
X93374633Y-100580000D01*
X91088439Y-100580000D01*
X90977102Y-100126165D01*
X90976315Y-100122746D01*
X90972275Y-100104000D01*
X90967102Y-100079999D01*
X93374633Y-100079999D01*
X93374634Y-100080000D01*
X95508000Y-100080000D01*
X95508000Y-98877500D01*
X96008000Y-98877500D01*
X96008000Y-100080000D01*
X98141366Y-100080000D01*
X98141366Y-100079999D01*
X98123380Y-99972207D01*
X98045219Y-99744539D01*
X97930651Y-99532835D01*
X97782798Y-99342873D01*
X97605707Y-99179848D01*
X97404180Y-99048184D01*
X97183744Y-98951493D01*
X96950388Y-98892399D01*
X96770582Y-98877500D01*
X96008000Y-98877500D01*
X95508000Y-98877500D01*
X94745418Y-98877500D01*
X94565611Y-98892399D01*
X94332255Y-98951493D01*
X94111819Y-99048184D01*
X93910292Y-99179848D01*
X93733201Y-99342873D01*
X93585348Y-99532835D01*
X93470780Y-99744539D01*
X93392619Y-99972207D01*
X93374633Y-100079999D01*
X90967102Y-100079999D01*
X90678921Y-98742835D01*
X90678239Y-98739437D01*
X90655595Y-98617744D01*
X90420014Y-97351664D01*
X90419423Y-97348213D01*
X90200577Y-95953701D01*
X90200087Y-95950258D01*
X90186246Y-95842170D01*
X90020783Y-94550058D01*
X90020400Y-94546679D01*
X89880793Y-93141955D01*
X89880504Y-93138573D01*
X89799379Y-91993934D01*
X93666168Y-91993934D01*
X93677202Y-92056506D01*
X93696635Y-92166711D01*
X93732252Y-92249281D01*
X93766123Y-92327804D01*
X93870890Y-92468530D01*
X94005283Y-92581300D01*
X94005284Y-92581300D01*
X94005286Y-92581302D01*
X94162067Y-92660040D01*
X94162068Y-92660040D01*
X94162070Y-92660041D01*
X94332777Y-92700500D01*
X94332779Y-92700500D01*
X94464204Y-92700500D01*
X94464209Y-92700500D01*
X94594755Y-92685241D01*
X94759617Y-92625237D01*
X94906196Y-92528830D01*
X95026592Y-92401218D01*
X95114312Y-92249281D01*
X95164630Y-92081210D01*
X95174831Y-91906065D01*
X95144365Y-91733289D01*
X95074877Y-91572196D01*
X94970110Y-91431470D01*
X94924752Y-91393410D01*
X94835716Y-91318699D01*
X94678929Y-91239958D01*
X94508223Y-91199500D01*
X94508221Y-91199500D01*
X94376791Y-91199500D01*
X94302779Y-91208151D01*
X94246242Y-91214759D01*
X94081383Y-91274762D01*
X93934803Y-91371170D01*
X93814408Y-91498780D01*
X93726688Y-91650718D01*
X93726688Y-91650719D01*
X93676370Y-91818790D01*
X93676369Y-91818792D01*
X93676370Y-91818792D01*
X93666168Y-91993934D01*
X89799379Y-91993934D01*
X89780701Y-91730403D01*
X89780509Y-91727007D01*
X89720598Y-90316671D01*
X89720499Y-90313233D01*
X89700524Y-88901696D01*
X89700524Y-88898304D01*
X89720500Y-87486764D01*
X89720597Y-87483330D01*
X89780509Y-86072988D01*
X89780700Y-86069600D01*
X89880505Y-84661420D01*
X89880792Y-84658050D01*
X89946795Y-83993934D01*
X93666168Y-83993934D01*
X93681558Y-84081207D01*
X93696635Y-84166711D01*
X93732252Y-84249281D01*
X93766123Y-84327804D01*
X93870890Y-84468530D01*
X94005283Y-84581300D01*
X94005284Y-84581300D01*
X94005286Y-84581302D01*
X94162067Y-84660040D01*
X94162068Y-84660040D01*
X94162070Y-84660041D01*
X94332777Y-84700500D01*
X94332779Y-84700500D01*
X94464204Y-84700500D01*
X94464209Y-84700500D01*
X94594755Y-84685241D01*
X94759617Y-84625237D01*
X94906196Y-84528830D01*
X95026592Y-84401218D01*
X95114312Y-84249281D01*
X95164630Y-84081210D01*
X95174831Y-83906065D01*
X95144365Y-83733289D01*
X95074877Y-83572196D01*
X94970110Y-83431470D01*
X94963930Y-83426284D01*
X94835716Y-83318699D01*
X94678929Y-83239958D01*
X94508223Y-83199500D01*
X94508221Y-83199500D01*
X94376791Y-83199500D01*
X94295199Y-83209036D01*
X94246242Y-83214759D01*
X94081383Y-83274762D01*
X93934803Y-83371170D01*
X93814408Y-83498780D01*
X93726688Y-83650718D01*
X93709915Y-83706742D01*
X93676370Y-83818790D01*
X93676369Y-83818792D01*
X93676370Y-83818792D01*
X93666168Y-83993934D01*
X89946795Y-83993934D01*
X90020401Y-83253312D01*
X90020782Y-83249949D01*
X90045362Y-83058000D01*
X99424540Y-83058000D01*
X99444326Y-83246257D01*
X99502820Y-83426284D01*
X99597466Y-83590216D01*
X99724129Y-83730889D01*
X99877269Y-83842151D01*
X100050193Y-83919143D01*
X100050196Y-83919143D01*
X100050197Y-83919144D01*
X100108149Y-83931462D01*
X100141532Y-83943777D01*
X100170046Y-83965070D01*
X102223294Y-86018318D01*
X102255388Y-86073905D01*
X102255388Y-86138093D01*
X102223294Y-86193680D01*
X102127741Y-86289233D01*
X102114112Y-86301012D01*
X102094708Y-86315458D01*
X102062676Y-86353632D01*
X102055379Y-86361596D01*
X102051414Y-86365561D01*
X102032089Y-86390001D01*
X102029814Y-86392794D01*
X101980554Y-86451500D01*
X101969972Y-86468112D01*
X101937581Y-86537571D01*
X101936011Y-86540813D01*
X101901632Y-86609269D01*
X101895164Y-86627878D01*
X101879671Y-86702911D01*
X101878891Y-86706430D01*
X101861219Y-86780996D01*
X101859218Y-86800574D01*
X101861448Y-86877196D01*
X101861500Y-86880802D01*
X101861500Y-87864606D01*
X101844887Y-87926606D01*
X101788820Y-88023715D01*
X101730326Y-88203742D01*
X101710540Y-88392000D01*
X101730326Y-88580257D01*
X101788820Y-88760284D01*
X101883466Y-88924216D01*
X102010129Y-89064889D01*
X102163269Y-89176151D01*
X102336193Y-89253143D01*
X102336196Y-89253143D01*
X102336197Y-89253144D01*
X102394149Y-89265462D01*
X102427532Y-89277777D01*
X102456046Y-89299070D01*
X108055951Y-94898975D01*
X108086201Y-94948338D01*
X108138820Y-95110284D01*
X108233466Y-95274216D01*
X108360129Y-95414889D01*
X108513269Y-95526151D01*
X108686197Y-95603144D01*
X108871352Y-95642500D01*
X108871354Y-95642500D01*
X109060646Y-95642500D01*
X109060648Y-95642500D01*
X109209064Y-95610953D01*
X109245803Y-95603144D01*
X109418730Y-95526151D01*
X109426949Y-95520179D01*
X109461513Y-95502569D01*
X109499831Y-95496500D01*
X111142114Y-95496500D01*
X111189567Y-95505939D01*
X111229795Y-95532819D01*
X113743771Y-98046795D01*
X113772426Y-98091557D01*
X113779708Y-98144205D01*
X113764280Y-98195065D01*
X113728976Y-98234794D01*
X113694127Y-98260112D01*
X113567466Y-98400783D01*
X113472820Y-98564715D01*
X113414326Y-98744742D01*
X113394540Y-98932999D01*
X113414326Y-99121257D01*
X113472820Y-99301284D01*
X113528887Y-99398394D01*
X113545500Y-99460394D01*
X113545500Y-99504000D01*
X113544191Y-99521970D01*
X113540685Y-99545906D01*
X113545028Y-99595548D01*
X113545500Y-99606355D01*
X113545500Y-99611940D01*
X113549116Y-99642885D01*
X113549482Y-99646469D01*
X113556162Y-99722819D01*
X113560423Y-99742039D01*
X113586621Y-99814020D01*
X113587804Y-99817424D01*
X113611916Y-99890187D01*
X113620496Y-99907908D01*
X113662613Y-99971946D01*
X113664550Y-99974986D01*
X113669163Y-99982464D01*
X113704130Y-100039154D01*
X113704131Y-100039155D01*
X113704772Y-100040194D01*
X113717202Y-100055453D01*
X113772937Y-100108035D01*
X113775525Y-100110549D01*
X115822795Y-102157819D01*
X115853045Y-102207182D01*
X115857587Y-102264898D01*
X115835432Y-102318385D01*
X115791409Y-102355985D01*
X115735114Y-102369500D01*
X114663886Y-102369500D01*
X114616433Y-102360061D01*
X114576205Y-102333181D01*
X113940049Y-101697025D01*
X113909799Y-101647662D01*
X113857179Y-101485715D01*
X113762533Y-101321783D01*
X113635870Y-101181110D01*
X113482730Y-101069848D01*
X113309802Y-100992855D01*
X113124648Y-100953500D01*
X113124646Y-100953500D01*
X112935354Y-100953500D01*
X112935352Y-100953500D01*
X112750197Y-100992855D01*
X112577269Y-101069848D01*
X112424129Y-101181110D01*
X112297466Y-101321783D01*
X112202820Y-101485715D01*
X112144326Y-101665742D01*
X112124540Y-101854000D01*
X112144326Y-102042257D01*
X112202820Y-102222284D01*
X112297466Y-102386216D01*
X112424129Y-102526889D01*
X112577269Y-102638151D01*
X112750193Y-102715143D01*
X112750196Y-102715143D01*
X112750197Y-102715144D01*
X112808149Y-102727462D01*
X112841532Y-102739777D01*
X112870046Y-102761070D01*
X113681823Y-103572847D01*
X113713463Y-103626787D01*
X113714756Y-103689308D01*
X113685373Y-103744510D01*
X113671837Y-103759213D01*
X113535825Y-103967395D01*
X113471739Y-104113499D01*
X113435937Y-104195119D01*
X113385936Y-104392569D01*
X113374891Y-104436183D01*
X113354356Y-104684000D01*
X113374891Y-104931816D01*
X113374891Y-104931819D01*
X113374892Y-104931821D01*
X113435937Y-105172881D01*
X113439685Y-105181425D01*
X113535825Y-105400604D01*
X113535827Y-105400607D01*
X113671836Y-105608785D01*
X113840256Y-105791738D01*
X113840259Y-105791740D01*
X114036485Y-105944470D01*
X114036487Y-105944471D01*
X114036491Y-105944474D01*
X114255190Y-106062828D01*
X114490386Y-106143571D01*
X114735665Y-106184500D01*
X114984335Y-106184500D01*
X115229614Y-106143571D01*
X115464810Y-106062828D01*
X115683509Y-105944474D01*
X115879744Y-105791738D01*
X116048164Y-105608785D01*
X116184173Y-105400607D01*
X116284063Y-105172881D01*
X116345108Y-104931821D01*
X116365643Y-104684000D01*
X116345108Y-104436179D01*
X116284063Y-104195119D01*
X116221420Y-104052309D01*
X116211401Y-103992260D01*
X116231168Y-103934678D01*
X116275960Y-103893445D01*
X116334977Y-103878500D01*
X117068169Y-103878500D01*
X117106487Y-103884569D01*
X117141050Y-103902179D01*
X117149270Y-103908151D01*
X117149271Y-103908151D01*
X117149272Y-103908152D01*
X117322197Y-103985144D01*
X117507352Y-104024500D01*
X117507354Y-104024500D01*
X117696646Y-104024500D01*
X117696648Y-104024500D01*
X117820084Y-103998262D01*
X117881803Y-103985144D01*
X118054730Y-103908151D01*
X118207871Y-103796888D01*
X118334533Y-103656216D01*
X118429179Y-103492284D01*
X118487674Y-103312256D01*
X118507460Y-103124000D01*
X118490719Y-102964723D01*
X118498211Y-102907498D01*
X118530800Y-102859859D01*
X118581424Y-102832133D01*
X118639113Y-102830329D01*
X118706953Y-102844336D01*
X118710410Y-102845103D01*
X118783812Y-102862500D01*
X118783814Y-102862500D01*
X118784995Y-102862780D01*
X118804574Y-102864781D01*
X118805791Y-102864745D01*
X118805794Y-102864746D01*
X118876669Y-102862683D01*
X118881196Y-102862552D01*
X118884802Y-102862500D01*
X120840000Y-102862500D01*
X120857970Y-102863809D01*
X120861723Y-102864358D01*
X120881906Y-102867315D01*
X120931547Y-102862972D01*
X120942355Y-102862500D01*
X120947943Y-102862500D01*
X120978903Y-102858881D01*
X120982441Y-102858519D01*
X121057612Y-102851943D01*
X121057617Y-102851941D01*
X121058832Y-102851835D01*
X121078027Y-102847580D01*
X121079179Y-102847160D01*
X121079184Y-102847160D01*
X121150074Y-102821357D01*
X121153434Y-102820190D01*
X121225036Y-102796464D01*
X121225041Y-102796460D01*
X121226202Y-102796076D01*
X121243902Y-102787507D01*
X121244919Y-102786837D01*
X121244924Y-102786836D01*
X121307967Y-102745371D01*
X121310959Y-102743465D01*
X121375154Y-102703870D01*
X121375154Y-102703869D01*
X121376193Y-102703229D01*
X121391444Y-102690805D01*
X121392281Y-102689917D01*
X121392285Y-102689915D01*
X121444071Y-102635023D01*
X121446516Y-102632506D01*
X122079955Y-101999067D01*
X122108466Y-101977777D01*
X122141846Y-101965462D01*
X122178998Y-101957566D01*
X122243095Y-101960926D01*
X122296925Y-101995885D01*
X122326065Y-102053076D01*
X122322706Y-102117174D01*
X122304326Y-102173740D01*
X122284540Y-102362000D01*
X122304326Y-102550257D01*
X122362820Y-102730284D01*
X122457466Y-102894215D01*
X122475304Y-102914026D01*
X122503471Y-102966999D01*
X122503472Y-103026995D01*
X122475307Y-103079969D01*
X122457466Y-103099783D01*
X122362821Y-103263714D01*
X122337853Y-103340558D01*
X122310454Y-103386974D01*
X122265950Y-103417380D01*
X122212750Y-103426031D01*
X122160908Y-103411295D01*
X121964810Y-103305172D01*
X121964806Y-103305170D01*
X121964805Y-103305170D01*
X121729615Y-103224429D01*
X121484335Y-103183500D01*
X121235665Y-103183500D01*
X120990384Y-103224429D01*
X120755194Y-103305170D01*
X120536485Y-103423529D01*
X120340259Y-103576259D01*
X120340256Y-103576261D01*
X120340256Y-103576262D01*
X120171836Y-103759215D01*
X120126499Y-103828607D01*
X120035825Y-103967395D01*
X119971739Y-104113499D01*
X119935937Y-104195119D01*
X119885936Y-104392569D01*
X119874891Y-104436183D01*
X119854356Y-104684000D01*
X119874891Y-104931816D01*
X119874891Y-104931819D01*
X119874892Y-104931821D01*
X119935937Y-105172881D01*
X119939685Y-105181425D01*
X120035825Y-105400604D01*
X120035827Y-105400607D01*
X120171836Y-105608785D01*
X120340256Y-105791738D01*
X120340259Y-105791740D01*
X120536485Y-105944470D01*
X120536487Y-105944471D01*
X120536491Y-105944474D01*
X120755190Y-106062828D01*
X120819664Y-106084962D01*
X121000105Y-106146908D01*
X120999456Y-106148797D01*
X121043495Y-106168518D01*
X121080874Y-106218902D01*
X121088808Y-106281133D01*
X121065265Y-106339283D01*
X121016273Y-106378468D01*
X120959269Y-106403848D01*
X120806129Y-106515110D01*
X120679466Y-106655783D01*
X120584820Y-106819715D01*
X120526326Y-106999742D01*
X120506540Y-107187999D01*
X120526326Y-107376257D01*
X120584820Y-107556284D01*
X120671383Y-107706216D01*
X120687991Y-107769355D01*
X120670226Y-107832178D01*
X120623014Y-107877271D01*
X120536762Y-107923948D01*
X120489942Y-107960388D01*
X120489942Y-107960390D01*
X121360000Y-108830447D01*
X121360001Y-108830447D01*
X122230057Y-107960390D01*
X122230056Y-107960388D01*
X122183233Y-107923944D01*
X122172402Y-107918083D01*
X122130702Y-107881358D01*
X122109227Y-107830109D01*
X122112290Y-107774627D01*
X122139273Y-107726056D01*
X122144533Y-107720216D01*
X122239179Y-107556284D01*
X122291799Y-107394334D01*
X122322047Y-107344975D01*
X122617811Y-107049211D01*
X122675491Y-107016577D01*
X122741743Y-107018312D01*
X122797639Y-107053921D01*
X122838128Y-107098888D01*
X122991269Y-107210151D01*
X123164193Y-107287143D01*
X123164196Y-107287143D01*
X123164197Y-107287144D01*
X123222149Y-107299462D01*
X123255532Y-107311777D01*
X123284046Y-107333070D01*
X125659234Y-109708258D01*
X125671015Y-109721890D01*
X125685460Y-109741293D01*
X125723634Y-109773325D01*
X125731609Y-109780633D01*
X125735559Y-109784583D01*
X125755967Y-109800720D01*
X125760011Y-109803917D01*
X125762805Y-109806193D01*
X125820573Y-109854667D01*
X125820575Y-109854668D01*
X125821507Y-109855450D01*
X125838101Y-109866022D01*
X125839207Y-109866538D01*
X125839209Y-109866539D01*
X125907584Y-109898422D01*
X125910775Y-109899968D01*
X125979282Y-109934373D01*
X125997873Y-109940834D01*
X125999060Y-109941079D01*
X126072938Y-109956333D01*
X126076411Y-109957103D01*
X126149812Y-109974500D01*
X126149814Y-109974500D01*
X126150995Y-109974780D01*
X126170574Y-109976781D01*
X126171791Y-109976745D01*
X126171794Y-109976746D01*
X126242669Y-109974683D01*
X126247196Y-109974552D01*
X126250802Y-109974500D01*
X127339100Y-109974500D01*
X127396357Y-109988511D01*
X127440672Y-110027374D01*
X127485505Y-110091401D01*
X127652599Y-110258495D01*
X127846170Y-110394035D01*
X128060337Y-110493903D01*
X128288592Y-110555063D01*
X128524000Y-110575659D01*
X128759408Y-110555063D01*
X128987663Y-110493903D01*
X129201830Y-110394035D01*
X129395401Y-110258495D01*
X129562495Y-110091401D01*
X129698035Y-109897830D01*
X129797903Y-109683663D01*
X129798884Y-109680000D01*
X132186356Y-109680000D01*
X132206891Y-109927816D01*
X132206891Y-109927819D01*
X132206892Y-109927821D01*
X132267937Y-110168881D01*
X132307244Y-110258491D01*
X132367825Y-110396604D01*
X132367827Y-110396607D01*
X132503836Y-110604785D01*
X132672256Y-110787738D01*
X132672259Y-110787740D01*
X132868485Y-110940470D01*
X132868487Y-110940471D01*
X132868491Y-110940474D01*
X133087190Y-111058828D01*
X133322386Y-111139571D01*
X133567665Y-111180500D01*
X133816335Y-111180500D01*
X134061614Y-111139571D01*
X134296810Y-111058828D01*
X134515509Y-110940474D01*
X134711744Y-110787738D01*
X134880164Y-110604785D01*
X135016173Y-110396607D01*
X135116063Y-110168881D01*
X135177108Y-109927821D01*
X135197643Y-109680000D01*
X143186356Y-109680000D01*
X143206891Y-109927816D01*
X143206891Y-109927819D01*
X143206892Y-109927821D01*
X143267937Y-110168881D01*
X143307244Y-110258491D01*
X143367825Y-110396604D01*
X143367827Y-110396607D01*
X143503836Y-110604785D01*
X143672256Y-110787738D01*
X143672259Y-110787740D01*
X143868485Y-110940470D01*
X143868487Y-110940471D01*
X143868491Y-110940474D01*
X144087190Y-111058828D01*
X144322386Y-111139571D01*
X144567665Y-111180500D01*
X144816335Y-111180500D01*
X145061614Y-111139571D01*
X145296810Y-111058828D01*
X145515509Y-110940474D01*
X145711744Y-110787738D01*
X145880164Y-110604785D01*
X146016173Y-110396607D01*
X146116063Y-110168881D01*
X146177108Y-109927821D01*
X146197643Y-109680000D01*
X146177108Y-109432179D01*
X146116063Y-109191119D01*
X146016173Y-108963393D01*
X145880164Y-108755215D01*
X145711744Y-108572262D01*
X145673082Y-108542170D01*
X145515514Y-108419529D01*
X145515510Y-108419526D01*
X145515509Y-108419526D01*
X145296810Y-108301172D01*
X145296806Y-108301170D01*
X145296805Y-108301170D01*
X145061615Y-108220429D01*
X144816335Y-108179500D01*
X144567665Y-108179500D01*
X144322384Y-108220429D01*
X144087194Y-108301170D01*
X143868485Y-108419529D01*
X143672259Y-108572259D01*
X143503837Y-108755214D01*
X143367825Y-108963395D01*
X143277780Y-109168678D01*
X143267937Y-109191119D01*
X143207005Y-109431732D01*
X143206891Y-109432183D01*
X143186356Y-109680000D01*
X135197643Y-109680000D01*
X135177108Y-109432179D01*
X135116063Y-109191119D01*
X135016173Y-108963393D01*
X134880164Y-108755215D01*
X134711744Y-108572262D01*
X134673082Y-108542170D01*
X134515514Y-108419529D01*
X134515510Y-108419526D01*
X134515509Y-108419526D01*
X134296810Y-108301172D01*
X134296806Y-108301170D01*
X134296805Y-108301170D01*
X134061615Y-108220429D01*
X133816335Y-108179500D01*
X133567665Y-108179500D01*
X133322384Y-108220429D01*
X133087194Y-108301170D01*
X132868485Y-108419529D01*
X132672259Y-108572259D01*
X132503837Y-108755214D01*
X132367825Y-108963395D01*
X132277780Y-109168678D01*
X132267937Y-109191119D01*
X132207005Y-109431732D01*
X132206891Y-109432183D01*
X132186356Y-109680000D01*
X129798884Y-109680000D01*
X129859063Y-109455408D01*
X129879659Y-109220000D01*
X129859063Y-108984592D01*
X129797903Y-108756337D01*
X129698035Y-108542171D01*
X129562495Y-108348599D01*
X129395401Y-108181505D01*
X129209839Y-108051573D01*
X129170975Y-108007257D01*
X129156964Y-107950000D01*
X129170975Y-107892743D01*
X129209839Y-107848426D01*
X129395401Y-107718495D01*
X129562495Y-107551401D01*
X129698035Y-107357830D01*
X129797903Y-107143663D01*
X129859063Y-106915408D01*
X129879659Y-106680000D01*
X129859063Y-106444592D01*
X129797903Y-106216337D01*
X129698035Y-106002171D01*
X129562495Y-105808599D01*
X129395401Y-105641505D01*
X129209839Y-105511573D01*
X129170975Y-105467257D01*
X129156964Y-105410000D01*
X129170975Y-105352743D01*
X129209839Y-105308426D01*
X129395401Y-105178495D01*
X129562495Y-105011401D01*
X129698035Y-104817830D01*
X129797903Y-104603663D01*
X129859063Y-104375408D01*
X129879659Y-104140000D01*
X129859063Y-103904592D01*
X129798884Y-103680000D01*
X132186356Y-103680000D01*
X132206891Y-103927816D01*
X132206891Y-103927819D01*
X132206892Y-103927821D01*
X132267937Y-104168881D01*
X132312960Y-104271523D01*
X132367825Y-104396604D01*
X132367827Y-104396607D01*
X132503836Y-104604785D01*
X132672256Y-104787738D01*
X132672259Y-104787740D01*
X132868485Y-104940470D01*
X132868487Y-104940471D01*
X132868491Y-104940474D01*
X133087190Y-105058828D01*
X133322386Y-105139571D01*
X133567665Y-105180500D01*
X133816335Y-105180500D01*
X134018311Y-105146797D01*
X134076551Y-105151018D01*
X134126401Y-105181425D01*
X136113234Y-107168258D01*
X136125015Y-107181890D01*
X136139460Y-107201293D01*
X136177634Y-107233325D01*
X136185608Y-107240632D01*
X136189559Y-107244583D01*
X136209967Y-107260720D01*
X136214011Y-107263917D01*
X136216805Y-107266193D01*
X136274573Y-107314667D01*
X136274575Y-107314668D01*
X136275507Y-107315450D01*
X136292101Y-107326022D01*
X136293207Y-107326538D01*
X136293209Y-107326539D01*
X136361584Y-107358422D01*
X136364775Y-107359968D01*
X136433282Y-107394373D01*
X136451873Y-107400834D01*
X136453060Y-107401079D01*
X136526938Y-107416333D01*
X136530411Y-107417103D01*
X136603812Y-107434500D01*
X136603814Y-107434500D01*
X136604995Y-107434780D01*
X136624574Y-107436781D01*
X136625791Y-107436745D01*
X136625794Y-107436746D01*
X136696669Y-107434683D01*
X136701196Y-107434552D01*
X136704802Y-107434500D01*
X144650973Y-107434500D01*
X144695767Y-107442873D01*
X144734511Y-107466863D01*
X144860826Y-107582014D01*
X144860828Y-107582015D01*
X144860829Y-107582016D01*
X145038172Y-107691823D01*
X145232673Y-107767173D01*
X145437707Y-107805500D01*
X145646291Y-107805500D01*
X145646293Y-107805500D01*
X145851327Y-107767173D01*
X146045828Y-107691823D01*
X146223171Y-107582016D01*
X146377318Y-107441493D01*
X146503019Y-107275038D01*
X146503019Y-107275036D01*
X146503021Y-107275035D01*
X146595994Y-107088319D01*
X146653076Y-106887698D01*
X146662687Y-106783974D01*
X146672322Y-106680000D01*
X146653076Y-106472304D01*
X146653076Y-106472301D01*
X146595994Y-106271680D01*
X146503021Y-106084964D01*
X146377317Y-105918505D01*
X146223173Y-105777985D01*
X146045827Y-105668176D01*
X145851328Y-105592827D01*
X145782982Y-105580051D01*
X145646293Y-105554500D01*
X145437707Y-105554500D01*
X145335189Y-105573663D01*
X145232671Y-105592827D01*
X145038172Y-105668176D01*
X144860826Y-105777985D01*
X144734511Y-105893137D01*
X144695767Y-105917127D01*
X144650973Y-105925500D01*
X137055887Y-105925500D01*
X137008434Y-105916061D01*
X136968206Y-105889181D01*
X135982634Y-104903610D01*
X143821942Y-104903610D01*
X143868766Y-104940055D01*
X144087393Y-105058368D01*
X144322506Y-105139083D01*
X144567707Y-105180000D01*
X144816293Y-105180000D01*
X145061493Y-105139083D01*
X145296606Y-105058368D01*
X145515233Y-104940053D01*
X145562056Y-104903609D01*
X144692000Y-104033553D01*
X143821942Y-104903609D01*
X143821942Y-104903610D01*
X135982634Y-104903610D01*
X135192523Y-104113499D01*
X135160653Y-104058735D01*
X135159999Y-103995380D01*
X135177108Y-103927821D01*
X135197643Y-103680000D01*
X143186858Y-103680000D01*
X143207386Y-103927732D01*
X143268413Y-104168721D01*
X143368268Y-104396370D01*
X143468563Y-104549882D01*
X143468564Y-104549882D01*
X144338447Y-103680001D01*
X145045553Y-103680001D01*
X145915434Y-104549882D01*
X146015730Y-104396369D01*
X146115586Y-104168721D01*
X146176613Y-103927732D01*
X146197141Y-103680000D01*
X146176613Y-103432267D01*
X146115586Y-103191278D01*
X146015730Y-102963630D01*
X145915434Y-102810116D01*
X145045553Y-103680000D01*
X145045553Y-103680001D01*
X144338447Y-103680001D01*
X144338447Y-103680000D01*
X143468564Y-102810116D01*
X143368266Y-102963634D01*
X143268413Y-103191278D01*
X143207386Y-103432267D01*
X143186858Y-103680000D01*
X135197643Y-103680000D01*
X135177108Y-103432179D01*
X135116063Y-103191119D01*
X135016173Y-102963393D01*
X134880164Y-102755215D01*
X134711744Y-102572262D01*
X134582162Y-102471404D01*
X134562872Y-102456390D01*
X143821942Y-102456390D01*
X144692000Y-103326447D01*
X144692001Y-103326447D01*
X145562057Y-102456390D01*
X145562056Y-102456388D01*
X145515235Y-102419947D01*
X145296606Y-102301631D01*
X145061493Y-102220916D01*
X144816293Y-102180000D01*
X144567707Y-102180000D01*
X144322506Y-102220916D01*
X144087393Y-102301631D01*
X143868764Y-102419946D01*
X143821942Y-102456388D01*
X143821942Y-102456390D01*
X134562872Y-102456390D01*
X134515514Y-102419529D01*
X134515510Y-102419526D01*
X134515509Y-102419526D01*
X134296810Y-102301172D01*
X134296806Y-102301170D01*
X134296805Y-102301170D01*
X134061615Y-102220429D01*
X133816335Y-102179500D01*
X133567665Y-102179500D01*
X133322384Y-102220429D01*
X133087194Y-102301170D01*
X132868485Y-102419529D01*
X132672259Y-102572259D01*
X132672256Y-102572261D01*
X132672256Y-102572262D01*
X132503836Y-102755215D01*
X132483177Y-102786836D01*
X132367825Y-102963395D01*
X132308000Y-103099784D01*
X132267937Y-103191119D01*
X132208449Y-103426031D01*
X132206891Y-103432183D01*
X132186356Y-103680000D01*
X129798884Y-103680000D01*
X129797903Y-103676337D01*
X129698035Y-103462171D01*
X129562495Y-103268599D01*
X129395401Y-103101505D01*
X129209839Y-102971573D01*
X129170974Y-102927255D01*
X129156964Y-102869999D01*
X129170975Y-102812742D01*
X129209837Y-102768428D01*
X129395401Y-102638495D01*
X129562495Y-102471401D01*
X129698035Y-102277830D01*
X129797903Y-102063663D01*
X129859063Y-101835408D01*
X129879659Y-101600000D01*
X129859063Y-101364592D01*
X129797903Y-101136337D01*
X129698035Y-100922171D01*
X129562495Y-100728599D01*
X129395401Y-100561505D01*
X129209839Y-100431573D01*
X129170974Y-100387255D01*
X129156964Y-100329999D01*
X129170975Y-100272742D01*
X129209837Y-100228428D01*
X129395401Y-100098495D01*
X129562495Y-99931401D01*
X129698035Y-99737830D01*
X129797903Y-99523663D01*
X129859063Y-99295408D01*
X129879659Y-99060000D01*
X129864995Y-98892399D01*
X129859063Y-98824592D01*
X129837668Y-98744744D01*
X129797903Y-98596337D01*
X129777228Y-98551999D01*
X132506551Y-98551999D01*
X132526317Y-98803149D01*
X132585126Y-99048110D01*
X132615425Y-99121257D01*
X132681534Y-99280859D01*
X132813164Y-99495659D01*
X132976776Y-99687224D01*
X133168341Y-99850836D01*
X133383141Y-99982466D01*
X133615889Y-100078873D01*
X133860852Y-100137683D01*
X134112000Y-100157449D01*
X134363148Y-100137683D01*
X134608111Y-100078873D01*
X134840859Y-99982466D01*
X135055659Y-99850836D01*
X135247224Y-99687224D01*
X135410836Y-99495659D01*
X135542466Y-99280859D01*
X135638873Y-99048111D01*
X135697683Y-98803148D01*
X135717449Y-98552000D01*
X135717449Y-98551999D01*
X138348551Y-98551999D01*
X138368317Y-98803149D01*
X138427126Y-99048110D01*
X138457425Y-99121257D01*
X138523534Y-99280859D01*
X138655164Y-99495659D01*
X138818776Y-99687224D01*
X139010341Y-99850836D01*
X139225141Y-99982466D01*
X139457889Y-100078873D01*
X139702852Y-100137683D01*
X139954000Y-100157449D01*
X140205148Y-100137683D01*
X140450111Y-100078873D01*
X140682859Y-99982466D01*
X140897659Y-99850836D01*
X141089224Y-99687224D01*
X141252836Y-99495659D01*
X141384466Y-99280859D01*
X141480873Y-99048111D01*
X141539683Y-98803148D01*
X141559449Y-98552000D01*
X141539683Y-98300852D01*
X141480873Y-98055889D01*
X141384466Y-97823141D01*
X141252836Y-97608341D01*
X141089224Y-97416776D01*
X140897659Y-97253164D01*
X140682859Y-97121534D01*
X140506662Y-97048551D01*
X140450110Y-97025126D01*
X140205149Y-96966317D01*
X139954000Y-96946551D01*
X139702850Y-96966317D01*
X139457889Y-97025126D01*
X139225139Y-97121535D01*
X139010342Y-97253163D01*
X138818776Y-97416776D01*
X138655163Y-97608342D01*
X138523535Y-97823139D01*
X138427126Y-98055889D01*
X138368317Y-98300850D01*
X138348551Y-98551999D01*
X135717449Y-98551999D01*
X135697683Y-98300852D01*
X135638873Y-98055889D01*
X135542466Y-97823141D01*
X135410836Y-97608341D01*
X135247224Y-97416776D01*
X135055659Y-97253164D01*
X134840859Y-97121534D01*
X134664662Y-97048551D01*
X134608110Y-97025126D01*
X134363149Y-96966317D01*
X134112000Y-96946551D01*
X133860850Y-96966317D01*
X133615889Y-97025126D01*
X133383139Y-97121535D01*
X133168342Y-97253163D01*
X132976776Y-97416776D01*
X132813163Y-97608342D01*
X132681535Y-97823139D01*
X132585126Y-98055889D01*
X132526317Y-98300850D01*
X132506551Y-98551999D01*
X129777228Y-98551999D01*
X129698035Y-98382171D01*
X129562495Y-98188599D01*
X129395401Y-98021505D01*
X129209839Y-97891573D01*
X129170976Y-97847257D01*
X129156965Y-97790000D01*
X129170976Y-97732743D01*
X129209839Y-97688426D01*
X129395401Y-97558495D01*
X129562495Y-97391401D01*
X129698035Y-97197830D01*
X129797903Y-96983663D01*
X129859063Y-96755408D01*
X129879659Y-96520000D01*
X129859063Y-96284592D01*
X129797903Y-96056337D01*
X129698035Y-95842171D01*
X129562495Y-95648599D01*
X129395401Y-95481505D01*
X129209839Y-95351573D01*
X129170975Y-95307257D01*
X129156964Y-95250000D01*
X129170975Y-95192743D01*
X129209839Y-95148426D01*
X129395401Y-95018495D01*
X129562495Y-94851401D01*
X129698035Y-94657830D01*
X129797903Y-94443663D01*
X129859063Y-94215408D01*
X129879659Y-93980000D01*
X129859063Y-93744592D01*
X129797903Y-93516337D01*
X129698035Y-93302171D01*
X129562495Y-93108599D01*
X129395401Y-92941505D01*
X129209839Y-92811573D01*
X129170974Y-92767255D01*
X129156964Y-92709999D01*
X129170975Y-92652742D01*
X129209837Y-92608428D01*
X129395401Y-92478495D01*
X129562495Y-92311401D01*
X129698035Y-92117830D01*
X129797903Y-91903663D01*
X129859063Y-91675408D01*
X129879659Y-91440000D01*
X129869062Y-91318884D01*
X129859063Y-91204592D01*
X129857699Y-91199500D01*
X129797903Y-90976337D01*
X129698035Y-90762171D01*
X129639098Y-90678000D01*
X158008865Y-90678000D01*
X158029366Y-90925403D01*
X158029366Y-90925406D01*
X158029367Y-90925408D01*
X158089225Y-91161784D01*
X158090311Y-91166069D01*
X158190031Y-91393410D01*
X158190033Y-91393413D01*
X158306837Y-91572195D01*
X158322666Y-91596422D01*
X158341801Y-91648096D01*
X158336659Y-91702958D01*
X158308254Y-91750175D01*
X158285679Y-91765001D01*
X158286442Y-91766020D01*
X158272170Y-91776703D01*
X158272169Y-91776704D01*
X158215947Y-91818792D01*
X158156954Y-91862954D01*
X158070704Y-91978168D01*
X158020409Y-92113016D01*
X158018806Y-92127919D01*
X158014637Y-92166709D01*
X158014000Y-92172630D01*
X158014000Y-94263369D01*
X158017911Y-94299744D01*
X158020409Y-94322983D01*
X158070704Y-94457831D01*
X158156954Y-94573046D01*
X158272169Y-94659296D01*
X158407017Y-94709591D01*
X158466627Y-94716000D01*
X160557372Y-94715999D01*
X160616983Y-94709591D01*
X160751831Y-94659296D01*
X160867046Y-94573046D01*
X160953296Y-94457831D01*
X161003591Y-94322983D01*
X161010000Y-94263373D01*
X161009999Y-92172628D01*
X161003591Y-92113017D01*
X160953296Y-91978169D01*
X160867046Y-91862954D01*
X160751831Y-91776704D01*
X160751828Y-91776703D01*
X160737558Y-91766020D01*
X160738320Y-91765001D01*
X160715746Y-91750175D01*
X160687341Y-91702958D01*
X160682199Y-91648096D01*
X160701334Y-91596422D01*
X160717162Y-91572196D01*
X160833967Y-91393413D01*
X160933690Y-91166067D01*
X160993977Y-90928000D01*
X182782633Y-90928000D01*
X182800619Y-91035792D01*
X182878780Y-91263460D01*
X182993348Y-91475164D01*
X183141201Y-91665126D01*
X183318292Y-91828151D01*
X183519819Y-91959815D01*
X183740255Y-92056506D01*
X183973611Y-92115600D01*
X184153418Y-92130500D01*
X184916000Y-92130500D01*
X184916000Y-90928000D01*
X185416000Y-90928000D01*
X185416000Y-92130500D01*
X186178582Y-92130500D01*
X186358388Y-92115600D01*
X186591744Y-92056506D01*
X186812180Y-91959815D01*
X187013707Y-91828151D01*
X187190798Y-91665126D01*
X187338651Y-91475164D01*
X187453219Y-91263460D01*
X187531380Y-91035792D01*
X187549367Y-90928000D01*
X185416000Y-90928000D01*
X184916000Y-90928000D01*
X182782633Y-90928000D01*
X160993977Y-90928000D01*
X160994633Y-90925408D01*
X161015134Y-90678000D01*
X160994633Y-90430592D01*
X160993976Y-90427999D01*
X182782633Y-90427999D01*
X182782634Y-90428000D01*
X184916000Y-90428000D01*
X184916000Y-89225500D01*
X185416000Y-89225500D01*
X185416000Y-90428000D01*
X187549366Y-90428000D01*
X187549366Y-90427999D01*
X187531380Y-90320207D01*
X187453219Y-90092539D01*
X187338651Y-89880835D01*
X187190798Y-89690873D01*
X187013707Y-89527848D01*
X186812180Y-89396184D01*
X186591744Y-89299493D01*
X186358388Y-89240399D01*
X186178582Y-89225500D01*
X185416000Y-89225500D01*
X184916000Y-89225500D01*
X184153418Y-89225500D01*
X183973611Y-89240399D01*
X183740255Y-89299493D01*
X183519819Y-89396184D01*
X183318292Y-89527848D01*
X183141201Y-89690873D01*
X182993348Y-89880835D01*
X182878780Y-90092539D01*
X182800619Y-90320207D01*
X182782633Y-90427999D01*
X160993976Y-90427999D01*
X160933690Y-90189933D01*
X160833967Y-89962587D01*
X160818227Y-89938495D01*
X160698186Y-89754758D01*
X160530045Y-89572107D01*
X160426262Y-89491331D01*
X160389389Y-89444458D01*
X160378662Y-89385793D01*
X160380274Y-89359827D01*
X159512000Y-88491553D01*
X158643724Y-89359827D01*
X158645336Y-89385794D01*
X158634609Y-89444458D01*
X158597737Y-89491330D01*
X158493955Y-89572106D01*
X158325813Y-89754758D01*
X158190033Y-89962585D01*
X158107560Y-90150606D01*
X158090310Y-90189933D01*
X158059977Y-90309715D01*
X158029366Y-90430596D01*
X158008865Y-90678000D01*
X129639098Y-90678000D01*
X129562495Y-90568599D01*
X129395401Y-90401505D01*
X129209839Y-90271573D01*
X129170975Y-90227257D01*
X129156964Y-90170000D01*
X129170975Y-90112743D01*
X129209839Y-90068426D01*
X129395401Y-89938495D01*
X129562495Y-89771401D01*
X129698035Y-89577830D01*
X129715737Y-89539869D01*
X132511500Y-89539869D01*
X132517909Y-89599484D01*
X132536700Y-89649865D01*
X132568204Y-89734331D01*
X132654454Y-89849546D01*
X132769669Y-89935796D01*
X132904517Y-89986091D01*
X132964127Y-89992500D01*
X135259872Y-89992499D01*
X135319483Y-89986091D01*
X135454331Y-89935796D01*
X135569546Y-89849546D01*
X135655796Y-89734331D01*
X135706091Y-89599483D01*
X135712500Y-89539873D01*
X135712500Y-89539869D01*
X138353500Y-89539869D01*
X138359909Y-89599484D01*
X138378700Y-89649865D01*
X138410204Y-89734331D01*
X138496454Y-89849546D01*
X138611669Y-89935796D01*
X138746517Y-89986091D01*
X138806127Y-89992500D01*
X141101872Y-89992499D01*
X141161483Y-89986091D01*
X141296331Y-89935796D01*
X141411546Y-89849546D01*
X141497796Y-89734331D01*
X141548091Y-89599483D01*
X141554500Y-89539873D01*
X141554499Y-88137999D01*
X158009367Y-88137999D01*
X158029861Y-88385320D01*
X158090786Y-88625905D01*
X158190474Y-88853174D01*
X158290370Y-89006075D01*
X159158447Y-88138001D01*
X159865553Y-88138001D01*
X160733628Y-89006076D01*
X160833524Y-88853174D01*
X160933214Y-88625905D01*
X160994138Y-88385320D01*
X161014632Y-88137999D01*
X160994138Y-87890679D01*
X160933213Y-87650094D01*
X160833526Y-87422828D01*
X160733628Y-87269922D01*
X159865553Y-88138000D01*
X159865553Y-88138001D01*
X159158447Y-88138001D01*
X159158447Y-88137999D01*
X158290370Y-87269923D01*
X158190474Y-87422826D01*
X158090785Y-87650094D01*
X158029861Y-87890679D01*
X158009367Y-88137999D01*
X141554499Y-88137999D01*
X141554499Y-87244128D01*
X141550601Y-87207869D01*
X143962849Y-87207869D01*
X143969258Y-87267484D01*
X143987907Y-87317483D01*
X144019553Y-87402331D01*
X144105803Y-87517546D01*
X144221018Y-87603796D01*
X144355866Y-87654091D01*
X144415476Y-87660500D01*
X146111221Y-87660499D01*
X146170832Y-87654091D01*
X146305680Y-87603796D01*
X146420895Y-87517546D01*
X146479675Y-87439026D01*
X148337875Y-87439026D01*
X148410864Y-87490133D01*
X148617022Y-87586266D01*
X148836746Y-87645141D01*
X149063348Y-87664966D01*
X149289951Y-87645141D01*
X149509675Y-87586266D01*
X149715829Y-87490134D01*
X149788821Y-87439025D01*
X149063350Y-86713553D01*
X149063349Y-86713553D01*
X148337875Y-87439025D01*
X148337875Y-87439026D01*
X146479675Y-87439026D01*
X146507145Y-87402331D01*
X146557440Y-87267483D01*
X146563849Y-87207873D01*
X146563848Y-86360000D01*
X147758382Y-86360000D01*
X147778207Y-86586602D01*
X147837082Y-86806326D01*
X147933215Y-87012484D01*
X147984321Y-87085471D01*
X147984323Y-87085472D01*
X148709795Y-86360001D01*
X149416902Y-86360001D01*
X150142374Y-87085472D01*
X150193483Y-87012480D01*
X150238393Y-86916171D01*
X158643723Y-86916171D01*
X159512000Y-87784447D01*
X159512001Y-87784447D01*
X160380274Y-86916171D01*
X160380274Y-86916169D01*
X160333863Y-86880047D01*
X160115598Y-86761929D01*
X159880877Y-86681348D01*
X159636085Y-86640500D01*
X159387915Y-86640500D01*
X159143122Y-86681348D01*
X158908401Y-86761929D01*
X158690136Y-86880047D01*
X158643724Y-86916170D01*
X158643723Y-86916171D01*
X150238393Y-86916171D01*
X150289615Y-86806326D01*
X150348490Y-86586602D01*
X150368315Y-86360000D01*
X150348490Y-86133397D01*
X150289615Y-85913673D01*
X150193482Y-85707515D01*
X150142374Y-85634526D01*
X149416902Y-86360000D01*
X149416902Y-86360001D01*
X148709795Y-86360001D01*
X148709795Y-86360000D01*
X147984322Y-85634526D01*
X147984322Y-85634527D01*
X147933214Y-85707516D01*
X147837082Y-85913672D01*
X147778207Y-86133397D01*
X147758382Y-86360000D01*
X146563848Y-86360000D01*
X146563848Y-85512128D01*
X146557440Y-85452517D01*
X146507145Y-85317669D01*
X146479674Y-85280973D01*
X148337875Y-85280973D01*
X149063349Y-86006446D01*
X149063350Y-86006446D01*
X149788821Y-85280974D01*
X149788820Y-85280972D01*
X149715833Y-85229866D01*
X149509675Y-85133733D01*
X149289951Y-85074858D01*
X149063348Y-85055033D01*
X148836746Y-85074858D01*
X148617021Y-85133733D01*
X148410865Y-85229865D01*
X148337876Y-85280973D01*
X148337875Y-85280973D01*
X146479674Y-85280973D01*
X146420895Y-85202454D01*
X146305680Y-85116204D01*
X146170832Y-85065909D01*
X146111222Y-85059500D01*
X146111218Y-85059500D01*
X144415479Y-85059500D01*
X144355864Y-85065909D01*
X144221018Y-85116204D01*
X144105803Y-85202454D01*
X144019553Y-85317668D01*
X143969258Y-85452516D01*
X143962849Y-85512130D01*
X143962849Y-87207869D01*
X141550601Y-87207869D01*
X141548091Y-87184517D01*
X141497796Y-87049669D01*
X141411546Y-86934454D01*
X141296331Y-86848204D01*
X141161483Y-86797909D01*
X141101873Y-86791500D01*
X141101869Y-86791500D01*
X138806130Y-86791500D01*
X138746515Y-86797909D01*
X138611669Y-86848204D01*
X138496454Y-86934454D01*
X138410204Y-87049668D01*
X138359909Y-87184515D01*
X138359909Y-87184517D01*
X138354162Y-87237976D01*
X138353500Y-87244130D01*
X138353500Y-89539869D01*
X135712500Y-89539869D01*
X135712499Y-87244128D01*
X135706091Y-87184517D01*
X135655796Y-87049669D01*
X135569546Y-86934454D01*
X135454331Y-86848204D01*
X135319483Y-86797909D01*
X135259873Y-86791500D01*
X135259869Y-86791500D01*
X132964130Y-86791500D01*
X132904515Y-86797909D01*
X132769669Y-86848204D01*
X132654454Y-86934454D01*
X132568204Y-87049668D01*
X132517909Y-87184515D01*
X132517909Y-87184517D01*
X132512162Y-87237976D01*
X132511500Y-87244130D01*
X132511500Y-89539869D01*
X129715737Y-89539869D01*
X129797903Y-89363663D01*
X129859063Y-89135408D01*
X129879659Y-88900000D01*
X129879505Y-88898245D01*
X129859063Y-88664592D01*
X129853698Y-88644569D01*
X129797903Y-88436337D01*
X129698035Y-88222171D01*
X129562495Y-88028599D01*
X129395401Y-87861505D01*
X129209839Y-87731573D01*
X129170975Y-87687257D01*
X129156964Y-87630000D01*
X129170975Y-87572743D01*
X129209839Y-87528426D01*
X129395401Y-87398495D01*
X129562495Y-87231401D01*
X129698035Y-87037830D01*
X129797903Y-86823663D01*
X129859063Y-86595408D01*
X129879659Y-86360000D01*
X129859063Y-86124592D01*
X129797903Y-85896337D01*
X129698035Y-85682171D01*
X129562495Y-85488599D01*
X129395401Y-85321505D01*
X129209402Y-85191267D01*
X129170539Y-85146951D01*
X129156528Y-85089694D01*
X129170539Y-85032437D01*
X129209405Y-84988119D01*
X129395078Y-84858109D01*
X129562106Y-84691081D01*
X129697600Y-84497576D01*
X129797430Y-84283492D01*
X129854636Y-84070000D01*
X127193364Y-84070000D01*
X127250569Y-84283492D01*
X127350399Y-84497576D01*
X127485893Y-84691081D01*
X127652918Y-84858106D01*
X127838595Y-84988119D01*
X127877460Y-85032437D01*
X127891471Y-85089694D01*
X127877460Y-85146951D01*
X127838595Y-85191269D01*
X127691632Y-85294173D01*
X127658078Y-85317669D01*
X127652595Y-85321508D01*
X127485505Y-85488598D01*
X127349965Y-85682170D01*
X127250097Y-85896336D01*
X127188936Y-86124592D01*
X127168340Y-86360000D01*
X127188936Y-86595407D01*
X127201019Y-86640500D01*
X127250097Y-86823663D01*
X127349965Y-87037830D01*
X127485505Y-87231401D01*
X127652599Y-87398495D01*
X127838160Y-87528426D01*
X127877024Y-87572743D01*
X127891035Y-87630000D01*
X127877024Y-87687257D01*
X127838158Y-87731575D01*
X127718616Y-87815280D01*
X127652595Y-87861508D01*
X127485506Y-88028597D01*
X127432153Y-88104792D01*
X127392595Y-88141045D01*
X127367313Y-88149022D01*
X127368135Y-88151503D01*
X127355860Y-88155569D01*
X127333951Y-88160426D01*
X127261932Y-88186637D01*
X127258531Y-88187819D01*
X127185817Y-88211915D01*
X127168089Y-88220497D01*
X127104067Y-88262604D01*
X127101030Y-88264539D01*
X127035816Y-88304765D01*
X127020543Y-88317206D01*
X126967944Y-88372956D01*
X126965433Y-88375541D01*
X125824046Y-89516928D01*
X125795534Y-89538220D01*
X125762149Y-89550537D01*
X125704197Y-89562856D01*
X125531267Y-89639849D01*
X125378129Y-89751110D01*
X125251466Y-89891783D01*
X125150304Y-90067003D01*
X125149283Y-90066414D01*
X125123765Y-90106273D01*
X125068541Y-90135787D01*
X125005938Y-90134556D01*
X124951918Y-90102893D01*
X123338047Y-88489022D01*
X123307798Y-88439661D01*
X123263968Y-88304765D01*
X123255179Y-88277715D01*
X123160533Y-88113783D01*
X123033870Y-87973110D01*
X122933225Y-87899988D01*
X122890938Y-87845619D01*
X122884186Y-87777073D01*
X122915054Y-87715499D01*
X122974017Y-87679895D01*
X122992346Y-87674983D01*
X123145663Y-87633903D01*
X123359830Y-87534035D01*
X123553401Y-87398495D01*
X123720495Y-87231401D01*
X123856035Y-87037830D01*
X123955903Y-86823663D01*
X124017063Y-86595408D01*
X124037659Y-86360000D01*
X124017063Y-86124592D01*
X123955903Y-85896337D01*
X123856035Y-85682171D01*
X123720495Y-85488599D01*
X123553401Y-85321505D01*
X123359830Y-85185965D01*
X123145663Y-85086097D01*
X123084501Y-85069709D01*
X122917407Y-85024936D01*
X122681999Y-85004340D01*
X122446592Y-85024936D01*
X122218336Y-85086097D01*
X122004170Y-85185965D01*
X121810598Y-85321505D01*
X121643505Y-85488598D01*
X121513575Y-85674159D01*
X121469257Y-85713025D01*
X121412000Y-85727036D01*
X121354743Y-85713025D01*
X121310425Y-85674159D01*
X121282674Y-85634526D01*
X121180495Y-85488599D01*
X121013401Y-85321505D01*
X120819830Y-85185965D01*
X120605663Y-85086097D01*
X120544501Y-85069709D01*
X120377407Y-85024936D01*
X120141999Y-85004340D01*
X119906592Y-85024936D01*
X119678336Y-85086097D01*
X119464170Y-85185965D01*
X119270598Y-85321505D01*
X119103505Y-85488598D01*
X118973575Y-85674159D01*
X118929257Y-85713025D01*
X118872000Y-85727036D01*
X118814743Y-85713025D01*
X118770425Y-85674159D01*
X118742674Y-85634526D01*
X118640495Y-85488599D01*
X118473401Y-85321505D01*
X118279830Y-85185965D01*
X118065663Y-85086097D01*
X118004501Y-85069709D01*
X117837407Y-85024936D01*
X117601999Y-85004340D01*
X117366592Y-85024936D01*
X117138336Y-85086097D01*
X116924170Y-85185965D01*
X116730598Y-85321505D01*
X116563508Y-85488595D01*
X116563505Y-85488598D01*
X116563505Y-85488599D01*
X116461326Y-85634526D01*
X116433269Y-85674596D01*
X116388951Y-85713461D01*
X116331694Y-85727472D01*
X116274437Y-85713461D01*
X116230119Y-85674595D01*
X116100109Y-85488921D01*
X115933081Y-85321893D01*
X115739576Y-85186399D01*
X115525492Y-85086569D01*
X115312000Y-85029364D01*
X115312000Y-87690635D01*
X115525492Y-87633430D01*
X115739576Y-87533600D01*
X115933081Y-87398106D01*
X116100109Y-87231078D01*
X116230119Y-87045405D01*
X116274437Y-87006539D01*
X116331694Y-86992528D01*
X116388951Y-87006539D01*
X116433267Y-87045402D01*
X116563505Y-87231401D01*
X116563508Y-87231404D01*
X116660858Y-87328754D01*
X116692952Y-87384341D01*
X116692952Y-87448529D01*
X116660858Y-87504116D01*
X115589741Y-88575233D01*
X115576112Y-88587012D01*
X115556708Y-88601458D01*
X115536499Y-88625540D01*
X115530488Y-88632706D01*
X115524676Y-88639632D01*
X115517379Y-88647596D01*
X115513414Y-88651561D01*
X115494089Y-88676001D01*
X115491814Y-88678794D01*
X115442554Y-88737500D01*
X115431972Y-88754112D01*
X115399581Y-88823571D01*
X115398011Y-88826813D01*
X115363632Y-88895269D01*
X115357164Y-88913878D01*
X115341671Y-88988911D01*
X115340891Y-88992430D01*
X115323219Y-89066996D01*
X115321218Y-89086574D01*
X115323448Y-89163196D01*
X115323500Y-89166802D01*
X115323500Y-90150606D01*
X115306887Y-90212606D01*
X115250820Y-90309715D01*
X115192326Y-90489742D01*
X115172540Y-90677999D01*
X115192326Y-90866257D01*
X115250820Y-91046284D01*
X115345466Y-91210216D01*
X115472129Y-91350889D01*
X115625269Y-91462151D01*
X115798197Y-91539144D01*
X115983352Y-91578500D01*
X115983354Y-91578500D01*
X116172646Y-91578500D01*
X116172648Y-91578500D01*
X116296084Y-91552262D01*
X116357803Y-91539144D01*
X116530730Y-91462151D01*
X116683871Y-91350888D01*
X116810533Y-91210216D01*
X116905179Y-91046284D01*
X116963674Y-90866256D01*
X116983460Y-90678000D01*
X116963674Y-90489744D01*
X116908588Y-90320207D01*
X116905179Y-90309715D01*
X116849113Y-90212606D01*
X116832500Y-90150606D01*
X116832500Y-89517886D01*
X116841939Y-89470433D01*
X116868816Y-89430207D01*
X117029812Y-89269211D01*
X117087492Y-89236577D01*
X117153745Y-89238312D01*
X117209641Y-89273922D01*
X117250129Y-89318889D01*
X117403269Y-89430151D01*
X117576193Y-89507143D01*
X117576196Y-89507143D01*
X117576197Y-89507144D01*
X117634149Y-89519462D01*
X117667532Y-89531777D01*
X117696046Y-89553070D01*
X121664795Y-93521819D01*
X121695045Y-93571182D01*
X121699587Y-93628898D01*
X121677432Y-93682385D01*
X121633409Y-93719985D01*
X121577114Y-93733500D01*
X119913831Y-93733500D01*
X119875513Y-93727431D01*
X119840949Y-93709820D01*
X119832730Y-93703849D01*
X119832729Y-93703848D01*
X119832727Y-93703847D01*
X119659802Y-93626855D01*
X119474648Y-93587500D01*
X119474646Y-93587500D01*
X119285354Y-93587500D01*
X119285352Y-93587500D01*
X119100197Y-93626855D01*
X118927269Y-93703848D01*
X118774129Y-93815110D01*
X118647466Y-93955783D01*
X118552820Y-94119715D01*
X118494326Y-94299742D01*
X118491883Y-94322984D01*
X118474540Y-94488000D01*
X118480887Y-94548387D01*
X118494326Y-94676257D01*
X118552820Y-94856284D01*
X118647466Y-95020216D01*
X118774129Y-95160889D01*
X118927269Y-95272151D01*
X119100197Y-95349144D01*
X119285352Y-95388500D01*
X119285354Y-95388500D01*
X119474646Y-95388500D01*
X119474648Y-95388500D01*
X119598084Y-95362262D01*
X119659803Y-95349144D01*
X119832730Y-95272151D01*
X119840949Y-95266179D01*
X119875513Y-95248569D01*
X119913831Y-95242500D01*
X121556114Y-95242500D01*
X121603567Y-95251939D01*
X121643795Y-95278819D01*
X122745181Y-96380205D01*
X122772061Y-96420433D01*
X122781500Y-96467886D01*
X122781500Y-100104000D01*
X122780191Y-100121970D01*
X122776685Y-100145906D01*
X122781028Y-100195548D01*
X122781500Y-100206355D01*
X122781500Y-100211940D01*
X122785116Y-100242885D01*
X122785482Y-100246469D01*
X122792162Y-100322819D01*
X122796422Y-100342036D01*
X122808895Y-100376305D01*
X122813840Y-100443649D01*
X122782765Y-100503599D01*
X122724885Y-100538377D01*
X122657363Y-100537670D01*
X122600223Y-100501688D01*
X122555865Y-100452424D01*
X122525871Y-100419112D01*
X122525867Y-100419109D01*
X122372730Y-100307848D01*
X122199802Y-100230855D01*
X122014648Y-100191500D01*
X122014646Y-100191500D01*
X121825354Y-100191500D01*
X121825352Y-100191500D01*
X121640199Y-100230854D01*
X121490411Y-100297545D01*
X121439976Y-100308265D01*
X121389541Y-100297545D01*
X121347826Y-100267238D01*
X121325898Y-100242885D01*
X121255871Y-100165112D01*
X121245324Y-100157449D01*
X121102730Y-100053848D01*
X120929802Y-99976855D01*
X120744648Y-99937500D01*
X120744646Y-99937500D01*
X120555354Y-99937500D01*
X120555352Y-99937500D01*
X120370196Y-99976855D01*
X120344730Y-99988193D01*
X120296460Y-99998893D01*
X120247846Y-99989882D01*
X120206617Y-99962593D01*
X120170819Y-99926795D01*
X120143939Y-99886567D01*
X120134500Y-99839114D01*
X120134500Y-97599993D01*
X120135809Y-97582023D01*
X120136121Y-97579888D01*
X120139314Y-97558093D01*
X120134972Y-97508459D01*
X120134500Y-97497653D01*
X120134500Y-97492057D01*
X120130882Y-97461109D01*
X120130515Y-97457516D01*
X120123837Y-97381175D01*
X120119580Y-97361972D01*
X120119160Y-97360819D01*
X120119160Y-97360816D01*
X120093347Y-97289896D01*
X120092199Y-97286593D01*
X120068464Y-97214964D01*
X120068462Y-97214961D01*
X120068078Y-97213801D01*
X120059504Y-97196091D01*
X120017376Y-97132038D01*
X120015461Y-97129033D01*
X119975870Y-97064846D01*
X119975229Y-97063806D01*
X119962802Y-97048551D01*
X119907061Y-96995963D01*
X119904473Y-96993449D01*
X114274671Y-91363647D01*
X114246016Y-91318884D01*
X114238734Y-91266237D01*
X114254163Y-91215377D01*
X114289467Y-91175648D01*
X114335818Y-91141972D01*
X114397871Y-91096888D01*
X114524533Y-90956216D01*
X114619179Y-90792284D01*
X114677674Y-90612256D01*
X114697460Y-90424000D01*
X114677674Y-90235744D01*
X114625131Y-90074035D01*
X114619179Y-90055715D01*
X114524533Y-89891783D01*
X114397870Y-89751110D01*
X114244732Y-89639849D01*
X114129445Y-89588520D01*
X114071803Y-89562856D01*
X114049092Y-89558028D01*
X114013850Y-89550537D01*
X113980464Y-89538220D01*
X113951952Y-89516928D01*
X113100766Y-88665742D01*
X113088983Y-88652108D01*
X113085624Y-88647596D01*
X113074539Y-88632706D01*
X113036364Y-88600673D01*
X113028389Y-88593365D01*
X113024439Y-88589415D01*
X112999986Y-88570079D01*
X112997192Y-88567804D01*
X112938494Y-88518550D01*
X112921901Y-88507979D01*
X112920792Y-88507461D01*
X112920791Y-88507461D01*
X112901863Y-88498634D01*
X112881387Y-88486572D01*
X112720730Y-88369848D01*
X112547802Y-88292855D01*
X112362648Y-88253500D01*
X112362646Y-88253500D01*
X112173354Y-88253500D01*
X112173352Y-88253500D01*
X111988197Y-88292855D01*
X111815269Y-88369848D01*
X111662129Y-88481111D01*
X111621640Y-88526078D01*
X111565744Y-88561687D01*
X111499492Y-88563422D01*
X111441810Y-88530786D01*
X110306766Y-87395742D01*
X110294983Y-87382108D01*
X110280538Y-87362705D01*
X110242365Y-87330674D01*
X110234389Y-87323365D01*
X110230439Y-87319415D01*
X110205986Y-87300079D01*
X110203192Y-87297804D01*
X110177270Y-87276053D01*
X110145427Y-87249333D01*
X110145425Y-87249332D01*
X110144492Y-87248549D01*
X110127898Y-87237976D01*
X110058442Y-87205589D01*
X110055197Y-87204018D01*
X109986722Y-87169629D01*
X109968125Y-87163165D01*
X109893086Y-87147670D01*
X109889569Y-87146890D01*
X109815005Y-87129219D01*
X109795425Y-87127218D01*
X109718804Y-87129448D01*
X109715198Y-87129500D01*
X107721831Y-87129500D01*
X107683513Y-87123431D01*
X107648949Y-87105820D01*
X107640730Y-87099849D01*
X107636079Y-87097778D01*
X107584694Y-87055268D01*
X107562762Y-86992285D01*
X107576628Y-86927051D01*
X107622282Y-86878435D01*
X107686517Y-86860500D01*
X111047501Y-86860500D01*
X111109501Y-86877113D01*
X111154888Y-86922500D01*
X111171501Y-86984500D01*
X111171501Y-87257872D01*
X111175772Y-87297612D01*
X111177909Y-87317484D01*
X111182829Y-87330674D01*
X111228204Y-87452331D01*
X111314454Y-87567546D01*
X111429669Y-87653796D01*
X111564517Y-87704091D01*
X111624127Y-87710500D01*
X113419872Y-87710499D01*
X113479483Y-87704091D01*
X113614331Y-87653796D01*
X113729546Y-87567546D01*
X113815796Y-87452331D01*
X113865003Y-87320398D01*
X113899981Y-87270021D01*
X113954826Y-87242568D01*
X114016119Y-87244757D01*
X114068865Y-87276053D01*
X114190918Y-87398106D01*
X114384423Y-87533600D01*
X114598507Y-87633430D01*
X114811999Y-87690635D01*
X114812000Y-87690636D01*
X114812000Y-85029364D01*
X114811999Y-85029364D01*
X114598507Y-85086569D01*
X114384421Y-85186400D01*
X114190924Y-85321888D01*
X114068865Y-85443947D01*
X114016118Y-85475242D01*
X113954825Y-85477431D01*
X113899981Y-85449978D01*
X113865002Y-85399598D01*
X113815796Y-85267669D01*
X113729546Y-85152454D01*
X113614331Y-85066204D01*
X113479483Y-85015909D01*
X113419873Y-85009500D01*
X113419869Y-85009500D01*
X111624130Y-85009500D01*
X111564515Y-85015909D01*
X111430460Y-85065909D01*
X111429669Y-85066204D01*
X111314454Y-85152454D01*
X111256504Y-85229866D01*
X111228203Y-85267671D01*
X111227023Y-85270835D01*
X111200584Y-85313070D01*
X111159654Y-85341488D01*
X111110842Y-85351500D01*
X103741886Y-85351500D01*
X103694433Y-85342061D01*
X103654205Y-85315181D01*
X101240049Y-82901025D01*
X101209799Y-82851662D01*
X101157179Y-82689715D01*
X101076514Y-82549999D01*
X123554540Y-82549999D01*
X123574326Y-82738257D01*
X123632820Y-82918284D01*
X123727466Y-83082216D01*
X123854129Y-83222889D01*
X124007269Y-83334151D01*
X124180197Y-83411144D01*
X124365352Y-83450500D01*
X124365354Y-83450500D01*
X124554646Y-83450500D01*
X124554648Y-83450500D01*
X124678084Y-83424262D01*
X124739803Y-83411144D01*
X124912730Y-83334151D01*
X124920949Y-83328179D01*
X124955513Y-83310569D01*
X124993831Y-83304500D01*
X127102905Y-83304500D01*
X127157749Y-83317288D01*
X127201281Y-83353014D01*
X127224522Y-83404309D01*
X127222680Y-83460594D01*
X127193364Y-83569999D01*
X127193364Y-83570000D01*
X129854636Y-83570000D01*
X129854635Y-83569999D01*
X129797430Y-83356507D01*
X129697599Y-83142421D01*
X129562109Y-82948921D01*
X129440053Y-82826865D01*
X129408757Y-82774119D01*
X129406568Y-82712826D01*
X129434021Y-82657981D01*
X129484398Y-82623003D01*
X129616331Y-82573796D01*
X129731546Y-82487546D01*
X129817796Y-82372331D01*
X129868091Y-82237483D01*
X129874500Y-82177873D01*
X129874499Y-80382128D01*
X129868091Y-80322517D01*
X129817796Y-80187669D01*
X129731546Y-80072454D01*
X129616331Y-79986204D01*
X129481483Y-79935909D01*
X129421873Y-79929500D01*
X129421869Y-79929500D01*
X127626130Y-79929500D01*
X127566515Y-79935909D01*
X127431669Y-79986204D01*
X127316454Y-80072454D01*
X127230204Y-80187668D01*
X127179909Y-80322516D01*
X127173500Y-80382131D01*
X127173500Y-81512113D01*
X127164061Y-81559566D01*
X127137183Y-81599791D01*
X126977792Y-81759183D01*
X126937567Y-81786061D01*
X126890114Y-81795500D01*
X124993831Y-81795500D01*
X124955513Y-81789431D01*
X124920949Y-81771820D01*
X124912730Y-81765849D01*
X124912729Y-81765848D01*
X124912727Y-81765847D01*
X124739802Y-81688855D01*
X124554648Y-81649500D01*
X124554646Y-81649500D01*
X124365354Y-81649500D01*
X124365352Y-81649500D01*
X124180197Y-81688855D01*
X124007269Y-81765848D01*
X123854129Y-81877110D01*
X123727466Y-82017783D01*
X123632820Y-82181715D01*
X123574326Y-82361742D01*
X123554540Y-82549999D01*
X101076514Y-82549999D01*
X101062533Y-82525783D01*
X100935870Y-82385110D01*
X100782730Y-82273848D01*
X100609802Y-82196855D01*
X100424648Y-82157500D01*
X100424646Y-82157500D01*
X100235354Y-82157500D01*
X100235352Y-82157500D01*
X100050197Y-82196855D01*
X99877269Y-82273848D01*
X99724129Y-82385110D01*
X99597466Y-82525783D01*
X99502820Y-82689715D01*
X99444326Y-82869742D01*
X99424540Y-83058000D01*
X90045362Y-83058000D01*
X90200092Y-81849701D01*
X90200576Y-81846308D01*
X90419428Y-80451753D01*
X90420016Y-80448327D01*
X90432333Y-80382131D01*
X90678247Y-79060519D01*
X90678918Y-79057178D01*
X90976318Y-77677236D01*
X90977103Y-77673833D01*
X91313433Y-76302867D01*
X91314282Y-76299606D01*
X91551695Y-75438000D01*
X127901678Y-75438000D01*
X127920923Y-75645698D01*
X127978005Y-75846319D01*
X128070978Y-76033035D01*
X128196682Y-76199494D01*
X128350826Y-76340014D01*
X128350828Y-76340015D01*
X128350829Y-76340016D01*
X128528172Y-76449823D01*
X128722673Y-76525173D01*
X128927707Y-76563500D01*
X129039114Y-76563500D01*
X129086567Y-76572939D01*
X129126795Y-76599819D01*
X131543181Y-79016205D01*
X131570061Y-79056433D01*
X131579500Y-79103886D01*
X131579500Y-82168081D01*
X131568934Y-82218168D01*
X131539037Y-82259719D01*
X131498682Y-82296506D01*
X131372978Y-82462964D01*
X131280005Y-82649680D01*
X131222923Y-82850301D01*
X131203678Y-83057999D01*
X131222923Y-83265698D01*
X131280005Y-83466319D01*
X131372978Y-83653035D01*
X131498682Y-83819494D01*
X131652826Y-83960014D01*
X131652828Y-83960015D01*
X131652829Y-83960016D01*
X131830172Y-84069823D01*
X132024673Y-84145173D01*
X132229707Y-84183500D01*
X132438291Y-84183500D01*
X132438293Y-84183500D01*
X132643327Y-84145173D01*
X132837828Y-84069823D01*
X133015171Y-83960016D01*
X133169318Y-83819493D01*
X133295019Y-83653038D01*
X133295019Y-83653036D01*
X133295021Y-83653035D01*
X133387994Y-83466319D01*
X133445076Y-83265698D01*
X133452424Y-83186400D01*
X133464322Y-83058000D01*
X133449589Y-82899012D01*
X133445076Y-82850301D01*
X133387994Y-82649680D01*
X133295021Y-82462964D01*
X133169317Y-82296506D01*
X133128963Y-82259719D01*
X133099066Y-82218168D01*
X133088500Y-82168081D01*
X133088500Y-78803993D01*
X133089809Y-78786023D01*
X133090121Y-78783888D01*
X133093314Y-78762093D01*
X133088972Y-78712459D01*
X133088500Y-78701653D01*
X133088500Y-78696057D01*
X133084882Y-78665109D01*
X133084515Y-78661516D01*
X133077837Y-78585175D01*
X133073580Y-78565972D01*
X133073160Y-78564819D01*
X133073160Y-78564816D01*
X133047347Y-78493896D01*
X133046199Y-78490593D01*
X133022464Y-78418964D01*
X133022462Y-78418961D01*
X133022078Y-78417801D01*
X133013504Y-78400091D01*
X132971376Y-78336038D01*
X132969461Y-78333033D01*
X132929870Y-78268846D01*
X132929229Y-78267806D01*
X132916802Y-78252551D01*
X132861061Y-78199963D01*
X132858473Y-78197449D01*
X132301524Y-77640500D01*
X135514865Y-77640500D01*
X135535366Y-77887903D01*
X135596311Y-78128569D01*
X135696031Y-78355910D01*
X135696033Y-78355913D01*
X135786222Y-78493958D01*
X135828666Y-78558922D01*
X135847801Y-78610596D01*
X135842659Y-78665458D01*
X135814254Y-78712675D01*
X135791679Y-78727501D01*
X135792442Y-78728520D01*
X135778170Y-78739203D01*
X135778169Y-78739204D01*
X135715627Y-78786023D01*
X135662954Y-78825454D01*
X135576704Y-78940668D01*
X135526409Y-79075516D01*
X135520000Y-79135130D01*
X135520000Y-81225869D01*
X135526409Y-81285483D01*
X135576704Y-81420331D01*
X135662954Y-81535546D01*
X135778169Y-81621796D01*
X135913017Y-81672091D01*
X135972627Y-81678500D01*
X138063372Y-81678499D01*
X138122983Y-81672091D01*
X138257831Y-81621796D01*
X138373046Y-81535546D01*
X138459296Y-81420331D01*
X138509591Y-81285483D01*
X138516000Y-81225873D01*
X138515999Y-79135128D01*
X138509591Y-79075517D01*
X138459296Y-78940669D01*
X138373046Y-78825454D01*
X138257831Y-78739204D01*
X138257828Y-78739203D01*
X138243558Y-78728520D01*
X138244320Y-78727501D01*
X138221746Y-78712675D01*
X138193341Y-78665458D01*
X138188199Y-78610596D01*
X138207334Y-78558922D01*
X138339967Y-78355913D01*
X138439690Y-78128567D01*
X138500633Y-77887908D01*
X138521134Y-77640500D01*
X138500633Y-77393092D01*
X138439690Y-77152433D01*
X138339967Y-76925087D01*
X138339966Y-76925085D01*
X138204186Y-76717258D01*
X138036045Y-76534607D01*
X137932262Y-76453831D01*
X137895389Y-76406958D01*
X137884662Y-76348293D01*
X137886274Y-76322327D01*
X137018000Y-75454053D01*
X136149724Y-76322327D01*
X136151336Y-76348294D01*
X136140609Y-76406958D01*
X136103737Y-76453830D01*
X135999955Y-76534606D01*
X135831813Y-76717258D01*
X135696033Y-76925085D01*
X135596311Y-77152430D01*
X135535366Y-77393096D01*
X135514865Y-77640500D01*
X132301524Y-77640500D01*
X130198114Y-75537090D01*
X130169163Y-75491516D01*
X130163786Y-75449404D01*
X130163382Y-75449442D01*
X130143076Y-75230301D01*
X130106144Y-75100500D01*
X135515367Y-75100500D01*
X135535861Y-75347820D01*
X135596786Y-75588405D01*
X135696474Y-75815674D01*
X135796370Y-75968575D01*
X136664447Y-75100501D01*
X137371553Y-75100501D01*
X138239628Y-75968576D01*
X138339524Y-75815674D01*
X138439214Y-75588405D01*
X138500138Y-75347820D01*
X138520632Y-75100499D01*
X138500138Y-74853179D01*
X138477015Y-74761869D01*
X143997500Y-74761869D01*
X144003909Y-74821484D01*
X144015731Y-74853179D01*
X144054204Y-74956331D01*
X144140454Y-75071546D01*
X144255669Y-75157796D01*
X144390517Y-75208091D01*
X144450127Y-75214500D01*
X146145872Y-75214499D01*
X146205483Y-75208091D01*
X146340331Y-75157796D01*
X146455546Y-75071546D01*
X146514326Y-74993026D01*
X148372526Y-74993026D01*
X148445515Y-75044133D01*
X148651673Y-75140266D01*
X148871397Y-75199141D01*
X149098000Y-75218966D01*
X149324602Y-75199141D01*
X149544326Y-75140266D01*
X149750480Y-75044134D01*
X149823472Y-74993025D01*
X149098001Y-74267553D01*
X149098000Y-74267553D01*
X148372526Y-74993025D01*
X148372526Y-74993026D01*
X146514326Y-74993026D01*
X146541796Y-74956331D01*
X146592091Y-74821483D01*
X146598500Y-74761873D01*
X146598499Y-73914000D01*
X147793033Y-73914000D01*
X147812858Y-74140602D01*
X147871733Y-74360326D01*
X147967866Y-74566484D01*
X148018972Y-74639471D01*
X148018974Y-74639472D01*
X148744446Y-73914001D01*
X149451553Y-73914001D01*
X150177025Y-74639472D01*
X150228134Y-74566480D01*
X150324266Y-74360326D01*
X150383141Y-74140602D01*
X150402966Y-73914000D01*
X150383141Y-73687397D01*
X150324266Y-73467673D01*
X150228133Y-73261515D01*
X150177025Y-73188526D01*
X149451553Y-73914000D01*
X149451553Y-73914001D01*
X148744446Y-73914001D01*
X148744446Y-73914000D01*
X148018973Y-73188526D01*
X148018973Y-73188527D01*
X147967865Y-73261516D01*
X147871733Y-73467672D01*
X147812858Y-73687397D01*
X147793033Y-73914000D01*
X146598499Y-73914000D01*
X146598499Y-73066128D01*
X146592091Y-73006517D01*
X146541796Y-72871669D01*
X146514325Y-72834973D01*
X148372526Y-72834973D01*
X149098000Y-73560446D01*
X149098001Y-73560446D01*
X149823472Y-72834974D01*
X149823471Y-72834972D01*
X149750484Y-72783866D01*
X149544326Y-72687733D01*
X149324602Y-72628858D01*
X149098000Y-72609033D01*
X148871397Y-72628858D01*
X148651672Y-72687733D01*
X148445516Y-72783865D01*
X148372527Y-72834973D01*
X148372526Y-72834973D01*
X146514325Y-72834973D01*
X146455546Y-72756454D01*
X146340331Y-72670204D01*
X146205483Y-72619909D01*
X146145873Y-72613500D01*
X146145869Y-72613500D01*
X144450130Y-72613500D01*
X144390515Y-72619909D01*
X144255669Y-72670204D01*
X144140454Y-72756454D01*
X144054204Y-72871668D01*
X144003909Y-73006516D01*
X143997500Y-73066130D01*
X143997500Y-74761869D01*
X138477015Y-74761869D01*
X138439213Y-74612594D01*
X138339526Y-74385328D01*
X138239628Y-74232422D01*
X137371553Y-75100500D01*
X137371553Y-75100501D01*
X136664447Y-75100501D01*
X136664447Y-75100500D01*
X135796370Y-74232423D01*
X135696474Y-74385326D01*
X135596785Y-74612594D01*
X135535861Y-74853179D01*
X135515367Y-75100500D01*
X130106144Y-75100500D01*
X130085994Y-75029680D01*
X129993021Y-74842964D01*
X129867317Y-74676505D01*
X129713173Y-74535985D01*
X129535827Y-74426176D01*
X129341328Y-74350827D01*
X129256466Y-74334964D01*
X129136293Y-74312500D01*
X128927707Y-74312500D01*
X128825189Y-74331663D01*
X128722671Y-74350827D01*
X128528172Y-74426176D01*
X128350826Y-74535985D01*
X128196682Y-74676505D01*
X128070978Y-74842964D01*
X127978005Y-75029680D01*
X127920923Y-75230301D01*
X127901678Y-75438000D01*
X91551695Y-75438000D01*
X91689296Y-74938627D01*
X91690239Y-74935382D01*
X92013853Y-73878671D01*
X136149723Y-73878671D01*
X137018000Y-74746947D01*
X137018001Y-74746947D01*
X137886274Y-73878671D01*
X137886274Y-73878669D01*
X137839863Y-73842547D01*
X137621598Y-73724429D01*
X137386877Y-73643848D01*
X137142085Y-73603000D01*
X136893915Y-73603000D01*
X136649122Y-73643848D01*
X136414401Y-73724429D01*
X136196136Y-73842547D01*
X136149724Y-73878670D01*
X136149723Y-73878671D01*
X92013853Y-73878671D01*
X92103619Y-73585555D01*
X92104645Y-73582369D01*
X92556045Y-72244817D01*
X92557205Y-72241535D01*
X92557338Y-72241176D01*
X93046269Y-70917310D01*
X93047493Y-70914138D01*
X93066837Y-70865999D01*
X158008865Y-70865999D01*
X158029366Y-71113403D01*
X158090311Y-71354069D01*
X158190031Y-71581410D01*
X158322666Y-71784422D01*
X158341801Y-71836096D01*
X158336659Y-71890958D01*
X158308254Y-71938175D01*
X158285679Y-71953001D01*
X158286442Y-71954020D01*
X158272170Y-71964703D01*
X158272169Y-71964704D01*
X158156954Y-72050953D01*
X158156954Y-72050954D01*
X158070704Y-72166168D01*
X158020409Y-72301016D01*
X158014000Y-72360630D01*
X158014000Y-74451369D01*
X158020409Y-74510984D01*
X158045556Y-74578407D01*
X158070704Y-74645831D01*
X158156954Y-74761046D01*
X158272169Y-74847296D01*
X158407017Y-74897591D01*
X158466627Y-74904000D01*
X160557372Y-74903999D01*
X160616983Y-74897591D01*
X160751831Y-74847296D01*
X160867046Y-74761046D01*
X160953296Y-74645831D01*
X161003591Y-74510983D01*
X161010000Y-74451373D01*
X161009999Y-72360628D01*
X161003591Y-72301017D01*
X160953296Y-72166169D01*
X160867046Y-72050954D01*
X160751831Y-71964704D01*
X160751828Y-71964703D01*
X160737558Y-71954020D01*
X160738320Y-71953001D01*
X160715746Y-71938175D01*
X160687341Y-71890958D01*
X160682199Y-71836096D01*
X160701334Y-71784422D01*
X160833967Y-71581413D01*
X160933690Y-71354067D01*
X160994633Y-71113408D01*
X161015134Y-70866000D01*
X160994633Y-70618592D01*
X160933690Y-70377933D01*
X160833967Y-70150587D01*
X160780380Y-70068566D01*
X160698186Y-69942758D01*
X160530045Y-69760107D01*
X160426262Y-69679331D01*
X160389389Y-69632458D01*
X160378662Y-69573793D01*
X160380274Y-69547827D01*
X159512000Y-68679553D01*
X158643724Y-69547827D01*
X158645336Y-69573794D01*
X158634609Y-69632458D01*
X158597737Y-69679330D01*
X158493955Y-69760106D01*
X158325813Y-69942758D01*
X158190033Y-70150585D01*
X158090311Y-70377930D01*
X158029366Y-70618596D01*
X158008865Y-70865999D01*
X93066837Y-70865999D01*
X93573823Y-69604315D01*
X93575138Y-69601172D01*
X94138340Y-68306731D01*
X94139782Y-68303543D01*
X94248418Y-68072000D01*
X111994564Y-68072000D01*
X112014287Y-68372926D01*
X112073119Y-68668689D01*
X112170054Y-68954252D01*
X112303433Y-69224717D01*
X112303434Y-69224718D01*
X112470975Y-69475461D01*
X112669811Y-69702189D01*
X112735854Y-69760107D01*
X112896539Y-69901025D01*
X113147282Y-70068566D01*
X113417747Y-70201945D01*
X113560528Y-70250412D01*
X113703309Y-70298880D01*
X113802802Y-70318670D01*
X113999073Y-70357712D01*
X113999075Y-70357712D01*
X113999080Y-70357713D01*
X114300000Y-70377436D01*
X114600920Y-70357713D01*
X114600924Y-70357712D01*
X114600926Y-70357712D01*
X114697703Y-70338461D01*
X114896691Y-70298880D01*
X115182252Y-70201945D01*
X115452718Y-70068566D01*
X115703461Y-69901025D01*
X115930189Y-69702189D01*
X116129025Y-69475461D01*
X116296566Y-69224718D01*
X116429945Y-68954252D01*
X116526880Y-68668691D01*
X116585713Y-68372920D01*
X116605436Y-68072000D01*
X122154564Y-68072000D01*
X122174287Y-68372926D01*
X122233119Y-68668689D01*
X122330054Y-68954252D01*
X122463433Y-69224717D01*
X122463434Y-69224718D01*
X122630975Y-69475461D01*
X122829811Y-69702189D01*
X122895854Y-69760107D01*
X123056539Y-69901025D01*
X123307282Y-70068566D01*
X123577747Y-70201945D01*
X123720528Y-70250412D01*
X123863309Y-70298880D01*
X123962802Y-70318670D01*
X124159073Y-70357712D01*
X124159075Y-70357712D01*
X124159080Y-70357713D01*
X124460000Y-70377436D01*
X124760920Y-70357713D01*
X124760924Y-70357712D01*
X124760926Y-70357712D01*
X124857703Y-70338461D01*
X125056691Y-70298880D01*
X125342252Y-70201945D01*
X125612718Y-70068566D01*
X125863461Y-69901025D01*
X126090189Y-69702189D01*
X126289025Y-69475461D01*
X126456566Y-69224718D01*
X126589945Y-68954252D01*
X126686880Y-68668691D01*
X126745713Y-68372920D01*
X126748788Y-68325999D01*
X158009367Y-68325999D01*
X158029861Y-68573320D01*
X158090786Y-68813905D01*
X158190474Y-69041174D01*
X158290370Y-69194075D01*
X159158447Y-68326001D01*
X159865553Y-68326001D01*
X160733628Y-69194076D01*
X160833524Y-69041174D01*
X160933214Y-68813905D01*
X160994138Y-68573320D01*
X161014632Y-68325999D01*
X160994138Y-68078679D01*
X160933213Y-67838094D01*
X160833526Y-67610828D01*
X160733628Y-67457922D01*
X159865553Y-68326000D01*
X159865553Y-68326001D01*
X159158447Y-68326001D01*
X159158447Y-68325999D01*
X158290370Y-67457923D01*
X158190474Y-67610826D01*
X158090785Y-67838094D01*
X158029861Y-68078679D01*
X158009367Y-68325999D01*
X126748788Y-68325999D01*
X126765436Y-68072000D01*
X126745713Y-67771080D01*
X126686880Y-67475309D01*
X126589945Y-67189748D01*
X126547743Y-67104171D01*
X158643723Y-67104171D01*
X159512000Y-67972447D01*
X159512001Y-67972447D01*
X160380274Y-67104171D01*
X160380274Y-67104169D01*
X160333863Y-67068047D01*
X160311602Y-67056000D01*
X167779678Y-67056000D01*
X167798923Y-67263698D01*
X167856004Y-67464317D01*
X167888500Y-67529576D01*
X167901500Y-67584848D01*
X167901500Y-72588358D01*
X167900903Y-72600512D01*
X167896620Y-72643999D01*
X167916091Y-72841702D01*
X167925182Y-72871669D01*
X167972704Y-73028326D01*
X167973260Y-73030161D01*
X167973760Y-73031809D01*
X168067404Y-73207003D01*
X168193431Y-73360567D01*
X168227213Y-73388291D01*
X168236230Y-73396464D01*
X170104885Y-75265119D01*
X170136470Y-75318864D01*
X170142006Y-75338321D01*
X170234978Y-75525035D01*
X170360682Y-75691494D01*
X170514826Y-75832014D01*
X170514828Y-75832015D01*
X170514829Y-75832016D01*
X170692172Y-75941823D01*
X170886673Y-76017173D01*
X171091707Y-76055500D01*
X171300291Y-76055500D01*
X171300293Y-76055500D01*
X171505327Y-76017173D01*
X171699828Y-75941823D01*
X171877171Y-75832016D01*
X172031318Y-75691493D01*
X172157019Y-75525038D01*
X172157019Y-75525036D01*
X172157021Y-75525035D01*
X172249994Y-75338319D01*
X172307076Y-75137698D01*
X172317085Y-75029680D01*
X172326322Y-74930000D01*
X172307076Y-74722304D01*
X172307076Y-74722301D01*
X172249994Y-74521680D01*
X172157021Y-74334964D01*
X172031317Y-74168505D01*
X171877173Y-74027985D01*
X171699827Y-73918176D01*
X171629600Y-73890970D01*
X171578254Y-73871078D01*
X171535368Y-73843134D01*
X169954819Y-72262585D01*
X169927939Y-72222357D01*
X169918500Y-72174904D01*
X169918500Y-67584848D01*
X169931500Y-67529576D01*
X169963995Y-67464317D01*
X170021076Y-67263698D01*
X170035858Y-67104169D01*
X170040322Y-67056000D01*
X170021076Y-66848304D01*
X170021076Y-66848301D01*
X169963994Y-66647680D01*
X169871021Y-66460964D01*
X169745317Y-66294505D01*
X169591173Y-66153985D01*
X169413827Y-66044176D01*
X169219328Y-65968827D01*
X169150982Y-65956051D01*
X169014293Y-65930500D01*
X168805707Y-65930500D01*
X168703190Y-65949663D01*
X168600671Y-65968827D01*
X168406172Y-66044176D01*
X168228826Y-66153985D01*
X168074682Y-66294505D01*
X167948978Y-66460964D01*
X167856005Y-66647680D01*
X167798923Y-66848301D01*
X167779678Y-67056000D01*
X160311602Y-67056000D01*
X160115598Y-66949929D01*
X159880877Y-66869348D01*
X159636085Y-66828500D01*
X159387915Y-66828500D01*
X159143122Y-66869348D01*
X158908401Y-66949929D01*
X158690136Y-67068047D01*
X158643724Y-67104170D01*
X158643723Y-67104171D01*
X126547743Y-67104171D01*
X126507469Y-67022504D01*
X126456566Y-66919282D01*
X126289025Y-66668539D01*
X126270732Y-66647680D01*
X126090189Y-66441811D01*
X125863461Y-66242975D01*
X125730276Y-66153984D01*
X125612717Y-66075433D01*
X125342252Y-65942054D01*
X125056689Y-65845119D01*
X124760926Y-65786287D01*
X124460000Y-65766564D01*
X124159073Y-65786287D01*
X123863310Y-65845119D01*
X123577747Y-65942054D01*
X123307282Y-66075433D01*
X123056539Y-66242974D01*
X122829811Y-66441811D01*
X122630974Y-66668539D01*
X122463433Y-66919282D01*
X122330054Y-67189747D01*
X122233119Y-67475310D01*
X122174287Y-67771073D01*
X122154564Y-68072000D01*
X116605436Y-68072000D01*
X116585713Y-67771080D01*
X116526880Y-67475309D01*
X116429945Y-67189748D01*
X116347469Y-67022504D01*
X116296566Y-66919282D01*
X116129025Y-66668539D01*
X116110732Y-66647680D01*
X115930189Y-66441811D01*
X115703461Y-66242975D01*
X115570276Y-66153984D01*
X115452717Y-66075433D01*
X115182252Y-65942054D01*
X114896689Y-65845119D01*
X114600926Y-65786287D01*
X114300000Y-65766564D01*
X113999073Y-65786287D01*
X113703310Y-65845119D01*
X113417747Y-65942054D01*
X113147282Y-66075433D01*
X112896539Y-66242974D01*
X112669811Y-66441811D01*
X112470974Y-66668539D01*
X112303433Y-66919282D01*
X112170054Y-67189747D01*
X112073119Y-67475310D01*
X112014287Y-67771073D01*
X111994564Y-68072000D01*
X94248418Y-68072000D01*
X94295126Y-67972447D01*
X94739356Y-67025628D01*
X94740861Y-67022535D01*
X95376392Y-65762034D01*
X95377963Y-65759025D01*
X96048940Y-64516959D01*
X96050572Y-64514039D01*
X96756396Y-63291515D01*
X96758162Y-63288553D01*
X97498331Y-62086443D01*
X97500132Y-62083610D01*
X97903641Y-61467999D01*
X124062540Y-61467999D01*
X124082326Y-61656257D01*
X124140820Y-61836284D01*
X124235466Y-62000216D01*
X124362129Y-62140889D01*
X124515269Y-62252151D01*
X124688197Y-62329144D01*
X124873352Y-62368500D01*
X124873354Y-62368500D01*
X125062646Y-62368500D01*
X125062648Y-62368500D01*
X125186084Y-62342262D01*
X125247803Y-62329144D01*
X125420730Y-62252151D01*
X125428949Y-62246179D01*
X125463513Y-62228569D01*
X125501831Y-62222500D01*
X126466169Y-62222500D01*
X126504487Y-62228569D01*
X126539050Y-62246179D01*
X126547270Y-62252151D01*
X126547271Y-62252151D01*
X126547272Y-62252152D01*
X126720197Y-62329144D01*
X126905352Y-62368500D01*
X126905354Y-62368500D01*
X127094646Y-62368500D01*
X127094648Y-62368500D01*
X127218084Y-62342262D01*
X127279803Y-62329144D01*
X127452730Y-62252151D01*
X127605871Y-62140888D01*
X127677020Y-62061869D01*
X143962849Y-62061869D01*
X143969258Y-62121484D01*
X143976496Y-62140889D01*
X144019553Y-62256331D01*
X144105803Y-62371546D01*
X144221018Y-62457796D01*
X144355866Y-62508091D01*
X144415476Y-62514500D01*
X146111221Y-62514499D01*
X146170832Y-62508091D01*
X146305680Y-62457796D01*
X146420895Y-62371546D01*
X146479675Y-62293026D01*
X148337875Y-62293026D01*
X148410864Y-62344133D01*
X148617022Y-62440266D01*
X148836746Y-62499141D01*
X149063349Y-62518966D01*
X149289951Y-62499141D01*
X149509675Y-62440266D01*
X149715829Y-62344134D01*
X149788821Y-62293025D01*
X149063350Y-61567553D01*
X149063349Y-61567553D01*
X148337875Y-62293025D01*
X148337875Y-62293026D01*
X146479675Y-62293026D01*
X146507145Y-62256331D01*
X146557440Y-62121483D01*
X146563849Y-62061873D01*
X146563848Y-61214000D01*
X147758382Y-61214000D01*
X147778207Y-61440602D01*
X147837082Y-61660326D01*
X147933215Y-61866484D01*
X147984321Y-61939471D01*
X147984323Y-61939472D01*
X148709795Y-61214001D01*
X149416902Y-61214001D01*
X150142374Y-61939472D01*
X150193483Y-61866480D01*
X150289615Y-61660326D01*
X150348490Y-61440602D01*
X150368315Y-61214000D01*
X150348490Y-60987397D01*
X150289615Y-60767673D01*
X150193482Y-60561515D01*
X150142374Y-60488526D01*
X149416902Y-61214000D01*
X149416902Y-61214001D01*
X148709795Y-61214001D01*
X148709795Y-61214000D01*
X147984322Y-60488526D01*
X147984322Y-60488527D01*
X147933214Y-60561516D01*
X147837082Y-60767672D01*
X147778207Y-60987397D01*
X147758382Y-61214000D01*
X146563848Y-61214000D01*
X146563848Y-60366128D01*
X146557440Y-60306517D01*
X146507145Y-60171669D01*
X146479674Y-60134973D01*
X148337875Y-60134973D01*
X149063349Y-60860446D01*
X149063350Y-60860446D01*
X149788821Y-60134974D01*
X149788820Y-60134972D01*
X149715833Y-60083866D01*
X149509675Y-59987733D01*
X149289951Y-59928858D01*
X149063349Y-59909033D01*
X148836746Y-59928858D01*
X148617021Y-59987733D01*
X148410865Y-60083865D01*
X148337876Y-60134973D01*
X148337875Y-60134973D01*
X146479674Y-60134973D01*
X146420895Y-60056454D01*
X146305680Y-59970204D01*
X146170832Y-59919909D01*
X146111222Y-59913500D01*
X146111218Y-59913500D01*
X144415479Y-59913500D01*
X144355864Y-59919909D01*
X144221018Y-59970204D01*
X144105803Y-60056454D01*
X144019553Y-60171668D01*
X143969258Y-60306516D01*
X143962849Y-60366130D01*
X143962849Y-62061869D01*
X127677020Y-62061869D01*
X127732533Y-62000216D01*
X127827179Y-61836284D01*
X127885674Y-61656256D01*
X127905460Y-61468000D01*
X127885674Y-61279744D01*
X127827179Y-61099716D01*
X127827179Y-61099715D01*
X127732533Y-60935783D01*
X127605870Y-60795110D01*
X127452730Y-60683848D01*
X127279802Y-60606855D01*
X127094648Y-60567500D01*
X127094646Y-60567500D01*
X126905354Y-60567500D01*
X126905352Y-60567500D01*
X126720197Y-60606855D01*
X126547272Y-60683847D01*
X126543701Y-60686441D01*
X126539050Y-60689820D01*
X126504487Y-60707431D01*
X126466169Y-60713500D01*
X125501831Y-60713500D01*
X125463513Y-60707431D01*
X125428949Y-60689820D01*
X125420730Y-60683849D01*
X125420729Y-60683848D01*
X125420727Y-60683847D01*
X125247802Y-60606855D01*
X125062648Y-60567500D01*
X125062646Y-60567500D01*
X124873354Y-60567500D01*
X124873352Y-60567500D01*
X124688197Y-60606855D01*
X124515269Y-60683848D01*
X124362129Y-60795110D01*
X124235466Y-60935783D01*
X124140820Y-61099715D01*
X124082326Y-61279742D01*
X124062540Y-61467999D01*
X97903641Y-61467999D01*
X98273981Y-60902991D01*
X98275908Y-60900139D01*
X99082877Y-59741863D01*
X99084851Y-59739113D01*
X99924309Y-58604090D01*
X99926325Y-58601444D01*
X100071774Y-58416000D01*
X171352633Y-58416000D01*
X171370619Y-58523792D01*
X171448780Y-58751460D01*
X171563348Y-58963164D01*
X171711201Y-59153126D01*
X171888292Y-59316151D01*
X172089819Y-59447815D01*
X172310255Y-59544506D01*
X172543611Y-59603600D01*
X172723418Y-59618500D01*
X173486000Y-59618500D01*
X173486000Y-58416000D01*
X173986000Y-58416000D01*
X173986000Y-59618500D01*
X174748582Y-59618500D01*
X174928388Y-59603600D01*
X175161744Y-59544506D01*
X175382180Y-59447815D01*
X175583707Y-59316151D01*
X175760798Y-59153126D01*
X175908651Y-58963164D01*
X176023219Y-58751460D01*
X176101380Y-58523792D01*
X176119367Y-58416000D01*
X173986000Y-58416000D01*
X173486000Y-58416000D01*
X171352633Y-58416000D01*
X100071774Y-58416000D01*
X100463939Y-57915999D01*
X171352633Y-57915999D01*
X171352634Y-57916000D01*
X173486000Y-57916000D01*
X173486000Y-56713500D01*
X173986000Y-56713500D01*
X173986000Y-57916000D01*
X176119366Y-57916000D01*
X176119366Y-57915999D01*
X176101380Y-57808207D01*
X176023219Y-57580539D01*
X175908651Y-57368835D01*
X175760798Y-57178873D01*
X175583707Y-57015848D01*
X175382180Y-56884184D01*
X175161744Y-56787493D01*
X174928388Y-56728399D01*
X174748582Y-56713500D01*
X173986000Y-56713500D01*
X173486000Y-56713500D01*
X172723418Y-56713500D01*
X172543611Y-56728399D01*
X172310255Y-56787493D01*
X172089819Y-56884184D01*
X171888292Y-57015848D01*
X171711201Y-57178873D01*
X171563348Y-57368835D01*
X171448780Y-57580539D01*
X171370619Y-57808207D01*
X171352633Y-57915999D01*
X100463939Y-57915999D01*
X100797559Y-57490641D01*
X100799675Y-57488021D01*
X101701986Y-56402330D01*
X101704182Y-56399762D01*
X102636825Y-55340073D01*
X102639137Y-55337520D01*
X102847376Y-55114000D01*
X108106633Y-55114000D01*
X108124619Y-55221792D01*
X108202780Y-55449460D01*
X108317348Y-55661164D01*
X108465201Y-55851126D01*
X108642292Y-56014151D01*
X108843819Y-56145815D01*
X109064255Y-56242506D01*
X109297611Y-56301600D01*
X109477418Y-56316500D01*
X110240000Y-56316500D01*
X110240000Y-55114000D01*
X110740000Y-55114000D01*
X110740000Y-56316500D01*
X111502582Y-56316500D01*
X111682388Y-56301600D01*
X111915744Y-56242506D01*
X112136180Y-56145815D01*
X112337707Y-56014151D01*
X112514798Y-55851126D01*
X112662651Y-55661164D01*
X112777219Y-55449460D01*
X112855380Y-55221792D01*
X112873367Y-55114000D01*
X110740000Y-55114000D01*
X110240000Y-55114000D01*
X108106633Y-55114000D01*
X102847376Y-55114000D01*
X103313193Y-54613999D01*
X108106633Y-54613999D01*
X108106634Y-54614000D01*
X110240000Y-54614000D01*
X110240000Y-53411500D01*
X110740000Y-53411500D01*
X110740000Y-54614000D01*
X112873366Y-54614000D01*
X112873366Y-54613999D01*
X112855380Y-54506207D01*
X112777219Y-54278539D01*
X112662651Y-54066835D01*
X112514798Y-53876873D01*
X112337707Y-53713848D01*
X112136180Y-53582184D01*
X111915744Y-53485493D01*
X111682388Y-53426399D01*
X111502582Y-53411500D01*
X110740000Y-53411500D01*
X110240000Y-53411500D01*
X109477418Y-53411500D01*
X109297611Y-53426399D01*
X109064255Y-53485493D01*
X108843819Y-53582184D01*
X108642292Y-53713848D01*
X108465201Y-53876873D01*
X108317348Y-54066835D01*
X108202780Y-54278539D01*
X108124619Y-54506207D01*
X108106633Y-54613999D01*
X103313193Y-54613999D01*
X103601411Y-54304631D01*
X103603747Y-54302194D01*
X104594878Y-53296937D01*
X104597264Y-53294584D01*
X105616435Y-52317788D01*
X105618931Y-52315463D01*
X106665356Y-51367880D01*
X106667905Y-51365638D01*
X107740692Y-50448078D01*
X107743287Y-50445922D01*
X108008224Y-50232000D01*
X133225000Y-50232000D01*
X133225000Y-51221203D01*
X133239759Y-51413439D01*
X133298360Y-51663864D01*
X133394506Y-51902420D01*
X133525936Y-52123494D01*
X133689575Y-52321918D01*
X133881581Y-52493034D01*
X134097468Y-52632839D01*
X134332157Y-52738048D01*
X134580152Y-52806199D01*
X134650000Y-52814262D01*
X134650000Y-50232000D01*
X135150000Y-50232000D01*
X135150000Y-52814723D01*
X135345153Y-52776875D01*
X135587202Y-52689942D01*
X135740954Y-52606335D01*
X137199500Y-52606335D01*
X137227957Y-52776875D01*
X137240429Y-52851614D01*
X137321172Y-53086810D01*
X137439526Y-53305509D01*
X137439529Y-53305514D01*
X137575036Y-53479612D01*
X137592262Y-53501744D01*
X137775215Y-53670164D01*
X137983393Y-53806173D01*
X138211119Y-53906063D01*
X138452179Y-53967108D01*
X138526480Y-53973264D01*
X138637927Y-53982500D01*
X138637933Y-53982500D01*
X140762067Y-53982500D01*
X140762073Y-53982500D01*
X140863387Y-53974104D01*
X140947821Y-53967108D01*
X141188881Y-53906063D01*
X141416607Y-53806173D01*
X141624785Y-53670164D01*
X141807738Y-53501744D01*
X141960474Y-53305509D01*
X142078828Y-53086810D01*
X142159571Y-52851614D01*
X142200500Y-52606335D01*
X142200500Y-52357665D01*
X142159571Y-52112386D01*
X142078828Y-51877190D01*
X141960474Y-51658491D01*
X141960471Y-51658487D01*
X141960470Y-51658485D01*
X141807740Y-51462259D01*
X141807738Y-51462256D01*
X141624785Y-51293836D01*
X141416607Y-51157827D01*
X141416604Y-51157825D01*
X141242364Y-51081397D01*
X141188881Y-51057937D01*
X140947821Y-50996892D01*
X140947819Y-50996891D01*
X140947816Y-50996891D01*
X140762073Y-50981500D01*
X140762067Y-50981500D01*
X138637933Y-50981500D01*
X138637927Y-50981500D01*
X138452183Y-50996891D01*
X138452179Y-50996891D01*
X138452179Y-50996892D01*
X138211119Y-51057937D01*
X138211116Y-51057938D01*
X138211117Y-51057938D01*
X137983395Y-51157825D01*
X137886388Y-51221203D01*
X137775215Y-51293836D01*
X137645292Y-51413439D01*
X137592259Y-51462259D01*
X137439529Y-51658485D01*
X137321170Y-51877194D01*
X137240429Y-52112384D01*
X137199500Y-52357665D01*
X137199500Y-52606335D01*
X135740954Y-52606335D01*
X135813158Y-52567072D01*
X136017696Y-52411159D01*
X136196048Y-52225839D01*
X136344018Y-52015471D01*
X136458137Y-51784988D01*
X136535738Y-51539780D01*
X136575000Y-51285596D01*
X136575000Y-50232000D01*
X135150000Y-50232000D01*
X134650000Y-50232000D01*
X133225000Y-50232000D01*
X108008224Y-50232000D01*
X108627462Y-49732000D01*
X133225000Y-49732000D01*
X134650000Y-49732000D01*
X134650000Y-47149737D01*
X135150000Y-47149737D01*
X135150000Y-49732000D01*
X136575000Y-49732000D01*
X136575000Y-48742797D01*
X136560240Y-48550560D01*
X136501639Y-48300135D01*
X136405493Y-48061579D01*
X136274063Y-47840505D01*
X136110424Y-47642081D01*
X135918418Y-47470965D01*
X135702531Y-47331160D01*
X135467842Y-47225951D01*
X135219847Y-47157800D01*
X135150000Y-47149737D01*
X134650000Y-47149737D01*
X134650000Y-47149276D01*
X134454846Y-47187124D01*
X134212797Y-47274057D01*
X133986841Y-47396927D01*
X133782303Y-47552840D01*
X133603951Y-47738160D01*
X133455981Y-47948528D01*
X133341862Y-48179011D01*
X133264261Y-48424219D01*
X133225000Y-48678404D01*
X133225000Y-49732000D01*
X108627462Y-49732000D01*
X108841616Y-49559083D01*
X108844287Y-49556987D01*
X109967249Y-48701603D01*
X109970068Y-48699519D01*
X110177552Y-48550560D01*
X111116777Y-47876262D01*
X111119528Y-47874345D01*
X112289122Y-47083838D01*
X112291981Y-47081964D01*
X112842747Y-46732000D01*
X137220977Y-46732000D01*
X137240916Y-46851491D01*
X137321631Y-47086606D01*
X137439946Y-47305233D01*
X137592631Y-47501403D01*
X137775522Y-47669766D01*
X137983634Y-47805733D01*
X138211278Y-47905586D01*
X138452267Y-47966613D01*
X138637951Y-47982000D01*
X139450000Y-47982000D01*
X139450000Y-46732000D01*
X139950000Y-46732000D01*
X139950000Y-47982000D01*
X140762049Y-47982000D01*
X140947732Y-47966613D01*
X141188721Y-47905586D01*
X141416365Y-47805733D01*
X141624477Y-47669766D01*
X141807368Y-47501403D01*
X141960053Y-47305233D01*
X142078368Y-47086606D01*
X142159083Y-46851491D01*
X142179023Y-46732000D01*
X139950000Y-46732000D01*
X139450000Y-46732000D01*
X137220977Y-46732000D01*
X112842747Y-46732000D01*
X113483493Y-46324861D01*
X113486347Y-46323104D01*
X113639112Y-46231999D01*
X137220976Y-46231999D01*
X137220978Y-46232000D01*
X139450000Y-46232000D01*
X139450000Y-44982000D01*
X139950000Y-44982000D01*
X139950000Y-46232000D01*
X142179022Y-46232000D01*
X142179023Y-46231999D01*
X142178356Y-46228000D01*
X143395678Y-46228000D01*
X143414923Y-46435698D01*
X143472005Y-46636319D01*
X143564978Y-46823035D01*
X143690682Y-46989494D01*
X143844826Y-47130014D01*
X143844828Y-47130015D01*
X143844829Y-47130016D01*
X144022172Y-47239823D01*
X144143746Y-47286920D01*
X144186632Y-47314866D01*
X144243181Y-47371415D01*
X144270061Y-47411643D01*
X144279500Y-47459096D01*
X144279500Y-55605152D01*
X144266500Y-55660424D01*
X144234004Y-55725682D01*
X144176923Y-55926301D01*
X144157678Y-56133999D01*
X144176923Y-56341698D01*
X144234005Y-56542319D01*
X144326978Y-56729035D01*
X144452682Y-56895494D01*
X144606826Y-57036014D01*
X144606828Y-57036015D01*
X144606829Y-57036016D01*
X144784172Y-57145823D01*
X144978673Y-57221173D01*
X145183707Y-57259500D01*
X145392291Y-57259500D01*
X145392293Y-57259500D01*
X145597327Y-57221173D01*
X145791828Y-57145823D01*
X145969171Y-57036016D01*
X146123318Y-56895493D01*
X146249019Y-56729038D01*
X146249019Y-56729036D01*
X146249021Y-56729035D01*
X146341994Y-56542319D01*
X146399076Y-56341698D01*
X146408267Y-56242506D01*
X146418322Y-56134000D01*
X146399076Y-55926304D01*
X146399076Y-55926301D01*
X146341995Y-55725682D01*
X146309500Y-55660424D01*
X146296500Y-55605152D01*
X146296500Y-52155869D01*
X158440849Y-52155869D01*
X158447258Y-52215484D01*
X158472405Y-52282906D01*
X158497553Y-52350331D01*
X158583803Y-52465546D01*
X158699018Y-52551796D01*
X158833866Y-52602091D01*
X158893476Y-52608500D01*
X160589221Y-52608499D01*
X160648832Y-52602091D01*
X160783680Y-52551796D01*
X160898895Y-52465546D01*
X160957675Y-52387026D01*
X162815875Y-52387026D01*
X162888864Y-52438133D01*
X163095022Y-52534266D01*
X163314746Y-52593141D01*
X163541349Y-52612966D01*
X163767951Y-52593141D01*
X163987675Y-52534266D01*
X164193829Y-52438134D01*
X164266821Y-52387025D01*
X163541350Y-51661553D01*
X163541349Y-51661553D01*
X162815875Y-52387025D01*
X162815875Y-52387026D01*
X160957675Y-52387026D01*
X160985145Y-52350331D01*
X161035440Y-52215483D01*
X161041849Y-52155873D01*
X161041848Y-51308000D01*
X162236382Y-51308000D01*
X162256207Y-51534602D01*
X162315082Y-51754326D01*
X162411215Y-51960484D01*
X162462321Y-52033471D01*
X162462323Y-52033472D01*
X163187795Y-51308001D01*
X163894902Y-51308001D01*
X164620374Y-52033472D01*
X164671483Y-51960480D01*
X164767615Y-51754326D01*
X164826490Y-51534602D01*
X164846315Y-51308000D01*
X164826490Y-51081397D01*
X164767615Y-50861673D01*
X164671482Y-50655515D01*
X164620374Y-50582526D01*
X163894902Y-51308000D01*
X163894902Y-51308001D01*
X163187795Y-51308001D01*
X163187795Y-51308000D01*
X162462322Y-50582526D01*
X162462322Y-50582527D01*
X162411214Y-50655516D01*
X162315082Y-50861672D01*
X162256207Y-51081397D01*
X162236382Y-51308000D01*
X161041848Y-51308000D01*
X161041848Y-50460128D01*
X161035440Y-50400517D01*
X160985145Y-50265669D01*
X160957674Y-50228973D01*
X162815875Y-50228973D01*
X163541349Y-50954446D01*
X163541350Y-50954446D01*
X164266821Y-50228974D01*
X164266820Y-50228972D01*
X164193833Y-50177866D01*
X163987675Y-50081733D01*
X163767951Y-50022858D01*
X163541349Y-50003033D01*
X163314746Y-50022858D01*
X163095021Y-50081733D01*
X162888865Y-50177865D01*
X162815876Y-50228973D01*
X162815875Y-50228973D01*
X160957674Y-50228973D01*
X160898895Y-50150454D01*
X160783680Y-50064204D01*
X160648832Y-50013909D01*
X160589222Y-50007500D01*
X160589218Y-50007500D01*
X158893479Y-50007500D01*
X158833864Y-50013909D01*
X158699018Y-50064204D01*
X158583803Y-50150454D01*
X158497553Y-50265668D01*
X158447258Y-50400516D01*
X158440849Y-50460130D01*
X158440849Y-52155869D01*
X146296500Y-52155869D01*
X146296500Y-47075869D01*
X147518849Y-47075869D01*
X147525258Y-47135484D01*
X147544519Y-47187124D01*
X147575553Y-47270331D01*
X147661803Y-47385546D01*
X147777018Y-47471796D01*
X147911866Y-47522091D01*
X147971476Y-47528500D01*
X149667221Y-47528499D01*
X149726832Y-47522091D01*
X149861680Y-47471796D01*
X149976895Y-47385546D01*
X150035675Y-47307026D01*
X151893875Y-47307026D01*
X151966864Y-47358133D01*
X152173022Y-47454266D01*
X152392746Y-47513141D01*
X152619349Y-47532966D01*
X152845951Y-47513141D01*
X153065675Y-47454266D01*
X153271829Y-47358134D01*
X153344821Y-47307025D01*
X152619350Y-46581553D01*
X152619349Y-46581553D01*
X151893875Y-47307025D01*
X151893875Y-47307026D01*
X150035675Y-47307026D01*
X150063145Y-47270331D01*
X150113440Y-47135483D01*
X150119849Y-47075873D01*
X150119848Y-46227999D01*
X151314382Y-46227999D01*
X151334207Y-46454602D01*
X151393082Y-46674326D01*
X151489215Y-46880484D01*
X151540321Y-46953471D01*
X151540322Y-46953472D01*
X152265795Y-46228000D01*
X152972902Y-46228000D01*
X153698374Y-46953472D01*
X153749483Y-46880480D01*
X153845615Y-46674326D01*
X153904490Y-46454602D01*
X153924315Y-46227999D01*
X153904490Y-46001397D01*
X153845615Y-45781673D01*
X153749482Y-45575515D01*
X153698374Y-45502526D01*
X152972902Y-46227998D01*
X152972902Y-46228000D01*
X152265795Y-46228000D01*
X152265795Y-46227998D01*
X151540322Y-45502527D01*
X151489214Y-45575516D01*
X151393082Y-45781672D01*
X151334207Y-46001397D01*
X151314382Y-46227999D01*
X150119848Y-46227999D01*
X150119848Y-45380128D01*
X150113440Y-45320517D01*
X150063145Y-45185669D01*
X150035674Y-45148973D01*
X151893875Y-45148973D01*
X152619349Y-45874446D01*
X152619350Y-45874446D01*
X153344821Y-45148974D01*
X153344820Y-45148972D01*
X153271833Y-45097866D01*
X153065675Y-45001733D01*
X152845951Y-44942858D01*
X152619348Y-44923033D01*
X152392746Y-44942858D01*
X152173021Y-45001733D01*
X151966865Y-45097865D01*
X151893876Y-45148973D01*
X151893875Y-45148973D01*
X150035674Y-45148973D01*
X149976895Y-45070454D01*
X149861680Y-44984204D01*
X149726832Y-44933909D01*
X149667222Y-44927500D01*
X149667218Y-44927500D01*
X147971479Y-44927500D01*
X147911864Y-44933909D01*
X147777018Y-44984204D01*
X147661803Y-45070454D01*
X147575553Y-45185668D01*
X147525258Y-45320516D01*
X147518849Y-45380130D01*
X147518849Y-47075869D01*
X146296500Y-47075869D01*
X146296500Y-47045642D01*
X146297097Y-47033488D01*
X146301380Y-46990000D01*
X146281909Y-46792299D01*
X146225129Y-46605124D01*
X146224401Y-46602494D01*
X146170681Y-46501993D01*
X146130595Y-46426996D01*
X146004568Y-46273432D01*
X145970784Y-46245706D01*
X145961769Y-46237535D01*
X145617113Y-45892879D01*
X145585528Y-45839131D01*
X145579994Y-45819681D01*
X145548832Y-45757100D01*
X145487021Y-45632964D01*
X145361317Y-45466505D01*
X145207173Y-45325985D01*
X145029827Y-45216176D01*
X144835328Y-45140827D01*
X144766982Y-45128051D01*
X144630293Y-45102500D01*
X144421707Y-45102500D01*
X144319189Y-45121663D01*
X144216671Y-45140827D01*
X144022172Y-45216176D01*
X143844826Y-45325985D01*
X143690682Y-45466505D01*
X143564978Y-45632964D01*
X143472005Y-45819680D01*
X143414923Y-46020301D01*
X143395678Y-46228000D01*
X142178356Y-46228000D01*
X142159083Y-46112508D01*
X142078368Y-45877393D01*
X141960053Y-45658766D01*
X141807368Y-45462596D01*
X141624477Y-45294233D01*
X141416365Y-45158266D01*
X141188721Y-45058413D01*
X140947732Y-44997386D01*
X140762049Y-44982000D01*
X139950000Y-44982000D01*
X139450000Y-44982000D01*
X138637951Y-44982000D01*
X138452267Y-44997386D01*
X138211278Y-45058413D01*
X137983634Y-45158266D01*
X137775522Y-45294233D01*
X137592631Y-45462596D01*
X137439946Y-45658766D01*
X137321631Y-45877393D01*
X137240916Y-46112508D01*
X137220976Y-46231999D01*
X113639112Y-46231999D01*
X114698778Y-45600040D01*
X114701723Y-45598339D01*
X115934130Y-44909875D01*
X115937154Y-44908242D01*
X117188503Y-44254955D01*
X117191573Y-44253406D01*
X118460948Y-43635772D01*
X118464064Y-43634311D01*
X119750361Y-43052867D01*
X119753529Y-43051489D01*
X121055777Y-42506676D01*
X121058953Y-42505399D01*
X122376128Y-41997643D01*
X122379328Y-41996461D01*
X123710334Y-41526186D01*
X123713617Y-41525078D01*
X125057332Y-41092680D01*
X125060663Y-41091659D01*
X126416171Y-40697432D01*
X126419427Y-40696535D01*
X127785550Y-40340824D01*
X127788845Y-40340016D01*
X129164493Y-40023106D01*
X129167829Y-40022388D01*
X130551870Y-39744539D01*
X130555199Y-39743920D01*
X131946529Y-39505352D01*
X131949980Y-39504811D01*
X133347478Y-39305715D01*
X133350856Y-39305282D01*
X134753446Y-39145812D01*
X134756930Y-39145466D01*
X136163448Y-39025754D01*
X136166878Y-39025511D01*
X137576237Y-38945648D01*
X137579681Y-38945502D01*
X138990698Y-38905556D01*
X138994208Y-38905506D01*
X140405792Y-38905506D01*
X140409301Y-38905556D01*
G37*
G04 #@! TD.AperFunction*
M02*
