G04 #@! TF.GenerationSoftware,KiCad,Pcbnew,7.0.1*
G04 #@! TF.CreationDate,2024-08-11T16:24:43+02:00*
G04 #@! TF.ProjectId,uTesla,75546573-6c61-42e6-9b69-6361645f7063,rev?*
G04 #@! TF.SameCoordinates,Original*
G04 #@! TF.FileFunction,Paste,Top*
G04 #@! TF.FilePolarity,Positive*
%FSLAX46Y46*%
G04 Gerber Fmt 4.6, Leading zero omitted, Abs format (unit mm)*
G04 Created by KiCad (PCBNEW 7.0.1) date 2024-08-11 16:24:43*
%MOMM*%
%LPD*%
G01*
G04 APERTURE LIST*
G04 Aperture macros list*
%AMRoundRect*
0 Rectangle with rounded corners*
0 $1 Rounding radius*
0 $2 $3 $4 $5 $6 $7 $8 $9 X,Y pos of 4 corners*
0 Add a 4 corners polygon primitive as box body*
4,1,4,$2,$3,$4,$5,$6,$7,$8,$9,$2,$3,0*
0 Add four circle primitives for the rounded corners*
1,1,$1+$1,$2,$3*
1,1,$1+$1,$4,$5*
1,1,$1+$1,$6,$7*
1,1,$1+$1,$8,$9*
0 Add four rect primitives between the rounded corners*
20,1,$1+$1,$2,$3,$4,$5,0*
20,1,$1+$1,$4,$5,$6,$7,0*
20,1,$1+$1,$6,$7,$8,$9,0*
20,1,$1+$1,$8,$9,$2,$3,0*%
G04 Aperture macros list end*
%ADD10RoundRect,0.200000X0.200000X0.275000X-0.200000X0.275000X-0.200000X-0.275000X0.200000X-0.275000X0*%
%ADD11R,1.600000X0.550000*%
%ADD12R,0.550000X1.600000*%
%ADD13RoundRect,0.200000X-0.200000X-0.275000X0.200000X-0.275000X0.200000X0.275000X-0.200000X0.275000X0*%
%ADD14RoundRect,0.225000X0.225000X0.250000X-0.225000X0.250000X-0.225000X-0.250000X0.225000X-0.250000X0*%
%ADD15RoundRect,0.225000X-0.225000X-0.250000X0.225000X-0.250000X0.225000X0.250000X-0.225000X0.250000X0*%
%ADD16R,2.000000X1.500000*%
%ADD17R,2.000000X3.800000*%
%ADD18O,3.810000X1.905000*%
%ADD19O,1.905000X3.810000*%
%ADD20RoundRect,0.250000X0.650000X-1.000000X0.650000X1.000000X-0.650000X1.000000X-0.650000X-1.000000X0*%
%ADD21RoundRect,0.200000X-0.275000X0.200000X-0.275000X-0.200000X0.275000X-0.200000X0.275000X0.200000X0*%
%ADD22R,1.600200X0.609600*%
%ADD23R,1.600200X0.558800*%
%ADD24R,2.616200X3.505200*%
%ADD25R,1.600000X0.700000*%
%ADD26R,1.800000X1.200000*%
%ADD27R,1.500000X1.600000*%
%ADD28R,2.200000X1.200000*%
G04 APERTURE END LIST*
D10*
X111569000Y-83058000D03*
X109919000Y-83058000D03*
D11*
X112590000Y-93593000D03*
X112590000Y-94393000D03*
X112590000Y-95193000D03*
X112590000Y-95993000D03*
X112590000Y-96793000D03*
X112590000Y-97593000D03*
X112590000Y-98393000D03*
X112590000Y-99193000D03*
D12*
X114040000Y-100643000D03*
X114840000Y-100643000D03*
X115640000Y-100643000D03*
X116440000Y-100643000D03*
X117240000Y-100643000D03*
X118040000Y-100643000D03*
X118840000Y-100643000D03*
X119640000Y-100643000D03*
D11*
X121090000Y-99193000D03*
X121090000Y-98393000D03*
X121090000Y-97593000D03*
X121090000Y-96793000D03*
X121090000Y-95993000D03*
X121090000Y-95193000D03*
X121090000Y-94393000D03*
X121090000Y-93593000D03*
D12*
X119640000Y-92143000D03*
X118840000Y-92143000D03*
X118040000Y-92143000D03*
X117240000Y-92143000D03*
X116440000Y-92143000D03*
X115640000Y-92143000D03*
X114840000Y-92143000D03*
X114040000Y-92143000D03*
D13*
X123317000Y-113030000D03*
X124967000Y-113030000D03*
D14*
X153950000Y-107696000D03*
X152400000Y-107696000D03*
D15*
X149580000Y-67818000D03*
X151130000Y-67818000D03*
D14*
X153950000Y-105137304D03*
X152400000Y-105137304D03*
D10*
X134175000Y-63500000D03*
X132525000Y-63500000D03*
D14*
X102516000Y-101600000D03*
X100966000Y-101600000D03*
X129299000Y-113030000D03*
X127749000Y-113030000D03*
D15*
X109715000Y-74168000D03*
X111265000Y-74168000D03*
D16*
X106528000Y-76976000D03*
X106528000Y-74676000D03*
D17*
X100228000Y-74676000D03*
D16*
X106528000Y-72376000D03*
D14*
X153950000Y-110217304D03*
X152400000Y-110217304D03*
D18*
X110490000Y-54864000D03*
D14*
X102516000Y-106680000D03*
X100966000Y-106680000D03*
D13*
X132525000Y-66294000D03*
X134175000Y-66294000D03*
D14*
X129807000Y-66294000D03*
X128257000Y-66294000D03*
D18*
X115062000Y-127000000D03*
D15*
X109715000Y-71882000D03*
X111265000Y-71882000D03*
D19*
X129794000Y-45974000D03*
X127254000Y-45974000D03*
X124714000Y-45974000D03*
D20*
X120142000Y-52292000D03*
X120142000Y-48292000D03*
D18*
X95758000Y-100330000D03*
D15*
X136639000Y-55880000D03*
X138189000Y-55880000D03*
D18*
X163576000Y-128016000D03*
D15*
X136639000Y-61468000D03*
X138189000Y-61468000D03*
D14*
X97041000Y-74422000D03*
X95491000Y-74422000D03*
D15*
X132575000Y-69088000D03*
X134125000Y-69088000D03*
X150101000Y-81026000D03*
X151651000Y-81026000D03*
D18*
X185166000Y-90678000D03*
D15*
X136639000Y-58674000D03*
X138189000Y-58674000D03*
D18*
X173736000Y-58166000D03*
D21*
X153416000Y-118492000D03*
X153416000Y-120142000D03*
D18*
X181610000Y-72390000D03*
X181610000Y-74930000D03*
X181610000Y-77470000D03*
D10*
X129857000Y-69088000D03*
X128207000Y-69088000D03*
D14*
X131407200Y-52959000D03*
X129857200Y-52959000D03*
X97041000Y-77470000D03*
X95491000Y-77470000D03*
D22*
X133350000Y-59944000D03*
X133350000Y-58674000D03*
X133350000Y-57404000D03*
X133350000Y-56134000D03*
D23*
X127914400Y-56134000D03*
X127914400Y-57404000D03*
X127914400Y-58674000D03*
X127914400Y-59944000D03*
D24*
X130632200Y-58039000D03*
D18*
X181610000Y-106172000D03*
D14*
X109360000Y-95758000D03*
X107810000Y-95758000D03*
D15*
X149339000Y-54356000D03*
X150889000Y-54356000D03*
D25*
X105420500Y-91150000D03*
X105420500Y-90050000D03*
X105420500Y-88950000D03*
X105420500Y-87850000D03*
X105420500Y-86750000D03*
X105420500Y-85650000D03*
X105420500Y-84550000D03*
X105420500Y-83450000D03*
X105420500Y-82350000D03*
D26*
X104120500Y-81150000D03*
D27*
X104370500Y-95750000D03*
D28*
X94820500Y-81150000D03*
X94820500Y-96650000D03*
D14*
X129807000Y-63500000D03*
X128257000Y-63500000D03*
M02*
