G04 #@! TF.GenerationSoftware,KiCad,Pcbnew,7.0.1*
G04 #@! TF.CreationDate,2024-08-11T00:25:02+02:00*
G04 #@! TF.ProjectId,uTesla,75546573-6c61-42e6-9b69-6361645f7063,rev?*
G04 #@! TF.SameCoordinates,Original*
G04 #@! TF.FileFunction,Soldermask,Top*
G04 #@! TF.FilePolarity,Negative*
%FSLAX46Y46*%
G04 Gerber Fmt 4.6, Leading zero omitted, Abs format (unit mm)*
G04 Created by KiCad (PCBNEW 7.0.1) date 2024-08-11 00:25:02*
%MOMM*%
%LPD*%
G01*
G04 APERTURE LIST*
G04 Aperture macros list*
%AMRoundRect*
0 Rectangle with rounded corners*
0 $1 Rounding radius*
0 $2 $3 $4 $5 $6 $7 $8 $9 X,Y pos of 4 corners*
0 Add a 4 corners polygon primitive as box body*
4,1,4,$2,$3,$4,$5,$6,$7,$8,$9,$2,$3,0*
0 Add four circle primitives for the rounded corners*
1,1,$1+$1,$2,$3*
1,1,$1+$1,$4,$5*
1,1,$1+$1,$6,$7*
1,1,$1+$1,$8,$9*
0 Add four rect primitives between the rounded corners*
20,1,$1+$1,$2,$3,$4,$5,0*
20,1,$1+$1,$4,$5,$6,$7,0*
20,1,$1+$1,$6,$7,$8,$9,0*
20,1,$1+$1,$8,$9,$2,$3,0*%
G04 Aperture macros list end*
%ADD10RoundRect,0.102000X-0.997500X-0.997500X0.997500X-0.997500X0.997500X0.997500X-0.997500X0.997500X0*%
%ADD11C,2.199000*%
%ADD12RoundRect,0.200000X0.200000X0.275000X-0.200000X0.275000X-0.200000X-0.275000X0.200000X-0.275000X0*%
%ADD13C,2.000000*%
%ADD14RoundRect,0.102000X0.997500X-0.997500X0.997500X0.997500X-0.997500X0.997500X-0.997500X-0.997500X0*%
%ADD15R,2.200000X2.200000*%
%ADD16O,2.200000X2.200000*%
%ADD17R,1.600000X0.550000*%
%ADD18R,0.550000X1.600000*%
%ADD19RoundRect,0.200000X-0.275000X0.200000X-0.275000X-0.200000X0.275000X-0.200000X0.275000X0.200000X0*%
%ADD20RoundRect,0.225000X0.225000X0.250000X-0.225000X0.250000X-0.225000X-0.250000X0.225000X-0.250000X0*%
%ADD21C,1.284000*%
%ADD22RoundRect,0.225000X0.250000X-0.225000X0.250000X0.225000X-0.250000X0.225000X-0.250000X-0.225000X0*%
%ADD23R,1.600000X1.600000*%
%ADD24C,1.600000*%
%ADD25RoundRect,0.225000X-0.225000X-0.250000X0.225000X-0.250000X0.225000X0.250000X-0.225000X0.250000X0*%
%ADD26O,2.554000X4.904000*%
%ADD27O,4.204000X2.204000*%
%ADD28R,1.500000X2.000000*%
%ADD29R,3.800000X2.000000*%
%ADD30O,3.810000X1.905000*%
%ADD31R,1.560000X1.560000*%
%ADD32C,1.560000*%
%ADD33RoundRect,0.200000X-0.200000X-0.275000X0.200000X-0.275000X0.200000X0.275000X-0.200000X0.275000X0*%
%ADD34R,1.700000X1.700000*%
%ADD35O,1.700000X1.700000*%
%ADD36O,1.905000X3.810000*%
%ADD37RoundRect,0.250000X-0.650000X1.000000X-0.650000X-1.000000X0.650000X-1.000000X0.650000X1.000000X0*%
%ADD38C,3.600000*%
%ADD39RoundRect,0.102000X0.800100X0.304800X-0.800100X0.304800X-0.800100X-0.304800X0.800100X-0.304800X0*%
%ADD40RoundRect,0.102000X0.800100X0.279400X-0.800100X0.279400X-0.800100X-0.279400X0.800100X-0.279400X0*%
%ADD41RoundRect,0.102000X1.308100X1.752600X-1.308100X1.752600X-1.308100X-1.752600X1.308100X-1.752600X0*%
%ADD42C,1.000000*%
%ADD43RoundRect,0.102000X-0.800000X0.350000X-0.800000X-0.350000X0.800000X-0.350000X0.800000X0.350000X0*%
%ADD44RoundRect,0.102000X-0.900000X0.600000X-0.900000X-0.600000X0.900000X-0.600000X0.900000X0.600000X0*%
%ADD45RoundRect,0.102000X-0.750000X0.800000X-0.750000X-0.800000X0.750000X-0.800000X0.750000X0.800000X0*%
%ADD46RoundRect,0.102000X-1.100000X0.600000X-1.100000X-0.600000X1.100000X-0.600000X1.100000X0.600000X0*%
G04 APERTURE END LIST*
D10*
X147320000Y-78740000D03*
D11*
X149860000Y-78740000D03*
X152400000Y-78740000D03*
D12*
X112585000Y-92075000D03*
X110935000Y-92075000D03*
D13*
X155360000Y-103680000D03*
X144360000Y-103680000D03*
X155360000Y-109680000D03*
X144360000Y-109680000D03*
D14*
X194310000Y-102870000D03*
D11*
X194310000Y-100330000D03*
X194310000Y-97790000D03*
D15*
X153670000Y-128905000D03*
D16*
X153670000Y-139065000D03*
D17*
X115130000Y-112135000D03*
X115130000Y-112935000D03*
X115130000Y-113735000D03*
X115130000Y-114535000D03*
X115130000Y-115335000D03*
X115130000Y-116135000D03*
X115130000Y-116935000D03*
X115130000Y-117735000D03*
D18*
X116580000Y-119185000D03*
X117380000Y-119185000D03*
X118180000Y-119185000D03*
X118980000Y-119185000D03*
X119780000Y-119185000D03*
X120580000Y-119185000D03*
X121380000Y-119185000D03*
X122180000Y-119185000D03*
D17*
X123630000Y-117735000D03*
X123630000Y-116935000D03*
X123630000Y-116135000D03*
X123630000Y-115335000D03*
X123630000Y-114535000D03*
X123630000Y-113735000D03*
X123630000Y-112935000D03*
X123630000Y-112135000D03*
D18*
X122180000Y-110685000D03*
X121380000Y-110685000D03*
X120580000Y-110685000D03*
X119780000Y-110685000D03*
X118980000Y-110685000D03*
X118180000Y-110685000D03*
X117380000Y-110685000D03*
X116580000Y-110685000D03*
D19*
X127635000Y-114110000D03*
X127635000Y-115760000D03*
D20*
X167145000Y-125730000D03*
X165595000Y-125730000D03*
D21*
X102235000Y-108685000D03*
X102235000Y-113565000D03*
D22*
X176530000Y-89675000D03*
X176530000Y-88125000D03*
D20*
X167145000Y-123171304D03*
X165595000Y-123171304D03*
D15*
X146050000Y-128905000D03*
D16*
X146050000Y-139065000D03*
D12*
X131635000Y-40780030D03*
X129985000Y-40780030D03*
D13*
X130810000Y-86360000D03*
X162560000Y-31750000D03*
D20*
X96660000Y-108585000D03*
X95110000Y-108585000D03*
D23*
X167107349Y-107950000D03*
D24*
X170907349Y-107950000D03*
D20*
X134125000Y-130175000D03*
X132575000Y-130175000D03*
D13*
X168910000Y-31750000D03*
D15*
X146050000Y-86360000D03*
D16*
X146050000Y-96520000D03*
D15*
X153670000Y-86360000D03*
D16*
X153670000Y-96520000D03*
D25*
X114795000Y-48260000D03*
X116345000Y-48260000D03*
D23*
X183617349Y-44450000D03*
D24*
X187417349Y-44450000D03*
D26*
X147600000Y-30480000D03*
D27*
X152400000Y-26980000D03*
X152400000Y-32980000D03*
D28*
X117870000Y-54000000D03*
X115570000Y-54000000D03*
D29*
X115570000Y-60300000D03*
D28*
X113270000Y-54000000D03*
D20*
X167145000Y-128251304D03*
X165595000Y-128251304D03*
D30*
X114300000Y-38100000D03*
D20*
X96660000Y-113665000D03*
X95110000Y-113665000D03*
D31*
X175560000Y-142200000D03*
D32*
X180560000Y-139700000D03*
X175560000Y-137200000D03*
D33*
X129985000Y-44490825D03*
X131635000Y-44490825D03*
D34*
X133350000Y-96520000D03*
D35*
X133350000Y-99060000D03*
X133350000Y-101600000D03*
X133350000Y-104140000D03*
X133350000Y-106680000D03*
X133350000Y-109220000D03*
X133350000Y-111760000D03*
X133350000Y-114300000D03*
X133350000Y-116840000D03*
X133350000Y-119380000D03*
X133350000Y-121920000D03*
X133350000Y-124460000D03*
D13*
X139065000Y-118110000D03*
D20*
X131585000Y-55880000D03*
X130035000Y-55880000D03*
D23*
X183617349Y-59690000D03*
D24*
X187417349Y-59690000D03*
D14*
X194310000Y-80010000D03*
D11*
X194310000Y-77470000D03*
X194310000Y-74930000D03*
D30*
X111125000Y-139700000D03*
D25*
X114795000Y-44450000D03*
X116345000Y-44450000D03*
D36*
X139700000Y-26670000D03*
X137160000Y-26670000D03*
X134620000Y-26670000D03*
D37*
X130810000Y-65310000D03*
X130810000Y-69310000D03*
D30*
X92075000Y-69850000D03*
D20*
X146825000Y-53340000D03*
X145275000Y-53340000D03*
D30*
X171450000Y-152400000D03*
D20*
X146825000Y-60960000D03*
X145275000Y-60960000D03*
D25*
X114795000Y-66040000D03*
X116345000Y-66040000D03*
X130035000Y-48260000D03*
X131585000Y-48260000D03*
D13*
X120575000Y-135545000D03*
X127075000Y-135545000D03*
X120575000Y-140045000D03*
X127075000Y-140045000D03*
D22*
X176530000Y-102375000D03*
X176530000Y-100825000D03*
D30*
X209550000Y-120650000D03*
D20*
X146825000Y-57150000D03*
X145275000Y-57150000D03*
D34*
X113030000Y-96520000D03*
D35*
X115570000Y-96520000D03*
X118110000Y-96520000D03*
X120650000Y-96520000D03*
X123190000Y-96520000D03*
D30*
X203200000Y-50800000D03*
D13*
X162560000Y-25400000D03*
X139065000Y-125730000D03*
D33*
X176975000Y-130810000D03*
X178625000Y-130810000D03*
D30*
X215900000Y-77470000D03*
X215900000Y-80010000D03*
X215900000Y-82550000D03*
D12*
X131635000Y-59690000D03*
X129985000Y-59690000D03*
D20*
X146825000Y-43180000D03*
X145275000Y-43180000D03*
D23*
X167107349Y-82550000D03*
D24*
X170907349Y-82550000D03*
D25*
X114795000Y-69850000D03*
X116345000Y-69850000D03*
D38*
X161290000Y-52070000D03*
X171450000Y-52070000D03*
D39*
X148767800Y-50165000D03*
X148767800Y-48895000D03*
X148767800Y-47625000D03*
X148767800Y-46355000D03*
D40*
X143332200Y-46355000D03*
X143332200Y-47625000D03*
X143332200Y-48895000D03*
X143332200Y-50165000D03*
D41*
X146050000Y-48260000D03*
D15*
X153670000Y-124460000D03*
D16*
X153670000Y-114300000D03*
D30*
X215900000Y-100330000D03*
D20*
X111900000Y-114300000D03*
X110350000Y-114300000D03*
D22*
X176530000Y-76975000D03*
X176530000Y-75425000D03*
D15*
X146050000Y-124460000D03*
D16*
X146050000Y-114300000D03*
D42*
X86920000Y-85220000D03*
X86920000Y-93220000D03*
D43*
X97920000Y-92420000D03*
X97920000Y-91320000D03*
X97920000Y-90220000D03*
X97920000Y-89120000D03*
X97920000Y-88020000D03*
X97920000Y-86920000D03*
X97920000Y-85820000D03*
X97920000Y-84720000D03*
X97920000Y-83620000D03*
D44*
X96620000Y-82420000D03*
D45*
X96870000Y-97020000D03*
D46*
X87320000Y-82420000D03*
X87320000Y-97920000D03*
D23*
X167107349Y-95250000D03*
D24*
X170907349Y-95250000D03*
D20*
X131585000Y-52070000D03*
X130035000Y-52070000D03*
M02*
