G04 #@! TF.GenerationSoftware,KiCad,Pcbnew,7.0.1*
G04 #@! TF.CreationDate,2024-08-11T16:24:43+02:00*
G04 #@! TF.ProjectId,uTesla,75546573-6c61-42e6-9b69-6361645f7063,rev?*
G04 #@! TF.SameCoordinates,Original*
G04 #@! TF.FileFunction,Soldermask,Top*
G04 #@! TF.FilePolarity,Negative*
%FSLAX46Y46*%
G04 Gerber Fmt 4.6, Leading zero omitted, Abs format (unit mm)*
G04 Created by KiCad (PCBNEW 7.0.1) date 2024-08-11 16:24:43*
%MOMM*%
%LPD*%
G01*
G04 APERTURE LIST*
G04 Aperture macros list*
%AMRoundRect*
0 Rectangle with rounded corners*
0 $1 Rounding radius*
0 $2 $3 $4 $5 $6 $7 $8 $9 X,Y pos of 4 corners*
0 Add a 4 corners polygon primitive as box body*
4,1,4,$2,$3,$4,$5,$6,$7,$8,$9,$2,$3,0*
0 Add four circle primitives for the rounded corners*
1,1,$1+$1,$2,$3*
1,1,$1+$1,$4,$5*
1,1,$1+$1,$6,$7*
1,1,$1+$1,$8,$9*
0 Add four rect primitives between the rounded corners*
20,1,$1+$1,$2,$3,$4,$5,0*
20,1,$1+$1,$4,$5,$6,$7,0*
20,1,$1+$1,$6,$7,$8,$9,0*
20,1,$1+$1,$8,$9,$2,$3,0*%
G04 Aperture macros list end*
%ADD10RoundRect,0.102000X0.997500X-0.997500X0.997500X0.997500X-0.997500X0.997500X-0.997500X-0.997500X0*%
%ADD11C,2.199000*%
%ADD12RoundRect,0.200000X0.200000X0.275000X-0.200000X0.275000X-0.200000X-0.275000X0.200000X-0.275000X0*%
%ADD13C,2.000000*%
%ADD14R,2.200000X2.200000*%
%ADD15O,2.200000X2.200000*%
%ADD16R,1.600000X0.550000*%
%ADD17R,0.550000X1.600000*%
%ADD18RoundRect,0.200000X-0.200000X-0.275000X0.200000X-0.275000X0.200000X0.275000X-0.200000X0.275000X0*%
%ADD19RoundRect,0.225000X0.225000X0.250000X-0.225000X0.250000X-0.225000X-0.250000X0.225000X-0.250000X0*%
%ADD20C,1.284000*%
%ADD21RoundRect,0.225000X-0.225000X-0.250000X0.225000X-0.250000X0.225000X0.250000X-0.225000X0.250000X0*%
%ADD22R,1.600000X1.600000*%
%ADD23C,1.600000*%
%ADD24O,2.554000X4.904000*%
%ADD25O,4.204000X2.204000*%
%ADD26R,2.000000X1.500000*%
%ADD27R,2.000000X3.800000*%
%ADD28O,3.810000X1.905000*%
%ADD29R,1.560000X1.560000*%
%ADD30C,1.560000*%
%ADD31R,1.700000X1.700000*%
%ADD32O,1.700000X1.700000*%
%ADD33O,1.905000X3.810000*%
%ADD34RoundRect,0.250000X0.650000X-1.000000X0.650000X1.000000X-0.650000X1.000000X-0.650000X-1.000000X0*%
%ADD35RoundRect,0.200000X-0.275000X0.200000X-0.275000X-0.200000X0.275000X-0.200000X0.275000X0.200000X0*%
%ADD36C,3.600000*%
%ADD37RoundRect,0.102000X0.800100X0.304800X-0.800100X0.304800X-0.800100X-0.304800X0.800100X-0.304800X0*%
%ADD38RoundRect,0.102000X0.800100X0.279400X-0.800100X0.279400X-0.800100X-0.279400X0.800100X-0.279400X0*%
%ADD39RoundRect,0.102000X1.308100X1.752600X-1.308100X1.752600X-1.308100X-1.752600X1.308100X-1.752600X0*%
%ADD40C,1.000000*%
%ADD41RoundRect,0.102000X-0.800000X0.350000X-0.800000X-0.350000X0.800000X-0.350000X0.800000X0.350000X0*%
%ADD42RoundRect,0.102000X-0.900000X0.600000X-0.900000X-0.600000X0.900000X-0.600000X0.900000X0.600000X0*%
%ADD43RoundRect,0.102000X-0.750000X0.800000X-0.750000X-0.800000X0.750000X-0.800000X0.750000X0.800000X0*%
%ADD44RoundRect,0.102000X-1.100000X0.600000X-1.100000X-0.600000X1.100000X-0.600000X1.100000X0.600000X0*%
G04 APERTURE END LIST*
D10*
X137018000Y-80180500D03*
D11*
X137018000Y-77640500D03*
X137018000Y-75100500D03*
D12*
X111569000Y-83058000D03*
X109919000Y-83058000D03*
D13*
X144692000Y-103680000D03*
X133692000Y-103680000D03*
X144692000Y-109680000D03*
X133692000Y-109680000D03*
D10*
X159512000Y-93218000D03*
D11*
X159512000Y-90678000D03*
X159512000Y-88138000D03*
D14*
X120650000Y-122682000D03*
D15*
X110490000Y-122682000D03*
D16*
X112590000Y-93593000D03*
X112590000Y-94393000D03*
X112590000Y-95193000D03*
X112590000Y-95993000D03*
X112590000Y-96793000D03*
X112590000Y-97593000D03*
X112590000Y-98393000D03*
X112590000Y-99193000D03*
D17*
X114040000Y-100643000D03*
X114840000Y-100643000D03*
X115640000Y-100643000D03*
X116440000Y-100643000D03*
X117240000Y-100643000D03*
X118040000Y-100643000D03*
X118840000Y-100643000D03*
X119640000Y-100643000D03*
D16*
X121090000Y-99193000D03*
X121090000Y-98393000D03*
X121090000Y-97593000D03*
X121090000Y-96793000D03*
X121090000Y-95993000D03*
X121090000Y-95193000D03*
X121090000Y-94393000D03*
X121090000Y-93593000D03*
D17*
X119640000Y-92143000D03*
X118840000Y-92143000D03*
X118040000Y-92143000D03*
X117240000Y-92143000D03*
X116440000Y-92143000D03*
X115640000Y-92143000D03*
X114840000Y-92143000D03*
X114040000Y-92143000D03*
D18*
X123317000Y-113030000D03*
X124967000Y-113030000D03*
D19*
X153950000Y-107696000D03*
X152400000Y-107696000D03*
D20*
X107188000Y-101700000D03*
X107188000Y-106580000D03*
D21*
X149580000Y-67818000D03*
X151130000Y-67818000D03*
D19*
X153950000Y-105137304D03*
X152400000Y-105137304D03*
D14*
X120650000Y-117348000D03*
D15*
X110490000Y-117348000D03*
D12*
X134175000Y-63500000D03*
X132525000Y-63500000D03*
D13*
X139192000Y-66548000D03*
X105156000Y-65900000D03*
D19*
X102516000Y-101600000D03*
X100966000Y-101600000D03*
D22*
X145263349Y-86360000D03*
D23*
X149063349Y-86360000D03*
D19*
X129299000Y-113030000D03*
X127749000Y-113030000D03*
D13*
X99955000Y-66110000D03*
D14*
X134112000Y-88392000D03*
D15*
X134112000Y-98552000D03*
D14*
X139954000Y-88392000D03*
D15*
X139954000Y-98552000D03*
D21*
X109715000Y-74168000D03*
X111265000Y-74168000D03*
D22*
X148819349Y-46228000D03*
D23*
X152619349Y-46228000D03*
D24*
X134900000Y-49982000D03*
D25*
X139700000Y-46482000D03*
X139700000Y-52482000D03*
D26*
X106528000Y-76976000D03*
X106528000Y-74676000D03*
D27*
X100228000Y-74676000D03*
D26*
X106528000Y-72376000D03*
D19*
X153950000Y-110217304D03*
X152400000Y-110217304D03*
D28*
X110490000Y-54864000D03*
D19*
X102516000Y-106680000D03*
X100966000Y-106680000D03*
D29*
X143302000Y-122642000D03*
D30*
X148302000Y-120142000D03*
X143302000Y-117642000D03*
D18*
X132525000Y-66294000D03*
X134175000Y-66294000D03*
D31*
X128524000Y-81280000D03*
D32*
X128524000Y-83820000D03*
X128524000Y-86360000D03*
X128524000Y-88900000D03*
X128524000Y-91440000D03*
X128524000Y-93980000D03*
X128524000Y-96520000D03*
X128524000Y-99060000D03*
X128524000Y-101600000D03*
X128524000Y-104140000D03*
X128524000Y-106680000D03*
X128524000Y-109220000D03*
D13*
X122174000Y-128778000D03*
D19*
X129807000Y-66294000D03*
X128257000Y-66294000D03*
D22*
X159741349Y-51308000D03*
D23*
X163541349Y-51308000D03*
D10*
X159512000Y-73406000D03*
D11*
X159512000Y-70866000D03*
X159512000Y-68326000D03*
D28*
X115062000Y-127000000D03*
D21*
X109715000Y-71882000D03*
X111265000Y-71882000D03*
D33*
X129794000Y-45974000D03*
X127254000Y-45974000D03*
X124714000Y-45974000D03*
D34*
X120142000Y-52292000D03*
X120142000Y-48292000D03*
D28*
X95758000Y-100330000D03*
D21*
X136639000Y-55880000D03*
X138189000Y-55880000D03*
D28*
X163576000Y-128016000D03*
D21*
X136639000Y-61468000D03*
X138189000Y-61468000D03*
D19*
X97041000Y-74422000D03*
X95491000Y-74422000D03*
D21*
X132575000Y-69088000D03*
X134125000Y-69088000D03*
D13*
X114860000Y-104684000D03*
X121360000Y-104684000D03*
X114860000Y-109184000D03*
X121360000Y-109184000D03*
D21*
X150101000Y-81026000D03*
X151651000Y-81026000D03*
D28*
X185166000Y-90678000D03*
D21*
X136639000Y-58674000D03*
X138189000Y-58674000D03*
D31*
X112522000Y-86360000D03*
D32*
X115062000Y-86360000D03*
X117602000Y-86360000D03*
X120142000Y-86360000D03*
X122682000Y-86360000D03*
D28*
X173736000Y-58166000D03*
D13*
X157231651Y-45393000D03*
X127184000Y-128778000D03*
D35*
X153416000Y-118492000D03*
X153416000Y-120142000D03*
D28*
X181610000Y-72390000D03*
X181610000Y-74930000D03*
X181610000Y-77470000D03*
D12*
X129857000Y-69088000D03*
X128207000Y-69088000D03*
D19*
X131407200Y-52959000D03*
X129857200Y-52959000D03*
D22*
X145263349Y-61214000D03*
D23*
X149063349Y-61214000D03*
D19*
X97041000Y-77470000D03*
X95491000Y-77470000D03*
D36*
X124460000Y-68072000D03*
X114300000Y-68072000D03*
D37*
X133350000Y-59944000D03*
X133350000Y-58674000D03*
X133350000Y-57404000D03*
X133350000Y-56134000D03*
D38*
X127914400Y-56134000D03*
X127914400Y-57404000D03*
X127914400Y-58674000D03*
X127914400Y-59944000D03*
D39*
X130632200Y-58039000D03*
D14*
X124460000Y-122682000D03*
D15*
X134620000Y-122682000D03*
D28*
X181610000Y-106172000D03*
D19*
X109360000Y-95758000D03*
X107810000Y-95758000D03*
D21*
X149339000Y-54356000D03*
X150889000Y-54356000D03*
D14*
X124460000Y-117348000D03*
D15*
X134620000Y-117348000D03*
D40*
X94420500Y-83950000D03*
X94420500Y-91950000D03*
D41*
X105420500Y-91150000D03*
X105420500Y-90050000D03*
X105420500Y-88950000D03*
X105420500Y-87850000D03*
X105420500Y-86750000D03*
X105420500Y-85650000D03*
X105420500Y-84550000D03*
X105420500Y-83450000D03*
X105420500Y-82350000D03*
D42*
X104120500Y-81150000D03*
D43*
X104370500Y-95750000D03*
D44*
X94820500Y-81150000D03*
X94820500Y-96650000D03*
D22*
X145298000Y-73914000D03*
D23*
X149098000Y-73914000D03*
D19*
X129807000Y-63500000D03*
X128257000Y-63500000D03*
M02*
