M48
; DRILL file {KiCad 7.0.1} date Sun Aug 11 16:24:46 2024
; FORMAT={-:-/ absolute / metric / decimal}
; #@! TF.CreationDate,2024-08-11T16:24:46+02:00
; #@! TF.GenerationSoftware,Kicad,Pcbnew,7.0.1
; #@! TF.FileFunction,Plated,1,2,PTH
FMAT,2
METRIC
; #@! TA.AperFunction,Plated,PTH,ViaDrill
T1C0.400
; #@! TA.AperFunction,Plated,PTH,ComponentDrill
T2C0.680
; #@! TA.AperFunction,Plated,PTH,ViaDrill
T3C0.750
; #@! TA.AperFunction,Plated,PTH,ComponentDrill
T4C0.800
; #@! TA.AperFunction,Plated,PTH,ComponentDrill
T5C1.000
; #@! TA.AperFunction,Plated,PTH,ComponentDrill
T6C1.100
; #@! TA.AperFunction,Plated,PTH,ComponentDrill
T7C1.330
; #@! TA.AperFunction,Plated,PTH,ComponentDrill
T8C1.800
%
G90
G05
T1
X92.964Y-87.376
X98.806Y-86.614
X99.314Y-94.234
X100.33Y-83.058
X102.108Y-78.232
X102.616Y-88.392
X102.87Y-83.566
X103.759Y-86.995
X104.902Y-60.96
X105.41Y-113.03
X107.188Y-87.884
X107.442Y-90.932
X108.331Y-92.837
X108.966Y-81.28
X108.966Y-94.742
X110.998Y-90.424
X110.998Y-91.694
X110.998Y-92.964
X111.76Y-64.008
X112.268Y-89.154
X113.03Y-101.854
X113.538Y-113.03
X113.792Y-88.392
X113.792Y-90.424
X114.3Y-84.201
X114.3Y-98.933
X114.554Y-50.038
X115.062Y-75.692
X115.316Y-122.682
X116.078Y-90.678
X116.84Y-96.266
X116.84Y-97.536
X116.84Y-98.806
X116.84Y-102.108
X117.602Y-58.674
X117.602Y-103.124
X117.856Y-88.646
X118.364Y-108.204
X119.126Y-68.834
X119.38Y-88.646
X119.38Y-94.488
X119.38Y-95.758
X120.142Y-113.284
X120.65Y-92.71
X120.65Y-100.838
X120.904Y-88.646
X121.412Y-107.188
X121.793Y-81.153
X121.92Y-101.092
X122.428Y-88.646
X122.682Y-97.282
X123.19Y-64.262
X123.19Y-77.978
X123.19Y-102.362
X123.19Y-103.632
X123.444Y-106.426
X124.206Y-100.838
X124.46Y-82.55
X124.968Y-61.468
X124.968Y-97.79
X125.222Y-88.138
X125.984Y-90.424
X126.238Y-52.578
X127.0Y-61.468
X127.508Y-72.136
X127.508Y-111.252
X128.778Y-125.984
X130.556Y-61.722
X130.81Y-114.808
X133.096Y-106.68
X134.112Y-77.47
X134.874Y-83.312
X136.652Y-44.704
X136.652Y-92.456
X137.414Y-98.552
X138.176Y-110.236
X139.7Y-121.666
X141.478Y-56.896
X141.732Y-82.55
X142.494Y-49.53
X143.256Y-67.818
X146.05Y-99.314
X146.304Y-41.91
X150.622Y-90.678
X153.67Y-64.008
X154.432Y-129.032
X154.686Y-53.34
X155.448Y-72.644
X155.448Y-93.218
X157.734Y-114.554
X158.496Y-81.534
X160.782Y-100.838
X163.322Y-78.994
X164.592Y-67.056
X164.592Y-119.126
X167.132Y-56.896
X168.402Y-96.266
X171.958Y-112.268
X172.212Y-120.142
X176.53Y-65.532
X176.53Y-90.932
X179.832Y-85.852
X181.356Y-98.806
T2
X107.188Y-101.7
X107.188Y-106.58
T3
X129.032Y-75.438
X132.334Y-83.058
X133.858Y-113.792
X144.526Y-46.228
X145.288Y-56.134
X145.542Y-106.68
X168.91Y-67.056
X171.196Y-74.93
T4
X145.263Y-61.214
X145.263Y-86.36
X145.298Y-73.914
X148.819Y-46.228
X149.063Y-61.214
X149.063Y-86.36
X149.098Y-73.914
X152.619Y-46.228
X159.741Y-51.308
X163.541Y-51.308
T5
X112.522Y-86.36
X115.062Y-86.36
X117.602Y-86.36
X120.142Y-86.36
X122.682Y-86.36
X128.524Y-81.28
X128.524Y-83.82
X128.524Y-86.36
X128.524Y-88.9
X128.524Y-91.44
X128.524Y-93.98
X128.524Y-96.52
X128.524Y-99.06
X128.524Y-101.6
X128.524Y-104.14
X128.524Y-106.68
X128.524Y-109.22
X133.692Y-103.68
X133.692Y-109.68
X143.302Y-117.642
X143.302Y-122.642
X144.692Y-103.68
X144.692Y-109.68
X148.302Y-120.142
T6
X110.49Y-117.348
X110.49Y-122.682
X114.86Y-104.684
X114.86Y-109.184
X120.65Y-117.348
X120.65Y-122.682
X121.36Y-104.684
X121.36Y-109.184
X124.46Y-117.348
X124.46Y-122.682
X134.112Y-88.392
X134.112Y-98.552
X134.62Y-117.348
X134.62Y-122.682
X139.954Y-88.392
X139.954Y-98.552
T7
X137.018Y-75.1
X137.018Y-77.641
X137.018Y-80.18
X159.512Y-68.326
X159.512Y-70.866
X159.512Y-73.406
X159.512Y-88.138
X159.512Y-90.678
X159.512Y-93.218
T8
X114.3Y-68.072
X124.46Y-68.072
T4
X134.9Y-48.632G85X134.9Y-51.332
G05
X140.8Y-46.482G85X138.6Y-46.482
G05
X140.8Y-52.482G85X138.6Y-52.482
G05
T0
M30
