G04 #@! TF.GenerationSoftware,KiCad,Pcbnew,7.0.1*
G04 #@! TF.CreationDate,2024-08-11T00:25:01+02:00*
G04 #@! TF.ProjectId,uTesla,75546573-6c61-42e6-9b69-6361645f7063,rev?*
G04 #@! TF.SameCoordinates,Original*
G04 #@! TF.FileFunction,Copper,L2,Bot*
G04 #@! TF.FilePolarity,Positive*
%FSLAX46Y46*%
G04 Gerber Fmt 4.6, Leading zero omitted, Abs format (unit mm)*
G04 Created by KiCad (PCBNEW 7.0.1) date 2024-08-11 00:25:01*
%MOMM*%
%LPD*%
G01*
G04 APERTURE LIST*
G04 #@! TA.AperFunction,ComponentPad*
%ADD10R,1.995000X1.995000*%
G04 #@! TD*
G04 #@! TA.AperFunction,ComponentPad*
%ADD11C,1.995000*%
G04 #@! TD*
G04 #@! TA.AperFunction,ComponentPad*
%ADD12C,2.000000*%
G04 #@! TD*
G04 #@! TA.AperFunction,ComponentPad*
%ADD13R,2.200000X2.200000*%
G04 #@! TD*
G04 #@! TA.AperFunction,ComponentPad*
%ADD14O,2.200000X2.200000*%
G04 #@! TD*
G04 #@! TA.AperFunction,ComponentPad*
%ADD15C,1.080000*%
G04 #@! TD*
G04 #@! TA.AperFunction,ComponentPad*
%ADD16R,1.600000X1.600000*%
G04 #@! TD*
G04 #@! TA.AperFunction,ComponentPad*
%ADD17C,1.600000*%
G04 #@! TD*
G04 #@! TA.AperFunction,ComponentPad*
%ADD18O,2.350000X4.700000*%
G04 #@! TD*
G04 #@! TA.AperFunction,ComponentPad*
%ADD19O,4.000000X2.000000*%
G04 #@! TD*
G04 #@! TA.AperFunction,ComponentPad*
%ADD20R,1.560000X1.560000*%
G04 #@! TD*
G04 #@! TA.AperFunction,ComponentPad*
%ADD21C,1.560000*%
G04 #@! TD*
G04 #@! TA.AperFunction,ComponentPad*
%ADD22R,1.700000X1.700000*%
G04 #@! TD*
G04 #@! TA.AperFunction,ComponentPad*
%ADD23O,1.700000X1.700000*%
G04 #@! TD*
G04 #@! TA.AperFunction,ComponentPad*
%ADD24C,3.600000*%
G04 #@! TD*
G04 #@! TA.AperFunction,SMDPad,CuDef*
%ADD25O,3.810000X1.905000*%
G04 #@! TD*
G04 #@! TA.AperFunction,ViaPad*
%ADD26C,1.250000*%
G04 #@! TD*
G04 #@! TA.AperFunction,ViaPad*
%ADD27C,0.800000*%
G04 #@! TD*
G04 #@! TA.AperFunction,Conductor*
%ADD28C,1.016000*%
G04 #@! TD*
G04 #@! TA.AperFunction,Conductor*
%ADD29C,0.508000*%
G04 #@! TD*
G04 APERTURE END LIST*
D10*
X147320000Y-78740000D03*
D11*
X149860000Y-78740000D03*
X152400000Y-78740000D03*
D12*
X155360000Y-103680000D03*
X144360000Y-103680000D03*
X155360000Y-109680000D03*
X144360000Y-109680000D03*
D10*
X194310000Y-102870000D03*
D11*
X194310000Y-100330000D03*
X194310000Y-97790000D03*
D13*
X153670000Y-128905000D03*
D14*
X153670000Y-139065000D03*
D15*
X102235000Y-108685000D03*
X102235000Y-113565000D03*
D13*
X146050000Y-128905000D03*
D14*
X146050000Y-139065000D03*
D16*
X167107349Y-107950000D03*
D17*
X170907349Y-107950000D03*
D13*
X146050000Y-86360000D03*
D14*
X146050000Y-96520000D03*
D13*
X153670000Y-86360000D03*
D14*
X153670000Y-96520000D03*
D16*
X183617349Y-44450000D03*
D17*
X187417349Y-44450000D03*
D18*
X147600000Y-30480000D03*
D19*
X152400000Y-26980000D03*
X152400000Y-32980000D03*
D20*
X175560000Y-142200000D03*
D21*
X180560000Y-139700000D03*
X175560000Y-137200000D03*
D22*
X133350000Y-96520000D03*
D23*
X133350000Y-99060000D03*
X133350000Y-101600000D03*
X133350000Y-104140000D03*
X133350000Y-106680000D03*
X133350000Y-109220000D03*
X133350000Y-111760000D03*
X133350000Y-114300000D03*
X133350000Y-116840000D03*
X133350000Y-119380000D03*
X133350000Y-121920000D03*
X133350000Y-124460000D03*
D16*
X183617349Y-59690000D03*
D17*
X187417349Y-59690000D03*
D10*
X194310000Y-80010000D03*
D11*
X194310000Y-77470000D03*
X194310000Y-74930000D03*
D12*
X120575000Y-135545000D03*
X127075000Y-135545000D03*
X120575000Y-140045000D03*
X127075000Y-140045000D03*
D22*
X113030000Y-96520000D03*
D23*
X115570000Y-96520000D03*
X118110000Y-96520000D03*
X120650000Y-96520000D03*
X123190000Y-96520000D03*
D16*
X167107349Y-82550000D03*
D17*
X170907349Y-82550000D03*
D24*
X161290000Y-52070000D03*
X171450000Y-52070000D03*
D13*
X153670000Y-124460000D03*
D14*
X153670000Y-114300000D03*
D13*
X146050000Y-124460000D03*
D14*
X146050000Y-114300000D03*
D16*
X167107349Y-95250000D03*
D17*
X170907349Y-95250000D03*
D25*
X171450000Y-152400000D03*
X209550000Y-120650000D03*
X92075000Y-69850000D03*
X114300000Y-38100000D03*
X203200000Y-50800000D03*
X111125000Y-139700000D03*
D26*
X197485000Y-72390000D03*
X205105000Y-80010000D03*
X154940000Y-41910000D03*
X151765000Y-46355000D03*
X149225000Y-35560000D03*
X175260000Y-39370000D03*
X113030000Y-129540000D03*
X100330000Y-124460000D03*
X110490000Y-82550000D03*
X132715000Y-38735000D03*
X97790000Y-62230000D03*
X158750000Y-124460000D03*
X162560000Y-45720000D03*
X167640000Y-142240000D03*
X168910000Y-68580000D03*
X139700000Y-69850000D03*
X96520000Y-102870000D03*
X195580000Y-91440000D03*
X175260000Y-60960000D03*
X127000000Y-34290000D03*
X196088000Y-110744000D03*
X204470000Y-129540000D03*
X177800000Y-109220000D03*
X124460000Y-53340000D03*
D27*
X123825000Y-110490000D03*
D26*
X208280000Y-106680000D03*
X166370000Y-146685000D03*
X149860000Y-130810000D03*
X195580000Y-121412000D03*
X149860000Y-114300000D03*
D27*
X125730000Y-116840000D03*
X124460000Y-125730000D03*
D26*
X151130000Y-69850000D03*
X149860000Y-99060000D03*
X123190000Y-83820000D03*
X105410000Y-50800000D03*
X92710000Y-78740000D03*
X106680000Y-68580000D03*
X140970000Y-85090000D03*
X119380000Y-47244000D03*
X206248000Y-58420000D03*
X184150000Y-82550000D03*
X134620000Y-44196000D03*
X205740000Y-87630000D03*
X191770000Y-137160000D03*
X139700000Y-95250000D03*
D27*
X128905000Y-100330000D03*
X121920000Y-114300000D03*
D26*
X143510000Y-25400000D03*
X137160000Y-148590000D03*
X134620000Y-55880000D03*
X140970000Y-54610000D03*
X196850000Y-44450000D03*
X208280000Y-67310000D03*
X196850000Y-62230000D03*
X180340000Y-95250000D03*
X133350000Y-138430000D03*
X121920000Y-71120000D03*
X185420000Y-120650000D03*
X218440000Y-93980000D03*
X162560000Y-80010000D03*
X153670000Y-57150000D03*
D27*
X170815000Y-114935000D03*
X173355000Y-130175000D03*
X111760000Y-113030000D03*
X146685000Y-37465000D03*
X141605000Y-42545000D03*
X103505000Y-91440000D03*
X126365000Y-93345000D03*
X113030000Y-101600000D03*
X125095000Y-119380000D03*
X124460000Y-93345000D03*
X132080000Y-92075000D03*
X125730000Y-114300000D03*
X121920000Y-113030000D03*
X127000000Y-125730000D03*
X175260000Y-126365000D03*
X175260000Y-130175000D03*
X119380000Y-102235000D03*
X121920000Y-100330000D03*
X131445000Y-105410000D03*
X128270000Y-104140000D03*
X127000000Y-104140000D03*
X125730000Y-104140000D03*
X124460000Y-104140000D03*
X116840000Y-117475000D03*
X119380000Y-120650000D03*
X117475000Y-123190000D03*
X120650000Y-121920000D03*
X121920000Y-123190000D03*
X120015000Y-124460000D03*
X114300000Y-104775000D03*
X116840000Y-107950000D03*
X114300000Y-109220000D03*
X120015000Y-114935000D03*
X114300000Y-107950000D03*
X101600000Y-88265000D03*
X106045000Y-92710000D03*
X123190000Y-119380000D03*
X120015000Y-116205000D03*
X113030000Y-109220000D03*
X120015000Y-117475000D03*
X113030000Y-110490000D03*
D28*
X154940000Y-41275000D02*
X151765000Y-38100000D01*
X154940000Y-41910000D02*
X154940000Y-41275000D01*
X151765000Y-38100000D02*
X149225000Y-35560000D01*
X205105000Y-80010000D02*
X197485000Y-72390000D01*
X151765000Y-46355000D02*
X151765000Y-38100000D01*
D29*
X120650000Y-112395000D02*
X122555000Y-110490000D01*
X121920000Y-114300000D02*
X120650000Y-113030000D01*
X125730000Y-116913000D02*
X126292000Y-117475000D01*
X120650000Y-113030000D02*
X120650000Y-112395000D01*
X126292000Y-117475000D02*
X126292000Y-123898000D01*
X126292000Y-123898000D02*
X124460000Y-125730000D01*
X122555000Y-110490000D02*
X123825000Y-110490000D01*
X125730000Y-116840000D02*
X125730000Y-116913000D01*
X173355000Y-130175000D02*
X173355000Y-117475000D01*
X173355000Y-117475000D02*
X170815000Y-114935000D01*
X111125000Y-112395000D02*
X111125000Y-110490000D01*
X129540000Y-96520000D02*
X133350000Y-96520000D01*
X103505000Y-91440000D02*
X108585000Y-96520000D01*
X111125000Y-103505000D02*
X113030000Y-101600000D01*
X108585000Y-96520000D02*
X113030000Y-96520000D01*
X111760000Y-113030000D02*
X111125000Y-112395000D01*
X123825000Y-120650000D02*
X125095000Y-119380000D01*
X126365000Y-93345000D02*
X129540000Y-96520000D01*
X111125000Y-110490000D02*
X111125000Y-103505000D01*
X141605000Y-42545000D02*
X146685000Y-37465000D01*
X121285000Y-120650000D02*
X123825000Y-120650000D01*
X111125000Y-110490000D02*
X118110000Y-117475000D01*
X118110000Y-117475000D02*
X121285000Y-120650000D01*
X125730000Y-92075000D02*
X132080000Y-92075000D01*
X124460000Y-93345000D02*
X125730000Y-92075000D01*
X121920000Y-113030000D02*
X124460000Y-113030000D01*
X124460000Y-113030000D02*
X125730000Y-114300000D01*
X125730000Y-114300000D02*
X127000000Y-115570000D01*
X127000000Y-115570000D02*
X127000000Y-125730000D01*
X175260000Y-130175000D02*
X175260000Y-126365000D01*
X119380000Y-102235000D02*
X119380000Y-97790000D01*
X119380000Y-97790000D02*
X120650000Y-96520000D01*
X121920000Y-100330000D02*
X123190000Y-99060000D01*
X123190000Y-99060000D02*
X123190000Y-96520000D01*
X131445000Y-103505000D02*
X133350000Y-101600000D01*
X131445000Y-105410000D02*
X131445000Y-103505000D01*
X130810000Y-106680000D02*
X133350000Y-106680000D01*
X128270000Y-104140000D02*
X130810000Y-106680000D01*
X133350000Y-109220000D02*
X132080000Y-109220000D01*
X132080000Y-109220000D02*
X127000000Y-104140000D01*
X125730000Y-104140000D02*
X133350000Y-111760000D01*
X124460000Y-104140000D02*
X131445000Y-111125000D01*
X131445000Y-113030000D02*
X132715000Y-114300000D01*
X131445000Y-111125000D02*
X131445000Y-113030000D01*
X132715000Y-114300000D02*
X133350000Y-114300000D01*
X116840000Y-118110000D02*
X119380000Y-120650000D01*
X116840000Y-117475000D02*
X116840000Y-118110000D01*
X119380000Y-123190000D02*
X120650000Y-121920000D01*
X117475000Y-123190000D02*
X119380000Y-123190000D01*
X120650000Y-124460000D02*
X121920000Y-123190000D01*
X120015000Y-124460000D02*
X120650000Y-124460000D01*
X116840000Y-107315000D02*
X114300000Y-104775000D01*
X116840000Y-107950000D02*
X116840000Y-107315000D01*
X119380000Y-114300000D02*
X120015000Y-114935000D01*
X119380000Y-114300000D02*
X114300000Y-109220000D01*
X121920000Y-118745000D02*
X122555000Y-119380000D01*
X122555000Y-119380000D02*
X123190000Y-119380000D01*
X121920000Y-115570000D02*
X121920000Y-117475000D01*
X121920000Y-117475000D02*
X121920000Y-118745000D01*
X114300000Y-107950000D02*
X121920000Y-115570000D01*
X101600000Y-88265000D02*
X106045000Y-92710000D01*
X120015000Y-116205000D02*
X113030000Y-109220000D01*
X118110000Y-115570000D02*
X113030000Y-110490000D01*
X118110000Y-115570000D02*
X120015000Y-117475000D01*
G04 #@! TA.AperFunction,Conductor*
G36*
X152947431Y-18907014D02*
G01*
X153886214Y-18918186D01*
X153888296Y-18918229D01*
X154614845Y-18939932D01*
X155554371Y-18973488D01*
X155556209Y-18973570D01*
X156281033Y-19012568D01*
X157220522Y-19068534D01*
X157222638Y-19068680D01*
X157945076Y-19124886D01*
X158883942Y-19203274D01*
X158886071Y-19203472D01*
X159605683Y-19276789D01*
X159605842Y-19276805D01*
X160543861Y-19377653D01*
X160545882Y-19377890D01*
X161262244Y-19468213D01*
X162198998Y-19591538D01*
X162201054Y-19591828D01*
X162913771Y-19699046D01*
X162914119Y-19699099D01*
X163848515Y-19844814D01*
X163850649Y-19845166D01*
X164559407Y-19969169D01*
X165491696Y-20137373D01*
X165493822Y-20137777D01*
X166082074Y-20255245D01*
X166197709Y-20278336D01*
X166198335Y-20278462D01*
X167127418Y-20469022D01*
X167129315Y-20469429D01*
X167828627Y-20626533D01*
X168754546Y-20839524D01*
X168756747Y-20840052D01*
X169450549Y-21013427D01*
X170372620Y-21248772D01*
X170374702Y-21249324D01*
X171062676Y-21438813D01*
X171980349Y-21696446D01*
X171982493Y-21697069D01*
X172664150Y-21902458D01*
X173577076Y-22182359D01*
X173579137Y-22183013D01*
X174254127Y-22404114D01*
X175161640Y-22706163D01*
X175163761Y-22706892D01*
X175831624Y-22943469D01*
X176733372Y-23267634D01*
X176735456Y-23268405D01*
X177395425Y-23520087D01*
X177395891Y-23520266D01*
X177938640Y-23730091D01*
X178291126Y-23866361D01*
X178293340Y-23867241D01*
X178945599Y-24133998D01*
X179834362Y-24502136D01*
X179836451Y-24503026D01*
X180480207Y-24784438D01*
X181014887Y-25020970D01*
X181361817Y-25174445D01*
X181364017Y-25175443D01*
X181998917Y-25471245D01*
X182805907Y-25851455D01*
X182872902Y-25883020D01*
X182875089Y-25884077D01*
X183500396Y-26193800D01*
X183500342Y-26193908D01*
X183500864Y-26194032D01*
X184366688Y-26627432D01*
X184368821Y-26628526D01*
X184984883Y-26952221D01*
X185842283Y-27407237D01*
X185844427Y-27408402D01*
X186161165Y-27584606D01*
X186450296Y-27745451D01*
X186450653Y-27745651D01*
X186553187Y-27803233D01*
X187298829Y-28221979D01*
X187300964Y-28223206D01*
X187437911Y-28303733D01*
X187896702Y-28573510D01*
X188735581Y-29071240D01*
X188737630Y-29072483D01*
X188905074Y-29176404D01*
X189322439Y-29435435D01*
X189322843Y-29435687D01*
X190151660Y-29954503D01*
X190153741Y-29955834D01*
X190727488Y-30331198D01*
X191546275Y-30871275D01*
X191548345Y-30872670D01*
X192110336Y-31259823D01*
X192110710Y-31260082D01*
X192426733Y-31479500D01*
X192918705Y-31821082D01*
X192920670Y-31822476D01*
X193381551Y-32156485D01*
X193470897Y-32221236D01*
X193471255Y-32221497D01*
X194267987Y-32803259D01*
X194270006Y-32804765D01*
X194807888Y-33214526D01*
X194808172Y-33214743D01*
X195575473Y-33803514D01*
X195593539Y-33817376D01*
X195595519Y-33818927D01*
X196120833Y-34239320D01*
X196121012Y-34239464D01*
X196894531Y-34862806D01*
X196896494Y-34864420D01*
X197092359Y-35028991D01*
X197408885Y-35294947D01*
X197722229Y-35559999D01*
X198170246Y-35938969D01*
X198172178Y-35940638D01*
X198671215Y-36380704D01*
X198671513Y-36380968D01*
X199419897Y-37045202D01*
X199421797Y-37046924D01*
X199907043Y-37495884D01*
X199906994Y-37495936D01*
X199907328Y-37496147D01*
X200642874Y-38180965D01*
X200644740Y-38182739D01*
X201116041Y-38640171D01*
X201116268Y-38640392D01*
X201838453Y-39345591D01*
X201840208Y-39347341D01*
X201874070Y-39381815D01*
X202297069Y-39812463D01*
X202297017Y-39812513D01*
X202297325Y-39812723D01*
X203005816Y-40538279D01*
X203007612Y-40540157D01*
X203450038Y-41012649D01*
X203450279Y-41012907D01*
X204144457Y-41758507D01*
X204146214Y-41760435D01*
X204573928Y-42239664D01*
X204574156Y-42239920D01*
X205253730Y-43005587D01*
X205255399Y-43007507D01*
X205627900Y-43445500D01*
X205667641Y-43492228D01*
X205667810Y-43492518D01*
X205667855Y-43492481D01*
X206332920Y-44278718D01*
X206334581Y-44280725D01*
X206471714Y-44450001D01*
X206731583Y-44770782D01*
X207034225Y-45146337D01*
X207381433Y-45577197D01*
X207383069Y-45579272D01*
X207764415Y-46073699D01*
X207764603Y-46073944D01*
X208398710Y-46900328D01*
X208400303Y-46902450D01*
X208765590Y-47400206D01*
X208765765Y-47400446D01*
X209384159Y-48247346D01*
X209385708Y-48249515D01*
X209734634Y-48749596D01*
X209734797Y-48749831D01*
X210337234Y-49617506D01*
X210338737Y-49619721D01*
X210592662Y-50002835D01*
X210671085Y-50121156D01*
X210671236Y-50121385D01*
X211257326Y-51009930D01*
X211258782Y-51012189D01*
X211574545Y-51514248D01*
X211574685Y-51514472D01*
X212143976Y-52423923D01*
X212145383Y-52426225D01*
X212444138Y-52927419D01*
X212444267Y-52927637D01*
X212996709Y-53858729D01*
X212998066Y-53861074D01*
X213279363Y-54359692D01*
X213279481Y-54359902D01*
X213814959Y-55313404D01*
X213816266Y-55315791D01*
X214080051Y-55810631D01*
X214080108Y-55810861D01*
X214080159Y-55810835D01*
X214598286Y-56787157D01*
X214599540Y-56789585D01*
X214846004Y-57279793D01*
X214846102Y-57279989D01*
X215346243Y-58279145D01*
X215347444Y-58281611D01*
X215576133Y-58764898D01*
X215576221Y-58765086D01*
X216058437Y-59788583D01*
X216059584Y-59791088D01*
X216270191Y-60265134D01*
X216270270Y-60265313D01*
X216734439Y-61314568D01*
X216735530Y-61317110D01*
X216928034Y-61779898D01*
X216928105Y-61780069D01*
X217373876Y-62856256D01*
X217374910Y-62858834D01*
X217504829Y-63193496D01*
X217548977Y-63307216D01*
X217549009Y-63307390D01*
X217549040Y-63307379D01*
X217976370Y-64412744D01*
X217977346Y-64415356D01*
X218133040Y-64846681D01*
X218133095Y-64846834D01*
X218541566Y-65983101D01*
X218542483Y-65985746D01*
X218679808Y-66396665D01*
X218679856Y-66396809D01*
X219069164Y-67566491D01*
X219070022Y-67569168D01*
X219188571Y-67954273D01*
X219188612Y-67954407D01*
X219558903Y-69162149D01*
X219559699Y-69164856D01*
X219659106Y-69517527D01*
X219659123Y-69517656D01*
X219659141Y-69517652D01*
X220010417Y-70768879D01*
X220011152Y-70771616D01*
X220091787Y-71086289D01*
X220091816Y-71086403D01*
X220423513Y-72385980D01*
X220424185Y-72388744D01*
X220485755Y-72655352D01*
X220485779Y-72655456D01*
X220797933Y-74012458D01*
X220798541Y-74015248D01*
X220841064Y-74221764D01*
X220841083Y-74221858D01*
X221133467Y-75647390D01*
X221134011Y-75650204D01*
X221157314Y-75778860D01*
X221157329Y-75778943D01*
X221429936Y-77289903D01*
X221430414Y-77292740D01*
X221434394Y-77318160D01*
X221434394Y-77318161D01*
X221686778Y-78936573D01*
X221687198Y-78939494D01*
X221904258Y-80588234D01*
X221904609Y-80591164D01*
X222082381Y-82244679D01*
X222082661Y-82247617D01*
X222221024Y-83904801D01*
X222221235Y-83907744D01*
X222320127Y-85567834D01*
X222320267Y-85570782D01*
X222379623Y-87232707D01*
X222379693Y-87235657D01*
X222399482Y-88898523D01*
X222399482Y-88901475D01*
X222379693Y-90564342D01*
X222379623Y-90567292D01*
X222320267Y-92229217D01*
X222320127Y-92232165D01*
X222221235Y-93892255D01*
X222221024Y-93895198D01*
X222082661Y-95552382D01*
X222082381Y-95555320D01*
X221904609Y-97208835D01*
X221904258Y-97211765D01*
X221687198Y-98860505D01*
X221686778Y-98863426D01*
X221434394Y-100481838D01*
X221434393Y-100481838D01*
X221434394Y-100481839D01*
X221430414Y-100507259D01*
X221429936Y-100510095D01*
X221157314Y-102021138D01*
X221157299Y-102021221D01*
X221134011Y-102149794D01*
X221133467Y-102152608D01*
X220841064Y-103578235D01*
X220841045Y-103578329D01*
X220798541Y-103784750D01*
X220797933Y-103787540D01*
X220485755Y-105144647D01*
X220485731Y-105144751D01*
X220424185Y-105411254D01*
X220423513Y-105414018D01*
X220091787Y-106713710D01*
X220091758Y-106713825D01*
X220011152Y-107028383D01*
X220010417Y-107031119D01*
X219659176Y-108282223D01*
X219659141Y-108282347D01*
X219559699Y-108635142D01*
X219558903Y-108637849D01*
X219188612Y-109845592D01*
X219188571Y-109845726D01*
X219070022Y-110230830D01*
X219069164Y-110233507D01*
X218679856Y-111403190D01*
X218679808Y-111403334D01*
X218542483Y-111814252D01*
X218541566Y-111816897D01*
X218133095Y-112953165D01*
X218133040Y-112953318D01*
X217977346Y-113384642D01*
X217976370Y-113387254D01*
X217549103Y-114492458D01*
X217549040Y-114492620D01*
X217374910Y-114941164D01*
X217373876Y-114943742D01*
X216928105Y-116019930D01*
X216928034Y-116020101D01*
X216735530Y-116482888D01*
X216734439Y-116485430D01*
X216270270Y-117534686D01*
X216270191Y-117534865D01*
X216059584Y-118008910D01*
X216058437Y-118011415D01*
X215576221Y-119034913D01*
X215576133Y-119035101D01*
X215347444Y-119518387D01*
X215346243Y-119520853D01*
X214846102Y-120520010D01*
X214846004Y-120520206D01*
X214599540Y-121010413D01*
X214598286Y-121012841D01*
X214080159Y-121989164D01*
X214080051Y-121989367D01*
X213816266Y-122484207D01*
X213814959Y-122486594D01*
X213279481Y-123440097D01*
X213279363Y-123440307D01*
X212998066Y-123938924D01*
X212996709Y-123941269D01*
X212444267Y-124872362D01*
X212444138Y-124872580D01*
X212145383Y-125373773D01*
X212143976Y-125376075D01*
X211574685Y-126285527D01*
X211574545Y-126285751D01*
X211258782Y-126787809D01*
X211257326Y-126790068D01*
X210671236Y-127678614D01*
X210671085Y-127678844D01*
X210338737Y-128180278D01*
X210337234Y-128182492D01*
X209734797Y-129050168D01*
X209734634Y-129050403D01*
X209385708Y-129550483D01*
X209384159Y-129552652D01*
X208765765Y-130399553D01*
X208765590Y-130399793D01*
X208400303Y-130897548D01*
X208398710Y-130899670D01*
X207764603Y-131726055D01*
X207764415Y-131726300D01*
X207383069Y-132220726D01*
X207381433Y-132222801D01*
X206731793Y-133028957D01*
X206731592Y-133029206D01*
X206334598Y-133519253D01*
X206332920Y-133521280D01*
X205667855Y-134307518D01*
X205667641Y-134307770D01*
X205255449Y-134792433D01*
X205253730Y-134794411D01*
X204574156Y-135560079D01*
X204573928Y-135560335D01*
X204146214Y-136039563D01*
X204144457Y-136041491D01*
X203450279Y-136787091D01*
X203450038Y-136787349D01*
X203007612Y-137259841D01*
X203005816Y-137261719D01*
X202297389Y-137987209D01*
X202297134Y-137987469D01*
X201840246Y-138452619D01*
X201838415Y-138454445D01*
X201116311Y-139159564D01*
X201116041Y-139159827D01*
X200644740Y-139617259D01*
X200642874Y-139619033D01*
X199907368Y-140303813D01*
X199907084Y-140304076D01*
X199421797Y-140753074D01*
X199419897Y-140754796D01*
X198671513Y-141419030D01*
X198671215Y-141419294D01*
X198172178Y-141859360D01*
X198170246Y-141861029D01*
X197409063Y-142504901D01*
X197408750Y-142505165D01*
X196896494Y-142935578D01*
X196894531Y-142937192D01*
X196121012Y-143560534D01*
X196120684Y-143560798D01*
X195595531Y-143981061D01*
X195593539Y-143982622D01*
X194808231Y-144585210D01*
X194807888Y-144585472D01*
X194270006Y-144995233D01*
X194267987Y-144996739D01*
X193471255Y-145578501D01*
X193470897Y-145578762D01*
X192920710Y-145977494D01*
X192918664Y-145978945D01*
X192110710Y-146539916D01*
X192110336Y-146540175D01*
X191548345Y-146927328D01*
X191546275Y-146928723D01*
X190727735Y-147468638D01*
X190727346Y-147468894D01*
X190153754Y-147844155D01*
X190151660Y-147845495D01*
X189322843Y-148364311D01*
X189322439Y-148364563D01*
X188737663Y-148727495D01*
X188735547Y-148728779D01*
X187896895Y-149226374D01*
X187896475Y-149226622D01*
X187300964Y-149576792D01*
X187298829Y-149578019D01*
X186450732Y-150054303D01*
X186450296Y-150054547D01*
X185844437Y-150391590D01*
X185842283Y-150392761D01*
X184985006Y-150847712D01*
X184984554Y-150847950D01*
X184368860Y-151171452D01*
X184366688Y-151172566D01*
X183500900Y-151605948D01*
X183500433Y-151606181D01*
X182875089Y-151915922D01*
X182872902Y-151916978D01*
X181999379Y-152328536D01*
X181998896Y-152328763D01*
X181364018Y-152624554D01*
X181361817Y-152625553D01*
X180480456Y-153015450D01*
X180479957Y-153015669D01*
X179836514Y-153296945D01*
X179834300Y-153297888D01*
X178945947Y-153665856D01*
X178945433Y-153666068D01*
X178293352Y-153932752D01*
X178291126Y-153933637D01*
X177395954Y-154279708D01*
X177395425Y-154279911D01*
X176735530Y-154531565D01*
X176733294Y-154532393D01*
X175831920Y-154856424D01*
X175831376Y-154856618D01*
X175163822Y-155093085D01*
X175161577Y-155093856D01*
X174254610Y-155395724D01*
X174254051Y-155395909D01*
X173579232Y-155616955D01*
X173576980Y-155617669D01*
X172664628Y-155897394D01*
X172664054Y-155897569D01*
X171982547Y-156102913D01*
X171980290Y-156103569D01*
X171063113Y-156361063D01*
X171062523Y-156361227D01*
X170374790Y-156550650D01*
X170372529Y-156551250D01*
X169451091Y-156786433D01*
X169450487Y-156786586D01*
X168756777Y-156959938D01*
X168754513Y-156960481D01*
X167829153Y-157173345D01*
X167828535Y-157173486D01*
X167129490Y-157330531D01*
X167127224Y-157331017D01*
X166198341Y-157521534D01*
X166197709Y-157521662D01*
X165493891Y-157662207D01*
X165491626Y-157662638D01*
X164559831Y-157830753D01*
X164559184Y-157830868D01*
X163850710Y-157954821D01*
X163848446Y-157955195D01*
X162914285Y-158100873D01*
X162913625Y-158100974D01*
X162201155Y-158208155D01*
X162198894Y-158208474D01*
X161262744Y-158331720D01*
X161262071Y-158331807D01*
X160546002Y-158422094D01*
X160543745Y-158422358D01*
X159606054Y-158523170D01*
X159605368Y-158523241D01*
X158886132Y-158596520D01*
X158883880Y-158596729D01*
X157945402Y-158675086D01*
X157944703Y-158675142D01*
X157222703Y-158731313D01*
X157220459Y-158731468D01*
X156281438Y-158787406D01*
X156280726Y-158787446D01*
X155556406Y-158826419D01*
X155554170Y-158826519D01*
X154615404Y-158860047D01*
X154614680Y-158860071D01*
X153888365Y-158881767D01*
X153886139Y-158881813D01*
X152947960Y-158892978D01*
X152947224Y-158892985D01*
X152219472Y-158897331D01*
X152217256Y-158897324D01*
X151280175Y-158886172D01*
X151279429Y-158886161D01*
X150550734Y-158873103D01*
X150548530Y-158873044D01*
X149612912Y-158839629D01*
X149612155Y-158839600D01*
X148883063Y-158809100D01*
X148880872Y-158808989D01*
X147946973Y-158753357D01*
X147946206Y-158753308D01*
X147217386Y-158705356D01*
X147215210Y-158705194D01*
X146284043Y-158627448D01*
X146283266Y-158627381D01*
X145554590Y-158561925D01*
X145552429Y-158561712D01*
X144624094Y-158461905D01*
X144623308Y-158461817D01*
X143895751Y-158378898D01*
X143893607Y-158378635D01*
X142968989Y-158256906D01*
X142968194Y-158256799D01*
X142241653Y-158156362D01*
X142239527Y-158156049D01*
X141319003Y-158012497D01*
X141318199Y-158012369D01*
X140593438Y-157894471D01*
X140591331Y-157894110D01*
X139675229Y-157728827D01*
X139674418Y-157728678D01*
X138951855Y-157593344D01*
X138949769Y-157592934D01*
X138038724Y-157406075D01*
X138037905Y-157405905D01*
X137318013Y-157253186D01*
X137315948Y-157252729D01*
X136410145Y-157044365D01*
X136409320Y-157044172D01*
X135692704Y-156874164D01*
X135690661Y-156873661D01*
X134790892Y-156644008D01*
X134790061Y-156643793D01*
X134076879Y-156456496D01*
X134074859Y-156455947D01*
X133181412Y-156205116D01*
X133180576Y-156204878D01*
X132471550Y-156000447D01*
X132469555Y-155999854D01*
X131583029Y-155728047D01*
X131582188Y-155727786D01*
X130877376Y-155506203D01*
X130875406Y-155505565D01*
X129996506Y-155213038D01*
X129995660Y-155212754D01*
X129295556Y-154974129D01*
X129293613Y-154973448D01*
X128422433Y-154660272D01*
X128421584Y-154659964D01*
X127726916Y-154404512D01*
X127725000Y-154403789D01*
X126861947Y-154070135D01*
X126861095Y-154069802D01*
X126172271Y-153797648D01*
X126170383Y-153796884D01*
X125316156Y-153443052D01*
X125315302Y-153442695D01*
X124801326Y-153225290D01*
X124632444Y-153153855D01*
X124630642Y-153153075D01*
X123785584Y-152779238D01*
X123784729Y-152778856D01*
X123499299Y-152650000D01*
X169066633Y-152650000D01*
X169084619Y-152757792D01*
X169162780Y-152985460D01*
X169277348Y-153197164D01*
X169425201Y-153387126D01*
X169602292Y-153550151D01*
X169803819Y-153681815D01*
X170024255Y-153778506D01*
X170257611Y-153837600D01*
X170437418Y-153852500D01*
X171200000Y-153852500D01*
X171200000Y-152650000D01*
X171700000Y-152650000D01*
X171700000Y-153852500D01*
X172462582Y-153852500D01*
X172642388Y-153837600D01*
X172875744Y-153778506D01*
X173096180Y-153681815D01*
X173297707Y-153550151D01*
X173474798Y-153387126D01*
X173622651Y-153197164D01*
X173737219Y-152985460D01*
X173815380Y-152757792D01*
X173833367Y-152650000D01*
X171700000Y-152650000D01*
X171200000Y-152650000D01*
X169066633Y-152650000D01*
X123499299Y-152650000D01*
X123108554Y-152473600D01*
X123106725Y-152472756D01*
X122421677Y-152149999D01*
X169066633Y-152149999D01*
X169066634Y-152150000D01*
X171200000Y-152150000D01*
X171200000Y-150947500D01*
X171700000Y-150947500D01*
X171700000Y-152150000D01*
X173833366Y-152150000D01*
X173833366Y-152149999D01*
X173815380Y-152042207D01*
X173737219Y-151814539D01*
X173622651Y-151602835D01*
X173474798Y-151412873D01*
X173297707Y-151249848D01*
X173096180Y-151118184D01*
X172875744Y-151021493D01*
X172642388Y-150962399D01*
X172462582Y-150947500D01*
X171700000Y-150947500D01*
X171200000Y-150947500D01*
X170437418Y-150947500D01*
X170257611Y-150962399D01*
X170024255Y-151021493D01*
X169803819Y-151118184D01*
X169602292Y-151249848D01*
X169425201Y-151412873D01*
X169277348Y-151602835D01*
X169162780Y-151814539D01*
X169084619Y-152042207D01*
X169066633Y-152149999D01*
X122421677Y-152149999D01*
X122271295Y-152079147D01*
X122270439Y-152078740D01*
X121601297Y-151757201D01*
X121599498Y-151756319D01*
X120774014Y-151343110D01*
X120773158Y-151342677D01*
X120111527Y-151005062D01*
X120109760Y-151004143D01*
X119294694Y-150571593D01*
X119293839Y-150571134D01*
X118640087Y-150217607D01*
X118638352Y-150216651D01*
X117834399Y-149765159D01*
X117833545Y-149764675D01*
X117187811Y-149395280D01*
X117186109Y-149394289D01*
X116393617Y-148924081D01*
X116392766Y-148923571D01*
X115755543Y-148538558D01*
X115753875Y-148537532D01*
X115477152Y-148364311D01*
X114973272Y-148048895D01*
X114972434Y-148048366D01*
X114344135Y-147647948D01*
X114342502Y-147646889D01*
X113896586Y-147352760D01*
X113574174Y-147140095D01*
X113573447Y-147139612D01*
X113388782Y-147015624D01*
X112954377Y-146723953D01*
X112952779Y-146722861D01*
X112197064Y-146198159D01*
X112196223Y-146197570D01*
X111587081Y-145767117D01*
X111585518Y-145765994D01*
X110842885Y-145223735D01*
X110842049Y-145223120D01*
X110242923Y-144777911D01*
X110241397Y-144776758D01*
X109512225Y-144217244D01*
X109511395Y-144216602D01*
X109209750Y-143981061D01*
X108922690Y-143756907D01*
X108921318Y-143755818D01*
X108259001Y-143222089D01*
X108205993Y-143179372D01*
X108205170Y-143178704D01*
X107627336Y-142704849D01*
X107625883Y-142703639D01*
X107326031Y-142450000D01*
X174280000Y-142450000D01*
X174280000Y-143027824D01*
X174286402Y-143087375D01*
X174336647Y-143222089D01*
X174422811Y-143337188D01*
X174537910Y-143423352D01*
X174672624Y-143473597D01*
X174732176Y-143480000D01*
X175310000Y-143480000D01*
X175310000Y-142450000D01*
X175810000Y-142450000D01*
X175810000Y-143480000D01*
X176387824Y-143480000D01*
X176447375Y-143473597D01*
X176582089Y-143423352D01*
X176697188Y-143337188D01*
X176783352Y-143222089D01*
X176833597Y-143087375D01*
X176840000Y-143027824D01*
X176840000Y-142450000D01*
X175810000Y-142450000D01*
X175310000Y-142450000D01*
X174280000Y-142450000D01*
X107326031Y-142450000D01*
X106924608Y-142110443D01*
X106923954Y-142109885D01*
X106738218Y-141950000D01*
X174280000Y-141950000D01*
X175310000Y-141950000D01*
X175310000Y-140920000D01*
X175810000Y-140920000D01*
X175810000Y-141950000D01*
X176840000Y-141950000D01*
X176840000Y-141372176D01*
X176833597Y-141312624D01*
X176783352Y-141177910D01*
X176697188Y-141062811D01*
X176582089Y-140976647D01*
X176447375Y-140926402D01*
X176387824Y-140920000D01*
X175810000Y-140920000D01*
X175310000Y-140920000D01*
X174732176Y-140920000D01*
X174672624Y-140926402D01*
X174537910Y-140976647D01*
X174422811Y-141062811D01*
X174336647Y-141177910D01*
X174286402Y-141312624D01*
X174280000Y-141372176D01*
X174280000Y-141950000D01*
X106738218Y-141950000D01*
X106357330Y-141622125D01*
X106355940Y-141620910D01*
X106270413Y-141545000D01*
X106075695Y-141372176D01*
X105959009Y-141268610D01*
X119704942Y-141268610D01*
X119751766Y-141305055D01*
X119970393Y-141423368D01*
X120205506Y-141504083D01*
X120450707Y-141545000D01*
X120699293Y-141545000D01*
X120944493Y-141504083D01*
X121179606Y-141423368D01*
X121398233Y-141305053D01*
X121445055Y-141268610D01*
X126204942Y-141268610D01*
X126251766Y-141305055D01*
X126470393Y-141423368D01*
X126705506Y-141504083D01*
X126950707Y-141545000D01*
X127199293Y-141545000D01*
X127444493Y-141504083D01*
X127679606Y-141423368D01*
X127898233Y-141305053D01*
X127945056Y-141268609D01*
X127075000Y-140398553D01*
X126204942Y-141268609D01*
X126204942Y-141268610D01*
X121445055Y-141268610D01*
X121445056Y-141268609D01*
X120575000Y-140398553D01*
X119704942Y-141268609D01*
X119704942Y-141268610D01*
X105959009Y-141268610D01*
X105669403Y-141011568D01*
X105668596Y-141010846D01*
X105113526Y-140509456D01*
X105112149Y-140508193D01*
X104512607Y-139950000D01*
X108741633Y-139950000D01*
X108759619Y-140057792D01*
X108837780Y-140285460D01*
X108952348Y-140497164D01*
X109100201Y-140687126D01*
X109277292Y-140850151D01*
X109478819Y-140981815D01*
X109699255Y-141078506D01*
X109932611Y-141137600D01*
X110112418Y-141152500D01*
X110875000Y-141152500D01*
X110875000Y-139950000D01*
X111375000Y-139950000D01*
X111375000Y-141152500D01*
X112137582Y-141152500D01*
X112317388Y-141137600D01*
X112550744Y-141078506D01*
X112771180Y-140981815D01*
X112972707Y-140850151D01*
X113149798Y-140687126D01*
X113297651Y-140497164D01*
X113412219Y-140285460D01*
X113490380Y-140057792D01*
X113492515Y-140045000D01*
X119069858Y-140045000D01*
X119090386Y-140292732D01*
X119151413Y-140533721D01*
X119251268Y-140761370D01*
X119351563Y-140914882D01*
X119351564Y-140914882D01*
X120221447Y-140045001D01*
X120928553Y-140045001D01*
X121798434Y-140914882D01*
X121898730Y-140761369D01*
X121998586Y-140533721D01*
X122059613Y-140292732D01*
X122080141Y-140045000D01*
X122080141Y-140044999D01*
X125569858Y-140044999D01*
X125590386Y-140292732D01*
X125651413Y-140533721D01*
X125751268Y-140761370D01*
X125851563Y-140914882D01*
X125851564Y-140914882D01*
X126721447Y-140045001D01*
X127428553Y-140045001D01*
X128298434Y-140914882D01*
X128398730Y-140761369D01*
X128498586Y-140533721D01*
X128559613Y-140292732D01*
X128580141Y-140045000D01*
X128559613Y-139797267D01*
X128498586Y-139556278D01*
X128398730Y-139328630D01*
X128389825Y-139315000D01*
X144464728Y-139315000D01*
X144464811Y-139316068D01*
X144523603Y-139560956D01*
X144619982Y-139793632D01*
X144751569Y-140008364D01*
X144915130Y-140199869D01*
X145106635Y-140363430D01*
X145321367Y-140495017D01*
X145554043Y-140591396D01*
X145798931Y-140650188D01*
X145799999Y-140650271D01*
X145800000Y-140650271D01*
X145800000Y-139315000D01*
X146300000Y-139315000D01*
X146300000Y-140650272D01*
X146301068Y-140650188D01*
X146545956Y-140591396D01*
X146778632Y-140495017D01*
X146993364Y-140363430D01*
X147184869Y-140199869D01*
X147348430Y-140008364D01*
X147480017Y-139793632D01*
X147576396Y-139560956D01*
X147635188Y-139316068D01*
X147635272Y-139315000D01*
X152084728Y-139315000D01*
X152084811Y-139316068D01*
X152143603Y-139560956D01*
X152239982Y-139793632D01*
X152371569Y-140008364D01*
X152535130Y-140199869D01*
X152726635Y-140363430D01*
X152941367Y-140495017D01*
X153174043Y-140591396D01*
X153418931Y-140650188D01*
X153419999Y-140650271D01*
X153420000Y-140650271D01*
X153420000Y-139315000D01*
X153920000Y-139315000D01*
X153920000Y-140650272D01*
X153921068Y-140650188D01*
X154165956Y-140591396D01*
X154398632Y-140495017D01*
X154613364Y-140363430D01*
X154804869Y-140199869D01*
X154968430Y-140008364D01*
X155100017Y-139793632D01*
X155138802Y-139699999D01*
X179274608Y-139699999D01*
X179294136Y-139923203D01*
X179326771Y-140044999D01*
X179352128Y-140139630D01*
X179446819Y-140342696D01*
X179575333Y-140526233D01*
X179733767Y-140684667D01*
X179917304Y-140813181D01*
X180120370Y-140907872D01*
X180336794Y-140965863D01*
X180460056Y-140976647D01*
X180559999Y-140985391D01*
X180559999Y-140985390D01*
X180560000Y-140985391D01*
X180783206Y-140965863D01*
X180999630Y-140907872D01*
X181202696Y-140813181D01*
X181386233Y-140684667D01*
X181544667Y-140526233D01*
X181673181Y-140342696D01*
X181767872Y-140139630D01*
X181825863Y-139923206D01*
X181845391Y-139700000D01*
X181825863Y-139476794D01*
X181767872Y-139260370D01*
X181673181Y-139057305D01*
X181544667Y-138873767D01*
X181386233Y-138715333D01*
X181202696Y-138586819D01*
X181109069Y-138543160D01*
X180999631Y-138492128D01*
X180783203Y-138434136D01*
X180560000Y-138414608D01*
X180336796Y-138434136D01*
X180120368Y-138492128D01*
X179917304Y-138586819D01*
X179733766Y-138715333D01*
X179575333Y-138873766D01*
X179446819Y-139057304D01*
X179352128Y-139260368D01*
X179294136Y-139476796D01*
X179274608Y-139699999D01*
X155138802Y-139699999D01*
X155196396Y-139560956D01*
X155255188Y-139316068D01*
X155255272Y-139315000D01*
X153920000Y-139315000D01*
X153420000Y-139315000D01*
X152084728Y-139315000D01*
X147635272Y-139315000D01*
X146300000Y-139315000D01*
X145800000Y-139315000D01*
X144464728Y-139315000D01*
X128389825Y-139315000D01*
X128298434Y-139175116D01*
X127428553Y-140045000D01*
X127428553Y-140045001D01*
X126721447Y-140045001D01*
X126721447Y-140045000D01*
X125851564Y-139175116D01*
X125751266Y-139328634D01*
X125651413Y-139556278D01*
X125590386Y-139797267D01*
X125569858Y-140044999D01*
X122080141Y-140044999D01*
X122059613Y-139797267D01*
X121998586Y-139556278D01*
X121898730Y-139328630D01*
X121798434Y-139175116D01*
X120928553Y-140045000D01*
X120928553Y-140045001D01*
X120221447Y-140045001D01*
X120221447Y-140045000D01*
X119351564Y-139175116D01*
X119251266Y-139328634D01*
X119151413Y-139556278D01*
X119090386Y-139797267D01*
X119069858Y-140045000D01*
X113492515Y-140045000D01*
X113508367Y-139950000D01*
X111375000Y-139950000D01*
X110875000Y-139950000D01*
X108741633Y-139950000D01*
X104512607Y-139950000D01*
X104440523Y-139882887D01*
X104439726Y-139882138D01*
X103983711Y-139449999D01*
X108741633Y-139449999D01*
X108741634Y-139450000D01*
X110875000Y-139450000D01*
X110875000Y-138247500D01*
X111375000Y-138247500D01*
X111375000Y-139450000D01*
X113508366Y-139450000D01*
X113508366Y-139449999D01*
X113490380Y-139342207D01*
X113412219Y-139114539D01*
X113297651Y-138902835D01*
X113234260Y-138821390D01*
X119704942Y-138821390D01*
X120575000Y-139691447D01*
X120575001Y-139691447D01*
X121445057Y-138821390D01*
X126204942Y-138821390D01*
X127075000Y-139691447D01*
X127075001Y-139691447D01*
X127945057Y-138821390D01*
X127945056Y-138821388D01*
X127936847Y-138814999D01*
X144464728Y-138814999D01*
X144464729Y-138815000D01*
X145800000Y-138815000D01*
X145800000Y-137479729D01*
X145799999Y-137479728D01*
X146300000Y-137479728D01*
X146300000Y-138815000D01*
X147635271Y-138815000D01*
X147635271Y-138814999D01*
X152084728Y-138814999D01*
X152084729Y-138815000D01*
X153420000Y-138815000D01*
X153420000Y-137479729D01*
X153419999Y-137479728D01*
X153920000Y-137479728D01*
X153920000Y-138815000D01*
X155255271Y-138815000D01*
X155255271Y-138814999D01*
X155255188Y-138813931D01*
X155196396Y-138569043D01*
X155100017Y-138336367D01*
X154968430Y-138121635D01*
X154804869Y-137930130D01*
X154613364Y-137766569D01*
X154398632Y-137634982D01*
X154165956Y-137538603D01*
X153921068Y-137479811D01*
X153920000Y-137479728D01*
X153419999Y-137479728D01*
X153418931Y-137479811D01*
X153174043Y-137538603D01*
X152941367Y-137634982D01*
X152726635Y-137766569D01*
X152535130Y-137930130D01*
X152371569Y-138121635D01*
X152239982Y-138336367D01*
X152143603Y-138569043D01*
X152084811Y-138813931D01*
X152084728Y-138814999D01*
X147635271Y-138814999D01*
X147635188Y-138813931D01*
X147576396Y-138569043D01*
X147480017Y-138336367D01*
X147348430Y-138121635D01*
X147184869Y-137930130D01*
X146993364Y-137766569D01*
X146778632Y-137634982D01*
X146545956Y-137538603D01*
X146301068Y-137479811D01*
X146300000Y-137479728D01*
X145799999Y-137479728D01*
X145798931Y-137479811D01*
X145554043Y-137538603D01*
X145321367Y-137634982D01*
X145106635Y-137766569D01*
X144915130Y-137930130D01*
X144751569Y-138121635D01*
X144619982Y-138336367D01*
X144523603Y-138569043D01*
X144464811Y-138813931D01*
X144464728Y-138814999D01*
X127936847Y-138814999D01*
X127898235Y-138784947D01*
X127679606Y-138666631D01*
X127444493Y-138585916D01*
X127199293Y-138545000D01*
X126950707Y-138545000D01*
X126705506Y-138585916D01*
X126470393Y-138666631D01*
X126251764Y-138784946D01*
X126204942Y-138821388D01*
X126204942Y-138821390D01*
X121445057Y-138821390D01*
X121445056Y-138821388D01*
X121398235Y-138784947D01*
X121179606Y-138666631D01*
X120944493Y-138585916D01*
X120699293Y-138545000D01*
X120450707Y-138545000D01*
X120205506Y-138585916D01*
X119970393Y-138666631D01*
X119751764Y-138784946D01*
X119704942Y-138821388D01*
X119704942Y-138821390D01*
X113234260Y-138821390D01*
X113149798Y-138712873D01*
X112972707Y-138549848D01*
X112771180Y-138418184D01*
X112550744Y-138321493D01*
X112317388Y-138262399D01*
X112137582Y-138247500D01*
X111375000Y-138247500D01*
X110875000Y-138247500D01*
X110112418Y-138247500D01*
X109932611Y-138262399D01*
X109699255Y-138321493D01*
X109478819Y-138418184D01*
X109277292Y-138549848D01*
X109100201Y-138712873D01*
X108952348Y-138902835D01*
X108837780Y-139114539D01*
X108759619Y-139342207D01*
X108741633Y-139449999D01*
X103983711Y-139449999D01*
X103896609Y-139367458D01*
X103895270Y-139366170D01*
X103238959Y-138725296D01*
X103238172Y-138724521D01*
X102832729Y-138321493D01*
X102707254Y-138196765D01*
X102705963Y-138195462D01*
X102695418Y-138184663D01*
X102065246Y-137539312D01*
X102064504Y-137538545D01*
X101739826Y-137200000D01*
X174274608Y-137200000D01*
X174294136Y-137423203D01*
X174350882Y-137634982D01*
X174352128Y-137639630D01*
X174446819Y-137842696D01*
X174575333Y-138026233D01*
X174733767Y-138184667D01*
X174917304Y-138313181D01*
X175120370Y-138407872D01*
X175336794Y-138465863D01*
X175560000Y-138485391D01*
X175783206Y-138465863D01*
X175999630Y-138407872D01*
X176202696Y-138313181D01*
X176386233Y-138184667D01*
X176544667Y-138026233D01*
X176673181Y-137842696D01*
X176767872Y-137639630D01*
X176825863Y-137423206D01*
X176845391Y-137200000D01*
X176825863Y-136976794D01*
X176767872Y-136760370D01*
X176673181Y-136557305D01*
X176544667Y-136373767D01*
X176386233Y-136215333D01*
X176202696Y-136086819D01*
X176089170Y-136033881D01*
X175999631Y-135992128D01*
X175783203Y-135934136D01*
X175560000Y-135914608D01*
X175336796Y-135934136D01*
X175120368Y-135992128D01*
X174917304Y-136086819D01*
X174733766Y-136215333D01*
X174575333Y-136373766D01*
X174446819Y-136557304D01*
X174352128Y-136760368D01*
X174294136Y-136976796D01*
X174274608Y-137200000D01*
X101739826Y-137200000D01*
X101546166Y-136998069D01*
X101544906Y-136996736D01*
X100920257Y-136325817D01*
X100919492Y-136324988D01*
X100413927Y-135771972D01*
X100412707Y-135770617D01*
X100212459Y-135545000D01*
X119069356Y-135545000D01*
X119089891Y-135792816D01*
X119089891Y-135792819D01*
X119089892Y-135792821D01*
X119150937Y-136033881D01*
X119174158Y-136086819D01*
X119250825Y-136261604D01*
X119250827Y-136261607D01*
X119386836Y-136469785D01*
X119555256Y-136652738D01*
X119555259Y-136652740D01*
X119751485Y-136805470D01*
X119751487Y-136805471D01*
X119751491Y-136805474D01*
X119970190Y-136923828D01*
X120205386Y-137004571D01*
X120450665Y-137045500D01*
X120699335Y-137045500D01*
X120944614Y-137004571D01*
X121179810Y-136923828D01*
X121398509Y-136805474D01*
X121594744Y-136652738D01*
X121763164Y-136469785D01*
X121899173Y-136261607D01*
X121999063Y-136033881D01*
X122060108Y-135792821D01*
X122080643Y-135545000D01*
X125569356Y-135545000D01*
X125589891Y-135792816D01*
X125589891Y-135792819D01*
X125589892Y-135792821D01*
X125650937Y-136033881D01*
X125674158Y-136086819D01*
X125750825Y-136261604D01*
X125750827Y-136261607D01*
X125886836Y-136469785D01*
X126055256Y-136652738D01*
X126055259Y-136652740D01*
X126251485Y-136805470D01*
X126251487Y-136805471D01*
X126251491Y-136805474D01*
X126470190Y-136923828D01*
X126705386Y-137004571D01*
X126950665Y-137045500D01*
X127199335Y-137045500D01*
X127444614Y-137004571D01*
X127679810Y-136923828D01*
X127898509Y-136805474D01*
X128094744Y-136652738D01*
X128263164Y-136469785D01*
X128399173Y-136261607D01*
X128499063Y-136033881D01*
X128560108Y-135792821D01*
X128580643Y-135545000D01*
X128560108Y-135297179D01*
X128499063Y-135056119D01*
X128399173Y-134828393D01*
X128263164Y-134620215D01*
X128094744Y-134437262D01*
X128072612Y-134420036D01*
X127898514Y-134284529D01*
X127898510Y-134284526D01*
X127898509Y-134284526D01*
X127679810Y-134166172D01*
X127679806Y-134166170D01*
X127679805Y-134166170D01*
X127444615Y-134085429D01*
X127199335Y-134044500D01*
X126950665Y-134044500D01*
X126705384Y-134085429D01*
X126470194Y-134166170D01*
X126251485Y-134284529D01*
X126055259Y-134437259D01*
X126055256Y-134437261D01*
X126055256Y-134437262D01*
X125886837Y-134620214D01*
X125750825Y-134828395D01*
X125660780Y-135033678D01*
X125650937Y-135056119D01*
X125589892Y-135297179D01*
X125589891Y-135297183D01*
X125569356Y-135545000D01*
X122080643Y-135545000D01*
X122060108Y-135297179D01*
X121999063Y-135056119D01*
X121899173Y-134828393D01*
X121763164Y-134620215D01*
X121594744Y-134437262D01*
X121572612Y-134420036D01*
X121398514Y-134284529D01*
X121398510Y-134284526D01*
X121398509Y-134284526D01*
X121179810Y-134166172D01*
X121179806Y-134166170D01*
X121179805Y-134166170D01*
X120944615Y-134085429D01*
X120699335Y-134044500D01*
X120450665Y-134044500D01*
X120205384Y-134085429D01*
X119970194Y-134166170D01*
X119751485Y-134284529D01*
X119555259Y-134437259D01*
X119555256Y-134437261D01*
X119555256Y-134437262D01*
X119386837Y-134620214D01*
X119250825Y-134828395D01*
X119160780Y-135033678D01*
X119150937Y-135056119D01*
X119089892Y-135297179D01*
X119089891Y-135297183D01*
X119069356Y-135545000D01*
X100212459Y-135545000D01*
X99804424Y-135085272D01*
X99803672Y-135084417D01*
X99311332Y-134519333D01*
X99310151Y-134517958D01*
X98718445Y-133818444D01*
X98717707Y-133817562D01*
X98238860Y-133240703D01*
X98237719Y-133239309D01*
X98068407Y-133029206D01*
X97663033Y-132526167D01*
X97662355Y-132525317D01*
X97197129Y-131936809D01*
X97196067Y-131935446D01*
X96638737Y-131209119D01*
X96638028Y-131208186D01*
X96584939Y-131137628D01*
X96186814Y-130608495D01*
X96185849Y-130607193D01*
X95781090Y-130052869D01*
X144449500Y-130052869D01*
X144455909Y-130112483D01*
X144506204Y-130247331D01*
X144592454Y-130362546D01*
X144707669Y-130448796D01*
X144842517Y-130499091D01*
X144902127Y-130505500D01*
X147197872Y-130505499D01*
X147257483Y-130499091D01*
X147392331Y-130448796D01*
X147507546Y-130362546D01*
X147593796Y-130247331D01*
X147644091Y-130112483D01*
X147650500Y-130052873D01*
X147650500Y-130052869D01*
X152069500Y-130052869D01*
X152075909Y-130112483D01*
X152126204Y-130247331D01*
X152212454Y-130362546D01*
X152327669Y-130448796D01*
X152462517Y-130499091D01*
X152522127Y-130505500D01*
X154817872Y-130505499D01*
X154877483Y-130499091D01*
X155012331Y-130448796D01*
X155127546Y-130362546D01*
X155213796Y-130247331D01*
X155264091Y-130112483D01*
X155270500Y-130052873D01*
X155270499Y-127757128D01*
X155264091Y-127697517D01*
X155213796Y-127562669D01*
X155127546Y-127447454D01*
X155012331Y-127361204D01*
X154877483Y-127310909D01*
X154817873Y-127304500D01*
X154817869Y-127304500D01*
X152522130Y-127304500D01*
X152462515Y-127310909D01*
X152327669Y-127361204D01*
X152212454Y-127447454D01*
X152126204Y-127562668D01*
X152075909Y-127697516D01*
X152069500Y-127757130D01*
X152069500Y-130052869D01*
X147650500Y-130052869D01*
X147650499Y-127757128D01*
X147644091Y-127697517D01*
X147593796Y-127562669D01*
X147507546Y-127447454D01*
X147392331Y-127361204D01*
X147257483Y-127310909D01*
X147197873Y-127304500D01*
X147197869Y-127304500D01*
X144902130Y-127304500D01*
X144842515Y-127310909D01*
X144707669Y-127361204D01*
X144592454Y-127447454D01*
X144506204Y-127562668D01*
X144455909Y-127697516D01*
X144449500Y-127757130D01*
X144449500Y-130052869D01*
X95781090Y-130052869D01*
X95646082Y-129867973D01*
X95645388Y-129867014D01*
X95488369Y-129647606D01*
X95208462Y-129256482D01*
X95207557Y-129255197D01*
X94685648Y-128503505D01*
X94684971Y-128502520D01*
X94262676Y-127881610D01*
X94261699Y-127880151D01*
X93758103Y-127116673D01*
X93757443Y-127115663D01*
X93349809Y-126484391D01*
X93349004Y-126483124D01*
X92863706Y-125707854D01*
X92863170Y-125706989D01*
X92470641Y-125066010D01*
X92469814Y-125064638D01*
X92003193Y-124278190D01*
X92002744Y-124277425D01*
X91625498Y-123627010D01*
X91624711Y-123625629D01*
X91616991Y-123611883D01*
X91448651Y-123312127D01*
X91177077Y-122828546D01*
X91176475Y-122827462D01*
X90814995Y-122168442D01*
X90814182Y-122166936D01*
X90587324Y-121739461D01*
X90385628Y-121359400D01*
X90385144Y-121358475D01*
X90039352Y-120690702D01*
X90038598Y-120689221D01*
X90018965Y-120650000D01*
X89725905Y-120064539D01*
X89629583Y-119872112D01*
X89629024Y-119870981D01*
X89299194Y-119194957D01*
X89298464Y-119193434D01*
X89278936Y-119151986D01*
X88909082Y-118366976D01*
X88908640Y-118366026D01*
X88594932Y-117682052D01*
X88594262Y-117680564D01*
X88586606Y-117663257D01*
X88224685Y-116845135D01*
X88224281Y-116844209D01*
X87926908Y-116152718D01*
X87926337Y-116151368D01*
X87576777Y-115307454D01*
X87576360Y-115306432D01*
X87295540Y-114607911D01*
X87295040Y-114606643D01*
X86965683Y-113754703D01*
X86965294Y-113753681D01*
X86894628Y-113565000D01*
X101189465Y-113565000D01*
X101209554Y-113768970D01*
X101209554Y-113768972D01*
X101209555Y-113768974D01*
X101269052Y-113965109D01*
X101269054Y-113965112D01*
X101337764Y-114093662D01*
X101365669Y-114145868D01*
X101495695Y-114304305D01*
X101654132Y-114434331D01*
X101834891Y-114530948D01*
X102031026Y-114590445D01*
X102235000Y-114610535D01*
X102438974Y-114590445D01*
X102635109Y-114530948D01*
X102815868Y-114434331D01*
X102974305Y-114304305D01*
X103104331Y-114145868D01*
X103200948Y-113965109D01*
X103260445Y-113768974D01*
X103280535Y-113565000D01*
X103260445Y-113361026D01*
X103200948Y-113164891D01*
X103104331Y-112984132D01*
X102974305Y-112825695D01*
X102815868Y-112695669D01*
X102815867Y-112695668D01*
X102695630Y-112631401D01*
X102635109Y-112599052D01*
X102438974Y-112539555D01*
X102438972Y-112539554D01*
X102438970Y-112539554D01*
X102235000Y-112519465D01*
X102031029Y-112539554D01*
X102031025Y-112539555D01*
X102031026Y-112539555D01*
X101834891Y-112599052D01*
X101834887Y-112599053D01*
X101834887Y-112599054D01*
X101654132Y-112695668D01*
X101495695Y-112825695D01*
X101365668Y-112984132D01*
X101275730Y-113152397D01*
X101269052Y-113164891D01*
X101222562Y-113318148D01*
X101209554Y-113361029D01*
X101189465Y-113565000D01*
X86894628Y-113565000D01*
X86701174Y-113048473D01*
X86700740Y-113047291D01*
X86458309Y-112372906D01*
X110365685Y-112372906D01*
X110370028Y-112422548D01*
X110370500Y-112433355D01*
X110370500Y-112438940D01*
X110374116Y-112469885D01*
X110374482Y-112473469D01*
X110381162Y-112549819D01*
X110385423Y-112569039D01*
X110411621Y-112641020D01*
X110412804Y-112644424D01*
X110436916Y-112717187D01*
X110445496Y-112734908D01*
X110487613Y-112798946D01*
X110489550Y-112801986D01*
X110529130Y-112866154D01*
X110529131Y-112866155D01*
X110529772Y-112867194D01*
X110542202Y-112882453D01*
X110597937Y-112935035D01*
X110600525Y-112937549D01*
X110849951Y-113186975D01*
X110880201Y-113236338D01*
X110932820Y-113398284D01*
X111027466Y-113562216D01*
X111154129Y-113702889D01*
X111307269Y-113814151D01*
X111480197Y-113891144D01*
X111665352Y-113930500D01*
X111665354Y-113930500D01*
X111854646Y-113930500D01*
X111854648Y-113930500D01*
X111978084Y-113904262D01*
X112039803Y-113891144D01*
X112212730Y-113814151D01*
X112220947Y-113808181D01*
X112365870Y-113702889D01*
X112492533Y-113562216D01*
X112492533Y-113562215D01*
X112587179Y-113398284D01*
X112617614Y-113304612D01*
X112651373Y-113251876D01*
X112706597Y-113222357D01*
X112769203Y-113223586D01*
X112823226Y-113255250D01*
X116215339Y-116647363D01*
X116246854Y-116700865D01*
X116248480Y-116762938D01*
X116219808Y-116818016D01*
X116107466Y-116942783D01*
X116012820Y-117106715D01*
X115954326Y-117286742D01*
X115934540Y-117475000D01*
X115954326Y-117663257D01*
X116012820Y-117843284D01*
X116068887Y-117940394D01*
X116085500Y-118002394D01*
X116085500Y-118046000D01*
X116084191Y-118063970D01*
X116080685Y-118087906D01*
X116085028Y-118137548D01*
X116085500Y-118148355D01*
X116085500Y-118153940D01*
X116089116Y-118184885D01*
X116089482Y-118188469D01*
X116096162Y-118264819D01*
X116100423Y-118284039D01*
X116126621Y-118356020D01*
X116127804Y-118359424D01*
X116151916Y-118432187D01*
X116160496Y-118449908D01*
X116202613Y-118513946D01*
X116204550Y-118516986D01*
X116212696Y-118530193D01*
X116244130Y-118581154D01*
X116244131Y-118581155D01*
X116244772Y-118582194D01*
X116257202Y-118597453D01*
X116312937Y-118650035D01*
X116315525Y-118652549D01*
X118469951Y-120806975D01*
X118500201Y-120856338D01*
X118552820Y-121018284D01*
X118647466Y-121182216D01*
X118774129Y-121322889D01*
X118927269Y-121434151D01*
X119100197Y-121511144D01*
X119285352Y-121550500D01*
X119285354Y-121550500D01*
X119474646Y-121550500D01*
X119474648Y-121550500D01*
X119638994Y-121515567D01*
X119703093Y-121518926D01*
X119756925Y-121553885D01*
X119786066Y-121611077D01*
X119782706Y-121675176D01*
X119770201Y-121713661D01*
X119739951Y-121763023D01*
X119103795Y-122399181D01*
X119063567Y-122426061D01*
X119016114Y-122435500D01*
X118008831Y-122435500D01*
X117970513Y-122429431D01*
X117935949Y-122411820D01*
X117927730Y-122405849D01*
X117927729Y-122405848D01*
X117927727Y-122405847D01*
X117754802Y-122328855D01*
X117569648Y-122289500D01*
X117569646Y-122289500D01*
X117380354Y-122289500D01*
X117380352Y-122289500D01*
X117195197Y-122328855D01*
X117022269Y-122405848D01*
X116869129Y-122517110D01*
X116742466Y-122657783D01*
X116647820Y-122821715D01*
X116589326Y-123001742D01*
X116569540Y-123190000D01*
X116589326Y-123378257D01*
X116647820Y-123558284D01*
X116742466Y-123722216D01*
X116869129Y-123862889D01*
X117022269Y-123974151D01*
X117195197Y-124051144D01*
X117380352Y-124090500D01*
X117380354Y-124090500D01*
X117569646Y-124090500D01*
X117569648Y-124090500D01*
X117696860Y-124063460D01*
X117754803Y-124051144D01*
X117927730Y-123974151D01*
X117935949Y-123968179D01*
X117970513Y-123950569D01*
X118008831Y-123944500D01*
X119064983Y-123944500D01*
X119121278Y-123958015D01*
X119165301Y-123995615D01*
X119187456Y-124049102D01*
X119182914Y-124106818D01*
X119129326Y-124271742D01*
X119109540Y-124459999D01*
X119129326Y-124648257D01*
X119187820Y-124828284D01*
X119282466Y-124992216D01*
X119409129Y-125132889D01*
X119562269Y-125244151D01*
X119735197Y-125321144D01*
X119920352Y-125360500D01*
X119920354Y-125360500D01*
X120109646Y-125360500D01*
X120109648Y-125360500D01*
X120233084Y-125334262D01*
X120294803Y-125321144D01*
X120467730Y-125244151D01*
X120475949Y-125238179D01*
X120510513Y-125220569D01*
X120548831Y-125214500D01*
X120586000Y-125214500D01*
X120603970Y-125215809D01*
X120607723Y-125216358D01*
X120627906Y-125219315D01*
X120677547Y-125214972D01*
X120688355Y-125214500D01*
X120693943Y-125214500D01*
X120724903Y-125210881D01*
X120728441Y-125210519D01*
X120803612Y-125203943D01*
X120803617Y-125203941D01*
X120804832Y-125203835D01*
X120824027Y-125199580D01*
X120825179Y-125199160D01*
X120825184Y-125199160D01*
X120896074Y-125173357D01*
X120899434Y-125172190D01*
X120971036Y-125148464D01*
X120971041Y-125148460D01*
X120972202Y-125148076D01*
X120989902Y-125139507D01*
X120990919Y-125138837D01*
X120990924Y-125138836D01*
X121053967Y-125097371D01*
X121056959Y-125095465D01*
X121121154Y-125055870D01*
X121121154Y-125055869D01*
X121122193Y-125055229D01*
X121137444Y-125042805D01*
X121138281Y-125041917D01*
X121138285Y-125041915D01*
X121190071Y-124987023D01*
X121192516Y-124984506D01*
X122079955Y-124097067D01*
X122108466Y-124075777D01*
X122141846Y-124063462D01*
X122199803Y-124051144D01*
X122199804Y-124051143D01*
X122199806Y-124051143D01*
X122372730Y-123974151D01*
X122525870Y-123862889D01*
X122652533Y-123722216D01*
X122747179Y-123558284D01*
X122785512Y-123440307D01*
X122805674Y-123378256D01*
X122825460Y-123190000D01*
X122805674Y-123001744D01*
X122759456Y-122859500D01*
X122747179Y-122821715D01*
X122652533Y-122657783D01*
X122525870Y-122517110D01*
X122372730Y-122405848D01*
X122199802Y-122328855D01*
X122014648Y-122289500D01*
X122014646Y-122289500D01*
X121825354Y-122289500D01*
X121825351Y-122289500D01*
X121661004Y-122324432D01*
X121596905Y-122321073D01*
X121543073Y-122286114D01*
X121513934Y-122228922D01*
X121517292Y-122164827D01*
X121535674Y-122108256D01*
X121555460Y-121920000D01*
X121535674Y-121731744D01*
X121482086Y-121566818D01*
X121477544Y-121509102D01*
X121499699Y-121455615D01*
X121543722Y-121418015D01*
X121600017Y-121404500D01*
X123761000Y-121404500D01*
X123778970Y-121405809D01*
X123782723Y-121406358D01*
X123802906Y-121409315D01*
X123852547Y-121404972D01*
X123863355Y-121404500D01*
X123868943Y-121404500D01*
X123899903Y-121400881D01*
X123903441Y-121400519D01*
X123978612Y-121393943D01*
X123978617Y-121393941D01*
X123979832Y-121393835D01*
X123999027Y-121389580D01*
X124000179Y-121389160D01*
X124000184Y-121389160D01*
X124071074Y-121363357D01*
X124074434Y-121362190D01*
X124146036Y-121338464D01*
X124146041Y-121338460D01*
X124147202Y-121338076D01*
X124164902Y-121329507D01*
X124165919Y-121328837D01*
X124165924Y-121328836D01*
X124228967Y-121287371D01*
X124231959Y-121285465D01*
X124296154Y-121245870D01*
X124296154Y-121245869D01*
X124297193Y-121245229D01*
X124312444Y-121232805D01*
X124313281Y-121231917D01*
X124313285Y-121231915D01*
X124365071Y-121177023D01*
X124367516Y-121174506D01*
X125254955Y-120287067D01*
X125283466Y-120265777D01*
X125316846Y-120253462D01*
X125374803Y-120241144D01*
X125374804Y-120241143D01*
X125374806Y-120241143D01*
X125547730Y-120164151D01*
X125700870Y-120052889D01*
X125827533Y-119912216D01*
X125922179Y-119748284D01*
X125965353Y-119615408D01*
X125980674Y-119568256D01*
X125998179Y-119401698D01*
X126006292Y-119380000D01*
X125998179Y-119358300D01*
X125996817Y-119345339D01*
X125980674Y-119191744D01*
X125939829Y-119066036D01*
X125922179Y-119011715D01*
X125827533Y-118847783D01*
X125700870Y-118707110D01*
X125547730Y-118595848D01*
X125374802Y-118518855D01*
X125189648Y-118479500D01*
X125189646Y-118479500D01*
X125000354Y-118479500D01*
X125000352Y-118479500D01*
X124815197Y-118518855D01*
X124642269Y-118595848D01*
X124489129Y-118707110D01*
X124362466Y-118847783D01*
X124267821Y-119011714D01*
X124260431Y-119034459D01*
X124227383Y-119086532D01*
X124173337Y-119116244D01*
X124111663Y-119116244D01*
X124057617Y-119086532D01*
X124024569Y-119034459D01*
X124017178Y-119011714D01*
X123922533Y-118847783D01*
X123795870Y-118707110D01*
X123642730Y-118595848D01*
X123469802Y-118518855D01*
X123284648Y-118479500D01*
X123284646Y-118479500D01*
X123095354Y-118479500D01*
X123095352Y-118479500D01*
X122910196Y-118518855D01*
X122884730Y-118530193D01*
X122836460Y-118540893D01*
X122787846Y-118531882D01*
X122746617Y-118504593D01*
X122710819Y-118468795D01*
X122683939Y-118428567D01*
X122674500Y-118381114D01*
X122674500Y-115633993D01*
X122675809Y-115616023D01*
X122678326Y-115598836D01*
X122679314Y-115592093D01*
X122674972Y-115542459D01*
X122674500Y-115531653D01*
X122674500Y-115526057D01*
X122670882Y-115495109D01*
X122670515Y-115491516D01*
X122663837Y-115415175D01*
X122659580Y-115395972D01*
X122659160Y-115394819D01*
X122659160Y-115394816D01*
X122633347Y-115323896D01*
X122632199Y-115320593D01*
X122608464Y-115248964D01*
X122608462Y-115248961D01*
X122608078Y-115247801D01*
X122599504Y-115230091D01*
X122557376Y-115166038D01*
X122555461Y-115163033D01*
X122515870Y-115098846D01*
X122515229Y-115097806D01*
X122502802Y-115082551D01*
X122447061Y-115029963D01*
X122444473Y-115027449D01*
X121514549Y-114097525D01*
X121482798Y-114043190D01*
X121481809Y-113980266D01*
X121511838Y-113924960D01*
X121565149Y-113891518D01*
X121628011Y-113888554D01*
X121825352Y-113930500D01*
X121825354Y-113930500D01*
X122014646Y-113930500D01*
X122014648Y-113930500D01*
X122138084Y-113904262D01*
X122199803Y-113891144D01*
X122372730Y-113814151D01*
X122380949Y-113808179D01*
X122415513Y-113790569D01*
X122453831Y-113784500D01*
X124096114Y-113784500D01*
X124143567Y-113793939D01*
X124183795Y-113820819D01*
X124819951Y-114456975D01*
X124850201Y-114506338D01*
X124902820Y-114668284D01*
X124997466Y-114832216D01*
X125124129Y-114972889D01*
X125277269Y-115084151D01*
X125450193Y-115161143D01*
X125450196Y-115161143D01*
X125450197Y-115161144D01*
X125508149Y-115173462D01*
X125541532Y-115185777D01*
X125570046Y-115207070D01*
X126209181Y-115846205D01*
X126236061Y-115886433D01*
X126245500Y-115933886D01*
X126245500Y-119345339D01*
X126236536Y-119380000D01*
X126245500Y-119414661D01*
X126245500Y-125202606D01*
X126228887Y-125264606D01*
X126172820Y-125361715D01*
X126114326Y-125541742D01*
X126094540Y-125729999D01*
X126114326Y-125918257D01*
X126172820Y-126098284D01*
X126267466Y-126262216D01*
X126394129Y-126402889D01*
X126547269Y-126514151D01*
X126720197Y-126591144D01*
X126905352Y-126630500D01*
X126905354Y-126630500D01*
X127094646Y-126630500D01*
X127094648Y-126630500D01*
X127218083Y-126604262D01*
X127279803Y-126591144D01*
X127452730Y-126514151D01*
X127605871Y-126402888D01*
X127732533Y-126262216D01*
X127827179Y-126098284D01*
X127885674Y-125918256D01*
X127905460Y-125730000D01*
X127885674Y-125541744D01*
X127827179Y-125361716D01*
X127827179Y-125361715D01*
X127771113Y-125264606D01*
X127754500Y-125202606D01*
X127754500Y-115633993D01*
X127755809Y-115616023D01*
X127758326Y-115598836D01*
X127759314Y-115592093D01*
X127754972Y-115542459D01*
X127754500Y-115531653D01*
X127754500Y-115526057D01*
X127750882Y-115495109D01*
X127750515Y-115491516D01*
X127743837Y-115415175D01*
X127739580Y-115395972D01*
X127739160Y-115394819D01*
X127739160Y-115394816D01*
X127713347Y-115323896D01*
X127712199Y-115320593D01*
X127688464Y-115248964D01*
X127688462Y-115248961D01*
X127688078Y-115247801D01*
X127679504Y-115230091D01*
X127637376Y-115166038D01*
X127635461Y-115163033D01*
X127595870Y-115098846D01*
X127595229Y-115097806D01*
X127582802Y-115082551D01*
X127527061Y-115029963D01*
X127524473Y-115027449D01*
X126640049Y-114143025D01*
X126609799Y-114093662D01*
X126557179Y-113931715D01*
X126462533Y-113767783D01*
X126335870Y-113627110D01*
X126182732Y-113515849D01*
X126067445Y-113464520D01*
X126009803Y-113438856D01*
X125986704Y-113433946D01*
X125951850Y-113426537D01*
X125918464Y-113414220D01*
X125889952Y-113392928D01*
X125038766Y-112541742D01*
X125026983Y-112528108D01*
X125012538Y-112508705D01*
X124974365Y-112476674D01*
X124966389Y-112469365D01*
X124962439Y-112465415D01*
X124937986Y-112446079D01*
X124935192Y-112443804D01*
X124877427Y-112395333D01*
X124877425Y-112395332D01*
X124876492Y-112394549D01*
X124859898Y-112383976D01*
X124790442Y-112351589D01*
X124787197Y-112350018D01*
X124718722Y-112315629D01*
X124700125Y-112309165D01*
X124625086Y-112293670D01*
X124621569Y-112292890D01*
X124547005Y-112275219D01*
X124527425Y-112273218D01*
X124450804Y-112275448D01*
X124447198Y-112275500D01*
X122453831Y-112275500D01*
X122415513Y-112269431D01*
X122380949Y-112251820D01*
X122372730Y-112245849D01*
X122372729Y-112245848D01*
X122372727Y-112245847D01*
X122199802Y-112168855D01*
X122014648Y-112129500D01*
X122014646Y-112129500D01*
X121825354Y-112129500D01*
X121825352Y-112129500D01*
X121640197Y-112168855D01*
X121467269Y-112245848D01*
X121314129Y-112357110D01*
X121187466Y-112497783D01*
X121092820Y-112661715D01*
X121034326Y-112841742D01*
X121014540Y-113030000D01*
X121034326Y-113218257D01*
X121066783Y-113318148D01*
X121069866Y-113383516D01*
X121039244Y-113441350D01*
X120983447Y-113475542D01*
X120918014Y-113476570D01*
X120861171Y-113444147D01*
X116434549Y-109017525D01*
X116402798Y-108963190D01*
X116401809Y-108900266D01*
X116431838Y-108844960D01*
X116485149Y-108811518D01*
X116548011Y-108808554D01*
X116745352Y-108850500D01*
X116745354Y-108850500D01*
X116934646Y-108850500D01*
X116934648Y-108850500D01*
X117058083Y-108824262D01*
X117119803Y-108811144D01*
X117292730Y-108734151D01*
X117373495Y-108675472D01*
X117445870Y-108622889D01*
X117572533Y-108482216D01*
X117667179Y-108318284D01*
X117679989Y-108278859D01*
X117725674Y-108138256D01*
X117745460Y-107950000D01*
X117725674Y-107761744D01*
X117685943Y-107639465D01*
X117667179Y-107581715D01*
X117611113Y-107484606D01*
X117594500Y-107422606D01*
X117594500Y-107378993D01*
X117595809Y-107361023D01*
X117596277Y-107357827D01*
X117599314Y-107337093D01*
X117594972Y-107287463D01*
X117594500Y-107276656D01*
X117594500Y-107271057D01*
X117590877Y-107240063D01*
X117590514Y-107236517D01*
X117583942Y-107161388D01*
X117583836Y-107160174D01*
X117579578Y-107140966D01*
X117579160Y-107139818D01*
X117579160Y-107139816D01*
X117553364Y-107068943D01*
X117552181Y-107065538D01*
X117528464Y-106993964D01*
X117528462Y-106993961D01*
X117528078Y-106992801D01*
X117519504Y-106975091D01*
X117477376Y-106911038D01*
X117475461Y-106908033D01*
X117435870Y-106843846D01*
X117435229Y-106842806D01*
X117422802Y-106827551D01*
X117367061Y-106774963D01*
X117364473Y-106772449D01*
X115210049Y-104618025D01*
X115179799Y-104568662D01*
X115127179Y-104406715D01*
X115032533Y-104242783D01*
X114939986Y-104140000D01*
X123554540Y-104140000D01*
X123574326Y-104328257D01*
X123632820Y-104508284D01*
X123727466Y-104672216D01*
X123854129Y-104812889D01*
X124007269Y-104924151D01*
X124180193Y-105001143D01*
X124180196Y-105001143D01*
X124180197Y-105001144D01*
X124238149Y-105013462D01*
X124271532Y-105025777D01*
X124300046Y-105047070D01*
X130654181Y-111401205D01*
X130681061Y-111441433D01*
X130690500Y-111488886D01*
X130690500Y-112966000D01*
X130689191Y-112983970D01*
X130685685Y-113007906D01*
X130690028Y-113057548D01*
X130690500Y-113068355D01*
X130690500Y-113073940D01*
X130694116Y-113104885D01*
X130694482Y-113108469D01*
X130701162Y-113184819D01*
X130705423Y-113204039D01*
X130731621Y-113276020D01*
X130732804Y-113279424D01*
X130756916Y-113352187D01*
X130765496Y-113369908D01*
X130807613Y-113433946D01*
X130809550Y-113436986D01*
X130812242Y-113441350D01*
X130849130Y-113501154D01*
X130849131Y-113501155D01*
X130849772Y-113502194D01*
X130862202Y-113517453D01*
X130917937Y-113570035D01*
X130920525Y-113572549D01*
X132039593Y-114691617D01*
X132071686Y-114747204D01*
X132076097Y-114763663D01*
X132175965Y-114977830D01*
X132311505Y-115171401D01*
X132478599Y-115338495D01*
X132664160Y-115468426D01*
X132703024Y-115512743D01*
X132717035Y-115570000D01*
X132703024Y-115627257D01*
X132664158Y-115671575D01*
X132486256Y-115796144D01*
X132478595Y-115801508D01*
X132311505Y-115968598D01*
X132175965Y-116162170D01*
X132076097Y-116376336D01*
X132014936Y-116604592D01*
X131994340Y-116840000D01*
X132014936Y-117075407D01*
X132055164Y-117225538D01*
X132076097Y-117303663D01*
X132175965Y-117517830D01*
X132311505Y-117711401D01*
X132478599Y-117878495D01*
X132664160Y-118008426D01*
X132703024Y-118052743D01*
X132717035Y-118110000D01*
X132703024Y-118167257D01*
X132664160Y-118211574D01*
X132478684Y-118341446D01*
X132478595Y-118341508D01*
X132311505Y-118508598D01*
X132175965Y-118702170D01*
X132076097Y-118916336D01*
X132014936Y-119144592D01*
X131994340Y-119380000D01*
X132014936Y-119615407D01*
X132059709Y-119782502D01*
X132076097Y-119843663D01*
X132175965Y-120057830D01*
X132311505Y-120251401D01*
X132478599Y-120418495D01*
X132664160Y-120548426D01*
X132703024Y-120592743D01*
X132717035Y-120650000D01*
X132703024Y-120707257D01*
X132664160Y-120751574D01*
X132514542Y-120856338D01*
X132478595Y-120881508D01*
X132311505Y-121048598D01*
X132175965Y-121242170D01*
X132076097Y-121456336D01*
X132014936Y-121684592D01*
X131994340Y-121919999D01*
X132014936Y-122155407D01*
X132050866Y-122289500D01*
X132076097Y-122383663D01*
X132175965Y-122597830D01*
X132311505Y-122791401D01*
X132478599Y-122958495D01*
X132664160Y-123088426D01*
X132703024Y-123132743D01*
X132717035Y-123190000D01*
X132703024Y-123247257D01*
X132664158Y-123291575D01*
X132520196Y-123392379D01*
X132478595Y-123421508D01*
X132311505Y-123588598D01*
X132175965Y-123782170D01*
X132076097Y-123996336D01*
X132014936Y-124224592D01*
X131994340Y-124459999D01*
X132014936Y-124695407D01*
X132059709Y-124862501D01*
X132076097Y-124923663D01*
X132175965Y-125137830D01*
X132311505Y-125331401D01*
X132478599Y-125498495D01*
X132672170Y-125634035D01*
X132886337Y-125733903D01*
X133114592Y-125795063D01*
X133350000Y-125815659D01*
X133585408Y-125795063D01*
X133813663Y-125733903D01*
X134027830Y-125634035D01*
X134065199Y-125607869D01*
X144449500Y-125607869D01*
X144452313Y-125634035D01*
X144455909Y-125667483D01*
X144506204Y-125802331D01*
X144592454Y-125917546D01*
X144707669Y-126003796D01*
X144842517Y-126054091D01*
X144902127Y-126060500D01*
X147197872Y-126060499D01*
X147257483Y-126054091D01*
X147392331Y-126003796D01*
X147507546Y-125917546D01*
X147593796Y-125802331D01*
X147644091Y-125667483D01*
X147650500Y-125607873D01*
X147650500Y-125607869D01*
X152069500Y-125607869D01*
X152072313Y-125634035D01*
X152075909Y-125667483D01*
X152126204Y-125802331D01*
X152212454Y-125917546D01*
X152327669Y-126003796D01*
X152462517Y-126054091D01*
X152522127Y-126060500D01*
X154817872Y-126060499D01*
X154877483Y-126054091D01*
X155012331Y-126003796D01*
X155127546Y-125917546D01*
X155213796Y-125802331D01*
X155264091Y-125667483D01*
X155270500Y-125607873D01*
X155270499Y-123312128D01*
X155264091Y-123252517D01*
X155213796Y-123117669D01*
X155127546Y-123002454D01*
X155012331Y-122916204D01*
X154877483Y-122865909D01*
X154817873Y-122859500D01*
X154817869Y-122859500D01*
X152522130Y-122859500D01*
X152462515Y-122865909D01*
X152327669Y-122916204D01*
X152212454Y-123002454D01*
X152126204Y-123117668D01*
X152075909Y-123252516D01*
X152069500Y-123312130D01*
X152069500Y-125607869D01*
X147650500Y-125607869D01*
X147650499Y-123312128D01*
X147644091Y-123252517D01*
X147593796Y-123117669D01*
X147507546Y-123002454D01*
X147392331Y-122916204D01*
X147257483Y-122865909D01*
X147197873Y-122859500D01*
X147197869Y-122859500D01*
X144902130Y-122859500D01*
X144842515Y-122865909D01*
X144707669Y-122916204D01*
X144592454Y-123002454D01*
X144506204Y-123117668D01*
X144455909Y-123252516D01*
X144449500Y-123312130D01*
X144449500Y-125607869D01*
X134065199Y-125607869D01*
X134221401Y-125498495D01*
X134388495Y-125331401D01*
X134524035Y-125137830D01*
X134623903Y-124923663D01*
X134685063Y-124695408D01*
X134705659Y-124460000D01*
X134685063Y-124224592D01*
X134623903Y-123996337D01*
X134524035Y-123782171D01*
X134388495Y-123588599D01*
X134221401Y-123421505D01*
X134035839Y-123291573D01*
X133996975Y-123247257D01*
X133982964Y-123190000D01*
X133996975Y-123132743D01*
X134035839Y-123088426D01*
X134221401Y-122958495D01*
X134388495Y-122791401D01*
X134524035Y-122597830D01*
X134623903Y-122383663D01*
X134685063Y-122155408D01*
X134705659Y-121920000D01*
X134685063Y-121684592D01*
X134623903Y-121456337D01*
X134524035Y-121242171D01*
X134388495Y-121048599D01*
X134221401Y-120881505D01*
X134035839Y-120751573D01*
X133996974Y-120707255D01*
X133982964Y-120649999D01*
X133996975Y-120592742D01*
X134035837Y-120548428D01*
X134221401Y-120418495D01*
X134388495Y-120251401D01*
X134524035Y-120057830D01*
X134623903Y-119843663D01*
X134685063Y-119615408D01*
X134705659Y-119380000D01*
X134703760Y-119358300D01*
X134685063Y-119144592D01*
X134666546Y-119075486D01*
X134623903Y-118916337D01*
X134524035Y-118702171D01*
X134388495Y-118508599D01*
X134221401Y-118341505D01*
X134035839Y-118211573D01*
X133996974Y-118167255D01*
X133982964Y-118109999D01*
X133996975Y-118052742D01*
X134035837Y-118008428D01*
X134221401Y-117878495D01*
X134388495Y-117711401D01*
X134524035Y-117517830D01*
X134623903Y-117303663D01*
X134685063Y-117075408D01*
X134705659Y-116840000D01*
X134685063Y-116604592D01*
X134623903Y-116376337D01*
X134524035Y-116162171D01*
X134388495Y-115968599D01*
X134221401Y-115801505D01*
X134035839Y-115671573D01*
X133996975Y-115627257D01*
X133982964Y-115570000D01*
X133996975Y-115512743D01*
X134035839Y-115468426D01*
X134221401Y-115338495D01*
X134388495Y-115171401D01*
X134524035Y-114977830D01*
X134623903Y-114763663D01*
X134685063Y-114535408D01*
X134705659Y-114300000D01*
X134705659Y-114299999D01*
X144444551Y-114299999D01*
X144464317Y-114551149D01*
X144523126Y-114796110D01*
X144538082Y-114832216D01*
X144619534Y-115028859D01*
X144751164Y-115243659D01*
X144914776Y-115435224D01*
X145106341Y-115598836D01*
X145321141Y-115730466D01*
X145553889Y-115826873D01*
X145798852Y-115885683D01*
X146050000Y-115905449D01*
X146301148Y-115885683D01*
X146546111Y-115826873D01*
X146778859Y-115730466D01*
X146993659Y-115598836D01*
X147185224Y-115435224D01*
X147348836Y-115243659D01*
X147480466Y-115028859D01*
X147576873Y-114796111D01*
X147635683Y-114551148D01*
X147655449Y-114300000D01*
X147655449Y-114299999D01*
X152064551Y-114299999D01*
X152084317Y-114551149D01*
X152143126Y-114796110D01*
X152158082Y-114832216D01*
X152239534Y-115028859D01*
X152371164Y-115243659D01*
X152534776Y-115435224D01*
X152726341Y-115598836D01*
X152941141Y-115730466D01*
X153173889Y-115826873D01*
X153418852Y-115885683D01*
X153670000Y-115905449D01*
X153921148Y-115885683D01*
X154166111Y-115826873D01*
X154398859Y-115730466D01*
X154613659Y-115598836D01*
X154805224Y-115435224D01*
X154968836Y-115243659D01*
X155100466Y-115028859D01*
X155139344Y-114935000D01*
X169909540Y-114935000D01*
X169929326Y-115123257D01*
X169987820Y-115303284D01*
X170082466Y-115467216D01*
X170209129Y-115607889D01*
X170362269Y-115719151D01*
X170535193Y-115796143D01*
X170535196Y-115796143D01*
X170535197Y-115796144D01*
X170593149Y-115808462D01*
X170626532Y-115820777D01*
X170655046Y-115842070D01*
X172564181Y-117751205D01*
X172591061Y-117791433D01*
X172600500Y-117838886D01*
X172600500Y-129647606D01*
X172583887Y-129709606D01*
X172527820Y-129806715D01*
X172469326Y-129986742D01*
X172449540Y-130175000D01*
X172469326Y-130363257D01*
X172527820Y-130543284D01*
X172622466Y-130707216D01*
X172749129Y-130847889D01*
X172902269Y-130959151D01*
X173075197Y-131036144D01*
X173260352Y-131075500D01*
X173260354Y-131075500D01*
X173449646Y-131075500D01*
X173449648Y-131075500D01*
X173573083Y-131049262D01*
X173634803Y-131036144D01*
X173807730Y-130959151D01*
X173892520Y-130897548D01*
X173960870Y-130847889D01*
X174087533Y-130707216D01*
X174144529Y-130608495D01*
X174182179Y-130543284D01*
X174189568Y-130520541D01*
X174222616Y-130468466D01*
X174276662Y-130438754D01*
X174338338Y-130438754D01*
X174392384Y-130468466D01*
X174425431Y-130520541D01*
X174432820Y-130543283D01*
X174527466Y-130707216D01*
X174654129Y-130847889D01*
X174807269Y-130959151D01*
X174980197Y-131036144D01*
X175165352Y-131075500D01*
X175165354Y-131075500D01*
X175354646Y-131075500D01*
X175354648Y-131075500D01*
X175478083Y-131049262D01*
X175539803Y-131036144D01*
X175712730Y-130959151D01*
X175797520Y-130897548D01*
X175865870Y-130847889D01*
X175992533Y-130707216D01*
X176087179Y-130543284D01*
X176101538Y-130499091D01*
X176145674Y-130363256D01*
X176165460Y-130175000D01*
X176145674Y-129986744D01*
X176087179Y-129806716D01*
X176087179Y-129806715D01*
X176031113Y-129709606D01*
X176014500Y-129647606D01*
X176014500Y-126892394D01*
X176031113Y-126830394D01*
X176087179Y-126733284D01*
X176087179Y-126733283D01*
X176145674Y-126553256D01*
X176165460Y-126365000D01*
X176145674Y-126176744D01*
X176107904Y-126060500D01*
X176087179Y-125996715D01*
X175992533Y-125832783D01*
X175865870Y-125692110D01*
X175712730Y-125580848D01*
X175539802Y-125503855D01*
X175354648Y-125464500D01*
X175354646Y-125464500D01*
X175165354Y-125464500D01*
X175165352Y-125464500D01*
X174980197Y-125503855D01*
X174807269Y-125580848D01*
X174654129Y-125692110D01*
X174527466Y-125832783D01*
X174432820Y-125996715D01*
X174374326Y-126176742D01*
X174356821Y-126343300D01*
X174348707Y-126365000D01*
X174356821Y-126386700D01*
X174374326Y-126553257D01*
X174432820Y-126733284D01*
X174488887Y-126830394D01*
X174505500Y-126892394D01*
X174505500Y-129647606D01*
X174488887Y-129709606D01*
X174432820Y-129806715D01*
X174425431Y-129829459D01*
X174392384Y-129881533D01*
X174338338Y-129911245D01*
X174276662Y-129911245D01*
X174222616Y-129881533D01*
X174189569Y-129829459D01*
X174182179Y-129806715D01*
X174126113Y-129709606D01*
X174109500Y-129647606D01*
X174109500Y-126399661D01*
X174118463Y-126364999D01*
X174109500Y-126330339D01*
X174109500Y-120900000D01*
X207166633Y-120900000D01*
X207184619Y-121007792D01*
X207262780Y-121235460D01*
X207377348Y-121447164D01*
X207525201Y-121637126D01*
X207702292Y-121800151D01*
X207903819Y-121931815D01*
X208124255Y-122028506D01*
X208357611Y-122087600D01*
X208537418Y-122102500D01*
X209300000Y-122102500D01*
X209300000Y-120900000D01*
X209800000Y-120900000D01*
X209800000Y-122102500D01*
X210562582Y-122102500D01*
X210742388Y-122087600D01*
X210975744Y-122028506D01*
X211196180Y-121931815D01*
X211397707Y-121800151D01*
X211574798Y-121637126D01*
X211722651Y-121447164D01*
X211837219Y-121235460D01*
X211915380Y-121007792D01*
X211933367Y-120900000D01*
X209800000Y-120900000D01*
X209300000Y-120900000D01*
X207166633Y-120900000D01*
X174109500Y-120900000D01*
X174109500Y-120399999D01*
X207166633Y-120399999D01*
X207166634Y-120400000D01*
X209300000Y-120400000D01*
X209300000Y-119197500D01*
X209800000Y-119197500D01*
X209800000Y-120400000D01*
X211933366Y-120400000D01*
X211933366Y-120399999D01*
X211915380Y-120292207D01*
X211837219Y-120064539D01*
X211722651Y-119852835D01*
X211574798Y-119662873D01*
X211397707Y-119499848D01*
X211196180Y-119368184D01*
X210975744Y-119271493D01*
X210742388Y-119212399D01*
X210562582Y-119197500D01*
X209800000Y-119197500D01*
X209300000Y-119197500D01*
X208537418Y-119197500D01*
X208357611Y-119212399D01*
X208124255Y-119271493D01*
X207903819Y-119368184D01*
X207702292Y-119499848D01*
X207525201Y-119662873D01*
X207377348Y-119852835D01*
X207262780Y-120064539D01*
X207184619Y-120292207D01*
X207166633Y-120399999D01*
X174109500Y-120399999D01*
X174109500Y-117538993D01*
X174110809Y-117521023D01*
X174112473Y-117509661D01*
X174114314Y-117497093D01*
X174109972Y-117447463D01*
X174109500Y-117436656D01*
X174109500Y-117431057D01*
X174105877Y-117400063D01*
X174105514Y-117396517D01*
X174098942Y-117321388D01*
X174098836Y-117320174D01*
X174094578Y-117300966D01*
X174094160Y-117299818D01*
X174094160Y-117299816D01*
X174068364Y-117228943D01*
X174067181Y-117225538D01*
X174043464Y-117153964D01*
X174043462Y-117153961D01*
X174043078Y-117152801D01*
X174034504Y-117135091D01*
X173992376Y-117071038D01*
X173990461Y-117068033D01*
X173950870Y-117003846D01*
X173950229Y-117002806D01*
X173937802Y-116987551D01*
X173882061Y-116934963D01*
X173879473Y-116932449D01*
X171725049Y-114778025D01*
X171694799Y-114728662D01*
X171642179Y-114566715D01*
X171547533Y-114402783D01*
X171420870Y-114262110D01*
X171267730Y-114150848D01*
X171094802Y-114073855D01*
X170909648Y-114034500D01*
X170909646Y-114034500D01*
X170720354Y-114034500D01*
X170720352Y-114034500D01*
X170535197Y-114073855D01*
X170362269Y-114150848D01*
X170209129Y-114262110D01*
X170082466Y-114402783D01*
X169987820Y-114566715D01*
X169929326Y-114746742D01*
X169909540Y-114935000D01*
X155139344Y-114935000D01*
X155196873Y-114796111D01*
X155255683Y-114551148D01*
X155275449Y-114300000D01*
X155255683Y-114048852D01*
X155196873Y-113803889D01*
X155100466Y-113571141D01*
X154968836Y-113356341D01*
X154805224Y-113164776D01*
X154613659Y-113001164D01*
X154398859Y-112869534D01*
X154282484Y-112821330D01*
X154166110Y-112773126D01*
X153921149Y-112714317D01*
X153670000Y-112694551D01*
X153418850Y-112714317D01*
X153173889Y-112773126D01*
X153008237Y-112841742D01*
X152946791Y-112867194D01*
X152941139Y-112869535D01*
X152726342Y-113001163D01*
X152534776Y-113164776D01*
X152371163Y-113356342D01*
X152239535Y-113571139D01*
X152143126Y-113803889D01*
X152084317Y-114048850D01*
X152064551Y-114299999D01*
X147655449Y-114299999D01*
X147635683Y-114048852D01*
X147576873Y-113803889D01*
X147480466Y-113571141D01*
X147348836Y-113356341D01*
X147185224Y-113164776D01*
X146993659Y-113001164D01*
X146778859Y-112869534D01*
X146662484Y-112821330D01*
X146546110Y-112773126D01*
X146301149Y-112714317D01*
X146050000Y-112694551D01*
X145798850Y-112714317D01*
X145553889Y-112773126D01*
X145388237Y-112841742D01*
X145326791Y-112867194D01*
X145321139Y-112869535D01*
X145106342Y-113001163D01*
X144914776Y-113164776D01*
X144751163Y-113356342D01*
X144619535Y-113571139D01*
X144523126Y-113803889D01*
X144464317Y-114048850D01*
X144444551Y-114299999D01*
X134705659Y-114299999D01*
X134685063Y-114064592D01*
X134623903Y-113836337D01*
X134524035Y-113622171D01*
X134388495Y-113428599D01*
X134221401Y-113261505D01*
X134035839Y-113131573D01*
X133996975Y-113087257D01*
X133982964Y-113030000D01*
X133996975Y-112972743D01*
X134035839Y-112928426D01*
X134221401Y-112798495D01*
X134388495Y-112631401D01*
X134524035Y-112437830D01*
X134623903Y-112223663D01*
X134685063Y-111995408D01*
X134705659Y-111760000D01*
X134685063Y-111524592D01*
X134623903Y-111296337D01*
X134524035Y-111082171D01*
X134388495Y-110888599D01*
X134221401Y-110721505D01*
X134035839Y-110591573D01*
X133996975Y-110547257D01*
X133982964Y-110490000D01*
X133996975Y-110432743D01*
X134035839Y-110388426D01*
X134221401Y-110258495D01*
X134388495Y-110091401D01*
X134524035Y-109897830D01*
X134623903Y-109683663D01*
X134624884Y-109680000D01*
X142854356Y-109680000D01*
X142874891Y-109927816D01*
X142874891Y-109927819D01*
X142874892Y-109927821D01*
X142935937Y-110168881D01*
X142964285Y-110233507D01*
X143035825Y-110396604D01*
X143035827Y-110396607D01*
X143171836Y-110604785D01*
X143340256Y-110787738D01*
X143340259Y-110787740D01*
X143536485Y-110940470D01*
X143536487Y-110940471D01*
X143536491Y-110940474D01*
X143755190Y-111058828D01*
X143990386Y-111139571D01*
X144235665Y-111180500D01*
X144484335Y-111180500D01*
X144729614Y-111139571D01*
X144964810Y-111058828D01*
X145183509Y-110940474D01*
X145379744Y-110787738D01*
X145548164Y-110604785D01*
X145684173Y-110396607D01*
X145784063Y-110168881D01*
X145845108Y-109927821D01*
X145865643Y-109680000D01*
X153854356Y-109680000D01*
X153874891Y-109927816D01*
X153874891Y-109927819D01*
X153874892Y-109927821D01*
X153935937Y-110168881D01*
X153964285Y-110233507D01*
X154035825Y-110396604D01*
X154035827Y-110396607D01*
X154171836Y-110604785D01*
X154340256Y-110787738D01*
X154340259Y-110787740D01*
X154536485Y-110940470D01*
X154536487Y-110940471D01*
X154536491Y-110940474D01*
X154755190Y-111058828D01*
X154990386Y-111139571D01*
X155235665Y-111180500D01*
X155484335Y-111180500D01*
X155729614Y-111139571D01*
X155964810Y-111058828D01*
X156183509Y-110940474D01*
X156379744Y-110787738D01*
X156548164Y-110604785D01*
X156684173Y-110396607D01*
X156784063Y-110168881D01*
X156845108Y-109927821D01*
X156865643Y-109680000D01*
X156845108Y-109432179D01*
X156784063Y-109191119D01*
X156684173Y-108963393D01*
X156576031Y-108797869D01*
X165806849Y-108797869D01*
X165811912Y-108844960D01*
X165813258Y-108857483D01*
X165863553Y-108992331D01*
X165949803Y-109107546D01*
X166065018Y-109193796D01*
X166199866Y-109244091D01*
X166259476Y-109250500D01*
X167955221Y-109250499D01*
X168014832Y-109244091D01*
X168149680Y-109193796D01*
X168264895Y-109107546D01*
X168323675Y-109029026D01*
X170181875Y-109029026D01*
X170254864Y-109080133D01*
X170461022Y-109176266D01*
X170680746Y-109235141D01*
X170907349Y-109254966D01*
X171133951Y-109235141D01*
X171353675Y-109176266D01*
X171559829Y-109080134D01*
X171632821Y-109029025D01*
X170907350Y-108303553D01*
X170907349Y-108303553D01*
X170181875Y-109029025D01*
X170181875Y-109029026D01*
X168323675Y-109029026D01*
X168351145Y-108992331D01*
X168401440Y-108857483D01*
X168407849Y-108797873D01*
X168407848Y-107949999D01*
X169602382Y-107949999D01*
X169622207Y-108176602D01*
X169681082Y-108396326D01*
X169777215Y-108602484D01*
X169828321Y-108675471D01*
X169828323Y-108675472D01*
X170553795Y-107950001D01*
X171260902Y-107950001D01*
X171986374Y-108675472D01*
X172037483Y-108602480D01*
X172133615Y-108396326D01*
X172192490Y-108176602D01*
X172212315Y-107949999D01*
X172192490Y-107723397D01*
X172133615Y-107503673D01*
X172037482Y-107297515D01*
X171986374Y-107224526D01*
X171260902Y-107950000D01*
X171260902Y-107950001D01*
X170553795Y-107950001D01*
X170553795Y-107950000D01*
X169828322Y-107224526D01*
X169828322Y-107224527D01*
X169777214Y-107297516D01*
X169681082Y-107503672D01*
X169622207Y-107723397D01*
X169602382Y-107949999D01*
X168407848Y-107949999D01*
X168407848Y-107102128D01*
X168401440Y-107042517D01*
X168351145Y-106907669D01*
X168323674Y-106870973D01*
X170181875Y-106870973D01*
X170907349Y-107596446D01*
X170907350Y-107596446D01*
X171632821Y-106870974D01*
X171632820Y-106870972D01*
X171559833Y-106819866D01*
X171353675Y-106723733D01*
X171133951Y-106664858D01*
X170907349Y-106645033D01*
X170680746Y-106664858D01*
X170461021Y-106723733D01*
X170254865Y-106819865D01*
X170181876Y-106870973D01*
X170181875Y-106870973D01*
X168323674Y-106870973D01*
X168264895Y-106792454D01*
X168149680Y-106706204D01*
X168014832Y-106655909D01*
X167955222Y-106649500D01*
X167955218Y-106649500D01*
X166259479Y-106649500D01*
X166199864Y-106655909D01*
X166065018Y-106706204D01*
X165949803Y-106792454D01*
X165863553Y-106907668D01*
X165813258Y-107042516D01*
X165806849Y-107102130D01*
X165806849Y-108797869D01*
X156576031Y-108797869D01*
X156548164Y-108755215D01*
X156379744Y-108572262D01*
X156320516Y-108526163D01*
X156183514Y-108419529D01*
X156183510Y-108419526D01*
X156183509Y-108419526D01*
X155964810Y-108301172D01*
X155964806Y-108301170D01*
X155964805Y-108301170D01*
X155729615Y-108220429D01*
X155484335Y-108179500D01*
X155235665Y-108179500D01*
X154990384Y-108220429D01*
X154755194Y-108301170D01*
X154755190Y-108301171D01*
X154755190Y-108301172D01*
X154727580Y-108316114D01*
X154536485Y-108419529D01*
X154340259Y-108572259D01*
X154340256Y-108572261D01*
X154340256Y-108572262D01*
X154233911Y-108687784D01*
X154171837Y-108755214D01*
X154035825Y-108963395D01*
X153945780Y-109168678D01*
X153935937Y-109191119D01*
X153924789Y-109235141D01*
X153874891Y-109432183D01*
X153854356Y-109680000D01*
X145865643Y-109680000D01*
X145845108Y-109432179D01*
X145784063Y-109191119D01*
X145684173Y-108963393D01*
X145548164Y-108755215D01*
X145379744Y-108572262D01*
X145320516Y-108526163D01*
X145183514Y-108419529D01*
X145183510Y-108419526D01*
X145183509Y-108419526D01*
X144964810Y-108301172D01*
X144964806Y-108301170D01*
X144964805Y-108301170D01*
X144729615Y-108220429D01*
X144484335Y-108179500D01*
X144235665Y-108179500D01*
X143990384Y-108220429D01*
X143755194Y-108301170D01*
X143755190Y-108301171D01*
X143755190Y-108301172D01*
X143727580Y-108316114D01*
X143536485Y-108419529D01*
X143340259Y-108572259D01*
X143340256Y-108572261D01*
X143340256Y-108572262D01*
X143233911Y-108687784D01*
X143171837Y-108755214D01*
X143035825Y-108963395D01*
X142945780Y-109168678D01*
X142935937Y-109191119D01*
X142924789Y-109235141D01*
X142874891Y-109432183D01*
X142854356Y-109680000D01*
X134624884Y-109680000D01*
X134685063Y-109455408D01*
X134705659Y-109220000D01*
X134703760Y-109198300D01*
X134685063Y-108984592D01*
X134662468Y-108900266D01*
X134623903Y-108756337D01*
X134524035Y-108542171D01*
X134388495Y-108348599D01*
X134221401Y-108181505D01*
X134035839Y-108051573D01*
X133996975Y-108007257D01*
X133982964Y-107950000D01*
X133996975Y-107892743D01*
X134035839Y-107848426D01*
X134221401Y-107718495D01*
X134388495Y-107551401D01*
X134524035Y-107357830D01*
X134623903Y-107143663D01*
X134685063Y-106915408D01*
X134705659Y-106680000D01*
X134685063Y-106444592D01*
X134623903Y-106216337D01*
X134524035Y-106002171D01*
X134388495Y-105808599D01*
X134221401Y-105641505D01*
X134035839Y-105511573D01*
X133996975Y-105467257D01*
X133982964Y-105410000D01*
X133996975Y-105352743D01*
X134035839Y-105308426D01*
X134221401Y-105178495D01*
X134388495Y-105011401D01*
X134524035Y-104817830D01*
X134623903Y-104603663D01*
X134685063Y-104375408D01*
X134705659Y-104140000D01*
X134685063Y-103904592D01*
X134624884Y-103680000D01*
X142854356Y-103680000D01*
X142874891Y-103927816D01*
X142874891Y-103927819D01*
X142874892Y-103927821D01*
X142935937Y-104168881D01*
X142968354Y-104242784D01*
X143035825Y-104396604D01*
X143035827Y-104396607D01*
X143171836Y-104604785D01*
X143340256Y-104787738D01*
X143340259Y-104787740D01*
X143536485Y-104940470D01*
X143536487Y-104940471D01*
X143536491Y-104940474D01*
X143755190Y-105058828D01*
X143990386Y-105139571D01*
X144235665Y-105180500D01*
X144484335Y-105180500D01*
X144729614Y-105139571D01*
X144964810Y-105058828D01*
X145183509Y-104940474D01*
X145230872Y-104903610D01*
X154489942Y-104903610D01*
X154536766Y-104940055D01*
X154755393Y-105058368D01*
X154990506Y-105139083D01*
X155235707Y-105180000D01*
X155484293Y-105180000D01*
X155729493Y-105139083D01*
X155964606Y-105058368D01*
X156183233Y-104940053D01*
X156230056Y-104903609D01*
X155360000Y-104033553D01*
X154489942Y-104903609D01*
X154489942Y-104903610D01*
X145230872Y-104903610D01*
X145379744Y-104787738D01*
X145548164Y-104604785D01*
X145684173Y-104396607D01*
X145784063Y-104168881D01*
X145845108Y-103927821D01*
X145865643Y-103680000D01*
X153854858Y-103680000D01*
X153875386Y-103927732D01*
X153936413Y-104168721D01*
X154036268Y-104396370D01*
X154136563Y-104549882D01*
X154136564Y-104549882D01*
X155006447Y-103680001D01*
X155713553Y-103680001D01*
X156583434Y-104549882D01*
X156683730Y-104396369D01*
X156783586Y-104168721D01*
X156844613Y-103927732D01*
X156865141Y-103680000D01*
X156844613Y-103432267D01*
X156783586Y-103191278D01*
X156683730Y-102963630D01*
X156583434Y-102810116D01*
X155713553Y-103680000D01*
X155713553Y-103680001D01*
X155006447Y-103680001D01*
X155006447Y-103680000D01*
X154136564Y-102810116D01*
X154036266Y-102963634D01*
X153936413Y-103191278D01*
X153875386Y-103432267D01*
X153854858Y-103680000D01*
X145865643Y-103680000D01*
X145845108Y-103432179D01*
X145784063Y-103191119D01*
X145684173Y-102963393D01*
X145548164Y-102755215D01*
X145379744Y-102572262D01*
X145337211Y-102539157D01*
X145230873Y-102456390D01*
X154489942Y-102456390D01*
X155360000Y-103326447D01*
X155360001Y-103326447D01*
X156230057Y-102456390D01*
X156230056Y-102456388D01*
X156183235Y-102419947D01*
X155964606Y-102301631D01*
X155729493Y-102220916D01*
X155484293Y-102180000D01*
X155235707Y-102180000D01*
X154990506Y-102220916D01*
X154755393Y-102301631D01*
X154536764Y-102419946D01*
X154489942Y-102456388D01*
X154489942Y-102456390D01*
X145230873Y-102456390D01*
X145183514Y-102419529D01*
X145183510Y-102419526D01*
X145183509Y-102419526D01*
X144964810Y-102301172D01*
X144964806Y-102301170D01*
X144964805Y-102301170D01*
X144729615Y-102220429D01*
X144484335Y-102179500D01*
X144235665Y-102179500D01*
X143990384Y-102220429D01*
X143755194Y-102301170D01*
X143536485Y-102419529D01*
X143340259Y-102572259D01*
X143340256Y-102572261D01*
X143340256Y-102572262D01*
X143171836Y-102755215D01*
X143135968Y-102810116D01*
X143035825Y-102963395D01*
X142977597Y-103096144D01*
X142935937Y-103191119D01*
X142878484Y-103417996D01*
X142874891Y-103432183D01*
X142854356Y-103680000D01*
X134624884Y-103680000D01*
X134623903Y-103676337D01*
X134524035Y-103462171D01*
X134388495Y-103268599D01*
X134221401Y-103101505D01*
X134035839Y-102971573D01*
X133996974Y-102927255D01*
X133982964Y-102869999D01*
X133996975Y-102812742D01*
X134035837Y-102768428D01*
X134221401Y-102638495D01*
X134388495Y-102471401D01*
X134524035Y-102277830D01*
X134623903Y-102063663D01*
X134685063Y-101835408D01*
X134705659Y-101600000D01*
X134685063Y-101364592D01*
X134623903Y-101136337D01*
X134524035Y-100922171D01*
X134388495Y-100728599D01*
X134221401Y-100561505D01*
X134035402Y-100431267D01*
X133996539Y-100386951D01*
X133982603Y-100330000D01*
X192806865Y-100330000D01*
X192827366Y-100577403D01*
X192827366Y-100577406D01*
X192827367Y-100577408D01*
X192887748Y-100815849D01*
X192888311Y-100818069D01*
X192988031Y-101045410D01*
X192988033Y-101045413D01*
X193109750Y-101231715D01*
X193120666Y-101248422D01*
X193139801Y-101300096D01*
X193134659Y-101354958D01*
X193106254Y-101402175D01*
X193083679Y-101417001D01*
X193084442Y-101418020D01*
X193070170Y-101428703D01*
X193070169Y-101428704D01*
X193051043Y-101443022D01*
X192954954Y-101514954D01*
X192868704Y-101630168D01*
X192818409Y-101765015D01*
X192818409Y-101765017D01*
X192815911Y-101788256D01*
X192812000Y-101824630D01*
X192812000Y-103915369D01*
X192818409Y-103974984D01*
X192840254Y-104033553D01*
X192868704Y-104109831D01*
X192954954Y-104225046D01*
X193070169Y-104311296D01*
X193205017Y-104361591D01*
X193264627Y-104368000D01*
X195355372Y-104367999D01*
X195414983Y-104361591D01*
X195549831Y-104311296D01*
X195665046Y-104225046D01*
X195751296Y-104109831D01*
X195801591Y-103974983D01*
X195808000Y-103915373D01*
X195807999Y-101824628D01*
X195801591Y-101765017D01*
X195751296Y-101630169D01*
X195665046Y-101514954D01*
X195549831Y-101428704D01*
X195549828Y-101428703D01*
X195535558Y-101418020D01*
X195536320Y-101417001D01*
X195513746Y-101402175D01*
X195485341Y-101354958D01*
X195480199Y-101300096D01*
X195499334Y-101248422D01*
X195510249Y-101231716D01*
X195631967Y-101045413D01*
X195731690Y-100818067D01*
X195792633Y-100577408D01*
X195813134Y-100330000D01*
X195792633Y-100082592D01*
X195731690Y-99841933D01*
X195631967Y-99614587D01*
X195630629Y-99612539D01*
X195496186Y-99406758D01*
X195328045Y-99224107D01*
X195224262Y-99143331D01*
X195187389Y-99096458D01*
X195176662Y-99037793D01*
X195178274Y-99011827D01*
X194310000Y-98143553D01*
X193441724Y-99011827D01*
X193443336Y-99037794D01*
X193432609Y-99096458D01*
X193395737Y-99143330D01*
X193291955Y-99224106D01*
X193123813Y-99406758D01*
X192988033Y-99614585D01*
X192888311Y-99841930D01*
X192827366Y-100082596D01*
X192806865Y-100330000D01*
X133982603Y-100330000D01*
X133982528Y-100329694D01*
X133996539Y-100272437D01*
X134035405Y-100228119D01*
X134221078Y-100098109D01*
X134388106Y-99931081D01*
X134523600Y-99737576D01*
X134623430Y-99523492D01*
X134680636Y-99310000D01*
X132019364Y-99310000D01*
X132076569Y-99523492D01*
X132176399Y-99737576D01*
X132311893Y-99931081D01*
X132478918Y-100098106D01*
X132664595Y-100228119D01*
X132703460Y-100272437D01*
X132717471Y-100329694D01*
X132703460Y-100386951D01*
X132664595Y-100431269D01*
X132478595Y-100561508D01*
X132311505Y-100728598D01*
X132175965Y-100922170D01*
X132076097Y-101136336D01*
X132014936Y-101364592D01*
X131994340Y-101599999D01*
X132012522Y-101807810D01*
X132005516Y-101861028D01*
X131976675Y-101906299D01*
X130956741Y-102926233D01*
X130943112Y-102938012D01*
X130923708Y-102952458D01*
X130891676Y-102990632D01*
X130884379Y-102998596D01*
X130880414Y-103002561D01*
X130861089Y-103027001D01*
X130858814Y-103029794D01*
X130809554Y-103088500D01*
X130798972Y-103105112D01*
X130766581Y-103174571D01*
X130765011Y-103177813D01*
X130730632Y-103246269D01*
X130724164Y-103264878D01*
X130708671Y-103339911D01*
X130707891Y-103343430D01*
X130690219Y-103417996D01*
X130688218Y-103437574D01*
X130690448Y-103514196D01*
X130690500Y-103517802D01*
X130690500Y-104882606D01*
X130673887Y-104944606D01*
X130617821Y-105041714D01*
X130587385Y-105135387D01*
X130553625Y-105188124D01*
X130498401Y-105217642D01*
X130435795Y-105216412D01*
X130381773Y-105184749D01*
X129180049Y-103983025D01*
X129149799Y-103933662D01*
X129097179Y-103771715D01*
X129002533Y-103607783D01*
X128875870Y-103467110D01*
X128722730Y-103355848D01*
X128549802Y-103278855D01*
X128364648Y-103239500D01*
X128364646Y-103239500D01*
X128175354Y-103239500D01*
X128175352Y-103239500D01*
X127990197Y-103278855D01*
X127817269Y-103355848D01*
X127707884Y-103435321D01*
X127660780Y-103456293D01*
X127609217Y-103456293D01*
X127562116Y-103435322D01*
X127504302Y-103393318D01*
X127452727Y-103355846D01*
X127279802Y-103278855D01*
X127094648Y-103239500D01*
X127094646Y-103239500D01*
X126905354Y-103239500D01*
X126905352Y-103239500D01*
X126720197Y-103278855D01*
X126547269Y-103355848D01*
X126437884Y-103435321D01*
X126390780Y-103456293D01*
X126339217Y-103456293D01*
X126292116Y-103435322D01*
X126234302Y-103393318D01*
X126182727Y-103355846D01*
X126009802Y-103278855D01*
X125824648Y-103239500D01*
X125824646Y-103239500D01*
X125635354Y-103239500D01*
X125635352Y-103239500D01*
X125450197Y-103278855D01*
X125277269Y-103355848D01*
X125167885Y-103435321D01*
X125120781Y-103456293D01*
X125069219Y-103456293D01*
X125022115Y-103435321D01*
X124912730Y-103355848D01*
X124739802Y-103278855D01*
X124554648Y-103239500D01*
X124554646Y-103239500D01*
X124365354Y-103239500D01*
X124365352Y-103239500D01*
X124180197Y-103278855D01*
X124007269Y-103355848D01*
X123854129Y-103467110D01*
X123727466Y-103607783D01*
X123632820Y-103771715D01*
X123574326Y-103951742D01*
X123554540Y-104140000D01*
X114939986Y-104140000D01*
X114905870Y-104102110D01*
X114752730Y-103990848D01*
X114579802Y-103913855D01*
X114394648Y-103874500D01*
X114394646Y-103874500D01*
X114205354Y-103874500D01*
X114205352Y-103874500D01*
X114020197Y-103913855D01*
X113847269Y-103990848D01*
X113694129Y-104102110D01*
X113567466Y-104242783D01*
X113472820Y-104406715D01*
X113414326Y-104586742D01*
X113394540Y-104775000D01*
X113414326Y-104963257D01*
X113472820Y-105143284D01*
X113567466Y-105307216D01*
X113694129Y-105447889D01*
X113847269Y-105559151D01*
X114020193Y-105636143D01*
X114020196Y-105636143D01*
X114020197Y-105636144D01*
X114078149Y-105648462D01*
X114111532Y-105660777D01*
X114140046Y-105682070D01*
X115965679Y-107507703D01*
X115998572Y-107566436D01*
X115995929Y-107633702D01*
X115954326Y-107761742D01*
X115934540Y-107949999D01*
X115954326Y-108138257D01*
X115986783Y-108238148D01*
X115989866Y-108303516D01*
X115959244Y-108361350D01*
X115903447Y-108395542D01*
X115838014Y-108396570D01*
X115781171Y-108364147D01*
X115210049Y-107793025D01*
X115179799Y-107743662D01*
X115127179Y-107581715D01*
X115032533Y-107417783D01*
X114905870Y-107277110D01*
X114752730Y-107165848D01*
X114579802Y-107088855D01*
X114394648Y-107049500D01*
X114394646Y-107049500D01*
X114205354Y-107049500D01*
X114205352Y-107049500D01*
X114020197Y-107088855D01*
X113847269Y-107165848D01*
X113694129Y-107277110D01*
X113567466Y-107417783D01*
X113472820Y-107581715D01*
X113414326Y-107761742D01*
X113394540Y-107949999D01*
X113414326Y-108138259D01*
X113432706Y-108194825D01*
X113436065Y-108258923D01*
X113406925Y-108316114D01*
X113353093Y-108351073D01*
X113288995Y-108354432D01*
X113124649Y-108319500D01*
X113124646Y-108319500D01*
X112935354Y-108319500D01*
X112935352Y-108319500D01*
X112750197Y-108358855D01*
X112577269Y-108435848D01*
X112424129Y-108547110D01*
X112297466Y-108687783D01*
X112202820Y-108851715D01*
X112144326Y-109031742D01*
X112144325Y-109031744D01*
X112144326Y-109031744D01*
X112127576Y-109191119D01*
X112126821Y-109198300D01*
X112118707Y-109220000D01*
X112126820Y-109241698D01*
X112127746Y-109250500D01*
X112144326Y-109408257D01*
X112202820Y-109588284D01*
X112297466Y-109752216D01*
X112315305Y-109772028D01*
X112343472Y-109825002D01*
X112343472Y-109884998D01*
X112315305Y-109937972D01*
X112297466Y-109957783D01*
X112202821Y-110121714D01*
X112172385Y-110215387D01*
X112138625Y-110268124D01*
X112083401Y-110297642D01*
X112020795Y-110296412D01*
X111966773Y-110264749D01*
X111915819Y-110213795D01*
X111888939Y-110173567D01*
X111879500Y-110126114D01*
X111879500Y-109254661D01*
X111888463Y-109220000D01*
X111879500Y-109185339D01*
X111879500Y-103868886D01*
X111888939Y-103821433D01*
X111915819Y-103781205D01*
X112229914Y-103467110D01*
X113189956Y-102507066D01*
X113218466Y-102485777D01*
X113251846Y-102473462D01*
X113309803Y-102461144D01*
X113309804Y-102461143D01*
X113309806Y-102461143D01*
X113482730Y-102384151D01*
X113635870Y-102272889D01*
X113762533Y-102132216D01*
X113857179Y-101968284D01*
X113877319Y-101906299D01*
X113915674Y-101788256D01*
X113935460Y-101600000D01*
X113915674Y-101411744D01*
X113857179Y-101231716D01*
X113857179Y-101231715D01*
X113762533Y-101067783D01*
X113635870Y-100927110D01*
X113482730Y-100815848D01*
X113309802Y-100738855D01*
X113124648Y-100699500D01*
X113124646Y-100699500D01*
X112935354Y-100699500D01*
X112935352Y-100699500D01*
X112750197Y-100738855D01*
X112577269Y-100815848D01*
X112424129Y-100927110D01*
X112297466Y-101067783D01*
X112202820Y-101231715D01*
X112150202Y-101393659D01*
X112119952Y-101443022D01*
X110636741Y-102926233D01*
X110623112Y-102938012D01*
X110603708Y-102952458D01*
X110571676Y-102990632D01*
X110564379Y-102998596D01*
X110560414Y-103002561D01*
X110541089Y-103027001D01*
X110538814Y-103029794D01*
X110489554Y-103088500D01*
X110478972Y-103105112D01*
X110446581Y-103174571D01*
X110445011Y-103177813D01*
X110410632Y-103246269D01*
X110404164Y-103264878D01*
X110388671Y-103339911D01*
X110387891Y-103343430D01*
X110370219Y-103417996D01*
X110368218Y-103437574D01*
X110370448Y-103514196D01*
X110370500Y-103517802D01*
X110370500Y-110426000D01*
X110369191Y-110443970D01*
X110365685Y-110467906D01*
X110370028Y-110517548D01*
X110370500Y-110528355D01*
X110370500Y-112331000D01*
X110369191Y-112348970D01*
X110365685Y-112372906D01*
X86458309Y-112372906D01*
X86391841Y-112188007D01*
X86391418Y-112186812D01*
X86371501Y-112129500D01*
X86144186Y-111475400D01*
X86143679Y-111473905D01*
X85855415Y-110607809D01*
X85855126Y-110606927D01*
X85624855Y-109889491D01*
X85624424Y-109888114D01*
X85356819Y-109015294D01*
X85356514Y-109014279D01*
X85259440Y-108684999D01*
X101189465Y-108684999D01*
X101209554Y-108888970D01*
X101209554Y-108888972D01*
X101209555Y-108888974D01*
X101269052Y-109085109D01*
X101269054Y-109085112D01*
X101359841Y-109254966D01*
X101365669Y-109265868D01*
X101495695Y-109424305D01*
X101654132Y-109554331D01*
X101834891Y-109650948D01*
X102031026Y-109710445D01*
X102235000Y-109730535D01*
X102438974Y-109710445D01*
X102635109Y-109650948D01*
X102815868Y-109554331D01*
X102974305Y-109424305D01*
X103104331Y-109265868D01*
X103200948Y-109085109D01*
X103260445Y-108888974D01*
X103280535Y-108685000D01*
X103260445Y-108481026D01*
X103200948Y-108284891D01*
X103104331Y-108104132D01*
X102974305Y-107945695D01*
X102815868Y-107815669D01*
X102815867Y-107815668D01*
X102681151Y-107743662D01*
X102635109Y-107719052D01*
X102438974Y-107659555D01*
X102438972Y-107659554D01*
X102438970Y-107659554D01*
X102235000Y-107639465D01*
X102031029Y-107659554D01*
X102031025Y-107659555D01*
X102031026Y-107659555D01*
X101834891Y-107719052D01*
X101834887Y-107719053D01*
X101834887Y-107719054D01*
X101654132Y-107815668D01*
X101495695Y-107945695D01*
X101365668Y-108104132D01*
X101303507Y-108220429D01*
X101269052Y-108284891D01*
X101228211Y-108419526D01*
X101209554Y-108481029D01*
X101189465Y-108684999D01*
X85259440Y-108684999D01*
X85143488Y-108291684D01*
X85143107Y-108290360D01*
X84896353Y-107411434D01*
X84896091Y-107410484D01*
X84700322Y-106682760D01*
X84699956Y-106681360D01*
X84474225Y-105796957D01*
X84474032Y-105796183D01*
X84295627Y-105063680D01*
X84295361Y-105062556D01*
X84090716Y-104172924D01*
X84090543Y-104172153D01*
X83929693Y-103435624D01*
X83929381Y-103434146D01*
X83928978Y-103432183D01*
X83746083Y-102540466D01*
X83745822Y-102539157D01*
X83732713Y-102471404D01*
X83602643Y-101799160D01*
X83602432Y-101798030D01*
X83440386Y-100899871D01*
X83440196Y-100898780D01*
X83314709Y-100155419D01*
X83314519Y-100154249D01*
X83173898Y-99252518D01*
X83173756Y-99251571D01*
X83066042Y-98505280D01*
X83065884Y-98504133D01*
X82946772Y-97599387D01*
X82946638Y-97598320D01*
X82856804Y-96849854D01*
X82856650Y-96848504D01*
X82759118Y-95941327D01*
X82758997Y-95940129D01*
X82687058Y-95189620D01*
X82686945Y-95188368D01*
X82611038Y-94279217D01*
X82610948Y-94278062D01*
X82556947Y-93525901D01*
X82556878Y-93524848D01*
X82541335Y-93263934D01*
X86165668Y-93263934D01*
X86186644Y-93382888D01*
X86196135Y-93436711D01*
X86265623Y-93597804D01*
X86370390Y-93738530D01*
X86504783Y-93851300D01*
X86504784Y-93851300D01*
X86504786Y-93851302D01*
X86661567Y-93930040D01*
X86661568Y-93930040D01*
X86661570Y-93930041D01*
X86832277Y-93970500D01*
X86832279Y-93970500D01*
X86963704Y-93970500D01*
X86963709Y-93970500D01*
X87094255Y-93955241D01*
X87259117Y-93895237D01*
X87405696Y-93798830D01*
X87526092Y-93671218D01*
X87613812Y-93519281D01*
X87664130Y-93351210D01*
X87674331Y-93176065D01*
X87643865Y-93003289D01*
X87574377Y-92842196D01*
X87469610Y-92701470D01*
X87434623Y-92672112D01*
X87335216Y-92588699D01*
X87178429Y-92509958D01*
X87007723Y-92469500D01*
X87007721Y-92469500D01*
X86876291Y-92469500D01*
X86794699Y-92479036D01*
X86745742Y-92484759D01*
X86580883Y-92544762D01*
X86434303Y-92641170D01*
X86313908Y-92768780D01*
X86226188Y-92920718D01*
X86226188Y-92920719D01*
X86175870Y-93088790D01*
X86175869Y-93088792D01*
X86175870Y-93088792D01*
X86165668Y-93263934D01*
X82541335Y-93263934D01*
X82502612Y-92613894D01*
X82502551Y-92612750D01*
X82466542Y-91859685D01*
X82466492Y-91858499D01*
X82433929Y-90946774D01*
X82433892Y-90945522D01*
X82415878Y-90191651D01*
X82415855Y-90190372D01*
X82405003Y-89278390D01*
X82404994Y-89276915D01*
X82404994Y-88523085D01*
X82405003Y-88521610D01*
X82408057Y-88265000D01*
X100694540Y-88265000D01*
X100714326Y-88453257D01*
X100772820Y-88633284D01*
X100867466Y-88797216D01*
X100994129Y-88937889D01*
X101147269Y-89049151D01*
X101320193Y-89126143D01*
X101320196Y-89126143D01*
X101320197Y-89126144D01*
X101378149Y-89138462D01*
X101411532Y-89150777D01*
X101440046Y-89172070D01*
X102880339Y-90612363D01*
X102911854Y-90665865D01*
X102913480Y-90727938D01*
X102884808Y-90783016D01*
X102772466Y-90907783D01*
X102677820Y-91071715D01*
X102619326Y-91251742D01*
X102599540Y-91440000D01*
X102619326Y-91628257D01*
X102677820Y-91808284D01*
X102772466Y-91972216D01*
X102899129Y-92112889D01*
X103052269Y-92224151D01*
X103225193Y-92301143D01*
X103225196Y-92301143D01*
X103225197Y-92301144D01*
X103283149Y-92313462D01*
X103316532Y-92325777D01*
X103345046Y-92347070D01*
X108006234Y-97008258D01*
X108018015Y-97021890D01*
X108032460Y-97041293D01*
X108070634Y-97073325D01*
X108078608Y-97080632D01*
X108082559Y-97084583D01*
X108102967Y-97100720D01*
X108107011Y-97103917D01*
X108109805Y-97106193D01*
X108167573Y-97154667D01*
X108167575Y-97154668D01*
X108168507Y-97155450D01*
X108185101Y-97166022D01*
X108186207Y-97166538D01*
X108186209Y-97166539D01*
X108254584Y-97198422D01*
X108257775Y-97199968D01*
X108326282Y-97234373D01*
X108344873Y-97240834D01*
X108346060Y-97241079D01*
X108419938Y-97256333D01*
X108423411Y-97257103D01*
X108496812Y-97274500D01*
X108496814Y-97274500D01*
X108497995Y-97274780D01*
X108517574Y-97276781D01*
X108518791Y-97276745D01*
X108518794Y-97276746D01*
X108589669Y-97274683D01*
X108594196Y-97274552D01*
X108597802Y-97274500D01*
X111555501Y-97274500D01*
X111617501Y-97291113D01*
X111662888Y-97336500D01*
X111679501Y-97398500D01*
X111679501Y-97417872D01*
X111681498Y-97436447D01*
X111685909Y-97477484D01*
X111711056Y-97544906D01*
X111736204Y-97612331D01*
X111822454Y-97727546D01*
X111937669Y-97813796D01*
X112072517Y-97864091D01*
X112132127Y-97870500D01*
X113927872Y-97870499D01*
X113987483Y-97864091D01*
X114122331Y-97813796D01*
X114237546Y-97727546D01*
X114323796Y-97612331D01*
X114373003Y-97480398D01*
X114407981Y-97430021D01*
X114462826Y-97402568D01*
X114524119Y-97404757D01*
X114576865Y-97436053D01*
X114698918Y-97558106D01*
X114892423Y-97693600D01*
X115106507Y-97793430D01*
X115319999Y-97850635D01*
X115320000Y-97850636D01*
X115320000Y-97850635D01*
X115820000Y-97850635D01*
X116033492Y-97793430D01*
X116247576Y-97693600D01*
X116441081Y-97558106D01*
X116608109Y-97391078D01*
X116738119Y-97205405D01*
X116782437Y-97166539D01*
X116839694Y-97152528D01*
X116896951Y-97166539D01*
X116941267Y-97205402D01*
X117071505Y-97391401D01*
X117238599Y-97558495D01*
X117432170Y-97694035D01*
X117646337Y-97793903D01*
X117874592Y-97855063D01*
X118110000Y-97875659D01*
X118345408Y-97855063D01*
X118469407Y-97821837D01*
X118525691Y-97819996D01*
X118576986Y-97843237D01*
X118612712Y-97886769D01*
X118625500Y-97941613D01*
X118625500Y-101707606D01*
X118608887Y-101769606D01*
X118552820Y-101866715D01*
X118494326Y-102046742D01*
X118474540Y-102235000D01*
X118494326Y-102423257D01*
X118552820Y-102603284D01*
X118647466Y-102767216D01*
X118774129Y-102907889D01*
X118927269Y-103019151D01*
X119100197Y-103096144D01*
X119285352Y-103135500D01*
X119285354Y-103135500D01*
X119474646Y-103135500D01*
X119474648Y-103135500D01*
X119612450Y-103106209D01*
X119659803Y-103096144D01*
X119832730Y-103019151D01*
X119871983Y-102990632D01*
X119985870Y-102907889D01*
X120019987Y-102869999D01*
X120112533Y-102767216D01*
X120207179Y-102603284D01*
X120265674Y-102423256D01*
X120285460Y-102235000D01*
X120265674Y-102046744D01*
X120235332Y-101953363D01*
X120207179Y-101866715D01*
X120151113Y-101769606D01*
X120134500Y-101707606D01*
X120134500Y-98153886D01*
X120143939Y-98106434D01*
X120170816Y-98066207D01*
X120343702Y-97893320D01*
X120388968Y-97864483D01*
X120442185Y-97857477D01*
X120650000Y-97875659D01*
X120885408Y-97855063D01*
X121113663Y-97793903D01*
X121327830Y-97694035D01*
X121521401Y-97558495D01*
X121688495Y-97391401D01*
X121818426Y-97205839D01*
X121862743Y-97166975D01*
X121920000Y-97152964D01*
X121977257Y-97166975D01*
X122021573Y-97205839D01*
X122151505Y-97391401D01*
X122318599Y-97558495D01*
X122382625Y-97603327D01*
X122421489Y-97647643D01*
X122435500Y-97704900D01*
X122435500Y-98696114D01*
X122426061Y-98743567D01*
X122399181Y-98783795D01*
X121760046Y-99422928D01*
X121731534Y-99444220D01*
X121698149Y-99456537D01*
X121640197Y-99468856D01*
X121467267Y-99545849D01*
X121314129Y-99657110D01*
X121187466Y-99797783D01*
X121092820Y-99961715D01*
X121034326Y-100141742D01*
X121014540Y-100330000D01*
X121034326Y-100518257D01*
X121092820Y-100698284D01*
X121187466Y-100862216D01*
X121314129Y-101002889D01*
X121467269Y-101114151D01*
X121640197Y-101191144D01*
X121825352Y-101230500D01*
X121825354Y-101230500D01*
X122014646Y-101230500D01*
X122014648Y-101230500D01*
X122138083Y-101204262D01*
X122199803Y-101191144D01*
X122372730Y-101114151D01*
X122525871Y-101002888D01*
X122652533Y-100862216D01*
X122747179Y-100698284D01*
X122799799Y-100536334D01*
X122830047Y-100486975D01*
X123678264Y-99638758D01*
X123691883Y-99626988D01*
X123711294Y-99612539D01*
X123743334Y-99574354D01*
X123750620Y-99566402D01*
X123754583Y-99562441D01*
X123773927Y-99537974D01*
X123776161Y-99535232D01*
X123824667Y-99477427D01*
X123824668Y-99477424D01*
X123825449Y-99476494D01*
X123836018Y-99459904D01*
X123836534Y-99458797D01*
X123836539Y-99458791D01*
X123868445Y-99390366D01*
X123869958Y-99387241D01*
X123903824Y-99319811D01*
X123903824Y-99319809D01*
X123904374Y-99318715D01*
X123910829Y-99300143D01*
X123911076Y-99298946D01*
X123911079Y-99298940D01*
X123926339Y-99225027D01*
X123927115Y-99221533D01*
X123944500Y-99148188D01*
X123944500Y-99148183D01*
X123944780Y-99147002D01*
X123946780Y-99127426D01*
X123946744Y-99126213D01*
X123946746Y-99126207D01*
X123944552Y-99050820D01*
X123944500Y-99047214D01*
X123944500Y-97704900D01*
X123958511Y-97647643D01*
X123997374Y-97603327D01*
X124061401Y-97558495D01*
X124228495Y-97391401D01*
X124364035Y-97197830D01*
X124463903Y-96983663D01*
X124525063Y-96755408D01*
X124545659Y-96520000D01*
X124525063Y-96284592D01*
X124463903Y-96056337D01*
X124364035Y-95842171D01*
X124228495Y-95648599D01*
X124061401Y-95481505D01*
X123867830Y-95345965D01*
X123653663Y-95246097D01*
X123592502Y-95229709D01*
X123425407Y-95184936D01*
X123190000Y-95164340D01*
X122954592Y-95184936D01*
X122726336Y-95246097D01*
X122512170Y-95345965D01*
X122318598Y-95481505D01*
X122151505Y-95648598D01*
X122021575Y-95834159D01*
X121977257Y-95873025D01*
X121920000Y-95887036D01*
X121862743Y-95873025D01*
X121818425Y-95834159D01*
X121726937Y-95703500D01*
X121688495Y-95648599D01*
X121521401Y-95481505D01*
X121327830Y-95345965D01*
X121113663Y-95246097D01*
X121052502Y-95229709D01*
X120885407Y-95184936D01*
X120650000Y-95164340D01*
X120414592Y-95184936D01*
X120186336Y-95246097D01*
X119972170Y-95345965D01*
X119778598Y-95481505D01*
X119611505Y-95648598D01*
X119481575Y-95834159D01*
X119437257Y-95873025D01*
X119380000Y-95887036D01*
X119322743Y-95873025D01*
X119278425Y-95834159D01*
X119186937Y-95703500D01*
X119148495Y-95648599D01*
X118981401Y-95481505D01*
X118787830Y-95345965D01*
X118573663Y-95246097D01*
X118512502Y-95229709D01*
X118345407Y-95184936D01*
X118110000Y-95164340D01*
X117874592Y-95184936D01*
X117646336Y-95246097D01*
X117432170Y-95345965D01*
X117238598Y-95481505D01*
X117071508Y-95648595D01*
X116941269Y-95834596D01*
X116896951Y-95873461D01*
X116839694Y-95887472D01*
X116782437Y-95873461D01*
X116738119Y-95834595D01*
X116608109Y-95648921D01*
X116441081Y-95481893D01*
X116247576Y-95346399D01*
X116033492Y-95246569D01*
X115820000Y-95189364D01*
X115820000Y-97850635D01*
X115320000Y-97850635D01*
X115320000Y-95189364D01*
X115319999Y-95189364D01*
X115106507Y-95246569D01*
X114892421Y-95346400D01*
X114698924Y-95481888D01*
X114576865Y-95603947D01*
X114524118Y-95635242D01*
X114462825Y-95637431D01*
X114407981Y-95609978D01*
X114373002Y-95559598D01*
X114323796Y-95427669D01*
X114237546Y-95312454D01*
X114122331Y-95226204D01*
X113987483Y-95175909D01*
X113927873Y-95169500D01*
X113927869Y-95169500D01*
X112132130Y-95169500D01*
X112072515Y-95175909D01*
X111937669Y-95226204D01*
X111822454Y-95312454D01*
X111736204Y-95427668D01*
X111685909Y-95562515D01*
X111685909Y-95562517D01*
X111680807Y-95609978D01*
X111679500Y-95622131D01*
X111679500Y-95641500D01*
X111662887Y-95703500D01*
X111617500Y-95748887D01*
X111555500Y-95765500D01*
X108948886Y-95765500D01*
X108901433Y-95756061D01*
X108861205Y-95729181D01*
X106669660Y-93537636D01*
X106638144Y-93484134D01*
X106636519Y-93422060D01*
X106665190Y-93366984D01*
X106684985Y-93345000D01*
X123554540Y-93345000D01*
X123574326Y-93533257D01*
X123632820Y-93713284D01*
X123727466Y-93877216D01*
X123854129Y-94017889D01*
X124007269Y-94129151D01*
X124180197Y-94206144D01*
X124365352Y-94245500D01*
X124365354Y-94245500D01*
X124554646Y-94245500D01*
X124554648Y-94245500D01*
X124681860Y-94218460D01*
X124739803Y-94206144D01*
X124912730Y-94129151D01*
X125065871Y-94017888D01*
X125192533Y-93877216D01*
X125287179Y-93713284D01*
X125294568Y-93690541D01*
X125327616Y-93638467D01*
X125381662Y-93608755D01*
X125443338Y-93608755D01*
X125497384Y-93638467D01*
X125530431Y-93690541D01*
X125537820Y-93713284D01*
X125632466Y-93877216D01*
X125759129Y-94017889D01*
X125912269Y-94129151D01*
X126085193Y-94206143D01*
X126085196Y-94206143D01*
X126085197Y-94206144D01*
X126143149Y-94218462D01*
X126176532Y-94230777D01*
X126205046Y-94252070D01*
X128961234Y-97008258D01*
X128973015Y-97021890D01*
X128987460Y-97041293D01*
X129025634Y-97073325D01*
X129033608Y-97080632D01*
X129037559Y-97084583D01*
X129057967Y-97100720D01*
X129062011Y-97103917D01*
X129064805Y-97106193D01*
X129122573Y-97154667D01*
X129122575Y-97154668D01*
X129123507Y-97155450D01*
X129140101Y-97166022D01*
X129141207Y-97166538D01*
X129141209Y-97166539D01*
X129209584Y-97198422D01*
X129212775Y-97199968D01*
X129281282Y-97234373D01*
X129299873Y-97240834D01*
X129301060Y-97241079D01*
X129374938Y-97256333D01*
X129378411Y-97257103D01*
X129451812Y-97274500D01*
X129451814Y-97274500D01*
X129452995Y-97274780D01*
X129472574Y-97276781D01*
X129473791Y-97276745D01*
X129473794Y-97276746D01*
X129544669Y-97274683D01*
X129549196Y-97274552D01*
X129552802Y-97274500D01*
X131875501Y-97274500D01*
X131937501Y-97291113D01*
X131982888Y-97336500D01*
X131999501Y-97398500D01*
X131999501Y-97417872D01*
X132001498Y-97436447D01*
X132005909Y-97477484D01*
X132031056Y-97544906D01*
X132056204Y-97612331D01*
X132142454Y-97727546D01*
X132257669Y-97813796D01*
X132389598Y-97863002D01*
X132439978Y-97897981D01*
X132467431Y-97952825D01*
X132465242Y-98014118D01*
X132433947Y-98066865D01*
X132311888Y-98188924D01*
X132176400Y-98382421D01*
X132076569Y-98596507D01*
X132019364Y-98809999D01*
X132019364Y-98810000D01*
X134680636Y-98810000D01*
X134680635Y-98809999D01*
X134623430Y-98596507D01*
X134523599Y-98382421D01*
X134388109Y-98188921D01*
X134266053Y-98066865D01*
X134234757Y-98014119D01*
X134232568Y-97952826D01*
X134260021Y-97897981D01*
X134310398Y-97863003D01*
X134442331Y-97813796D01*
X134557546Y-97727546D01*
X134643796Y-97612331D01*
X134694091Y-97477483D01*
X134700500Y-97417873D01*
X134700499Y-96520000D01*
X144444551Y-96520000D01*
X144464317Y-96771149D01*
X144523126Y-97016110D01*
X144551489Y-97084583D01*
X144619534Y-97248859D01*
X144751164Y-97463659D01*
X144914776Y-97655224D01*
X145106341Y-97818836D01*
X145321141Y-97950466D01*
X145553889Y-98046873D01*
X145798852Y-98105683D01*
X146050000Y-98125449D01*
X146301148Y-98105683D01*
X146546111Y-98046873D01*
X146778859Y-97950466D01*
X146993659Y-97818836D01*
X147185224Y-97655224D01*
X147348836Y-97463659D01*
X147480466Y-97248859D01*
X147576873Y-97016111D01*
X147635683Y-96771148D01*
X147655449Y-96520000D01*
X152064551Y-96520000D01*
X152084317Y-96771149D01*
X152143126Y-97016110D01*
X152171489Y-97084583D01*
X152239534Y-97248859D01*
X152371164Y-97463659D01*
X152534776Y-97655224D01*
X152726341Y-97818836D01*
X152941141Y-97950466D01*
X153173889Y-98046873D01*
X153418852Y-98105683D01*
X153670000Y-98125449D01*
X153921148Y-98105683D01*
X154166111Y-98046873D01*
X154398859Y-97950466D01*
X154613659Y-97818836D01*
X154647423Y-97789999D01*
X192807367Y-97789999D01*
X192827861Y-98037320D01*
X192888786Y-98277905D01*
X192988474Y-98505174D01*
X193088370Y-98658075D01*
X193956447Y-97790001D01*
X194663553Y-97790001D01*
X195531628Y-98658076D01*
X195631524Y-98505174D01*
X195731214Y-98277905D01*
X195792138Y-98037320D01*
X195812632Y-97789999D01*
X195792138Y-97542679D01*
X195731213Y-97302094D01*
X195631526Y-97074828D01*
X195531628Y-96921922D01*
X194663553Y-97790000D01*
X194663553Y-97790001D01*
X193956447Y-97790001D01*
X193956447Y-97790000D01*
X193088370Y-96921923D01*
X192988474Y-97074826D01*
X192888785Y-97302094D01*
X192827861Y-97542679D01*
X192807367Y-97789999D01*
X154647423Y-97789999D01*
X154805224Y-97655224D01*
X154968836Y-97463659D01*
X155100466Y-97248859D01*
X155196873Y-97016111D01*
X155255683Y-96771148D01*
X155271658Y-96568171D01*
X193441723Y-96568171D01*
X194310000Y-97436447D01*
X194310001Y-97436447D01*
X195178274Y-96568171D01*
X195178274Y-96568169D01*
X195131863Y-96532047D01*
X194913598Y-96413929D01*
X194678877Y-96333348D01*
X194434085Y-96292500D01*
X194185915Y-96292500D01*
X193941122Y-96333348D01*
X193706401Y-96413929D01*
X193488136Y-96532047D01*
X193441724Y-96568170D01*
X193441723Y-96568171D01*
X155271658Y-96568171D01*
X155275449Y-96520000D01*
X155255683Y-96268852D01*
X155214634Y-96097869D01*
X165806849Y-96097869D01*
X165813258Y-96157483D01*
X165863553Y-96292331D01*
X165949803Y-96407546D01*
X166065018Y-96493796D01*
X166199866Y-96544091D01*
X166259476Y-96550500D01*
X167955221Y-96550499D01*
X168014832Y-96544091D01*
X168149680Y-96493796D01*
X168264895Y-96407546D01*
X168323675Y-96329026D01*
X170181875Y-96329026D01*
X170254864Y-96380133D01*
X170461022Y-96476266D01*
X170680746Y-96535141D01*
X170907349Y-96554966D01*
X171133951Y-96535141D01*
X171353675Y-96476266D01*
X171559829Y-96380134D01*
X171632821Y-96329025D01*
X170907350Y-95603553D01*
X170907349Y-95603553D01*
X170181875Y-96329025D01*
X170181875Y-96329026D01*
X168323675Y-96329026D01*
X168351145Y-96292331D01*
X168401440Y-96157483D01*
X168407849Y-96097873D01*
X168407848Y-95250000D01*
X169602382Y-95250000D01*
X169622207Y-95476602D01*
X169681082Y-95696326D01*
X169777215Y-95902484D01*
X169828321Y-95975471D01*
X169828323Y-95975472D01*
X170553795Y-95250001D01*
X170553795Y-95250000D01*
X170553794Y-95249999D01*
X171260902Y-95249999D01*
X171986374Y-95975472D01*
X172037483Y-95902480D01*
X172133615Y-95696326D01*
X172192490Y-95476602D01*
X172212315Y-95250000D01*
X172192490Y-95023397D01*
X172133615Y-94803673D01*
X172037482Y-94597515D01*
X171986374Y-94524526D01*
X171260902Y-95249998D01*
X171260902Y-95249999D01*
X170553794Y-95249999D01*
X169828322Y-94524526D01*
X169828322Y-94524527D01*
X169777214Y-94597516D01*
X169681082Y-94803672D01*
X169622207Y-95023397D01*
X169602382Y-95250000D01*
X168407848Y-95250000D01*
X168407848Y-94402128D01*
X168401440Y-94342517D01*
X168351145Y-94207669D01*
X168323674Y-94170973D01*
X170181875Y-94170973D01*
X170907349Y-94896446D01*
X170907350Y-94896446D01*
X171632821Y-94170974D01*
X171632820Y-94170972D01*
X171559833Y-94119866D01*
X171353675Y-94023733D01*
X171133951Y-93964858D01*
X170907349Y-93945033D01*
X170680746Y-93964858D01*
X170461021Y-94023733D01*
X170254865Y-94119865D01*
X170181876Y-94170973D01*
X170181875Y-94170973D01*
X168323674Y-94170973D01*
X168264895Y-94092454D01*
X168149680Y-94006204D01*
X168014832Y-93955909D01*
X167955222Y-93949500D01*
X167955218Y-93949500D01*
X166259479Y-93949500D01*
X166199864Y-93955909D01*
X166065018Y-94006204D01*
X165949803Y-94092454D01*
X165863553Y-94207668D01*
X165813258Y-94342516D01*
X165806849Y-94402130D01*
X165806849Y-96097869D01*
X155214634Y-96097869D01*
X155196873Y-96023889D01*
X155100466Y-95791141D01*
X154968836Y-95576341D01*
X154805224Y-95384776D01*
X154613659Y-95221164D01*
X154398859Y-95089534D01*
X154239190Y-95023397D01*
X154166110Y-94993126D01*
X153921149Y-94934317D01*
X153670000Y-94914551D01*
X153418850Y-94934317D01*
X153173889Y-94993126D01*
X152941139Y-95089535D01*
X152726342Y-95221163D01*
X152534776Y-95384776D01*
X152371163Y-95576342D01*
X152239535Y-95791139D01*
X152143126Y-96023889D01*
X152084317Y-96268850D01*
X152064551Y-96520000D01*
X147655449Y-96520000D01*
X147635683Y-96268852D01*
X147576873Y-96023889D01*
X147480466Y-95791141D01*
X147348836Y-95576341D01*
X147185224Y-95384776D01*
X146993659Y-95221164D01*
X146778859Y-95089534D01*
X146619190Y-95023397D01*
X146546110Y-94993126D01*
X146301149Y-94934317D01*
X146050000Y-94914551D01*
X145798850Y-94934317D01*
X145553889Y-94993126D01*
X145321139Y-95089535D01*
X145106342Y-95221163D01*
X144914776Y-95384776D01*
X144751163Y-95576342D01*
X144619535Y-95791139D01*
X144523126Y-96023889D01*
X144464317Y-96268850D01*
X144444551Y-96520000D01*
X134700499Y-96520000D01*
X134700499Y-95622128D01*
X134694091Y-95562517D01*
X134643796Y-95427669D01*
X134557546Y-95312454D01*
X134442331Y-95226204D01*
X134307483Y-95175909D01*
X134247873Y-95169500D01*
X134247869Y-95169500D01*
X132452130Y-95169500D01*
X132392515Y-95175909D01*
X132257669Y-95226204D01*
X132142454Y-95312454D01*
X132056204Y-95427668D01*
X132005909Y-95562515D01*
X132005909Y-95562517D01*
X132000807Y-95609978D01*
X131999500Y-95622131D01*
X131999500Y-95641500D01*
X131982887Y-95703500D01*
X131937500Y-95748887D01*
X131875500Y-95765500D01*
X129903886Y-95765500D01*
X129856433Y-95756061D01*
X129816205Y-95729181D01*
X127275049Y-93188025D01*
X127244799Y-93138662D01*
X127197086Y-92991818D01*
X127192544Y-92934102D01*
X127214699Y-92880615D01*
X127258722Y-92843015D01*
X127315017Y-92829500D01*
X131546169Y-92829500D01*
X131584487Y-92835569D01*
X131619050Y-92853179D01*
X131627270Y-92859151D01*
X131627271Y-92859151D01*
X131627272Y-92859152D01*
X131800197Y-92936144D01*
X131985352Y-92975500D01*
X131985354Y-92975500D01*
X132174646Y-92975500D01*
X132174648Y-92975500D01*
X132298084Y-92949262D01*
X132359803Y-92936144D01*
X132532730Y-92859151D01*
X132685871Y-92747888D01*
X132812533Y-92607216D01*
X132907179Y-92443284D01*
X132965674Y-92263256D01*
X132985460Y-92075000D01*
X132965674Y-91886744D01*
X132907179Y-91706716D01*
X132907179Y-91706715D01*
X132812533Y-91542783D01*
X132685870Y-91402110D01*
X132532730Y-91290848D01*
X132359802Y-91213855D01*
X132174648Y-91174500D01*
X132174646Y-91174500D01*
X131985354Y-91174500D01*
X131985352Y-91174500D01*
X131800197Y-91213855D01*
X131627272Y-91290847D01*
X131623701Y-91293441D01*
X131619050Y-91296820D01*
X131584487Y-91314431D01*
X131546169Y-91320500D01*
X125793993Y-91320500D01*
X125776023Y-91319191D01*
X125765639Y-91317670D01*
X125752093Y-91315686D01*
X125752092Y-91315686D01*
X125702459Y-91320028D01*
X125691653Y-91320500D01*
X125686059Y-91320500D01*
X125669055Y-91322487D01*
X125655091Y-91324119D01*
X125651505Y-91324485D01*
X125575177Y-91331162D01*
X125555962Y-91335422D01*
X125483926Y-91361640D01*
X125480524Y-91362822D01*
X125407814Y-91386917D01*
X125390088Y-91395498D01*
X125326067Y-91437604D01*
X125323030Y-91439539D01*
X125257816Y-91479765D01*
X125242543Y-91492206D01*
X125189944Y-91547956D01*
X125187433Y-91550541D01*
X124300046Y-92437928D01*
X124271534Y-92459220D01*
X124238149Y-92471537D01*
X124180197Y-92483856D01*
X124007267Y-92560849D01*
X123854129Y-92672110D01*
X123727466Y-92812783D01*
X123632820Y-92976715D01*
X123574326Y-93156742D01*
X123554540Y-93345000D01*
X106684985Y-93345000D01*
X106777533Y-93242216D01*
X106872179Y-93078284D01*
X106930674Y-92898256D01*
X106950460Y-92710000D01*
X106930674Y-92521744D01*
X106872179Y-92341716D01*
X106872179Y-92341715D01*
X106777533Y-92177783D01*
X106650870Y-92037110D01*
X106497732Y-91925849D01*
X106382445Y-91874520D01*
X106324803Y-91848856D01*
X106302092Y-91844028D01*
X106266850Y-91836537D01*
X106233464Y-91824220D01*
X106204952Y-91802928D01*
X102510049Y-88108025D01*
X102479799Y-88058662D01*
X102427179Y-87896715D01*
X102332533Y-87732783D01*
X102205870Y-87592110D01*
X102089921Y-87507869D01*
X144449500Y-87507869D01*
X144455909Y-87567484D01*
X144471669Y-87609738D01*
X144506204Y-87702331D01*
X144592454Y-87817546D01*
X144707669Y-87903796D01*
X144842517Y-87954091D01*
X144902127Y-87960500D01*
X147197872Y-87960499D01*
X147257483Y-87954091D01*
X147392331Y-87903796D01*
X147507546Y-87817546D01*
X147593796Y-87702331D01*
X147644091Y-87567483D01*
X147650500Y-87507873D01*
X147650500Y-87507869D01*
X152069500Y-87507869D01*
X152075909Y-87567484D01*
X152091669Y-87609738D01*
X152126204Y-87702331D01*
X152212454Y-87817546D01*
X152327669Y-87903796D01*
X152462517Y-87954091D01*
X152522127Y-87960500D01*
X154817872Y-87960499D01*
X154877483Y-87954091D01*
X155012331Y-87903796D01*
X155127546Y-87817546D01*
X155213796Y-87702331D01*
X155264091Y-87567483D01*
X155270500Y-87507873D01*
X155270499Y-85212128D01*
X155264091Y-85152517D01*
X155213796Y-85017669D01*
X155127546Y-84902454D01*
X155012331Y-84816204D01*
X154877483Y-84765909D01*
X154817873Y-84759500D01*
X154817869Y-84759500D01*
X152522130Y-84759500D01*
X152462515Y-84765909D01*
X152327669Y-84816204D01*
X152212454Y-84902454D01*
X152126204Y-85017668D01*
X152075909Y-85152516D01*
X152069500Y-85212130D01*
X152069500Y-87507869D01*
X147650500Y-87507869D01*
X147650499Y-85212128D01*
X147644091Y-85152517D01*
X147593796Y-85017669D01*
X147507546Y-84902454D01*
X147392331Y-84816204D01*
X147257483Y-84765909D01*
X147197873Y-84759500D01*
X147197869Y-84759500D01*
X144902130Y-84759500D01*
X144842515Y-84765909D01*
X144707669Y-84816204D01*
X144592454Y-84902454D01*
X144506204Y-85017668D01*
X144455909Y-85152516D01*
X144449500Y-85212130D01*
X144449500Y-87507869D01*
X102089921Y-87507869D01*
X102052730Y-87480848D01*
X101879802Y-87403855D01*
X101694648Y-87364500D01*
X101694646Y-87364500D01*
X101505354Y-87364500D01*
X101505352Y-87364500D01*
X101320197Y-87403855D01*
X101147269Y-87480848D01*
X100994129Y-87592110D01*
X100867466Y-87732783D01*
X100772820Y-87896715D01*
X100714326Y-88076742D01*
X100694540Y-88265000D01*
X82408057Y-88265000D01*
X82411680Y-87960499D01*
X82415856Y-87609622D01*
X82415878Y-87608353D01*
X82433892Y-86854468D01*
X82433929Y-86853239D01*
X82466493Y-85941479D01*
X82466541Y-85940328D01*
X82498884Y-85263934D01*
X86165668Y-85263934D01*
X86181058Y-85351207D01*
X86196135Y-85436711D01*
X86253967Y-85570782D01*
X86265623Y-85597804D01*
X86370390Y-85738530D01*
X86504783Y-85851300D01*
X86504784Y-85851300D01*
X86504786Y-85851302D01*
X86661567Y-85930040D01*
X86661568Y-85930040D01*
X86661570Y-85930041D01*
X86832277Y-85970500D01*
X86832279Y-85970500D01*
X86963704Y-85970500D01*
X86963709Y-85970500D01*
X87094255Y-85955241D01*
X87259117Y-85895237D01*
X87405696Y-85798830D01*
X87526092Y-85671218D01*
X87613812Y-85519281D01*
X87664130Y-85351210D01*
X87674331Y-85176065D01*
X87643865Y-85003289D01*
X87574377Y-84842196D01*
X87469610Y-84701470D01*
X87469609Y-84701469D01*
X87335216Y-84588699D01*
X87178429Y-84509958D01*
X87007723Y-84469500D01*
X87007721Y-84469500D01*
X86876291Y-84469500D01*
X86794699Y-84479036D01*
X86745742Y-84484759D01*
X86580883Y-84544762D01*
X86434303Y-84641170D01*
X86313908Y-84768780D01*
X86226188Y-84920718D01*
X86226188Y-84920719D01*
X86175870Y-85088790D01*
X86175869Y-85088792D01*
X86175870Y-85088792D01*
X86165668Y-85263934D01*
X82498884Y-85263934D01*
X82502552Y-85187229D01*
X82502611Y-85186124D01*
X82556880Y-84275111D01*
X82556945Y-84274120D01*
X82610950Y-83521912D01*
X82611036Y-83520808D01*
X82621300Y-83397869D01*
X165806849Y-83397869D01*
X165813258Y-83457483D01*
X165863553Y-83592331D01*
X165949803Y-83707546D01*
X166065018Y-83793796D01*
X166199866Y-83844091D01*
X166259476Y-83850500D01*
X167955221Y-83850499D01*
X168014832Y-83844091D01*
X168149680Y-83793796D01*
X168264895Y-83707546D01*
X168323675Y-83629026D01*
X170181875Y-83629026D01*
X170254864Y-83680133D01*
X170461022Y-83776266D01*
X170680746Y-83835141D01*
X170907349Y-83854966D01*
X171133951Y-83835141D01*
X171353675Y-83776266D01*
X171559829Y-83680134D01*
X171632821Y-83629025D01*
X170907350Y-82903553D01*
X170907349Y-82903553D01*
X170181875Y-83629025D01*
X170181875Y-83629026D01*
X168323675Y-83629026D01*
X168351145Y-83592331D01*
X168401440Y-83457483D01*
X168407849Y-83397873D01*
X168407848Y-82550000D01*
X169602382Y-82550000D01*
X169622207Y-82776602D01*
X169681082Y-82996326D01*
X169777215Y-83202484D01*
X169828321Y-83275471D01*
X169828323Y-83275472D01*
X170553795Y-82550001D01*
X171260902Y-82550001D01*
X171986374Y-83275472D01*
X172037483Y-83202480D01*
X172133615Y-82996326D01*
X172192490Y-82776602D01*
X172212315Y-82550000D01*
X172192490Y-82323397D01*
X172133615Y-82103673D01*
X172037482Y-81897515D01*
X171986374Y-81824526D01*
X171260902Y-82550000D01*
X171260902Y-82550001D01*
X170553795Y-82550001D01*
X170553795Y-82550000D01*
X169828322Y-81824526D01*
X169828322Y-81824527D01*
X169777214Y-81897516D01*
X169681082Y-82103672D01*
X169622207Y-82323397D01*
X169602382Y-82550000D01*
X168407848Y-82550000D01*
X168407848Y-81702128D01*
X168401440Y-81642517D01*
X168351145Y-81507669D01*
X168323674Y-81470973D01*
X170181875Y-81470973D01*
X170907349Y-82196446D01*
X170907350Y-82196446D01*
X171632821Y-81470974D01*
X171632820Y-81470972D01*
X171559833Y-81419866D01*
X171353675Y-81323733D01*
X171133951Y-81264858D01*
X170907349Y-81245033D01*
X170680746Y-81264858D01*
X170461021Y-81323733D01*
X170254865Y-81419865D01*
X170181876Y-81470973D01*
X170181875Y-81470973D01*
X168323674Y-81470973D01*
X168264895Y-81392454D01*
X168149680Y-81306204D01*
X168014832Y-81255909D01*
X167955222Y-81249500D01*
X167955218Y-81249500D01*
X166259479Y-81249500D01*
X166199864Y-81255909D01*
X166065018Y-81306204D01*
X165949803Y-81392454D01*
X165863553Y-81507668D01*
X165813258Y-81642516D01*
X165806849Y-81702130D01*
X165806849Y-83397869D01*
X82621300Y-83397869D01*
X82686948Y-82611596D01*
X82687055Y-82610408D01*
X82759000Y-81859832D01*
X82759113Y-81858720D01*
X82856653Y-80951467D01*
X82856800Y-80950185D01*
X82946643Y-80201635D01*
X82946764Y-80200671D01*
X83001439Y-79785369D01*
X145822000Y-79785369D01*
X145828409Y-79844984D01*
X145853556Y-79912406D01*
X145878704Y-79979831D01*
X145964954Y-80095046D01*
X146080169Y-80181296D01*
X146215017Y-80231591D01*
X146274627Y-80238000D01*
X148365372Y-80237999D01*
X148424983Y-80231591D01*
X148559831Y-80181296D01*
X148675046Y-80095046D01*
X148761296Y-79979831D01*
X148761296Y-79979828D01*
X148771980Y-79965558D01*
X148772404Y-79965876D01*
X148791237Y-79937834D01*
X148841490Y-79909683D01*
X148899040Y-79907275D01*
X148951467Y-79931128D01*
X149037864Y-79998373D01*
X149256198Y-80116530D01*
X149373600Y-80156834D01*
X149490998Y-80197137D01*
X149491000Y-80197137D01*
X149491002Y-80197138D01*
X149735872Y-80238000D01*
X149984127Y-80238000D01*
X149984128Y-80238000D01*
X150228998Y-80197138D01*
X150463802Y-80116530D01*
X150682136Y-79998373D01*
X150729088Y-79961829D01*
X151531724Y-79961829D01*
X151578134Y-79997951D01*
X151796401Y-80116070D01*
X152031122Y-80196651D01*
X152275915Y-80237500D01*
X152524085Y-80237500D01*
X152768877Y-80196651D01*
X153003598Y-80116070D01*
X153221861Y-79997952D01*
X153268274Y-79961827D01*
X152400000Y-79093553D01*
X151531724Y-79961827D01*
X151531724Y-79961829D01*
X150729088Y-79961829D01*
X150878045Y-79845892D01*
X151046184Y-79663244D01*
X151046958Y-79662058D01*
X151048576Y-79660644D01*
X151053143Y-79655684D01*
X151053683Y-79656181D01*
X151097460Y-79617921D01*
X151163561Y-79606540D01*
X151178370Y-79608075D01*
X152046447Y-78740001D01*
X152753553Y-78740001D01*
X153621628Y-79608076D01*
X153721524Y-79455174D01*
X153821214Y-79227905D01*
X153882138Y-78987320D01*
X153902632Y-78740000D01*
X153882138Y-78492679D01*
X153821213Y-78252094D01*
X153721526Y-78024828D01*
X153621628Y-77871922D01*
X152753553Y-78740000D01*
X152753553Y-78740001D01*
X152046447Y-78740001D01*
X152046447Y-78740000D01*
X151178370Y-77871922D01*
X151163558Y-77873459D01*
X151097460Y-77862077D01*
X151053683Y-77823818D01*
X151053143Y-77824316D01*
X151048572Y-77819350D01*
X151046958Y-77817940D01*
X151046186Y-77816759D01*
X151046185Y-77816758D01*
X151046184Y-77816756D01*
X150954723Y-77717403D01*
X150878045Y-77634107D01*
X150729089Y-77518171D01*
X151531723Y-77518171D01*
X152400000Y-78386447D01*
X152400001Y-78386447D01*
X153268274Y-77518171D01*
X153268274Y-77518169D01*
X153221863Y-77482047D01*
X153199602Y-77470000D01*
X192806865Y-77470000D01*
X192827366Y-77717403D01*
X192827366Y-77717406D01*
X192827367Y-77717408D01*
X192866884Y-77873459D01*
X192888311Y-77958069D01*
X192988031Y-78185410D01*
X192988033Y-78185413D01*
X193119375Y-78386447D01*
X193120666Y-78388422D01*
X193139801Y-78440096D01*
X193134659Y-78494958D01*
X193106254Y-78542175D01*
X193083679Y-78557001D01*
X193084442Y-78558020D01*
X193070170Y-78568703D01*
X193070169Y-78568704D01*
X192954954Y-78654953D01*
X192954954Y-78654954D01*
X192868704Y-78770168D01*
X192818409Y-78905015D01*
X192818409Y-78905017D01*
X192814860Y-78938032D01*
X192812000Y-78964630D01*
X192812000Y-81055369D01*
X192816494Y-81097172D01*
X192818409Y-81114983D01*
X192868704Y-81249831D01*
X192954954Y-81365046D01*
X193070169Y-81451296D01*
X193205017Y-81501591D01*
X193264627Y-81508000D01*
X195355372Y-81507999D01*
X195414983Y-81501591D01*
X195549831Y-81451296D01*
X195665046Y-81365046D01*
X195751296Y-81249831D01*
X195801591Y-81114983D01*
X195808000Y-81055373D01*
X195807999Y-78964628D01*
X195801591Y-78905017D01*
X195751296Y-78770169D01*
X195665046Y-78654954D01*
X195549831Y-78568704D01*
X195549828Y-78568703D01*
X195535558Y-78558020D01*
X195536320Y-78557001D01*
X195513746Y-78542175D01*
X195485341Y-78494958D01*
X195480199Y-78440096D01*
X195499334Y-78388422D01*
X195631967Y-78185413D01*
X195731690Y-77958067D01*
X195792633Y-77717408D01*
X195813134Y-77470000D01*
X195792633Y-77222592D01*
X195731690Y-76981933D01*
X195631967Y-76754587D01*
X195631966Y-76754585D01*
X195496186Y-76546758D01*
X195328045Y-76364107D01*
X195224262Y-76283331D01*
X195187389Y-76236458D01*
X195176662Y-76177793D01*
X195178274Y-76151827D01*
X194310000Y-75283553D01*
X193441724Y-76151827D01*
X193443336Y-76177794D01*
X193432609Y-76236458D01*
X193395737Y-76283330D01*
X193291955Y-76364106D01*
X193123813Y-76546758D01*
X192988033Y-76754585D01*
X192888311Y-76981930D01*
X192827366Y-77222596D01*
X192806865Y-77470000D01*
X153199602Y-77470000D01*
X153003598Y-77363929D01*
X152768877Y-77283348D01*
X152524085Y-77242500D01*
X152275915Y-77242500D01*
X152031122Y-77283348D01*
X151796401Y-77363929D01*
X151578136Y-77482047D01*
X151531724Y-77518170D01*
X151531723Y-77518171D01*
X150729089Y-77518171D01*
X150705958Y-77500168D01*
X150682136Y-77481627D01*
X150463802Y-77363470D01*
X150463798Y-77363468D01*
X150463797Y-77363468D01*
X150229001Y-77282862D01*
X150045345Y-77252215D01*
X149984128Y-77242000D01*
X149735872Y-77242000D01*
X149686897Y-77250172D01*
X149490998Y-77282862D01*
X149256202Y-77363468D01*
X149256198Y-77363469D01*
X149256198Y-77363470D01*
X149037864Y-77481627D01*
X149037862Y-77481627D01*
X149037859Y-77481630D01*
X148951468Y-77548870D01*
X148899040Y-77572724D01*
X148841491Y-77570316D01*
X148791239Y-77542167D01*
X148772405Y-77514123D01*
X148771980Y-77514442D01*
X148761296Y-77500171D01*
X148761296Y-77500169D01*
X148675046Y-77384954D01*
X148559831Y-77298704D01*
X148424983Y-77248409D01*
X148365373Y-77242000D01*
X148365369Y-77242000D01*
X146274630Y-77242000D01*
X146215015Y-77248409D01*
X146080169Y-77298704D01*
X145964954Y-77384954D01*
X145878704Y-77500168D01*
X145828409Y-77635016D01*
X145822000Y-77694630D01*
X145822000Y-79785369D01*
X83001439Y-79785369D01*
X83065889Y-79295825D01*
X83066036Y-79294763D01*
X83173763Y-78548377D01*
X83173885Y-78547563D01*
X83314526Y-77645704D01*
X83314701Y-77644630D01*
X83440207Y-76901155D01*
X83440375Y-76900186D01*
X83602440Y-76001921D01*
X83602632Y-76000899D01*
X83745844Y-75260726D01*
X83746065Y-75259621D01*
X83813672Y-74930000D01*
X192807367Y-74930000D01*
X192827861Y-75177320D01*
X192888786Y-75417905D01*
X192988474Y-75645174D01*
X193088370Y-75798075D01*
X193956447Y-74930001D01*
X194663553Y-74930001D01*
X195531628Y-75798076D01*
X195631524Y-75645174D01*
X195731214Y-75417905D01*
X195792138Y-75177320D01*
X195812632Y-74930000D01*
X195792138Y-74682679D01*
X195731213Y-74442094D01*
X195631526Y-74214828D01*
X195531628Y-74061922D01*
X194663553Y-74930000D01*
X194663553Y-74930001D01*
X193956447Y-74930001D01*
X193956447Y-74930000D01*
X193088370Y-74061923D01*
X192988474Y-74214826D01*
X192888785Y-74442094D01*
X192827861Y-74682679D01*
X192807367Y-74930000D01*
X83813672Y-74930000D01*
X83929413Y-74365698D01*
X83929680Y-74364434D01*
X84073002Y-73708171D01*
X193441723Y-73708171D01*
X194310000Y-74576447D01*
X194310001Y-74576447D01*
X195178274Y-73708171D01*
X195178274Y-73708169D01*
X195131863Y-73672047D01*
X194913598Y-73553929D01*
X194678877Y-73473348D01*
X194434085Y-73432500D01*
X194185915Y-73432500D01*
X193941122Y-73473348D01*
X193706401Y-73553929D01*
X193488136Y-73672047D01*
X193441724Y-73708170D01*
X193441723Y-73708171D01*
X84073002Y-73708171D01*
X84090560Y-73627772D01*
X84090705Y-73627126D01*
X84295385Y-72737336D01*
X84295609Y-72736390D01*
X84379975Y-72390000D01*
X196354678Y-72390000D01*
X196373923Y-72597698D01*
X196431005Y-72798319D01*
X196523978Y-72985035D01*
X196649682Y-73151494D01*
X196803826Y-73292014D01*
X196803828Y-73292015D01*
X196803829Y-73292016D01*
X196981172Y-73401823D01*
X197102746Y-73448920D01*
X197145632Y-73476866D01*
X204013885Y-80345119D01*
X204045470Y-80398864D01*
X204051006Y-80418321D01*
X204143978Y-80605035D01*
X204269682Y-80771494D01*
X204423826Y-80912014D01*
X204423828Y-80912015D01*
X204423829Y-80912016D01*
X204601172Y-81021823D01*
X204795673Y-81097173D01*
X205000707Y-81135500D01*
X205209291Y-81135500D01*
X205209293Y-81135500D01*
X205414327Y-81097173D01*
X205608828Y-81021823D01*
X205786171Y-80912016D01*
X205940318Y-80771493D01*
X206066019Y-80605038D01*
X206066019Y-80605036D01*
X206066021Y-80605035D01*
X206158994Y-80418319D01*
X206216076Y-80217698D01*
X206227441Y-80095045D01*
X206235322Y-80010000D01*
X206220031Y-79844983D01*
X206216076Y-79802301D01*
X206158994Y-79601680D01*
X206066021Y-79414964D01*
X205940317Y-79248505D01*
X205786173Y-79107985D01*
X205608827Y-78998176D01*
X205538600Y-78970970D01*
X205487254Y-78951078D01*
X205444368Y-78923134D01*
X198576113Y-72054879D01*
X198544528Y-72001131D01*
X198538994Y-71981681D01*
X198507832Y-71919100D01*
X198446021Y-71794964D01*
X198320317Y-71628505D01*
X198166173Y-71487985D01*
X197988827Y-71378176D01*
X197794328Y-71302827D01*
X197725982Y-71290051D01*
X197589293Y-71264500D01*
X197380707Y-71264500D01*
X197278189Y-71283663D01*
X197175671Y-71302827D01*
X196981172Y-71378176D01*
X196803826Y-71487985D01*
X196649682Y-71628505D01*
X196523978Y-71794964D01*
X196431005Y-71981680D01*
X196373923Y-72182301D01*
X196354678Y-72390000D01*
X84379975Y-72390000D01*
X84474053Y-72003731D01*
X84474201Y-72003137D01*
X84699980Y-71118542D01*
X84700302Y-71117312D01*
X84896115Y-70389428D01*
X84896324Y-70388666D01*
X84977366Y-70100000D01*
X89691633Y-70100000D01*
X89709619Y-70207792D01*
X89787780Y-70435460D01*
X89902348Y-70647164D01*
X90050201Y-70837126D01*
X90227292Y-71000151D01*
X90428819Y-71131815D01*
X90649255Y-71228506D01*
X90882611Y-71287600D01*
X91062418Y-71302500D01*
X91825000Y-71302500D01*
X91825000Y-70100000D01*
X92325000Y-70100000D01*
X92325000Y-71302500D01*
X93087582Y-71302500D01*
X93267388Y-71287600D01*
X93500744Y-71228506D01*
X93721180Y-71131815D01*
X93922707Y-71000151D01*
X94099798Y-70837126D01*
X94247651Y-70647164D01*
X94362219Y-70435460D01*
X94440380Y-70207792D01*
X94458367Y-70100000D01*
X92325000Y-70100000D01*
X91825000Y-70100000D01*
X89691633Y-70100000D01*
X84977366Y-70100000D01*
X85117739Y-69599999D01*
X89691633Y-69599999D01*
X89691634Y-69600000D01*
X91825000Y-69600000D01*
X91825000Y-68397500D01*
X92325000Y-68397500D01*
X92325000Y-69600000D01*
X94458366Y-69600000D01*
X94458366Y-69599999D01*
X94440380Y-69492207D01*
X94362219Y-69264539D01*
X94247651Y-69052835D01*
X94099798Y-68862873D01*
X93922707Y-68699848D01*
X93721180Y-68568184D01*
X93500744Y-68471493D01*
X93267388Y-68412399D01*
X93087582Y-68397500D01*
X92325000Y-68397500D01*
X91825000Y-68397500D01*
X91062418Y-68397500D01*
X90882611Y-68412399D01*
X90649255Y-68471493D01*
X90428819Y-68568184D01*
X90227292Y-68699848D01*
X90050201Y-68862873D01*
X89902348Y-69052835D01*
X89787780Y-69264539D01*
X89709619Y-69492207D01*
X89691633Y-69599999D01*
X85117739Y-69599999D01*
X85143135Y-69509541D01*
X85143464Y-69508396D01*
X85356544Y-68785617D01*
X85356777Y-68784841D01*
X85624457Y-67911777D01*
X85624828Y-67910592D01*
X85855158Y-67192972D01*
X85855364Y-67192343D01*
X86143734Y-66325930D01*
X86144157Y-66324685D01*
X86391470Y-65613036D01*
X86391780Y-65612161D01*
X86700786Y-64752579D01*
X86701138Y-64751621D01*
X86965341Y-64046191D01*
X86965617Y-64045465D01*
X87295084Y-63193242D01*
X87295500Y-63192188D01*
X87576412Y-62493438D01*
X87576713Y-62492699D01*
X87926384Y-61648520D01*
X87926862Y-61647388D01*
X88224341Y-60955651D01*
X88224613Y-60955028D01*
X88409156Y-60537869D01*
X182316849Y-60537869D01*
X182323258Y-60597483D01*
X182373553Y-60732331D01*
X182459803Y-60847546D01*
X182575018Y-60933796D01*
X182709866Y-60984091D01*
X182769476Y-60990500D01*
X184465221Y-60990499D01*
X184524832Y-60984091D01*
X184659680Y-60933796D01*
X184774895Y-60847546D01*
X184833675Y-60769026D01*
X186691875Y-60769026D01*
X186764864Y-60820133D01*
X186971022Y-60916266D01*
X187190746Y-60975141D01*
X187417349Y-60994966D01*
X187643951Y-60975141D01*
X187863675Y-60916266D01*
X188069829Y-60820134D01*
X188142821Y-60769025D01*
X187417350Y-60043553D01*
X187417349Y-60043553D01*
X186691875Y-60769025D01*
X186691875Y-60769026D01*
X184833675Y-60769026D01*
X184861145Y-60732331D01*
X184911440Y-60597483D01*
X184917849Y-60537873D01*
X184917848Y-59689999D01*
X186112382Y-59689999D01*
X186132207Y-59916602D01*
X186191082Y-60136326D01*
X186287215Y-60342484D01*
X186338321Y-60415471D01*
X186338323Y-60415472D01*
X187063795Y-59690001D01*
X187770902Y-59690001D01*
X188496374Y-60415472D01*
X188547483Y-60342480D01*
X188643615Y-60136326D01*
X188702490Y-59916602D01*
X188722315Y-59689999D01*
X188702490Y-59463397D01*
X188643615Y-59243673D01*
X188547482Y-59037515D01*
X188496374Y-58964526D01*
X187770902Y-59690000D01*
X187770902Y-59690001D01*
X187063795Y-59690001D01*
X187063795Y-59690000D01*
X186338322Y-58964526D01*
X186338322Y-58964527D01*
X186287214Y-59037516D01*
X186191082Y-59243672D01*
X186132207Y-59463397D01*
X186112382Y-59689999D01*
X184917848Y-59689999D01*
X184917848Y-58842128D01*
X184911440Y-58782517D01*
X184861145Y-58647669D01*
X184833674Y-58610973D01*
X186691875Y-58610973D01*
X187417349Y-59336446D01*
X187417350Y-59336446D01*
X188142821Y-58610974D01*
X188142820Y-58610972D01*
X188069833Y-58559866D01*
X187863675Y-58463733D01*
X187643951Y-58404858D01*
X187417349Y-58385033D01*
X187190746Y-58404858D01*
X186971021Y-58463733D01*
X186764865Y-58559865D01*
X186691876Y-58610973D01*
X186691875Y-58610973D01*
X184833674Y-58610973D01*
X184774895Y-58532454D01*
X184659680Y-58446204D01*
X184524832Y-58395909D01*
X184465222Y-58389500D01*
X184465218Y-58389500D01*
X182769479Y-58389500D01*
X182709864Y-58395909D01*
X182575018Y-58446204D01*
X182459803Y-58532454D01*
X182373553Y-58647668D01*
X182323258Y-58782516D01*
X182316849Y-58842130D01*
X182316849Y-60537869D01*
X88409156Y-60537869D01*
X88594332Y-60119277D01*
X88594881Y-60118059D01*
X88908708Y-59433825D01*
X88908993Y-59433211D01*
X89298536Y-58606413D01*
X89299152Y-58605128D01*
X89629064Y-57928934D01*
X89629533Y-57927985D01*
X90038687Y-57110601D01*
X90039292Y-57109411D01*
X90385233Y-56441351D01*
X90385519Y-56440804D01*
X90814237Y-55632958D01*
X90814938Y-55631660D01*
X91176534Y-54972429D01*
X91177006Y-54971578D01*
X91624801Y-54174210D01*
X91625431Y-54173105D01*
X92002837Y-53522414D01*
X92003042Y-53522065D01*
X92469900Y-52735216D01*
X92470565Y-52734113D01*
X92863279Y-52092832D01*
X92863545Y-52092402D01*
X92877568Y-52070000D01*
X158984564Y-52070000D01*
X158986060Y-52092832D01*
X159004287Y-52370926D01*
X159063119Y-52666689D01*
X159160054Y-52952252D01*
X159293433Y-53222717D01*
X159293434Y-53222718D01*
X159460975Y-53473461D01*
X159659811Y-53700189D01*
X159884540Y-53897272D01*
X159886539Y-53899025D01*
X160137282Y-54066566D01*
X160407747Y-54199945D01*
X160550528Y-54248412D01*
X160693309Y-54296880D01*
X160792802Y-54316670D01*
X160989073Y-54355712D01*
X160989075Y-54355712D01*
X160989080Y-54355713D01*
X161290000Y-54375436D01*
X161590920Y-54355713D01*
X161590924Y-54355712D01*
X161590926Y-54355712D01*
X161687703Y-54336461D01*
X161886691Y-54296880D01*
X162172252Y-54199945D01*
X162442718Y-54066566D01*
X162693461Y-53899025D01*
X162920189Y-53700189D01*
X163119025Y-53473461D01*
X163286566Y-53222718D01*
X163419945Y-52952252D01*
X163516880Y-52666691D01*
X163575713Y-52370920D01*
X163595436Y-52070000D01*
X169144564Y-52070000D01*
X169146060Y-52092832D01*
X169164287Y-52370926D01*
X169223119Y-52666689D01*
X169320054Y-52952252D01*
X169453433Y-53222717D01*
X169453434Y-53222718D01*
X169620975Y-53473461D01*
X169819811Y-53700189D01*
X170044540Y-53897272D01*
X170046539Y-53899025D01*
X170297282Y-54066566D01*
X170567747Y-54199945D01*
X170710528Y-54248412D01*
X170853309Y-54296880D01*
X170952802Y-54316670D01*
X171149073Y-54355712D01*
X171149075Y-54355712D01*
X171149080Y-54355713D01*
X171450000Y-54375436D01*
X171750920Y-54355713D01*
X171750924Y-54355712D01*
X171750926Y-54355712D01*
X171847703Y-54336461D01*
X172046691Y-54296880D01*
X172332252Y-54199945D01*
X172602718Y-54066566D01*
X172853461Y-53899025D01*
X173080189Y-53700189D01*
X173279025Y-53473461D01*
X173446566Y-53222718D01*
X173579945Y-52952252D01*
X173676880Y-52666691D01*
X173735713Y-52370920D01*
X173755436Y-52070000D01*
X173735713Y-51769080D01*
X173701516Y-51597164D01*
X173676880Y-51473310D01*
X173579945Y-51187747D01*
X173512015Y-51050000D01*
X200816633Y-51050000D01*
X200834619Y-51157792D01*
X200912780Y-51385460D01*
X201027348Y-51597164D01*
X201175201Y-51787126D01*
X201352292Y-51950151D01*
X201553819Y-52081815D01*
X201774255Y-52178506D01*
X202007611Y-52237600D01*
X202187418Y-52252500D01*
X202950000Y-52252500D01*
X202950000Y-51050000D01*
X203450000Y-51050000D01*
X203450000Y-52252500D01*
X204212582Y-52252500D01*
X204392388Y-52237600D01*
X204625744Y-52178506D01*
X204846180Y-52081815D01*
X205047707Y-51950151D01*
X205224798Y-51787126D01*
X205372651Y-51597164D01*
X205487219Y-51385460D01*
X205565380Y-51157792D01*
X205583367Y-51050000D01*
X203450000Y-51050000D01*
X202950000Y-51050000D01*
X200816633Y-51050000D01*
X173512015Y-51050000D01*
X173446566Y-50917282D01*
X173279025Y-50666539D01*
X173279024Y-50666538D01*
X173176822Y-50549999D01*
X200816633Y-50549999D01*
X200816634Y-50550000D01*
X202950000Y-50550000D01*
X202950000Y-49347500D01*
X203450000Y-49347500D01*
X203450000Y-50550000D01*
X205583366Y-50550000D01*
X205583366Y-50549999D01*
X205565380Y-50442207D01*
X205487219Y-50214539D01*
X205372651Y-50002835D01*
X205224798Y-49812873D01*
X205047707Y-49649848D01*
X204846180Y-49518184D01*
X204625744Y-49421493D01*
X204392388Y-49362399D01*
X204212582Y-49347500D01*
X203450000Y-49347500D01*
X202950000Y-49347500D01*
X202187418Y-49347500D01*
X202007611Y-49362399D01*
X201774255Y-49421493D01*
X201553819Y-49518184D01*
X201352292Y-49649848D01*
X201175201Y-49812873D01*
X201027348Y-50002835D01*
X200912780Y-50214539D01*
X200834619Y-50442207D01*
X200816633Y-50549999D01*
X173176822Y-50549999D01*
X173080189Y-50439811D01*
X172853461Y-50240975D01*
X172674139Y-50121156D01*
X172602717Y-50073433D01*
X172332252Y-49940054D01*
X172046689Y-49843119D01*
X171750926Y-49784287D01*
X171450000Y-49764564D01*
X171149073Y-49784287D01*
X170853310Y-49843119D01*
X170567747Y-49940054D01*
X170297282Y-50073433D01*
X170046539Y-50240974D01*
X169819811Y-50439811D01*
X169620974Y-50666539D01*
X169453433Y-50917282D01*
X169320054Y-51187747D01*
X169223119Y-51473310D01*
X169164287Y-51769073D01*
X169164287Y-51769080D01*
X169144564Y-52070000D01*
X163595436Y-52070000D01*
X163575713Y-51769080D01*
X163541516Y-51597164D01*
X163516880Y-51473310D01*
X163419945Y-51187747D01*
X163286566Y-50917282D01*
X163119025Y-50666539D01*
X163119024Y-50666538D01*
X162920189Y-50439811D01*
X162693461Y-50240975D01*
X162514139Y-50121156D01*
X162442717Y-50073433D01*
X162172252Y-49940054D01*
X161886689Y-49843119D01*
X161590926Y-49784287D01*
X161290000Y-49764564D01*
X160989073Y-49784287D01*
X160693310Y-49843119D01*
X160407747Y-49940054D01*
X160137282Y-50073433D01*
X159886539Y-50240974D01*
X159659811Y-50439811D01*
X159460974Y-50666539D01*
X159293433Y-50917282D01*
X159160054Y-51187747D01*
X159063119Y-51473310D01*
X159004287Y-51769073D01*
X159004287Y-51769080D01*
X158984564Y-52070000D01*
X92877568Y-52070000D01*
X93349099Y-51316723D01*
X93349729Y-51315732D01*
X93757589Y-50684110D01*
X93757865Y-50683687D01*
X94261766Y-49919746D01*
X94262612Y-49918483D01*
X94685060Y-49297347D01*
X94685535Y-49296656D01*
X95207671Y-48544637D01*
X95208371Y-48543643D01*
X95645516Y-47932806D01*
X95645891Y-47932288D01*
X96185960Y-47192655D01*
X96186716Y-47191634D01*
X96638171Y-46591623D01*
X96638571Y-46591096D01*
X97196178Y-45864409D01*
X97197037Y-45863306D01*
X97662505Y-45274491D01*
X97662817Y-45274100D01*
X98237826Y-44560557D01*
X98238747Y-44559432D01*
X98717848Y-43982266D01*
X98718317Y-43981705D01*
X99310259Y-43281913D01*
X99311219Y-43280796D01*
X99803868Y-42715357D01*
X99804169Y-42715014D01*
X99955066Y-42545000D01*
X140699540Y-42545000D01*
X140719326Y-42733257D01*
X140777820Y-42913284D01*
X140872466Y-43077216D01*
X140999129Y-43217889D01*
X141152269Y-43329151D01*
X141325197Y-43406144D01*
X141510352Y-43445500D01*
X141510354Y-43445500D01*
X141699646Y-43445500D01*
X141699648Y-43445500D01*
X141823084Y-43419262D01*
X141884803Y-43406144D01*
X142057730Y-43329151D01*
X142210871Y-43217888D01*
X142337533Y-43077216D01*
X142432179Y-42913284D01*
X142484799Y-42751334D01*
X142515047Y-42701975D01*
X146844955Y-38372067D01*
X146873466Y-38350777D01*
X146906846Y-38338462D01*
X146964803Y-38326144D01*
X146964804Y-38326143D01*
X146964806Y-38326143D01*
X147137730Y-38249151D01*
X147290870Y-38137889D01*
X147417533Y-37997216D01*
X147512179Y-37833284D01*
X147541772Y-37742207D01*
X147570674Y-37653256D01*
X147590460Y-37465000D01*
X147570674Y-37276744D01*
X147517429Y-37112873D01*
X147512179Y-37096715D01*
X147417533Y-36932783D01*
X147290870Y-36792110D01*
X147137730Y-36680848D01*
X146964802Y-36603855D01*
X146779648Y-36564500D01*
X146779646Y-36564500D01*
X146590354Y-36564500D01*
X146590352Y-36564500D01*
X146405197Y-36603855D01*
X146232269Y-36680848D01*
X146079129Y-36792110D01*
X145952466Y-36932783D01*
X145857821Y-37096714D01*
X145805201Y-37258661D01*
X145774951Y-37308023D01*
X141445046Y-41637928D01*
X141416534Y-41659220D01*
X141383149Y-41671537D01*
X141325197Y-41683856D01*
X141152267Y-41760849D01*
X140999129Y-41872110D01*
X140872466Y-42012783D01*
X140777820Y-42176715D01*
X140719326Y-42356742D01*
X140699540Y-42545000D01*
X99955066Y-42545000D01*
X100412835Y-42029237D01*
X100413815Y-42028149D01*
X100919722Y-41474760D01*
X100919971Y-41474489D01*
X101544976Y-40803187D01*
X101546097Y-40802001D01*
X102064757Y-40261190D01*
X102064920Y-40261021D01*
X102706109Y-39604388D01*
X102707123Y-39603365D01*
X103238366Y-39075285D01*
X103238689Y-39074967D01*
X103895385Y-38433717D01*
X103896497Y-38432647D01*
X103983710Y-38350000D01*
X111916633Y-38350000D01*
X111934619Y-38457792D01*
X112012780Y-38685460D01*
X112127348Y-38897164D01*
X112275201Y-39087126D01*
X112452292Y-39250151D01*
X112653819Y-39381815D01*
X112874255Y-39478506D01*
X113107611Y-39537600D01*
X113287418Y-39552500D01*
X114050000Y-39552500D01*
X114050000Y-38350000D01*
X114550000Y-38350000D01*
X114550000Y-39552500D01*
X115312582Y-39552500D01*
X115492388Y-39537600D01*
X115725744Y-39478506D01*
X115946180Y-39381815D01*
X116147707Y-39250151D01*
X116324798Y-39087126D01*
X116472651Y-38897164D01*
X116587219Y-38685460D01*
X116665380Y-38457792D01*
X116683367Y-38350000D01*
X114550000Y-38350000D01*
X114050000Y-38350000D01*
X111916633Y-38350000D01*
X103983710Y-38350000D01*
X104439913Y-37917683D01*
X104440304Y-37917316D01*
X104512607Y-37849999D01*
X111916633Y-37849999D01*
X111916634Y-37850000D01*
X114050000Y-37850000D01*
X114050000Y-36647500D01*
X114550000Y-36647500D01*
X114550000Y-37850000D01*
X116683366Y-37850000D01*
X116683366Y-37849999D01*
X116665380Y-37742207D01*
X116587219Y-37514539D01*
X116472651Y-37302835D01*
X116324798Y-37112873D01*
X116147707Y-36949848D01*
X115946180Y-36818184D01*
X115725744Y-36721493D01*
X115492388Y-36662399D01*
X115312582Y-36647500D01*
X114550000Y-36647500D01*
X114050000Y-36647500D01*
X113287418Y-36647500D01*
X113107611Y-36662399D01*
X112874255Y-36721493D01*
X112653819Y-36818184D01*
X112452292Y-36949848D01*
X112275201Y-37112873D01*
X112127348Y-37302835D01*
X112012780Y-37514539D01*
X111934619Y-37742207D01*
X111916633Y-37849999D01*
X104512607Y-37849999D01*
X105112260Y-37291702D01*
X105113426Y-37290632D01*
X105668731Y-36789030D01*
X105669182Y-36788626D01*
X106356128Y-36178923D01*
X106357180Y-36178003D01*
X106924247Y-35689862D01*
X107077771Y-35559999D01*
X148094678Y-35559999D01*
X148113923Y-35767698D01*
X148171005Y-35968319D01*
X148263978Y-36155035D01*
X148389682Y-36321494D01*
X148543826Y-36462014D01*
X148543828Y-36462015D01*
X148543829Y-36462016D01*
X148721172Y-36571823D01*
X148842746Y-36618920D01*
X148885632Y-36646866D01*
X150720181Y-38481415D01*
X150747061Y-38521643D01*
X150756500Y-38569096D01*
X150756500Y-45826152D01*
X150743500Y-45881424D01*
X150711004Y-45946682D01*
X150653923Y-46147301D01*
X150634678Y-46354999D01*
X150653923Y-46562698D01*
X150711005Y-46763319D01*
X150803978Y-46950035D01*
X150929682Y-47116494D01*
X151083826Y-47257014D01*
X151083828Y-47257015D01*
X151083829Y-47257016D01*
X151261172Y-47366823D01*
X151455673Y-47442173D01*
X151660707Y-47480500D01*
X151869291Y-47480500D01*
X151869293Y-47480500D01*
X152074327Y-47442173D01*
X152268828Y-47366823D01*
X152446171Y-47257016D01*
X152600318Y-47116493D01*
X152726019Y-46950038D01*
X152726019Y-46950036D01*
X152726021Y-46950035D01*
X152818994Y-46763319D01*
X152876076Y-46562698D01*
X152878866Y-46532578D01*
X152895322Y-46355000D01*
X152876076Y-46147304D01*
X152876076Y-46147301D01*
X152818995Y-45946682D01*
X152786500Y-45881424D01*
X152773500Y-45826152D01*
X152773500Y-45297869D01*
X182316849Y-45297869D01*
X182323258Y-45357483D01*
X182373553Y-45492331D01*
X182459803Y-45607546D01*
X182575018Y-45693796D01*
X182709866Y-45744091D01*
X182769476Y-45750500D01*
X184465221Y-45750499D01*
X184524832Y-45744091D01*
X184659680Y-45693796D01*
X184774895Y-45607546D01*
X184833675Y-45529026D01*
X186691875Y-45529026D01*
X186764864Y-45580133D01*
X186971022Y-45676266D01*
X187190746Y-45735141D01*
X187417349Y-45754966D01*
X187643951Y-45735141D01*
X187863675Y-45676266D01*
X188069829Y-45580134D01*
X188142821Y-45529025D01*
X187417350Y-44803553D01*
X187417349Y-44803553D01*
X186691875Y-45529025D01*
X186691875Y-45529026D01*
X184833675Y-45529026D01*
X184861145Y-45492331D01*
X184911440Y-45357483D01*
X184917849Y-45297873D01*
X184917848Y-44449999D01*
X186112382Y-44449999D01*
X186132207Y-44676602D01*
X186191082Y-44896326D01*
X186287215Y-45102484D01*
X186338321Y-45175471D01*
X186338323Y-45175472D01*
X187063795Y-44450001D01*
X187770902Y-44450001D01*
X188496374Y-45175472D01*
X188547483Y-45102480D01*
X188643615Y-44896326D01*
X188702490Y-44676602D01*
X188722315Y-44449999D01*
X188702490Y-44223397D01*
X188643615Y-44003673D01*
X188547482Y-43797515D01*
X188496374Y-43724526D01*
X187770902Y-44450000D01*
X187770902Y-44450001D01*
X187063795Y-44450001D01*
X187063795Y-44450000D01*
X186338322Y-43724526D01*
X186338322Y-43724527D01*
X186287214Y-43797516D01*
X186191082Y-44003672D01*
X186132207Y-44223397D01*
X186112382Y-44449999D01*
X184917848Y-44449999D01*
X184917848Y-43602128D01*
X184911440Y-43542517D01*
X184861145Y-43407669D01*
X184833674Y-43370973D01*
X186691875Y-43370973D01*
X187417349Y-44096446D01*
X187417350Y-44096446D01*
X188142821Y-43370974D01*
X188142820Y-43370972D01*
X188069833Y-43319866D01*
X187863675Y-43223733D01*
X187643951Y-43164858D01*
X187417349Y-43145033D01*
X187190746Y-43164858D01*
X186971021Y-43223733D01*
X186764865Y-43319865D01*
X186691876Y-43370973D01*
X186691875Y-43370973D01*
X184833674Y-43370973D01*
X184774895Y-43292454D01*
X184659680Y-43206204D01*
X184524832Y-43155909D01*
X184465222Y-43149500D01*
X184465218Y-43149500D01*
X182769479Y-43149500D01*
X182709864Y-43155909D01*
X182575018Y-43206204D01*
X182459803Y-43292454D01*
X182373553Y-43407668D01*
X182323258Y-43542516D01*
X182316849Y-43602130D01*
X182316849Y-45297869D01*
X152773500Y-45297869D01*
X152773500Y-40834096D01*
X152787015Y-40777801D01*
X152824615Y-40733778D01*
X152878102Y-40711623D01*
X152935818Y-40716165D01*
X152985181Y-40746415D01*
X153802237Y-41563471D01*
X153834574Y-41619981D01*
X153833823Y-41685084D01*
X153828923Y-41702303D01*
X153809678Y-41910000D01*
X153828923Y-42117698D01*
X153886005Y-42318319D01*
X153978978Y-42505035D01*
X154104682Y-42671494D01*
X154258826Y-42812014D01*
X154258828Y-42812015D01*
X154258829Y-42812016D01*
X154436172Y-42921823D01*
X154630673Y-42997173D01*
X154835707Y-43035500D01*
X155044291Y-43035500D01*
X155044293Y-43035500D01*
X155249327Y-42997173D01*
X155443828Y-42921823D01*
X155621171Y-42812016D01*
X155775318Y-42671493D01*
X155901019Y-42505038D01*
X155901019Y-42505036D01*
X155901021Y-42505035D01*
X155993994Y-42318319D01*
X156051076Y-42117698D01*
X156053866Y-42087578D01*
X156070322Y-41910000D01*
X156051076Y-41702304D01*
X156051076Y-41702303D01*
X156051076Y-41702301D01*
X155993995Y-41501682D01*
X155961500Y-41436424D01*
X155948500Y-41381152D01*
X155948500Y-41330642D01*
X155949097Y-41318488D01*
X155953380Y-41275000D01*
X155933909Y-41077299D01*
X155876241Y-40887196D01*
X155876241Y-40887195D01*
X155821349Y-40784500D01*
X155782595Y-40711996D01*
X155782289Y-40711623D01*
X155656568Y-40558432D01*
X155622784Y-40530706D01*
X155613769Y-40522535D01*
X152517464Y-37426230D01*
X152509291Y-37417213D01*
X152481567Y-37383431D01*
X152447784Y-37355706D01*
X152438768Y-37347534D01*
X150316113Y-35224879D01*
X150284528Y-35171131D01*
X150278994Y-35151681D01*
X150217902Y-35028991D01*
X150186021Y-34964964D01*
X150060317Y-34798505D01*
X149906173Y-34657985D01*
X149728827Y-34548176D01*
X149534328Y-34472827D01*
X149465982Y-34460051D01*
X149329293Y-34434500D01*
X149120707Y-34434500D01*
X149018189Y-34453663D01*
X148915671Y-34472827D01*
X148721172Y-34548176D01*
X148543826Y-34657985D01*
X148389682Y-34798505D01*
X148263978Y-34964964D01*
X148171005Y-35151680D01*
X148113923Y-35352301D01*
X148094678Y-35559999D01*
X107077771Y-35559999D01*
X107626032Y-35096234D01*
X107627196Y-35095264D01*
X108205312Y-34621178D01*
X108205740Y-34620830D01*
X108921504Y-34044031D01*
X108922537Y-34043211D01*
X109511565Y-33583264D01*
X109511994Y-33582932D01*
X110241571Y-33023108D01*
X110242772Y-33022200D01*
X110842251Y-32576728D01*
X110842423Y-32576601D01*
X111585626Y-32033925D01*
X111586982Y-32032951D01*
X112196355Y-31602334D01*
X112196850Y-31601988D01*
X112952840Y-31077094D01*
X112954321Y-31076083D01*
X113469768Y-30730000D01*
X145925000Y-30730000D01*
X145925000Y-31719203D01*
X145939759Y-31911439D01*
X145998360Y-32161864D01*
X146094506Y-32400420D01*
X146225936Y-32621494D01*
X146389575Y-32819918D01*
X146581581Y-32991034D01*
X146797468Y-33130839D01*
X147032157Y-33236048D01*
X147280152Y-33304199D01*
X147350000Y-33312262D01*
X147350000Y-30730000D01*
X147850000Y-30730000D01*
X147850000Y-33312723D01*
X148045153Y-33274875D01*
X148287202Y-33187942D01*
X148440954Y-33104335D01*
X149899500Y-33104335D01*
X149927957Y-33274875D01*
X149940429Y-33349614D01*
X150021172Y-33584810D01*
X150139526Y-33803509D01*
X150139529Y-33803514D01*
X150151526Y-33818927D01*
X150292262Y-33999744D01*
X150475215Y-34168164D01*
X150683393Y-34304173D01*
X150911119Y-34404063D01*
X151152179Y-34465108D01*
X151226480Y-34471264D01*
X151337927Y-34480500D01*
X151337933Y-34480500D01*
X153462067Y-34480500D01*
X153462073Y-34480500D01*
X153563387Y-34472104D01*
X153647821Y-34465108D01*
X153888881Y-34404063D01*
X154116607Y-34304173D01*
X154324785Y-34168164D01*
X154507738Y-33999744D01*
X154660474Y-33803509D01*
X154778828Y-33584810D01*
X154859571Y-33349614D01*
X154900500Y-33104335D01*
X154900500Y-32855665D01*
X154859571Y-32610386D01*
X154778828Y-32375190D01*
X154660474Y-32156491D01*
X154660471Y-32156487D01*
X154660470Y-32156485D01*
X154507740Y-31960259D01*
X154507738Y-31960256D01*
X154324785Y-31791836D01*
X154116607Y-31655827D01*
X154116604Y-31655825D01*
X153991523Y-31600960D01*
X153888881Y-31555937D01*
X153647821Y-31494892D01*
X153647819Y-31494891D01*
X153647816Y-31494891D01*
X153462073Y-31479500D01*
X153462067Y-31479500D01*
X151337933Y-31479500D01*
X151337927Y-31479500D01*
X151152183Y-31494891D01*
X151152179Y-31494891D01*
X151152179Y-31494892D01*
X150911119Y-31555937D01*
X150911116Y-31555938D01*
X150911117Y-31555938D01*
X150683395Y-31655825D01*
X150586388Y-31719203D01*
X150475215Y-31791836D01*
X150345292Y-31911439D01*
X150292259Y-31960259D01*
X150139529Y-32156485D01*
X150021170Y-32375194D01*
X149940429Y-32610384D01*
X149899500Y-32855665D01*
X149899500Y-33104335D01*
X148440954Y-33104335D01*
X148513158Y-33065072D01*
X148717696Y-32909159D01*
X148896048Y-32723839D01*
X149044018Y-32513471D01*
X149158137Y-32282988D01*
X149235738Y-32037780D01*
X149275000Y-31783596D01*
X149275000Y-30730000D01*
X147850000Y-30730000D01*
X147350000Y-30730000D01*
X145925000Y-30730000D01*
X113469768Y-30730000D01*
X113573728Y-30660199D01*
X114225932Y-30230000D01*
X145925000Y-30230000D01*
X147350000Y-30230000D01*
X147350000Y-27647737D01*
X147850000Y-27647737D01*
X147850000Y-30230000D01*
X149275000Y-30230000D01*
X149275000Y-29240797D01*
X149260240Y-29048560D01*
X149201639Y-28798135D01*
X149105493Y-28559579D01*
X148974063Y-28338505D01*
X148810424Y-28140081D01*
X148618418Y-27968965D01*
X148402531Y-27829160D01*
X148167842Y-27723951D01*
X147919847Y-27655800D01*
X147850000Y-27647737D01*
X147350000Y-27647737D01*
X147350000Y-27647276D01*
X147154846Y-27685124D01*
X146912797Y-27772057D01*
X146686841Y-27894927D01*
X146482303Y-28050840D01*
X146303951Y-28236160D01*
X146155981Y-28446528D01*
X146041862Y-28677011D01*
X145964261Y-28922219D01*
X145925000Y-29176404D01*
X145925000Y-30230000D01*
X114225932Y-30230000D01*
X114342641Y-30153018D01*
X114343999Y-30152138D01*
X114972773Y-29751416D01*
X115754083Y-29262337D01*
X115755341Y-29261564D01*
X116392883Y-28876356D01*
X116393497Y-28875988D01*
X117186262Y-28405619D01*
X117187652Y-28404810D01*
X117833847Y-28035150D01*
X118638473Y-27583279D01*
X118639971Y-27582454D01*
X119291739Y-27230000D01*
X149920977Y-27230000D01*
X149940916Y-27349491D01*
X150021631Y-27584606D01*
X150139946Y-27803233D01*
X150292631Y-27999403D01*
X150475522Y-28167766D01*
X150683634Y-28303733D01*
X150911278Y-28403586D01*
X151152267Y-28464613D01*
X151337951Y-28480000D01*
X152150000Y-28480000D01*
X152150000Y-27230000D01*
X152650000Y-27230000D01*
X152650000Y-28480000D01*
X153462049Y-28480000D01*
X153647732Y-28464613D01*
X153888721Y-28403586D01*
X154116365Y-28303733D01*
X154324477Y-28167766D01*
X154507368Y-27999403D01*
X154660053Y-27803233D01*
X154778368Y-27584606D01*
X154859083Y-27349491D01*
X154879023Y-27230000D01*
X152650000Y-27230000D01*
X152150000Y-27230000D01*
X149920977Y-27230000D01*
X119291739Y-27230000D01*
X119294089Y-27228729D01*
X119294491Y-27228513D01*
X120109913Y-26795775D01*
X120111373Y-26795015D01*
X120238786Y-26729999D01*
X149920976Y-26729999D01*
X149920978Y-26730000D01*
X152150000Y-26730000D01*
X152150000Y-25480000D01*
X152650000Y-25480000D01*
X152650000Y-26730000D01*
X154879022Y-26730000D01*
X154879023Y-26729999D01*
X154859083Y-26610508D01*
X154778368Y-26375393D01*
X154660053Y-26156766D01*
X154507368Y-25960596D01*
X154324477Y-25792233D01*
X154116365Y-25656266D01*
X153888721Y-25556413D01*
X153647732Y-25495386D01*
X153462049Y-25480000D01*
X152650000Y-25480000D01*
X152150000Y-25480000D01*
X151337951Y-25480000D01*
X151152267Y-25495386D01*
X150911278Y-25556413D01*
X150683634Y-25656266D01*
X150475522Y-25792233D01*
X150292631Y-25960596D01*
X150139946Y-26156766D01*
X150021631Y-26375393D01*
X149940916Y-26610508D01*
X149920976Y-26729999D01*
X120238786Y-26729999D01*
X120773308Y-26457245D01*
X120773883Y-26456953D01*
X121599667Y-26043595D01*
X121601130Y-26042878D01*
X122270723Y-25721122D01*
X123106906Y-25327158D01*
X123108384Y-25326476D01*
X123785113Y-25020970D01*
X124630871Y-24646823D01*
X124632245Y-24646228D01*
X125315541Y-24357202D01*
X125315578Y-24357186D01*
X126170487Y-24003071D01*
X126172171Y-24002390D01*
X126861362Y-23730091D01*
X126861588Y-23730002D01*
X127725145Y-23396153D01*
X127726786Y-23395534D01*
X128421861Y-23139933D01*
X128421863Y-23139931D01*
X129293766Y-22826496D01*
X129295416Y-22825918D01*
X129995888Y-22587167D01*
X129995955Y-22587144D01*
X130875644Y-22294355D01*
X130877161Y-22293864D01*
X131582445Y-22072132D01*
X131582720Y-22072046D01*
X132469672Y-21800109D01*
X132471431Y-21799586D01*
X133180901Y-21595026D01*
X134075017Y-21344007D01*
X134076732Y-21343541D01*
X134790351Y-21156129D01*
X135690869Y-20926285D01*
X135692500Y-20925884D01*
X136409654Y-20755747D01*
X137316054Y-20547245D01*
X137317916Y-20546833D01*
X138038134Y-20394045D01*
X138949868Y-20207044D01*
X138951766Y-20206671D01*
X139674664Y-20071274D01*
X140591517Y-19905856D01*
X140593253Y-19905558D01*
X141318368Y-19787602D01*
X141318815Y-19787530D01*
X142239644Y-19643931D01*
X142241545Y-19643651D01*
X142968291Y-19543185D01*
X142968769Y-19543121D01*
X143893767Y-19421343D01*
X143895596Y-19421118D01*
X144623754Y-19338130D01*
X145552593Y-19238269D01*
X145554425Y-19238089D01*
X146283458Y-19172600D01*
X146283695Y-19172579D01*
X147215329Y-19094795D01*
X147217268Y-19094650D01*
X147946636Y-19046662D01*
X148880995Y-18991002D01*
X148882941Y-18990904D01*
X149612353Y-18960390D01*
X150548567Y-18926952D01*
X150550700Y-18926895D01*
X151279543Y-18913835D01*
X151280021Y-18913828D01*
X152217340Y-18902673D01*
X152219395Y-18902667D01*
X152947431Y-18907014D01*
G37*
G04 #@! TD.AperFunction*
M02*
