%TF.GenerationSoftware,KiCad,Pcbnew,7.0.1*%
%TF.CreationDate,2024-08-11T16:24:48+02:00*%
%TF.ProjectId,uTesla,75546573-6c61-42e6-9b69-6361645f7063,rev?*%
%TF.SameCoordinates,Original*%
%TF.FileFunction,Drillmap*%
%TF.FilePolarity,Positive*%
%FSLAX45Y45*%
G04 Gerber Fmt 4.5, Leading zero omitted, Abs format (unit mm)*
G04 Created by KiCad (PCBNEW 7.0.1) date 2024-08-11 16:24:48*
%MOMM*%
%LPD*%
G01*
G04 APERTURE LIST*
%ADD10C,0.150000*%
%ADD11C,0.200000*%
%ADD12C,0.100000*%
G04 APERTURE END LIST*
D10*
X18970000Y-8890000D02*
G75*
G03*
X18970000Y-8890000I-5000000J0D01*
G01*
D11*
D12*
X9392050Y-8345000D02*
X9492050Y-8445000D01*
X9492050Y-8345000D02*
X9392050Y-8445000D01*
X9392050Y-9145000D02*
X9492050Y-9245000D01*
X9492050Y-9145000D02*
X9392050Y-9245000D01*
D11*
X9210119Y-14210024D02*
X9210119Y-14010024D01*
X9210119Y-14010024D02*
X9257738Y-14010024D01*
X9257738Y-14010024D02*
X9286310Y-14019548D01*
X9286310Y-14019548D02*
X9305357Y-14038595D01*
X9305357Y-14038595D02*
X9314881Y-14057643D01*
X9314881Y-14057643D02*
X9324405Y-14095738D01*
X9324405Y-14095738D02*
X9324405Y-14124309D01*
X9324405Y-14124309D02*
X9314881Y-14162405D01*
X9314881Y-14162405D02*
X9305357Y-14181452D01*
X9305357Y-14181452D02*
X9286310Y-14200500D01*
X9286310Y-14200500D02*
X9257738Y-14210024D01*
X9257738Y-14210024D02*
X9210119Y-14210024D01*
X9410119Y-14210024D02*
X9410119Y-14076690D01*
X9410119Y-14114786D02*
X9419643Y-14095738D01*
X9419643Y-14095738D02*
X9429167Y-14086214D01*
X9429167Y-14086214D02*
X9448214Y-14076690D01*
X9448214Y-14076690D02*
X9467262Y-14076690D01*
X9533929Y-14210024D02*
X9533929Y-14076690D01*
X9533929Y-14010024D02*
X9524405Y-14019548D01*
X9524405Y-14019548D02*
X9533929Y-14029071D01*
X9533929Y-14029071D02*
X9543452Y-14019548D01*
X9543452Y-14019548D02*
X9533929Y-14010024D01*
X9533929Y-14010024D02*
X9533929Y-14029071D01*
X9657738Y-14210024D02*
X9638690Y-14200500D01*
X9638690Y-14200500D02*
X9629167Y-14181452D01*
X9629167Y-14181452D02*
X9629167Y-14010024D01*
X9762500Y-14210024D02*
X9743452Y-14200500D01*
X9743452Y-14200500D02*
X9733929Y-14181452D01*
X9733929Y-14181452D02*
X9733929Y-14010024D01*
X9991071Y-14210024D02*
X9991071Y-14010024D01*
X9991071Y-14010024D02*
X10057738Y-14152881D01*
X10057738Y-14152881D02*
X10124405Y-14010024D01*
X10124405Y-14010024D02*
X10124405Y-14210024D01*
X10305357Y-14210024D02*
X10305357Y-14105262D01*
X10305357Y-14105262D02*
X10295833Y-14086214D01*
X10295833Y-14086214D02*
X10276786Y-14076690D01*
X10276786Y-14076690D02*
X10238690Y-14076690D01*
X10238690Y-14076690D02*
X10219643Y-14086214D01*
X10305357Y-14200500D02*
X10286310Y-14210024D01*
X10286310Y-14210024D02*
X10238690Y-14210024D01*
X10238690Y-14210024D02*
X10219643Y-14200500D01*
X10219643Y-14200500D02*
X10210119Y-14181452D01*
X10210119Y-14181452D02*
X10210119Y-14162405D01*
X10210119Y-14162405D02*
X10219643Y-14143357D01*
X10219643Y-14143357D02*
X10238690Y-14133833D01*
X10238690Y-14133833D02*
X10286310Y-14133833D01*
X10286310Y-14133833D02*
X10305357Y-14124309D01*
X10400595Y-14076690D02*
X10400595Y-14276690D01*
X10400595Y-14086214D02*
X10419643Y-14076690D01*
X10419643Y-14076690D02*
X10457738Y-14076690D01*
X10457738Y-14076690D02*
X10476786Y-14086214D01*
X10476786Y-14086214D02*
X10486310Y-14095738D01*
X10486310Y-14095738D02*
X10495833Y-14114786D01*
X10495833Y-14114786D02*
X10495833Y-14171928D01*
X10495833Y-14171928D02*
X10486310Y-14190976D01*
X10486310Y-14190976D02*
X10476786Y-14200500D01*
X10476786Y-14200500D02*
X10457738Y-14210024D01*
X10457738Y-14210024D02*
X10419643Y-14210024D01*
X10419643Y-14210024D02*
X10400595Y-14200500D01*
X10581548Y-14190976D02*
X10591071Y-14200500D01*
X10591071Y-14200500D02*
X10581548Y-14210024D01*
X10581548Y-14210024D02*
X10572024Y-14200500D01*
X10572024Y-14200500D02*
X10581548Y-14190976D01*
X10581548Y-14190976D02*
X10581548Y-14210024D01*
X10581548Y-14086214D02*
X10591071Y-14095738D01*
X10591071Y-14095738D02*
X10581548Y-14105262D01*
X10581548Y-14105262D02*
X10572024Y-14095738D01*
X10572024Y-14095738D02*
X10581548Y-14086214D01*
X10581548Y-14086214D02*
X10581548Y-14105262D01*
D12*
X8862500Y-14487500D02*
X8962500Y-14587500D01*
X8962500Y-14487500D02*
X8862500Y-14587500D01*
D11*
X9314881Y-14630024D02*
X9200595Y-14630024D01*
X9257738Y-14630024D02*
X9257738Y-14430024D01*
X9257738Y-14430024D02*
X9238690Y-14458595D01*
X9238690Y-14458595D02*
X9219643Y-14477643D01*
X9219643Y-14477643D02*
X9200595Y-14487167D01*
X9400595Y-14610976D02*
X9410119Y-14620500D01*
X9410119Y-14620500D02*
X9400595Y-14630024D01*
X9400595Y-14630024D02*
X9391071Y-14620500D01*
X9391071Y-14620500D02*
X9400595Y-14610976D01*
X9400595Y-14610976D02*
X9400595Y-14630024D01*
X9533929Y-14430024D02*
X9552976Y-14430024D01*
X9552976Y-14430024D02*
X9572024Y-14439548D01*
X9572024Y-14439548D02*
X9581548Y-14449071D01*
X9581548Y-14449071D02*
X9591071Y-14468119D01*
X9591071Y-14468119D02*
X9600595Y-14506214D01*
X9600595Y-14506214D02*
X9600595Y-14553833D01*
X9600595Y-14553833D02*
X9591071Y-14591928D01*
X9591071Y-14591928D02*
X9581548Y-14610976D01*
X9581548Y-14610976D02*
X9572024Y-14620500D01*
X9572024Y-14620500D02*
X9552976Y-14630024D01*
X9552976Y-14630024D02*
X9533929Y-14630024D01*
X9533929Y-14630024D02*
X9514881Y-14620500D01*
X9514881Y-14620500D02*
X9505357Y-14610976D01*
X9505357Y-14610976D02*
X9495833Y-14591928D01*
X9495833Y-14591928D02*
X9486310Y-14553833D01*
X9486310Y-14553833D02*
X9486310Y-14506214D01*
X9486310Y-14506214D02*
X9495833Y-14468119D01*
X9495833Y-14468119D02*
X9505357Y-14449071D01*
X9505357Y-14449071D02*
X9514881Y-14439548D01*
X9514881Y-14439548D02*
X9533929Y-14430024D01*
X9724405Y-14430024D02*
X9743452Y-14430024D01*
X9743452Y-14430024D02*
X9762500Y-14439548D01*
X9762500Y-14439548D02*
X9772024Y-14449071D01*
X9772024Y-14449071D02*
X9781548Y-14468119D01*
X9781548Y-14468119D02*
X9791071Y-14506214D01*
X9791071Y-14506214D02*
X9791071Y-14553833D01*
X9791071Y-14553833D02*
X9781548Y-14591928D01*
X9781548Y-14591928D02*
X9772024Y-14610976D01*
X9772024Y-14610976D02*
X9762500Y-14620500D01*
X9762500Y-14620500D02*
X9743452Y-14630024D01*
X9743452Y-14630024D02*
X9724405Y-14630024D01*
X9724405Y-14630024D02*
X9705357Y-14620500D01*
X9705357Y-14620500D02*
X9695833Y-14610976D01*
X9695833Y-14610976D02*
X9686310Y-14591928D01*
X9686310Y-14591928D02*
X9676786Y-14553833D01*
X9676786Y-14553833D02*
X9676786Y-14506214D01*
X9676786Y-14506214D02*
X9686310Y-14468119D01*
X9686310Y-14468119D02*
X9695833Y-14449071D01*
X9695833Y-14449071D02*
X9705357Y-14439548D01*
X9705357Y-14439548D02*
X9724405Y-14430024D01*
X9914881Y-14430024D02*
X9933929Y-14430024D01*
X9933929Y-14430024D02*
X9952976Y-14439548D01*
X9952976Y-14439548D02*
X9962500Y-14449071D01*
X9962500Y-14449071D02*
X9972024Y-14468119D01*
X9972024Y-14468119D02*
X9981548Y-14506214D01*
X9981548Y-14506214D02*
X9981548Y-14553833D01*
X9981548Y-14553833D02*
X9972024Y-14591928D01*
X9972024Y-14591928D02*
X9962500Y-14610976D01*
X9962500Y-14610976D02*
X9952976Y-14620500D01*
X9952976Y-14620500D02*
X9933929Y-14630024D01*
X9933929Y-14630024D02*
X9914881Y-14630024D01*
X9914881Y-14630024D02*
X9895833Y-14620500D01*
X9895833Y-14620500D02*
X9886310Y-14610976D01*
X9886310Y-14610976D02*
X9876786Y-14591928D01*
X9876786Y-14591928D02*
X9867262Y-14553833D01*
X9867262Y-14553833D02*
X9867262Y-14506214D01*
X9867262Y-14506214D02*
X9876786Y-14468119D01*
X9876786Y-14468119D02*
X9886310Y-14449071D01*
X9886310Y-14449071D02*
X9895833Y-14439548D01*
X9895833Y-14439548D02*
X9914881Y-14430024D01*
X10067262Y-14630024D02*
X10067262Y-14496690D01*
X10067262Y-14515738D02*
X10076786Y-14506214D01*
X10076786Y-14506214D02*
X10095833Y-14496690D01*
X10095833Y-14496690D02*
X10124405Y-14496690D01*
X10124405Y-14496690D02*
X10143452Y-14506214D01*
X10143452Y-14506214D02*
X10152976Y-14525262D01*
X10152976Y-14525262D02*
X10152976Y-14630024D01*
X10152976Y-14525262D02*
X10162500Y-14506214D01*
X10162500Y-14506214D02*
X10181548Y-14496690D01*
X10181548Y-14496690D02*
X10210119Y-14496690D01*
X10210119Y-14496690D02*
X10229167Y-14506214D01*
X10229167Y-14506214D02*
X10238691Y-14525262D01*
X10238691Y-14525262D02*
X10238691Y-14630024D01*
X10333929Y-14630024D02*
X10333929Y-14496690D01*
X10333929Y-14515738D02*
X10343452Y-14506214D01*
X10343452Y-14506214D02*
X10362500Y-14496690D01*
X10362500Y-14496690D02*
X10391072Y-14496690D01*
X10391072Y-14496690D02*
X10410119Y-14506214D01*
X10410119Y-14506214D02*
X10419643Y-14525262D01*
X10419643Y-14525262D02*
X10419643Y-14630024D01*
X10419643Y-14525262D02*
X10429167Y-14506214D01*
X10429167Y-14506214D02*
X10448214Y-14496690D01*
X10448214Y-14496690D02*
X10476786Y-14496690D01*
X10476786Y-14496690D02*
X10495833Y-14506214D01*
X10495833Y-14506214D02*
X10505357Y-14525262D01*
X10505357Y-14525262D02*
X10505357Y-14630024D01*
X10895833Y-14420500D02*
X10724405Y-14677643D01*
X11152976Y-14430024D02*
X11172024Y-14430024D01*
X11172024Y-14430024D02*
X11191072Y-14439548D01*
X11191072Y-14439548D02*
X11200595Y-14449071D01*
X11200595Y-14449071D02*
X11210119Y-14468119D01*
X11210119Y-14468119D02*
X11219643Y-14506214D01*
X11219643Y-14506214D02*
X11219643Y-14553833D01*
X11219643Y-14553833D02*
X11210119Y-14591928D01*
X11210119Y-14591928D02*
X11200595Y-14610976D01*
X11200595Y-14610976D02*
X11191072Y-14620500D01*
X11191072Y-14620500D02*
X11172024Y-14630024D01*
X11172024Y-14630024D02*
X11152976Y-14630024D01*
X11152976Y-14630024D02*
X11133929Y-14620500D01*
X11133929Y-14620500D02*
X11124405Y-14610976D01*
X11124405Y-14610976D02*
X11114881Y-14591928D01*
X11114881Y-14591928D02*
X11105357Y-14553833D01*
X11105357Y-14553833D02*
X11105357Y-14506214D01*
X11105357Y-14506214D02*
X11114881Y-14468119D01*
X11114881Y-14468119D02*
X11124405Y-14449071D01*
X11124405Y-14449071D02*
X11133929Y-14439548D01*
X11133929Y-14439548D02*
X11152976Y-14430024D01*
X11305357Y-14610976D02*
X11314881Y-14620500D01*
X11314881Y-14620500D02*
X11305357Y-14630024D01*
X11305357Y-14630024D02*
X11295833Y-14620500D01*
X11295833Y-14620500D02*
X11305357Y-14610976D01*
X11305357Y-14610976D02*
X11305357Y-14630024D01*
X11438691Y-14430024D02*
X11457738Y-14430024D01*
X11457738Y-14430024D02*
X11476786Y-14439548D01*
X11476786Y-14439548D02*
X11486310Y-14449071D01*
X11486310Y-14449071D02*
X11495833Y-14468119D01*
X11495833Y-14468119D02*
X11505357Y-14506214D01*
X11505357Y-14506214D02*
X11505357Y-14553833D01*
X11505357Y-14553833D02*
X11495833Y-14591928D01*
X11495833Y-14591928D02*
X11486310Y-14610976D01*
X11486310Y-14610976D02*
X11476786Y-14620500D01*
X11476786Y-14620500D02*
X11457738Y-14630024D01*
X11457738Y-14630024D02*
X11438691Y-14630024D01*
X11438691Y-14630024D02*
X11419643Y-14620500D01*
X11419643Y-14620500D02*
X11410119Y-14610976D01*
X11410119Y-14610976D02*
X11400595Y-14591928D01*
X11400595Y-14591928D02*
X11391072Y-14553833D01*
X11391072Y-14553833D02*
X11391072Y-14506214D01*
X11391072Y-14506214D02*
X11400595Y-14468119D01*
X11400595Y-14468119D02*
X11410119Y-14449071D01*
X11410119Y-14449071D02*
X11419643Y-14439548D01*
X11419643Y-14439548D02*
X11438691Y-14430024D01*
X11572024Y-14430024D02*
X11695833Y-14430024D01*
X11695833Y-14430024D02*
X11629167Y-14506214D01*
X11629167Y-14506214D02*
X11657738Y-14506214D01*
X11657738Y-14506214D02*
X11676786Y-14515738D01*
X11676786Y-14515738D02*
X11686310Y-14525262D01*
X11686310Y-14525262D02*
X11695833Y-14544309D01*
X11695833Y-14544309D02*
X11695833Y-14591928D01*
X11695833Y-14591928D02*
X11686310Y-14610976D01*
X11686310Y-14610976D02*
X11676786Y-14620500D01*
X11676786Y-14620500D02*
X11657738Y-14630024D01*
X11657738Y-14630024D02*
X11600595Y-14630024D01*
X11600595Y-14630024D02*
X11581548Y-14620500D01*
X11581548Y-14620500D02*
X11572024Y-14610976D01*
X11791072Y-14630024D02*
X11829167Y-14630024D01*
X11829167Y-14630024D02*
X11848214Y-14620500D01*
X11848214Y-14620500D02*
X11857738Y-14610976D01*
X11857738Y-14610976D02*
X11876786Y-14582405D01*
X11876786Y-14582405D02*
X11886310Y-14544309D01*
X11886310Y-14544309D02*
X11886310Y-14468119D01*
X11886310Y-14468119D02*
X11876786Y-14449071D01*
X11876786Y-14449071D02*
X11867262Y-14439548D01*
X11867262Y-14439548D02*
X11848214Y-14430024D01*
X11848214Y-14430024D02*
X11810119Y-14430024D01*
X11810119Y-14430024D02*
X11791072Y-14439548D01*
X11791072Y-14439548D02*
X11781548Y-14449071D01*
X11781548Y-14449071D02*
X11772024Y-14468119D01*
X11772024Y-14468119D02*
X11772024Y-14515738D01*
X11772024Y-14515738D02*
X11781548Y-14534786D01*
X11781548Y-14534786D02*
X11791072Y-14544309D01*
X11791072Y-14544309D02*
X11810119Y-14553833D01*
X11810119Y-14553833D02*
X11848214Y-14553833D01*
X11848214Y-14553833D02*
X11867262Y-14544309D01*
X11867262Y-14544309D02*
X11876786Y-14534786D01*
X11876786Y-14534786D02*
X11886310Y-14515738D01*
X12057738Y-14496690D02*
X12057738Y-14630024D01*
X12010119Y-14420500D02*
X11962500Y-14563357D01*
X11962500Y-14563357D02*
X12086310Y-14563357D01*
X12152976Y-14430024D02*
X12152976Y-14468119D01*
X12229167Y-14430024D02*
X12229167Y-14468119D01*
X12524405Y-14706214D02*
X12514881Y-14696690D01*
X12514881Y-14696690D02*
X12495834Y-14668119D01*
X12495834Y-14668119D02*
X12486310Y-14649071D01*
X12486310Y-14649071D02*
X12476786Y-14620500D01*
X12476786Y-14620500D02*
X12467262Y-14572881D01*
X12467262Y-14572881D02*
X12467262Y-14534786D01*
X12467262Y-14534786D02*
X12476786Y-14487167D01*
X12476786Y-14487167D02*
X12486310Y-14458595D01*
X12486310Y-14458595D02*
X12495834Y-14439548D01*
X12495834Y-14439548D02*
X12514881Y-14410976D01*
X12514881Y-14410976D02*
X12524405Y-14401452D01*
X12591072Y-14449071D02*
X12600595Y-14439548D01*
X12600595Y-14439548D02*
X12619643Y-14430024D01*
X12619643Y-14430024D02*
X12667262Y-14430024D01*
X12667262Y-14430024D02*
X12686310Y-14439548D01*
X12686310Y-14439548D02*
X12695834Y-14449071D01*
X12695834Y-14449071D02*
X12705357Y-14468119D01*
X12705357Y-14468119D02*
X12705357Y-14487167D01*
X12705357Y-14487167D02*
X12695834Y-14515738D01*
X12695834Y-14515738D02*
X12581548Y-14630024D01*
X12581548Y-14630024D02*
X12705357Y-14630024D01*
X12943453Y-14630024D02*
X12943453Y-14430024D01*
X13029167Y-14630024D02*
X13029167Y-14525262D01*
X13029167Y-14525262D02*
X13019643Y-14506214D01*
X13019643Y-14506214D02*
X13000596Y-14496690D01*
X13000596Y-14496690D02*
X12972024Y-14496690D01*
X12972024Y-14496690D02*
X12952976Y-14506214D01*
X12952976Y-14506214D02*
X12943453Y-14515738D01*
X13152976Y-14630024D02*
X13133929Y-14620500D01*
X13133929Y-14620500D02*
X13124405Y-14610976D01*
X13124405Y-14610976D02*
X13114881Y-14591928D01*
X13114881Y-14591928D02*
X13114881Y-14534786D01*
X13114881Y-14534786D02*
X13124405Y-14515738D01*
X13124405Y-14515738D02*
X13133929Y-14506214D01*
X13133929Y-14506214D02*
X13152976Y-14496690D01*
X13152976Y-14496690D02*
X13181548Y-14496690D01*
X13181548Y-14496690D02*
X13200596Y-14506214D01*
X13200596Y-14506214D02*
X13210119Y-14515738D01*
X13210119Y-14515738D02*
X13219643Y-14534786D01*
X13219643Y-14534786D02*
X13219643Y-14591928D01*
X13219643Y-14591928D02*
X13210119Y-14610976D01*
X13210119Y-14610976D02*
X13200596Y-14620500D01*
X13200596Y-14620500D02*
X13181548Y-14630024D01*
X13181548Y-14630024D02*
X13152976Y-14630024D01*
X13333929Y-14630024D02*
X13314881Y-14620500D01*
X13314881Y-14620500D02*
X13305357Y-14601452D01*
X13305357Y-14601452D02*
X13305357Y-14430024D01*
X13486310Y-14620500D02*
X13467262Y-14630024D01*
X13467262Y-14630024D02*
X13429167Y-14630024D01*
X13429167Y-14630024D02*
X13410119Y-14620500D01*
X13410119Y-14620500D02*
X13400596Y-14601452D01*
X13400596Y-14601452D02*
X13400596Y-14525262D01*
X13400596Y-14525262D02*
X13410119Y-14506214D01*
X13410119Y-14506214D02*
X13429167Y-14496690D01*
X13429167Y-14496690D02*
X13467262Y-14496690D01*
X13467262Y-14496690D02*
X13486310Y-14506214D01*
X13486310Y-14506214D02*
X13495834Y-14525262D01*
X13495834Y-14525262D02*
X13495834Y-14544309D01*
X13495834Y-14544309D02*
X13400596Y-14563357D01*
X13572024Y-14620500D02*
X13591072Y-14630024D01*
X13591072Y-14630024D02*
X13629167Y-14630024D01*
X13629167Y-14630024D02*
X13648215Y-14620500D01*
X13648215Y-14620500D02*
X13657738Y-14601452D01*
X13657738Y-14601452D02*
X13657738Y-14591928D01*
X13657738Y-14591928D02*
X13648215Y-14572881D01*
X13648215Y-14572881D02*
X13629167Y-14563357D01*
X13629167Y-14563357D02*
X13600596Y-14563357D01*
X13600596Y-14563357D02*
X13581548Y-14553833D01*
X13581548Y-14553833D02*
X13572024Y-14534786D01*
X13572024Y-14534786D02*
X13572024Y-14525262D01*
X13572024Y-14525262D02*
X13581548Y-14506214D01*
X13581548Y-14506214D02*
X13600596Y-14496690D01*
X13600596Y-14496690D02*
X13629167Y-14496690D01*
X13629167Y-14496690D02*
X13648215Y-14506214D01*
X13724405Y-14706214D02*
X13733929Y-14696690D01*
X13733929Y-14696690D02*
X13752977Y-14668119D01*
X13752977Y-14668119D02*
X13762500Y-14649071D01*
X13762500Y-14649071D02*
X13772024Y-14620500D01*
X13772024Y-14620500D02*
X13781548Y-14572881D01*
X13781548Y-14572881D02*
X13781548Y-14534786D01*
X13781548Y-14534786D02*
X13772024Y-14487167D01*
X13772024Y-14487167D02*
X13762500Y-14458595D01*
X13762500Y-14458595D02*
X13752977Y-14439548D01*
X13752977Y-14439548D02*
X13733929Y-14410976D01*
X13733929Y-14410976D02*
X13724405Y-14401452D01*
X14086310Y-14706214D02*
X14076786Y-14696690D01*
X14076786Y-14696690D02*
X14057738Y-14668119D01*
X14057738Y-14668119D02*
X14048215Y-14649071D01*
X14048215Y-14649071D02*
X14038691Y-14620500D01*
X14038691Y-14620500D02*
X14029167Y-14572881D01*
X14029167Y-14572881D02*
X14029167Y-14534786D01*
X14029167Y-14534786D02*
X14038691Y-14487167D01*
X14038691Y-14487167D02*
X14048215Y-14458595D01*
X14048215Y-14458595D02*
X14057738Y-14439548D01*
X14057738Y-14439548D02*
X14076786Y-14410976D01*
X14076786Y-14410976D02*
X14086310Y-14401452D01*
X14162500Y-14496690D02*
X14162500Y-14630024D01*
X14162500Y-14515738D02*
X14172024Y-14506214D01*
X14172024Y-14506214D02*
X14191072Y-14496690D01*
X14191072Y-14496690D02*
X14219643Y-14496690D01*
X14219643Y-14496690D02*
X14238691Y-14506214D01*
X14238691Y-14506214D02*
X14248215Y-14525262D01*
X14248215Y-14525262D02*
X14248215Y-14630024D01*
X14372024Y-14630024D02*
X14352977Y-14620500D01*
X14352977Y-14620500D02*
X14343453Y-14610976D01*
X14343453Y-14610976D02*
X14333929Y-14591928D01*
X14333929Y-14591928D02*
X14333929Y-14534786D01*
X14333929Y-14534786D02*
X14343453Y-14515738D01*
X14343453Y-14515738D02*
X14352977Y-14506214D01*
X14352977Y-14506214D02*
X14372024Y-14496690D01*
X14372024Y-14496690D02*
X14400596Y-14496690D01*
X14400596Y-14496690D02*
X14419643Y-14506214D01*
X14419643Y-14506214D02*
X14429167Y-14515738D01*
X14429167Y-14515738D02*
X14438691Y-14534786D01*
X14438691Y-14534786D02*
X14438691Y-14591928D01*
X14438691Y-14591928D02*
X14429167Y-14610976D01*
X14429167Y-14610976D02*
X14419643Y-14620500D01*
X14419643Y-14620500D02*
X14400596Y-14630024D01*
X14400596Y-14630024D02*
X14372024Y-14630024D01*
X14495834Y-14496690D02*
X14572024Y-14496690D01*
X14524405Y-14430024D02*
X14524405Y-14601452D01*
X14524405Y-14601452D02*
X14533929Y-14620500D01*
X14533929Y-14620500D02*
X14552977Y-14630024D01*
X14552977Y-14630024D02*
X14572024Y-14630024D01*
X14791072Y-14496690D02*
X14791072Y-14696690D01*
X14791072Y-14506214D02*
X14810119Y-14496690D01*
X14810119Y-14496690D02*
X14848215Y-14496690D01*
X14848215Y-14496690D02*
X14867262Y-14506214D01*
X14867262Y-14506214D02*
X14876786Y-14515738D01*
X14876786Y-14515738D02*
X14886310Y-14534786D01*
X14886310Y-14534786D02*
X14886310Y-14591928D01*
X14886310Y-14591928D02*
X14876786Y-14610976D01*
X14876786Y-14610976D02*
X14867262Y-14620500D01*
X14867262Y-14620500D02*
X14848215Y-14630024D01*
X14848215Y-14630024D02*
X14810119Y-14630024D01*
X14810119Y-14630024D02*
X14791072Y-14620500D01*
X15000596Y-14630024D02*
X14981548Y-14620500D01*
X14981548Y-14620500D02*
X14972024Y-14601452D01*
X14972024Y-14601452D02*
X14972024Y-14430024D01*
X15162500Y-14630024D02*
X15162500Y-14525262D01*
X15162500Y-14525262D02*
X15152977Y-14506214D01*
X15152977Y-14506214D02*
X15133929Y-14496690D01*
X15133929Y-14496690D02*
X15095834Y-14496690D01*
X15095834Y-14496690D02*
X15076786Y-14506214D01*
X15162500Y-14620500D02*
X15143453Y-14630024D01*
X15143453Y-14630024D02*
X15095834Y-14630024D01*
X15095834Y-14630024D02*
X15076786Y-14620500D01*
X15076786Y-14620500D02*
X15067262Y-14601452D01*
X15067262Y-14601452D02*
X15067262Y-14582405D01*
X15067262Y-14582405D02*
X15076786Y-14563357D01*
X15076786Y-14563357D02*
X15095834Y-14553833D01*
X15095834Y-14553833D02*
X15143453Y-14553833D01*
X15143453Y-14553833D02*
X15162500Y-14544309D01*
X15229167Y-14496690D02*
X15305358Y-14496690D01*
X15257739Y-14430024D02*
X15257739Y-14601452D01*
X15257739Y-14601452D02*
X15267262Y-14620500D01*
X15267262Y-14620500D02*
X15286310Y-14630024D01*
X15286310Y-14630024D02*
X15305358Y-14630024D01*
X15448215Y-14620500D02*
X15429167Y-14630024D01*
X15429167Y-14630024D02*
X15391072Y-14630024D01*
X15391072Y-14630024D02*
X15372024Y-14620500D01*
X15372024Y-14620500D02*
X15362500Y-14601452D01*
X15362500Y-14601452D02*
X15362500Y-14525262D01*
X15362500Y-14525262D02*
X15372024Y-14506214D01*
X15372024Y-14506214D02*
X15391072Y-14496690D01*
X15391072Y-14496690D02*
X15429167Y-14496690D01*
X15429167Y-14496690D02*
X15448215Y-14506214D01*
X15448215Y-14506214D02*
X15457739Y-14525262D01*
X15457739Y-14525262D02*
X15457739Y-14544309D01*
X15457739Y-14544309D02*
X15362500Y-14563357D01*
X15629167Y-14630024D02*
X15629167Y-14430024D01*
X15629167Y-14620500D02*
X15610120Y-14630024D01*
X15610120Y-14630024D02*
X15572024Y-14630024D01*
X15572024Y-14630024D02*
X15552977Y-14620500D01*
X15552977Y-14620500D02*
X15543453Y-14610976D01*
X15543453Y-14610976D02*
X15533929Y-14591928D01*
X15533929Y-14591928D02*
X15533929Y-14534786D01*
X15533929Y-14534786D02*
X15543453Y-14515738D01*
X15543453Y-14515738D02*
X15552977Y-14506214D01*
X15552977Y-14506214D02*
X15572024Y-14496690D01*
X15572024Y-14496690D02*
X15610120Y-14496690D01*
X15610120Y-14496690D02*
X15629167Y-14506214D01*
X15705358Y-14706214D02*
X15714881Y-14696690D01*
X15714881Y-14696690D02*
X15733929Y-14668119D01*
X15733929Y-14668119D02*
X15743453Y-14649071D01*
X15743453Y-14649071D02*
X15752977Y-14620500D01*
X15752977Y-14620500D02*
X15762500Y-14572881D01*
X15762500Y-14572881D02*
X15762500Y-14534786D01*
X15762500Y-14534786D02*
X15752977Y-14487167D01*
X15752977Y-14487167D02*
X15743453Y-14458595D01*
X15743453Y-14458595D02*
X15733929Y-14439548D01*
X15733929Y-14439548D02*
X15714881Y-14410976D01*
X15714881Y-14410976D02*
X15705358Y-14401452D01*
M02*
