M48
; DRILL file {KiCad 7.0.1} date Sun Aug 11 00:25:13 2024
; FORMAT={-:-/ absolute / metric / decimal}
; #@! TF.CreationDate,2024-08-11T00:25:13+02:00
; #@! TF.GenerationSoftware,Kicad,Pcbnew,7.0.1
; #@! TF.FileFunction,Plated,1,2,PTH
FMAT,2
METRIC
; #@! TA.AperFunction,Plated,PTH,ViaDrill
T1C0.400
; #@! TA.AperFunction,Plated,PTH,ComponentDrill
T2C0.680
; #@! TA.AperFunction,Plated,PTH,ViaDrill
T3C0.750
; #@! TA.AperFunction,Plated,PTH,ComponentDrill
T4C0.800
; #@! TA.AperFunction,Plated,PTH,ComponentDrill
T5C1.000
; #@! TA.AperFunction,Plated,PTH,ComponentDrill
T6C1.100
; #@! TA.AperFunction,Plated,PTH,ComponentDrill
T7C1.330
; #@! TA.AperFunction,Plated,PTH,ComponentDrill
T8C1.800
%
G90
G05
T1
X101.6Y-88.265
X103.505Y-91.44
X106.045Y-92.71
X111.76Y-113.03
X113.03Y-101.6
X113.03Y-109.22
X113.03Y-110.49
X114.3Y-104.775
X114.3Y-107.95
X114.3Y-109.22
X116.84Y-107.95
X116.84Y-117.475
X117.475Y-123.19
X119.38Y-102.235
X119.38Y-120.65
X120.015Y-114.935
X120.015Y-116.205
X120.015Y-117.475
X120.015Y-124.46
X120.65Y-121.92
X121.92Y-100.33
X121.92Y-113.03
X121.92Y-114.3
X121.92Y-123.19
X123.19Y-119.38
X123.825Y-110.49
X124.46Y-93.345
X124.46Y-104.14
X124.46Y-125.73
X125.095Y-119.38
X125.73Y-104.14
X125.73Y-114.3
X125.73Y-116.84
X126.365Y-93.345
X127.0Y-104.14
X127.0Y-125.73
X128.27Y-104.14
X128.905Y-100.33
X131.445Y-105.41
X132.08Y-92.075
X141.605Y-42.545
X146.685Y-37.465
X170.815Y-114.935
X173.355Y-130.175
X175.26Y-126.365
X175.26Y-130.175
T2
X102.235Y-108.685
X102.235Y-113.565
T3
X92.71Y-78.74
X96.52Y-102.87
X97.79Y-62.23
X100.33Y-124.46
X105.41Y-50.8
X106.68Y-68.58
X110.49Y-82.55
X113.03Y-129.54
X119.38Y-47.244
X121.92Y-71.12
X123.19Y-83.82
X124.46Y-53.34
X127.0Y-34.29
X132.715Y-38.735
X133.35Y-138.43
X134.62Y-44.196
X134.62Y-55.88
X137.16Y-148.59
X139.7Y-69.85
X139.7Y-95.25
X140.97Y-54.61
X140.97Y-85.09
X143.51Y-25.4
X149.225Y-35.56
X149.86Y-99.06
X149.86Y-114.3
X149.86Y-130.81
X151.13Y-69.85
X151.765Y-46.355
X153.67Y-57.15
X154.94Y-41.91
X158.75Y-124.46
X162.56Y-45.72
X162.56Y-80.01
X166.37Y-146.685
X167.64Y-142.24
X168.91Y-68.58
X175.26Y-39.37
X175.26Y-60.96
X177.8Y-109.22
X180.34Y-95.25
X184.15Y-82.55
X185.42Y-120.65
X191.77Y-137.16
X195.58Y-91.44
X195.58Y-121.412
X196.088Y-110.744
X196.85Y-44.45
X196.85Y-62.23
X197.485Y-72.39
X204.47Y-129.54
X205.105Y-80.01
X205.74Y-87.63
X206.248Y-58.42
X208.28Y-67.31
X208.28Y-106.68
X218.44Y-93.98
T4
X167.107Y-82.55
X167.107Y-95.25
X167.107Y-107.95
X170.907Y-82.55
X170.907Y-95.25
X170.907Y-107.95
X183.617Y-44.45
X183.617Y-59.69
X187.417Y-44.45
X187.417Y-59.69
T5
X113.03Y-96.52
X115.57Y-96.52
X118.11Y-96.52
X120.65Y-96.52
X123.19Y-96.52
X133.35Y-96.52
X133.35Y-99.06
X133.35Y-101.6
X133.35Y-104.14
X133.35Y-106.68
X133.35Y-109.22
X133.35Y-111.76
X133.35Y-114.3
X133.35Y-116.84
X133.35Y-119.38
X133.35Y-121.92
X133.35Y-124.46
X144.36Y-103.68
X144.36Y-109.68
X155.36Y-103.68
X155.36Y-109.68
X175.56Y-137.2
X175.56Y-142.2
X180.56Y-139.7
T6
X120.575Y-135.545
X120.575Y-140.045
X127.075Y-135.545
X127.075Y-140.045
X146.05Y-86.36
X146.05Y-96.52
X146.05Y-114.3
X146.05Y-124.46
X146.05Y-128.905
X146.05Y-139.065
X153.67Y-86.36
X153.67Y-96.52
X153.67Y-114.3
X153.67Y-124.46
X153.67Y-128.905
X153.67Y-139.065
T7
X147.32Y-78.74
X149.86Y-78.74
X152.4Y-78.74
X194.31Y-74.93
X194.31Y-77.47
X194.31Y-80.01
X194.31Y-97.79
X194.31Y-100.33
X194.31Y-102.87
T8
X161.29Y-52.07
X171.45Y-52.07
T4
X147.6Y-29.13G85X147.6Y-31.83
G05
X153.5Y-26.98G85X151.3Y-26.98
G05
X153.5Y-32.98G85X151.3Y-32.98
G05
T0
M30
