%TF.GenerationSoftware,KiCad,Pcbnew,7.0.1*%
%TF.CreationDate,2024-08-11T00:25:22+02:00*%
%TF.ProjectId,uTesla,75546573-6c61-42e6-9b69-6361645f7063,rev?*%
%TF.SameCoordinates,Original*%
%TF.FileFunction,Drillmap*%
%TF.FilePolarity,Positive*%
%FSLAX45Y45*%
G04 Gerber Fmt 4.5, Leading zero omitted, Abs format (unit mm)*
G04 Created by KiCad (PCBNEW 7.0.1) date 2024-08-11 00:25:22*
%MOMM*%
%LPD*%
G01*
G04 APERTURE LIST*
%ADD10C,0.100000*%
%ADD11C,0.200000*%
G04 APERTURE END LIST*
D10*
X22240000Y-8890000D02*
G75*
G03*
X22240000Y-8890000I-7000000J0D01*
G01*
D11*
D10*
X8642000Y-8472000D02*
X8742000Y-8572000D01*
X8742000Y-8472000D02*
X8642000Y-8572000D01*
X8642000Y-9272000D02*
X8742000Y-9372000D01*
X8742000Y-9272000D02*
X8642000Y-9372000D01*
D11*
X8482619Y-16207524D02*
X8482619Y-16007524D01*
X8482619Y-16007524D02*
X8530238Y-16007524D01*
X8530238Y-16007524D02*
X8558810Y-16017048D01*
X8558810Y-16017048D02*
X8577857Y-16036095D01*
X8577857Y-16036095D02*
X8587381Y-16055143D01*
X8587381Y-16055143D02*
X8596905Y-16093238D01*
X8596905Y-16093238D02*
X8596905Y-16121809D01*
X8596905Y-16121809D02*
X8587381Y-16159905D01*
X8587381Y-16159905D02*
X8577857Y-16178952D01*
X8577857Y-16178952D02*
X8558810Y-16198000D01*
X8558810Y-16198000D02*
X8530238Y-16207524D01*
X8530238Y-16207524D02*
X8482619Y-16207524D01*
X8682619Y-16207524D02*
X8682619Y-16074190D01*
X8682619Y-16112286D02*
X8692143Y-16093238D01*
X8692143Y-16093238D02*
X8701667Y-16083714D01*
X8701667Y-16083714D02*
X8720714Y-16074190D01*
X8720714Y-16074190D02*
X8739762Y-16074190D01*
X8806429Y-16207524D02*
X8806429Y-16074190D01*
X8806429Y-16007524D02*
X8796905Y-16017048D01*
X8796905Y-16017048D02*
X8806429Y-16026571D01*
X8806429Y-16026571D02*
X8815952Y-16017048D01*
X8815952Y-16017048D02*
X8806429Y-16007524D01*
X8806429Y-16007524D02*
X8806429Y-16026571D01*
X8930238Y-16207524D02*
X8911190Y-16198000D01*
X8911190Y-16198000D02*
X8901667Y-16178952D01*
X8901667Y-16178952D02*
X8901667Y-16007524D01*
X9035000Y-16207524D02*
X9015952Y-16198000D01*
X9015952Y-16198000D02*
X9006429Y-16178952D01*
X9006429Y-16178952D02*
X9006429Y-16007524D01*
X9263571Y-16207524D02*
X9263571Y-16007524D01*
X9263571Y-16007524D02*
X9330238Y-16150381D01*
X9330238Y-16150381D02*
X9396905Y-16007524D01*
X9396905Y-16007524D02*
X9396905Y-16207524D01*
X9577857Y-16207524D02*
X9577857Y-16102762D01*
X9577857Y-16102762D02*
X9568333Y-16083714D01*
X9568333Y-16083714D02*
X9549286Y-16074190D01*
X9549286Y-16074190D02*
X9511190Y-16074190D01*
X9511190Y-16074190D02*
X9492143Y-16083714D01*
X9577857Y-16198000D02*
X9558810Y-16207524D01*
X9558810Y-16207524D02*
X9511190Y-16207524D01*
X9511190Y-16207524D02*
X9492143Y-16198000D01*
X9492143Y-16198000D02*
X9482619Y-16178952D01*
X9482619Y-16178952D02*
X9482619Y-16159905D01*
X9482619Y-16159905D02*
X9492143Y-16140857D01*
X9492143Y-16140857D02*
X9511190Y-16131333D01*
X9511190Y-16131333D02*
X9558810Y-16131333D01*
X9558810Y-16131333D02*
X9577857Y-16121809D01*
X9673095Y-16074190D02*
X9673095Y-16274190D01*
X9673095Y-16083714D02*
X9692143Y-16074190D01*
X9692143Y-16074190D02*
X9730238Y-16074190D01*
X9730238Y-16074190D02*
X9749286Y-16083714D01*
X9749286Y-16083714D02*
X9758810Y-16093238D01*
X9758810Y-16093238D02*
X9768333Y-16112286D01*
X9768333Y-16112286D02*
X9768333Y-16169428D01*
X9768333Y-16169428D02*
X9758810Y-16188476D01*
X9758810Y-16188476D02*
X9749286Y-16198000D01*
X9749286Y-16198000D02*
X9730238Y-16207524D01*
X9730238Y-16207524D02*
X9692143Y-16207524D01*
X9692143Y-16207524D02*
X9673095Y-16198000D01*
X9854048Y-16188476D02*
X9863571Y-16198000D01*
X9863571Y-16198000D02*
X9854048Y-16207524D01*
X9854048Y-16207524D02*
X9844524Y-16198000D01*
X9844524Y-16198000D02*
X9854048Y-16188476D01*
X9854048Y-16188476D02*
X9854048Y-16207524D01*
X9854048Y-16083714D02*
X9863571Y-16093238D01*
X9863571Y-16093238D02*
X9854048Y-16102762D01*
X9854048Y-16102762D02*
X9844524Y-16093238D01*
X9844524Y-16093238D02*
X9854048Y-16083714D01*
X9854048Y-16083714D02*
X9854048Y-16102762D01*
D10*
X8135000Y-16485000D02*
X8235000Y-16585000D01*
X8235000Y-16485000D02*
X8135000Y-16585000D01*
D11*
X8587381Y-16627524D02*
X8473095Y-16627524D01*
X8530238Y-16627524D02*
X8530238Y-16427524D01*
X8530238Y-16427524D02*
X8511190Y-16456095D01*
X8511190Y-16456095D02*
X8492143Y-16475143D01*
X8492143Y-16475143D02*
X8473095Y-16484667D01*
X8673095Y-16608476D02*
X8682619Y-16618000D01*
X8682619Y-16618000D02*
X8673095Y-16627524D01*
X8673095Y-16627524D02*
X8663571Y-16618000D01*
X8663571Y-16618000D02*
X8673095Y-16608476D01*
X8673095Y-16608476D02*
X8673095Y-16627524D01*
X8806429Y-16427524D02*
X8825476Y-16427524D01*
X8825476Y-16427524D02*
X8844524Y-16437048D01*
X8844524Y-16437048D02*
X8854048Y-16446571D01*
X8854048Y-16446571D02*
X8863571Y-16465619D01*
X8863571Y-16465619D02*
X8873095Y-16503714D01*
X8873095Y-16503714D02*
X8873095Y-16551333D01*
X8873095Y-16551333D02*
X8863571Y-16589428D01*
X8863571Y-16589428D02*
X8854048Y-16608476D01*
X8854048Y-16608476D02*
X8844524Y-16618000D01*
X8844524Y-16618000D02*
X8825476Y-16627524D01*
X8825476Y-16627524D02*
X8806429Y-16627524D01*
X8806429Y-16627524D02*
X8787381Y-16618000D01*
X8787381Y-16618000D02*
X8777857Y-16608476D01*
X8777857Y-16608476D02*
X8768333Y-16589428D01*
X8768333Y-16589428D02*
X8758810Y-16551333D01*
X8758810Y-16551333D02*
X8758810Y-16503714D01*
X8758810Y-16503714D02*
X8768333Y-16465619D01*
X8768333Y-16465619D02*
X8777857Y-16446571D01*
X8777857Y-16446571D02*
X8787381Y-16437048D01*
X8787381Y-16437048D02*
X8806429Y-16427524D01*
X8996905Y-16427524D02*
X9015952Y-16427524D01*
X9015952Y-16427524D02*
X9035000Y-16437048D01*
X9035000Y-16437048D02*
X9044524Y-16446571D01*
X9044524Y-16446571D02*
X9054048Y-16465619D01*
X9054048Y-16465619D02*
X9063571Y-16503714D01*
X9063571Y-16503714D02*
X9063571Y-16551333D01*
X9063571Y-16551333D02*
X9054048Y-16589428D01*
X9054048Y-16589428D02*
X9044524Y-16608476D01*
X9044524Y-16608476D02*
X9035000Y-16618000D01*
X9035000Y-16618000D02*
X9015952Y-16627524D01*
X9015952Y-16627524D02*
X8996905Y-16627524D01*
X8996905Y-16627524D02*
X8977857Y-16618000D01*
X8977857Y-16618000D02*
X8968333Y-16608476D01*
X8968333Y-16608476D02*
X8958810Y-16589428D01*
X8958810Y-16589428D02*
X8949286Y-16551333D01*
X8949286Y-16551333D02*
X8949286Y-16503714D01*
X8949286Y-16503714D02*
X8958810Y-16465619D01*
X8958810Y-16465619D02*
X8968333Y-16446571D01*
X8968333Y-16446571D02*
X8977857Y-16437048D01*
X8977857Y-16437048D02*
X8996905Y-16427524D01*
X9187381Y-16427524D02*
X9206429Y-16427524D01*
X9206429Y-16427524D02*
X9225476Y-16437048D01*
X9225476Y-16437048D02*
X9235000Y-16446571D01*
X9235000Y-16446571D02*
X9244524Y-16465619D01*
X9244524Y-16465619D02*
X9254048Y-16503714D01*
X9254048Y-16503714D02*
X9254048Y-16551333D01*
X9254048Y-16551333D02*
X9244524Y-16589428D01*
X9244524Y-16589428D02*
X9235000Y-16608476D01*
X9235000Y-16608476D02*
X9225476Y-16618000D01*
X9225476Y-16618000D02*
X9206429Y-16627524D01*
X9206429Y-16627524D02*
X9187381Y-16627524D01*
X9187381Y-16627524D02*
X9168333Y-16618000D01*
X9168333Y-16618000D02*
X9158810Y-16608476D01*
X9158810Y-16608476D02*
X9149286Y-16589428D01*
X9149286Y-16589428D02*
X9139762Y-16551333D01*
X9139762Y-16551333D02*
X9139762Y-16503714D01*
X9139762Y-16503714D02*
X9149286Y-16465619D01*
X9149286Y-16465619D02*
X9158810Y-16446571D01*
X9158810Y-16446571D02*
X9168333Y-16437048D01*
X9168333Y-16437048D02*
X9187381Y-16427524D01*
X9339762Y-16627524D02*
X9339762Y-16494190D01*
X9339762Y-16513238D02*
X9349286Y-16503714D01*
X9349286Y-16503714D02*
X9368333Y-16494190D01*
X9368333Y-16494190D02*
X9396905Y-16494190D01*
X9396905Y-16494190D02*
X9415952Y-16503714D01*
X9415952Y-16503714D02*
X9425476Y-16522762D01*
X9425476Y-16522762D02*
X9425476Y-16627524D01*
X9425476Y-16522762D02*
X9435000Y-16503714D01*
X9435000Y-16503714D02*
X9454048Y-16494190D01*
X9454048Y-16494190D02*
X9482619Y-16494190D01*
X9482619Y-16494190D02*
X9501667Y-16503714D01*
X9501667Y-16503714D02*
X9511191Y-16522762D01*
X9511191Y-16522762D02*
X9511191Y-16627524D01*
X9606429Y-16627524D02*
X9606429Y-16494190D01*
X9606429Y-16513238D02*
X9615952Y-16503714D01*
X9615952Y-16503714D02*
X9635000Y-16494190D01*
X9635000Y-16494190D02*
X9663572Y-16494190D01*
X9663572Y-16494190D02*
X9682619Y-16503714D01*
X9682619Y-16503714D02*
X9692143Y-16522762D01*
X9692143Y-16522762D02*
X9692143Y-16627524D01*
X9692143Y-16522762D02*
X9701667Y-16503714D01*
X9701667Y-16503714D02*
X9720714Y-16494190D01*
X9720714Y-16494190D02*
X9749286Y-16494190D01*
X9749286Y-16494190D02*
X9768333Y-16503714D01*
X9768333Y-16503714D02*
X9777857Y-16522762D01*
X9777857Y-16522762D02*
X9777857Y-16627524D01*
X10168333Y-16418000D02*
X9996905Y-16675143D01*
X10425476Y-16427524D02*
X10444524Y-16427524D01*
X10444524Y-16427524D02*
X10463572Y-16437048D01*
X10463572Y-16437048D02*
X10473095Y-16446571D01*
X10473095Y-16446571D02*
X10482619Y-16465619D01*
X10482619Y-16465619D02*
X10492143Y-16503714D01*
X10492143Y-16503714D02*
X10492143Y-16551333D01*
X10492143Y-16551333D02*
X10482619Y-16589428D01*
X10482619Y-16589428D02*
X10473095Y-16608476D01*
X10473095Y-16608476D02*
X10463572Y-16618000D01*
X10463572Y-16618000D02*
X10444524Y-16627524D01*
X10444524Y-16627524D02*
X10425476Y-16627524D01*
X10425476Y-16627524D02*
X10406429Y-16618000D01*
X10406429Y-16618000D02*
X10396905Y-16608476D01*
X10396905Y-16608476D02*
X10387381Y-16589428D01*
X10387381Y-16589428D02*
X10377857Y-16551333D01*
X10377857Y-16551333D02*
X10377857Y-16503714D01*
X10377857Y-16503714D02*
X10387381Y-16465619D01*
X10387381Y-16465619D02*
X10396905Y-16446571D01*
X10396905Y-16446571D02*
X10406429Y-16437048D01*
X10406429Y-16437048D02*
X10425476Y-16427524D01*
X10577857Y-16608476D02*
X10587381Y-16618000D01*
X10587381Y-16618000D02*
X10577857Y-16627524D01*
X10577857Y-16627524D02*
X10568334Y-16618000D01*
X10568334Y-16618000D02*
X10577857Y-16608476D01*
X10577857Y-16608476D02*
X10577857Y-16627524D01*
X10711191Y-16427524D02*
X10730238Y-16427524D01*
X10730238Y-16427524D02*
X10749286Y-16437048D01*
X10749286Y-16437048D02*
X10758810Y-16446571D01*
X10758810Y-16446571D02*
X10768334Y-16465619D01*
X10768334Y-16465619D02*
X10777857Y-16503714D01*
X10777857Y-16503714D02*
X10777857Y-16551333D01*
X10777857Y-16551333D02*
X10768334Y-16589428D01*
X10768334Y-16589428D02*
X10758810Y-16608476D01*
X10758810Y-16608476D02*
X10749286Y-16618000D01*
X10749286Y-16618000D02*
X10730238Y-16627524D01*
X10730238Y-16627524D02*
X10711191Y-16627524D01*
X10711191Y-16627524D02*
X10692143Y-16618000D01*
X10692143Y-16618000D02*
X10682619Y-16608476D01*
X10682619Y-16608476D02*
X10673095Y-16589428D01*
X10673095Y-16589428D02*
X10663572Y-16551333D01*
X10663572Y-16551333D02*
X10663572Y-16503714D01*
X10663572Y-16503714D02*
X10673095Y-16465619D01*
X10673095Y-16465619D02*
X10682619Y-16446571D01*
X10682619Y-16446571D02*
X10692143Y-16437048D01*
X10692143Y-16437048D02*
X10711191Y-16427524D01*
X10844524Y-16427524D02*
X10968334Y-16427524D01*
X10968334Y-16427524D02*
X10901667Y-16503714D01*
X10901667Y-16503714D02*
X10930238Y-16503714D01*
X10930238Y-16503714D02*
X10949286Y-16513238D01*
X10949286Y-16513238D02*
X10958810Y-16522762D01*
X10958810Y-16522762D02*
X10968334Y-16541809D01*
X10968334Y-16541809D02*
X10968334Y-16589428D01*
X10968334Y-16589428D02*
X10958810Y-16608476D01*
X10958810Y-16608476D02*
X10949286Y-16618000D01*
X10949286Y-16618000D02*
X10930238Y-16627524D01*
X10930238Y-16627524D02*
X10873095Y-16627524D01*
X10873095Y-16627524D02*
X10854048Y-16618000D01*
X10854048Y-16618000D02*
X10844524Y-16608476D01*
X11063572Y-16627524D02*
X11101667Y-16627524D01*
X11101667Y-16627524D02*
X11120715Y-16618000D01*
X11120715Y-16618000D02*
X11130238Y-16608476D01*
X11130238Y-16608476D02*
X11149286Y-16579905D01*
X11149286Y-16579905D02*
X11158810Y-16541809D01*
X11158810Y-16541809D02*
X11158810Y-16465619D01*
X11158810Y-16465619D02*
X11149286Y-16446571D01*
X11149286Y-16446571D02*
X11139762Y-16437048D01*
X11139762Y-16437048D02*
X11120715Y-16427524D01*
X11120715Y-16427524D02*
X11082619Y-16427524D01*
X11082619Y-16427524D02*
X11063572Y-16437048D01*
X11063572Y-16437048D02*
X11054048Y-16446571D01*
X11054048Y-16446571D02*
X11044524Y-16465619D01*
X11044524Y-16465619D02*
X11044524Y-16513238D01*
X11044524Y-16513238D02*
X11054048Y-16532286D01*
X11054048Y-16532286D02*
X11063572Y-16541809D01*
X11063572Y-16541809D02*
X11082619Y-16551333D01*
X11082619Y-16551333D02*
X11120715Y-16551333D01*
X11120715Y-16551333D02*
X11139762Y-16541809D01*
X11139762Y-16541809D02*
X11149286Y-16532286D01*
X11149286Y-16532286D02*
X11158810Y-16513238D01*
X11330238Y-16494190D02*
X11330238Y-16627524D01*
X11282619Y-16418000D02*
X11235000Y-16560857D01*
X11235000Y-16560857D02*
X11358810Y-16560857D01*
X11425476Y-16427524D02*
X11425476Y-16465619D01*
X11501667Y-16427524D02*
X11501667Y-16465619D01*
X11796905Y-16703714D02*
X11787381Y-16694190D01*
X11787381Y-16694190D02*
X11768334Y-16665619D01*
X11768334Y-16665619D02*
X11758810Y-16646571D01*
X11758810Y-16646571D02*
X11749286Y-16618000D01*
X11749286Y-16618000D02*
X11739762Y-16570381D01*
X11739762Y-16570381D02*
X11739762Y-16532286D01*
X11739762Y-16532286D02*
X11749286Y-16484667D01*
X11749286Y-16484667D02*
X11758810Y-16456095D01*
X11758810Y-16456095D02*
X11768334Y-16437048D01*
X11768334Y-16437048D02*
X11787381Y-16408476D01*
X11787381Y-16408476D02*
X11796905Y-16398952D01*
X11863572Y-16446571D02*
X11873095Y-16437048D01*
X11873095Y-16437048D02*
X11892143Y-16427524D01*
X11892143Y-16427524D02*
X11939762Y-16427524D01*
X11939762Y-16427524D02*
X11958810Y-16437048D01*
X11958810Y-16437048D02*
X11968334Y-16446571D01*
X11968334Y-16446571D02*
X11977857Y-16465619D01*
X11977857Y-16465619D02*
X11977857Y-16484667D01*
X11977857Y-16484667D02*
X11968334Y-16513238D01*
X11968334Y-16513238D02*
X11854048Y-16627524D01*
X11854048Y-16627524D02*
X11977857Y-16627524D01*
X12215953Y-16627524D02*
X12215953Y-16427524D01*
X12301667Y-16627524D02*
X12301667Y-16522762D01*
X12301667Y-16522762D02*
X12292143Y-16503714D01*
X12292143Y-16503714D02*
X12273096Y-16494190D01*
X12273096Y-16494190D02*
X12244524Y-16494190D01*
X12244524Y-16494190D02*
X12225476Y-16503714D01*
X12225476Y-16503714D02*
X12215953Y-16513238D01*
X12425476Y-16627524D02*
X12406429Y-16618000D01*
X12406429Y-16618000D02*
X12396905Y-16608476D01*
X12396905Y-16608476D02*
X12387381Y-16589428D01*
X12387381Y-16589428D02*
X12387381Y-16532286D01*
X12387381Y-16532286D02*
X12396905Y-16513238D01*
X12396905Y-16513238D02*
X12406429Y-16503714D01*
X12406429Y-16503714D02*
X12425476Y-16494190D01*
X12425476Y-16494190D02*
X12454048Y-16494190D01*
X12454048Y-16494190D02*
X12473096Y-16503714D01*
X12473096Y-16503714D02*
X12482619Y-16513238D01*
X12482619Y-16513238D02*
X12492143Y-16532286D01*
X12492143Y-16532286D02*
X12492143Y-16589428D01*
X12492143Y-16589428D02*
X12482619Y-16608476D01*
X12482619Y-16608476D02*
X12473096Y-16618000D01*
X12473096Y-16618000D02*
X12454048Y-16627524D01*
X12454048Y-16627524D02*
X12425476Y-16627524D01*
X12606429Y-16627524D02*
X12587381Y-16618000D01*
X12587381Y-16618000D02*
X12577857Y-16598952D01*
X12577857Y-16598952D02*
X12577857Y-16427524D01*
X12758810Y-16618000D02*
X12739762Y-16627524D01*
X12739762Y-16627524D02*
X12701667Y-16627524D01*
X12701667Y-16627524D02*
X12682619Y-16618000D01*
X12682619Y-16618000D02*
X12673096Y-16598952D01*
X12673096Y-16598952D02*
X12673096Y-16522762D01*
X12673096Y-16522762D02*
X12682619Y-16503714D01*
X12682619Y-16503714D02*
X12701667Y-16494190D01*
X12701667Y-16494190D02*
X12739762Y-16494190D01*
X12739762Y-16494190D02*
X12758810Y-16503714D01*
X12758810Y-16503714D02*
X12768334Y-16522762D01*
X12768334Y-16522762D02*
X12768334Y-16541809D01*
X12768334Y-16541809D02*
X12673096Y-16560857D01*
X12844524Y-16618000D02*
X12863572Y-16627524D01*
X12863572Y-16627524D02*
X12901667Y-16627524D01*
X12901667Y-16627524D02*
X12920715Y-16618000D01*
X12920715Y-16618000D02*
X12930238Y-16598952D01*
X12930238Y-16598952D02*
X12930238Y-16589428D01*
X12930238Y-16589428D02*
X12920715Y-16570381D01*
X12920715Y-16570381D02*
X12901667Y-16560857D01*
X12901667Y-16560857D02*
X12873096Y-16560857D01*
X12873096Y-16560857D02*
X12854048Y-16551333D01*
X12854048Y-16551333D02*
X12844524Y-16532286D01*
X12844524Y-16532286D02*
X12844524Y-16522762D01*
X12844524Y-16522762D02*
X12854048Y-16503714D01*
X12854048Y-16503714D02*
X12873096Y-16494190D01*
X12873096Y-16494190D02*
X12901667Y-16494190D01*
X12901667Y-16494190D02*
X12920715Y-16503714D01*
X12996905Y-16703714D02*
X13006429Y-16694190D01*
X13006429Y-16694190D02*
X13025477Y-16665619D01*
X13025477Y-16665619D02*
X13035000Y-16646571D01*
X13035000Y-16646571D02*
X13044524Y-16618000D01*
X13044524Y-16618000D02*
X13054048Y-16570381D01*
X13054048Y-16570381D02*
X13054048Y-16532286D01*
X13054048Y-16532286D02*
X13044524Y-16484667D01*
X13044524Y-16484667D02*
X13035000Y-16456095D01*
X13035000Y-16456095D02*
X13025477Y-16437048D01*
X13025477Y-16437048D02*
X13006429Y-16408476D01*
X13006429Y-16408476D02*
X12996905Y-16398952D01*
X13358810Y-16703714D02*
X13349286Y-16694190D01*
X13349286Y-16694190D02*
X13330238Y-16665619D01*
X13330238Y-16665619D02*
X13320715Y-16646571D01*
X13320715Y-16646571D02*
X13311191Y-16618000D01*
X13311191Y-16618000D02*
X13301667Y-16570381D01*
X13301667Y-16570381D02*
X13301667Y-16532286D01*
X13301667Y-16532286D02*
X13311191Y-16484667D01*
X13311191Y-16484667D02*
X13320715Y-16456095D01*
X13320715Y-16456095D02*
X13330238Y-16437048D01*
X13330238Y-16437048D02*
X13349286Y-16408476D01*
X13349286Y-16408476D02*
X13358810Y-16398952D01*
X13435000Y-16494190D02*
X13435000Y-16627524D01*
X13435000Y-16513238D02*
X13444524Y-16503714D01*
X13444524Y-16503714D02*
X13463572Y-16494190D01*
X13463572Y-16494190D02*
X13492143Y-16494190D01*
X13492143Y-16494190D02*
X13511191Y-16503714D01*
X13511191Y-16503714D02*
X13520715Y-16522762D01*
X13520715Y-16522762D02*
X13520715Y-16627524D01*
X13644524Y-16627524D02*
X13625477Y-16618000D01*
X13625477Y-16618000D02*
X13615953Y-16608476D01*
X13615953Y-16608476D02*
X13606429Y-16589428D01*
X13606429Y-16589428D02*
X13606429Y-16532286D01*
X13606429Y-16532286D02*
X13615953Y-16513238D01*
X13615953Y-16513238D02*
X13625477Y-16503714D01*
X13625477Y-16503714D02*
X13644524Y-16494190D01*
X13644524Y-16494190D02*
X13673096Y-16494190D01*
X13673096Y-16494190D02*
X13692143Y-16503714D01*
X13692143Y-16503714D02*
X13701667Y-16513238D01*
X13701667Y-16513238D02*
X13711191Y-16532286D01*
X13711191Y-16532286D02*
X13711191Y-16589428D01*
X13711191Y-16589428D02*
X13701667Y-16608476D01*
X13701667Y-16608476D02*
X13692143Y-16618000D01*
X13692143Y-16618000D02*
X13673096Y-16627524D01*
X13673096Y-16627524D02*
X13644524Y-16627524D01*
X13768334Y-16494190D02*
X13844524Y-16494190D01*
X13796905Y-16427524D02*
X13796905Y-16598952D01*
X13796905Y-16598952D02*
X13806429Y-16618000D01*
X13806429Y-16618000D02*
X13825477Y-16627524D01*
X13825477Y-16627524D02*
X13844524Y-16627524D01*
X14063572Y-16494190D02*
X14063572Y-16694190D01*
X14063572Y-16503714D02*
X14082619Y-16494190D01*
X14082619Y-16494190D02*
X14120715Y-16494190D01*
X14120715Y-16494190D02*
X14139762Y-16503714D01*
X14139762Y-16503714D02*
X14149286Y-16513238D01*
X14149286Y-16513238D02*
X14158810Y-16532286D01*
X14158810Y-16532286D02*
X14158810Y-16589428D01*
X14158810Y-16589428D02*
X14149286Y-16608476D01*
X14149286Y-16608476D02*
X14139762Y-16618000D01*
X14139762Y-16618000D02*
X14120715Y-16627524D01*
X14120715Y-16627524D02*
X14082619Y-16627524D01*
X14082619Y-16627524D02*
X14063572Y-16618000D01*
X14273096Y-16627524D02*
X14254048Y-16618000D01*
X14254048Y-16618000D02*
X14244524Y-16598952D01*
X14244524Y-16598952D02*
X14244524Y-16427524D01*
X14435000Y-16627524D02*
X14435000Y-16522762D01*
X14435000Y-16522762D02*
X14425477Y-16503714D01*
X14425477Y-16503714D02*
X14406429Y-16494190D01*
X14406429Y-16494190D02*
X14368334Y-16494190D01*
X14368334Y-16494190D02*
X14349286Y-16503714D01*
X14435000Y-16618000D02*
X14415953Y-16627524D01*
X14415953Y-16627524D02*
X14368334Y-16627524D01*
X14368334Y-16627524D02*
X14349286Y-16618000D01*
X14349286Y-16618000D02*
X14339762Y-16598952D01*
X14339762Y-16598952D02*
X14339762Y-16579905D01*
X14339762Y-16579905D02*
X14349286Y-16560857D01*
X14349286Y-16560857D02*
X14368334Y-16551333D01*
X14368334Y-16551333D02*
X14415953Y-16551333D01*
X14415953Y-16551333D02*
X14435000Y-16541809D01*
X14501667Y-16494190D02*
X14577858Y-16494190D01*
X14530239Y-16427524D02*
X14530239Y-16598952D01*
X14530239Y-16598952D02*
X14539762Y-16618000D01*
X14539762Y-16618000D02*
X14558810Y-16627524D01*
X14558810Y-16627524D02*
X14577858Y-16627524D01*
X14720715Y-16618000D02*
X14701667Y-16627524D01*
X14701667Y-16627524D02*
X14663572Y-16627524D01*
X14663572Y-16627524D02*
X14644524Y-16618000D01*
X14644524Y-16618000D02*
X14635000Y-16598952D01*
X14635000Y-16598952D02*
X14635000Y-16522762D01*
X14635000Y-16522762D02*
X14644524Y-16503714D01*
X14644524Y-16503714D02*
X14663572Y-16494190D01*
X14663572Y-16494190D02*
X14701667Y-16494190D01*
X14701667Y-16494190D02*
X14720715Y-16503714D01*
X14720715Y-16503714D02*
X14730239Y-16522762D01*
X14730239Y-16522762D02*
X14730239Y-16541809D01*
X14730239Y-16541809D02*
X14635000Y-16560857D01*
X14901667Y-16627524D02*
X14901667Y-16427524D01*
X14901667Y-16618000D02*
X14882620Y-16627524D01*
X14882620Y-16627524D02*
X14844524Y-16627524D01*
X14844524Y-16627524D02*
X14825477Y-16618000D01*
X14825477Y-16618000D02*
X14815953Y-16608476D01*
X14815953Y-16608476D02*
X14806429Y-16589428D01*
X14806429Y-16589428D02*
X14806429Y-16532286D01*
X14806429Y-16532286D02*
X14815953Y-16513238D01*
X14815953Y-16513238D02*
X14825477Y-16503714D01*
X14825477Y-16503714D02*
X14844524Y-16494190D01*
X14844524Y-16494190D02*
X14882620Y-16494190D01*
X14882620Y-16494190D02*
X14901667Y-16503714D01*
X14977858Y-16703714D02*
X14987381Y-16694190D01*
X14987381Y-16694190D02*
X15006429Y-16665619D01*
X15006429Y-16665619D02*
X15015953Y-16646571D01*
X15015953Y-16646571D02*
X15025477Y-16618000D01*
X15025477Y-16618000D02*
X15035000Y-16570381D01*
X15035000Y-16570381D02*
X15035000Y-16532286D01*
X15035000Y-16532286D02*
X15025477Y-16484667D01*
X15025477Y-16484667D02*
X15015953Y-16456095D01*
X15015953Y-16456095D02*
X15006429Y-16437048D01*
X15006429Y-16437048D02*
X14987381Y-16408476D01*
X14987381Y-16408476D02*
X14977858Y-16398952D01*
M02*
